# Blender 5.2.2 LTS
# www.blender.org
mtllib BrazoParte1.mtl
g Brazo_1_RoverModificado.003
v -2.691195 2.918509 -0.449987
v -2.549775 2.917901 -0.449987
v -2.893373 2.577251 -0.449987
v -2.892764 2.718672 -0.449987
v -2.549775 2.917901 0.495933
v -2.691195 2.918509 0.495933
v -2.892764 2.718672 0.495933
v -2.893373 2.577251 0.495933
v -2.893373 2.577251 0.354813
v -2.892764 2.718672 0.354813
v -2.691195 2.918509 0.354813
v -2.549775 2.917901 0.354813
v -2.549775 2.917901 -0.308867
v -2.691195 2.918509 -0.308867
v -2.892764 2.718672 -0.308867
v -2.893373 2.577251 -0.308867
v -0.147999 -0.155082 0.368572
v -0.147999 -0.155081 -0.322629
v -0.078126 -0.202206 0.368572
v -0.078126 -0.202206 -0.322629
v 0.004462 -0.219002 0.368572
v 0.004462 -0.219002 -0.322629
v 0.087192 -0.202918 0.368572
v 0.087192 -0.202918 -0.322629
v 0.157469 -0.156399 0.368572
v 0.157469 -0.156398 -0.322629
v 0.204593 -0.086526 0.368572
v 0.204593 -0.086526 -0.322629
v 0.221391 -0.003937 0.368572
v 0.221391 -0.003936 -0.322627
v 0.205306 0.078792 0.368572
v 0.205306 0.078792 -0.322627
v 0.158785 0.149069 0.368572
v 0.158785 0.149070 -0.322627
v 0.088913 0.196194 0.368572
v 0.088913 0.196194 -0.322627
v 0.006324 0.212991 0.368572
v 0.006324 0.212991 -0.322627
v -0.076405 0.196906 0.368572
v -0.076405 0.196906 -0.322627
v -0.146682 0.150387 0.368572
v -0.146682 0.150387 -0.322627
v -0.193806 0.080512 0.368572
v -0.193806 0.080512 -0.322627
v -0.210604 -0.002074 0.368572
v -0.210604 -0.002074 -0.322627
v -0.194519 -0.084804 0.368572
v -0.194519 -0.084804 -0.322629
v -2.657020 2.426800 0.562973
v -2.657020 2.426800 -0.517027
v -2.529970 2.373530 0.562973
v -2.529970 2.373530 -0.517027
v -2.402464 2.425703 0.562973
v -2.402464 2.425703 -0.517027
v -2.349195 2.552753 0.562973
v -2.349195 2.552753 -0.517027
v -2.401367 2.680258 0.562973
v -2.401367 2.680258 -0.517027
v -2.528417 2.733527 0.562973
v -2.528417 2.733527 -0.517027
v -2.655923 2.681355 0.562973
v -2.655923 2.681355 -0.517027
v -2.709192 2.554306 0.562973
v -2.709192 2.554306 -0.517027
v -2.657020 2.426800 -0.449987
v -2.657020 2.426800 -0.308867
v -2.657020 2.426800 0.354813
v -2.657020 2.426800 0.495933
v -2.529970 2.373530 -0.449987
v -2.529970 2.373530 -0.308867
v -2.529970 2.373530 0.354813
v -2.529970 2.373530 0.495933
v -2.402464 2.425703 -0.308867
v -2.402464 2.425703 -0.449987
v -2.402464 2.425703 0.354813
v -2.402464 2.425703 0.495933
v -2.349195 2.552753 -0.308867
v -2.349195 2.552753 -0.449987
v -2.349195 2.552753 0.354813
v -2.349195 2.552753 0.495933
v -2.401367 2.680258 -0.449987
v -2.401367 2.680258 -0.308867
v -2.401367 2.680258 0.354813
v -2.401367 2.680258 0.495933
v -2.528417 2.733527 -0.449987
v -2.528417 2.733527 -0.308867
v -2.528417 2.733527 0.354813
v -2.528417 2.733527 0.495933
v -2.655923 2.681355 -0.308867
v -2.655923 2.681355 -0.449987
v -2.655923 2.681355 0.495933
v -2.655923 2.681355 0.354813
v -2.709192 2.554306 -0.308867
v -2.709192 2.554306 -0.449987
v -2.709192 2.554306 0.495933
v -2.709192 2.554306 0.354813
v 0.369573 -0.026728 -0.449988
v 0.368964 -0.168149 -0.449988
v 0.398558 -0.097563 -0.449988
v 0.167395 -0.367985 -0.449988
v 0.025975 -0.367377 -0.449988
v 0.096559 -0.396970 -0.449988
v 0.368963 -0.168149 0.495931
v 0.369573 -0.026728 0.495931
v 0.398557 -0.097564 0.495931
v 0.025975 -0.367377 0.495931
v 0.167395 -0.367985 0.495931
v 0.096558 -0.396971 0.495931
v 0.369573 -0.026728 0.354811
v 0.368964 -0.168149 0.354811
v 0.398558 -0.097564 0.354811
v 0.167395 -0.367985 0.354811
v 0.025975 -0.367377 0.354811
v 0.096559 -0.396971 0.354811
v 0.025975 -0.367377 -0.308869
v 0.167395 -0.367985 -0.308869
v 0.096559 -0.396970 -0.308869
v 0.368964 -0.168149 -0.308869
v 0.369573 -0.026728 -0.308869
v 0.398558 -0.097563 -0.308869
v -2.327814 2.873767 0.344806
v -2.327814 2.873767 -0.296073
v -2.534181 2.856906 0.344806
v -2.534181 2.856906 -0.296073
v -2.776192 2.345602 0.344806
v -2.776192 2.345602 -0.296073
v -2.658406 2.175314 0.344806
v -2.658406 2.175314 -0.296073
v -2.471256 2.086732 0.344806
v -2.471256 2.086732 -0.296073
v -2.264889 2.103592 0.344806
v -2.264889 2.103592 -0.296073
v -2.094600 2.221378 0.344806
v -2.094600 2.221378 -0.296073
v -2.006018 2.408527 0.344806
v -2.006018 2.408527 -0.296073
v -2.022878 2.614895 0.344806
v -2.022878 2.614895 -0.296072
v -2.140664 2.785185 0.344806
v -2.140664 2.785185 -0.296072
v -2.317978 2.340485 0.344806
v -2.317978 2.340485 -0.296073
v -2.415584 2.275873 0.344806
v -2.415584 2.275873 -0.296073
v -2.252527 2.437531 0.344806
v -2.252527 2.437531 -0.296073
v -2.401367 2.680258 0.322973
v -2.402464 2.425703 0.322973
v -2.349195 2.552753 0.322973
v -2.528417 2.733527 0.322973
v -2.229196 2.552236 0.344806
v -2.229196 2.552236 -0.296073
v -2.657020 2.426800 0.322973
v -2.529970 2.373530 0.322973
v -2.655923 2.681355 0.322973
v -2.709192 2.554306 0.322973
v -2.530486 2.253532 0.344806
v -2.530486 2.253532 -0.296073
v -2.251537 2.667138 0.344806
v -2.251537 2.667138 -0.296073
v -2.645193 2.276864 -0.296072
v -2.645193 2.276864 0.344806
v -2.401367 2.680258 -0.277027
v -2.402464 2.425703 -0.277027
v -2.529970 2.373530 -0.277027
v -2.349195 2.552753 -0.277027
v -2.528417 2.733527 -0.277027
v -2.657020 2.426800 -0.277027
v -2.655923 2.681355 -0.277027
v -2.709192 2.554306 -0.277027
v -2.742238 2.342314 0.344806
v -2.742238 2.342314 -0.296072
v -2.316149 2.764745 0.344806
v -2.316149 2.764745 -0.296073
v -2.413194 2.830195 -0.296073
v -2.413194 2.830195 0.344806
v -2.527900 2.853526 0.344806
v -2.527900 2.853526 -0.296073
v -2.008995 2.402237 -0.296073
v -2.010770 2.398486 -0.296073
vn -0.0000 -0.0000 -1.0000
vn 0.8339 0.5520 -0.0000
vn 0.7101 0.7041 -0.0000
vn -0.7101 -0.7041 -0.0000
vn -0.5592 -0.8291 -0.0000
vn 0.5520 -0.8339 -0.0000
vn 0.8291 -0.5591 -0.0000
vn 0.8291 -0.5592 -0.0000
vn -0.7041 0.7102 -0.0000
vn -0.0000 -0.0000 1.0000
vn 0.0043 1.0000 -0.0000
vn -1.0000 0.0043 -0.0000
vn -0.7102 -0.7040 -0.0000
vn -0.3867 -0.9222 -0.0000
vn -0.0043 -1.0000 -0.0000
vn 0.3787 -0.9255 -0.0000
vn 0.7041 -0.7102 -0.0000
vn 0.7041 -0.7101 -0.0000
vn 0.9222 -0.3867 -0.0000
vn 1.0000 -0.0043 -0.0000
vn 0.9255 0.3787 -0.0000
vn 0.7102 0.7040 -0.0000
vn 0.3867 0.9222 -0.0000
vn -0.3787 0.9255 -0.0000
vn -0.7041 0.7101 -0.0000
vn -0.9222 0.3867 -0.0000
vn -0.9255 -0.3787 -0.0000
vn -0.8224 -0.5689 -0.0000
vn -0.6472 -0.7623 -0.0000
vn -0.1793 -0.9838 -0.0000
vn 0.0814 -0.9967 -0.0000
vn 0.9039 -0.4278 -0.0000
vn 0.9967 0.0814 -0.0000
vn 0.9416 0.3366 -0.0000
vn 0.8224 0.5689 -0.0000
vn 0.4278 0.9039 -0.0000
vn 0.1793 0.9838 -0.0000
vn -0.0814 0.9967 -0.0000
vn 0.0964 0.9953 -0.0000
vn -0.4739 -0.8806 -0.0000
vn 0.5689 -0.8224 -0.0000
vn 0.7623 -0.6472 -0.0000
vt 0.046828 0.461009
vt 0.046828 0.157667
vt 0.073616 0.164646
vt 0.083291 0.454278
vt 0.073442 0.164895
vt 0.083291 0.164895
vt 0.117058 0.164895
vt 0.126907 0.454278
vt 0.117058 0.454278
vt 0.083465 0.484522
vt 0.073616 0.464713
vt 0.083465 0.464713
vt 0.117232 0.454030
vt 0.127081 0.164646
vt 0.127081 0.454030
vt 0.083465 0.454030
vt 0.083465 0.164646
vt 0.127081 0.154776
vt 0.117232 0.134967
vt 0.127081 0.134967
vt 0.090269 0.461257
vt 0.083291 0.484771
vt 0.073442 0.464961
vt 0.083291 0.464961
vt 0.126907 0.125347
vt 0.117058 0.135216
vt 0.117058 0.125347
vt 0.117232 0.154777
vt 0.127081 0.125097
vt 0.117232 0.125097
vt 0.126907 0.155025
vt 0.126907 0.164895
vt 0.126907 0.135216
vt 0.087145 0.484830
vt 0.122878 0.480473
vt 0.122878 0.484830
vt 0.087145 0.480473
vt 0.122878 0.476116
vt 0.087145 0.476116
vt 0.122878 0.471759
vt 0.087145 0.471759
vt 0.122878 0.467402
vt 0.087145 0.467402
vt 0.122878 0.463045
vt 0.087145 0.532756
vt 0.122878 0.528399
vt 0.122878 0.532756
vt 0.087145 0.528399
vt 0.122878 0.524042
vt 0.087145 0.524042
vt 0.122878 0.519686
vt 0.087145 0.519685
vt 0.122878 0.515329
vt 0.087145 0.515329
vt 0.122878 0.510972
vt 0.087145 0.510972
vt 0.122878 0.506615
vt 0.087145 0.506615
vt 0.122878 0.502258
vt 0.087145 0.502258
vt 0.122878 0.497901
vt 0.087145 0.497901
vt 0.122878 0.493544
vt 0.087145 0.493544
vt 0.122878 0.489187
vt 0.087145 0.489187
vt 0.057061 0.038700
vt 0.068931 0.044477
vt 0.057061 0.044477
vt 0.103538 0.052377
vt 0.091668 0.049633
vt 0.103538 0.049633
vt 0.091931 0.038640
vt 0.103801 0.044417
vt 0.091931 0.044417
vt 0.068931 0.038700
vt 0.080801 0.044477
vt 0.072826 0.049802
vt 0.084696 0.052546
vt 0.072826 0.052546
vt 0.080061 0.044417
vt 0.080061 0.038640
vt 0.080801 0.038700
vt 0.092671 0.044477
vt 0.096566 0.049802
vt 0.084696 0.049802
vt 0.068191 0.044417
vt 0.068191 0.038640
vt 0.104541 0.038700
vt 0.092671 0.038700
vt 0.108436 0.049802
vt 0.096566 0.052546
vt 0.056321 0.044417
vt 0.056321 0.038640
vt 0.116411 0.038700
vt 0.104541 0.044477
vt 0.044451 0.044417
vt 0.044451 0.038640
vt 0.128281 0.044477
vt 0.116411 0.044477
vt 0.044188 0.052377
vt 0.032318 0.049633
vt 0.044188 0.049633
vt 0.032581 0.044417
vt 0.032581 0.038640
vt 0.084172 0.130312
vt 0.073261 0.103970
vt 0.099603 0.093058
vt 0.033321 0.038700
vt 0.045191 0.044477
vt 0.033321 0.044477
vt 0.127278 0.052377
vt 0.115408 0.049633
vt 0.127278 0.049633
vt 0.127541 0.038640
vt 0.115671 0.044417
vt 0.115671 0.038640
vt 0.045191 0.038700
vt 0.060956 0.052546
vt 0.049086 0.049802
vt 0.060956 0.049802
vt 0.103801 0.038640
vt 0.099740 0.129955
vt 0.073398 0.119043
vt 0.084309 0.092701
vt 0.073616 0.454030
vt 0.083465 0.459371
vt 0.073616 0.459371
vt 0.083291 0.495454
vt 0.073442 0.490112
vt 0.083291 0.490112
vt 0.073442 0.484771
vt 0.073616 0.495205
vt 0.083465 0.489863
vt 0.083465 0.495205
vt 0.073616 0.489864
vt 0.073442 0.454278
vt 0.083291 0.459620
vt 0.073442 0.459620
vt -0.002734 0.058292
vt 0.036350 0.070598
vt -0.002640 0.070889
vt -0.002546 0.083486
vt 0.036444 0.083195
vt -0.002452 0.096083
vt 0.036720 0.120310
vt 0.036725 0.120895
vt -0.002264 0.121276
vt 0.036599 0.134238
vt -0.002382 0.133870
vt -0.002501 0.146465
vt 0.036480 0.146832
vt -0.002620 0.159059
vt 0.089189 0.070066
vt 0.072594 0.086322
vt 0.067351 0.070066
vt 0.091668 0.052377
vt 0.079798 0.049633
vt 0.109182 0.142560
vt 0.090087 0.153675
vt 0.096666 0.145432
vt 0.115408 0.052377
vt 0.067928 0.052377
vt 0.079798 0.052377
vt 0.078837 0.043236
vt 0.093081 0.039944
vt 0.093081 0.043236
vt 0.056058 0.052377
vt 0.067928 0.049633
vt 0.056058 0.049633
vt 0.083158 0.079933
vt 0.095363 0.078072
vt 0.037216 0.052546
vt 0.049086 0.052546
vt 0.037519 0.099898
vt 0.064188 0.120461
vt 0.037519 0.121736
vt 0.070578 0.131025
vt 0.048438 0.140649
vt 0.080524 0.138340
vt 0.067351 0.151569
vt 0.092512 0.141291
vt 0.089189 0.151569
vt 0.104717 0.139431
vt 0.108102 0.140649
vt 0.062328 0.108256
vt 0.065280 0.096268
vt 0.048438 0.080985
vt 0.107348 0.081034
vt 0.062737 0.113373
vt 0.065606 0.125928
vt 0.037181 0.098770
vt 0.064948 0.100694
vt 0.048982 0.079302
vt 0.071843 0.089826
vt 0.068937 0.068343
vt 0.091698 0.068830
vt 0.082372 0.082424
vt 0.094932 0.079615
vt 0.107611 0.081826
vt 0.083968 0.143279
vt 0.067309 0.153294
vt 0.047773 0.141575
vt 0.073061 0.136430
vt 0.036718 0.121644
vt 0.036242 0.172021
vt -0.002739 0.171653
vt 0.036240 0.055926
vt 0.036256 0.058001
vt 0.036232 0.172701
vt 0.111166 0.080631
vt 0.036538 0.095792
vt -0.002358 0.108680
vt 0.071572 0.458965
vt 0.066637 0.461009
vt 0.041893 0.458965
vt 0.039849 0.454030
vt 0.039849 0.164646
vt 0.066637 0.157667
vt 0.073616 0.484522
vt 0.117232 0.164646
vt 0.090270 0.157916
vt 0.110079 0.157916
vt 0.115013 0.459213
vt 0.110079 0.461257
vt 0.085335 0.459213
vt 0.117058 0.155025
vt 0.087145 0.463046
vt 0.108436 0.052546
vt 0.128281 0.038700
vt 0.032318 0.052377
vt 0.110514 0.103970
vt 0.110514 0.119401
vt 0.099603 0.130312
vt 0.073261 0.119401
vt 0.084172 0.093058
vt 0.127541 0.044417
vt 0.099740 0.092701
vt 0.110652 0.103612
vt 0.110652 0.119043
vt 0.084309 0.129955
vt 0.073398 0.103612
vt 0.073442 0.495454
vt 0.036632 0.108389
vt 0.036361 0.159427
vt 0.110004 0.142616
vt 0.078837 0.039944
vt 0.037216 0.049802
vt 0.108102 0.080985
vt -0.002750 0.056217
vt -0.002750 0.172333
vt 0.945445 0.148636
vt 0.879277 0.880651
vt 0.862039 0.863413
vt 0.759513 0.880651
vt 0.759513 0.131398
vt 0.825680 0.148636
vt 0.862040 0.148636
vt 0.879278 0.131398
vt 0.928207 0.131398
vt 0.945444 0.863413
vt 0.940395 0.875602
vt 0.928206 0.880651
vt 0.867088 0.875602
vt 0.825680 0.863413
vt 0.820631 0.875602
vt 0.808442 0.880651
vt 0.747324 0.875602
vt 0.742275 0.863413
vt 0.742275 0.148636
vt 0.808442 0.131398
s 1
g off
g Brazo_1_SpacialRoverExploreralumWhite
usemtl SpacialRoverExploreralumWhite
f 112/1/1 10/2/1 12/3/1
s 2
f 119/4/2 2/5/3 13/6/3
s 3
f 16/7/4 101/8/5 115/9/5
s 4
f 107/10/6 110/11/7 103/12/8
s 5
f 106/13/5 9/14/4 113/15/5
s 6
f 104/16/2 12/3/3 5/17/3
s 7
f 10/18/9 6/19/9 11/20/9
s 8
f 16/7/10 118/21/10 119/4/10
s 9
f 116/22/6 98/23/7 118/24/8
s 10
f 2/25/11 14/26/11 13/27/11
s 11
f 9/14/12 7/28/12 10/18/12
s 12
f 12/29/11 6/19/11 5/30/11
s 13
f 16/7/12 4/31/12 3/32/12
s 14
f 4/31/9 14/26/9 1/33/9
s 15
f 18/34/13 19/35/14 17/36/13
f 20/37/14 21/38/15 19/35/14
f 22/39/15 23/40/16 21/38/15
f 24/41/16 25/42/17 23/40/16
f 26/43/18 27/44/19 25/42/17
f 28/45/19 29/46/20 27/47/19
f 30/48/20 31/49/21 29/46/20
f 32/50/21 33/51/22 31/49/21
f 34/52/22 35/53/23 33/51/22
f 36/54/23 37/55/11 35/53/23
f 38/56/11 39/57/24 37/55/11
f 40/58/24 41/59/25 39/57/24
f 42/60/25 43/61/26 41/59/25
f 44/62/26 45/63/12 43/61/26
f 46/64/12 47/65/27 45/63/12
f 48/66/27 17/36/13 47/65/27
s 16
f 50/67/14 69/68/14 65/69/14
s 17
f 153/70/14 71/71/14 67/72/14
s 18
f 51/73/14 68/74/14 72/75/14
s 19
f 52/76/16 74/77/16 69/68/16
s 20
f 70/78/16 164/79/16 165/80/16
s 21
f 51/73/16 76/81/16 53/82/16
s 22
f 54/83/19 78/84/19 74/77/19
s 23
f 77/85/19 164/79/19 73/86/19
s 24
f 53/82/19 80/87/19 55/88/19
s 25
f 58/89/21 78/84/21 56/90/21
s 26
f 82/91/21 166/92/21 77/85/21
s 27
f 55/88/21 84/93/21 57/94/21
s 28
f 60/95/23 81/96/23 58/89/23
s 29
f 57/94/23 88/97/23 59/98/23
s 30
f 60/95/24 90/99/24 85/100/24
s 31
f 150/101/24 92/102/24 87/103/24
s 32
f 59/98/24 91/104/24 61/105/24
s 33
f 52/106/1 64/107/1 60/108/1
s 34
f 62/109/26 94/110/26 90/111/26
s 35
f 155/112/26 96/113/26 92/114/26
s 36
f 61/115/26 95/116/26 63/117/26
s 37
f 64/118/27 65/69/27 94/110/27
s 38
f 168/119/27 93/120/27 66/121/27
s 39
f 49/122/27 95/116/27 68/74/27
s 40
f 53/123/10 57/124/10 61/125/10
s 6
f 109/126/2 105/127/21 111/128/21
s 4
f 111/128/19 103/12/8 110/11/7
s 3
f 115/129/5 102/130/14 117/131/14
s 9
f 117/131/16 100/132/6 116/22/6
s 5
f 113/133/5 108/134/14 106/135/5
s 4
f 114/136/16 107/10/6 108/134/16
s 2
f 97/137/2 120/138/21 99/139/21
s 9
f 99/139/19 118/24/8 98/23/7
s 41
f 125/140/28 128/141/29 127/142/29
f 128/141/29 129/143/30 127/142/29
f 130/144/30 131/145/31 129/143/30
s 42
f 180/146/32 179/147/32 135/148/32
s 43
f 135/148/33 138/149/34 137/150/34
f 138/149/34 139/151/35 137/150/34
s 44
f 140/152/36 121/153/37 139/151/36
s 45
f 121/154/10 159/155/10 139/156/10
s 46
f 154/157/16 75/158/16 71/71/16
s 47
f 178/159/1 122/160/1 175/161/1
s 48
f 153/70/27 96/113/27 156/162/27
s 49
f 149/163/19 75/158/19 148/164/19
s 50
f 167/165/24 89/166/24 169/167/24
s 51
f 147/168/21 79/169/21 149/163/21
s 52
f 168/119/14 70/78/14 165/80/14
s 53
f 150/101/23 83/170/23 147/168/23
s 45
f 173/171/10 121/154/10 176/172/10
s 54
f 169/173/26 93/120/26 170/174/26
s 45
f 135/175/10 141/176/10 133/177/10
f 133/177/10 143/178/10 131/179/10
f 131/179/10 157/180/10 129/181/10
f 129/181/10 162/182/10 127/183/10
s 55
f 127/183/10 171/184/10 125/185/10
s 45
f 171/184/10 127/183/10 162/182/10
f 162/182/10 129/181/10 157/180/10
f 157/180/10 131/179/10 143/178/10
f 143/178/10 133/177/10 141/176/10
f 141/176/10 135/175/10 145/186/10
f 139/156/10 159/155/10 151/187/10
f 151/187/10 145/186/10 137/188/10
f 145/186/10 135/175/10 137/188/10
f 137/188/10 139/156/10 151/187/10
f 159/155/10 121/154/10 173/171/10
f 121/154/10 177/189/10 176/172/10
s 47
f 179/147/1 146/190/1 152/191/1
f 146/190/1 134/192/1 142/193/1
f 142/193/1 132/194/1 144/195/1
f 144/195/1 132/194/1 130/196/1
f 130/196/1 128/197/1 158/198/1
f 158/198/1 128/197/1 161/199/1
f 161/199/1 128/197/1 172/200/1
f 158/198/1 144/195/1 130/196/1
f 132/194/1 142/193/1 134/192/1
f 134/192/1 146/190/1 180/146/1
f 175/161/1 122/160/1 174/201/1
f 174/201/1 122/160/1 140/202/1
f 140/202/1 138/203/1 160/204/1
f 136/205/1 152/191/1 138/203/1
f 152/191/1 160/204/1 138/203/1
f 160/204/1 174/201/1 140/202/1
s 44
f 121/153/37 124/206/38 123/207/38
s 56
f 125/140/39 172/208/39 126/209/39
s 57
f 178/210/40 123/207/40 124/206/40
s 47
f 172/200/1 128/197/1 126/211/1
s 42
f 132/212/41 133/213/42 131/145/41
s 1
f 12/3/1 109/126/1 111/214/1
f 111/214/1 110/215/1 112/1/1
f 112/1/1 114/216/1 113/217/1
f 113/217/1 9/218/1 10/2/1
f 10/2/1 11/219/1 12/3/1
f 12/3/1 111/214/1 112/1/1
f 112/1/1 113/217/1 10/2/1
s 2
f 119/4/2 97/137/2 2/5/3
s 3
f 16/7/4 3/32/4 101/8/5
s 4
f 107/10/6 112/220/6 110/11/7
s 5
f 106/13/5 8/221/4 9/14/4
s 6
f 104/16/2 109/126/2 12/3/3
s 7
f 10/18/9 7/28/9 6/19/9
s 8
f 119/4/10 13/6/10 14/222/10
f 14/222/10 15/223/10 16/7/10
f 16/7/10 115/9/10 117/224/10
f 117/224/10 116/225/10 118/21/10
f 118/21/10 120/226/10 119/4/10
f 119/4/10 14/222/10 16/7/10
f 16/7/10 117/224/10 118/21/10
s 9
f 116/22/6 100/132/6 98/23/7
s 10
f 2/25/11 1/33/11 14/26/11
s 11
f 9/14/12 8/221/12 7/28/12
s 12
f 12/29/11 11/20/11 6/19/11
s 13
f 16/7/12 15/227/12 4/31/12
s 14
f 4/31/9 15/227/9 14/26/9
s 15
f 18/34/13 20/37/14 19/35/14
f 20/37/14 22/39/15 21/38/15
f 22/39/15 24/41/16 23/40/16
f 24/41/16 26/43/18 25/42/17
f 26/43/18 28/228/19 27/44/19
f 28/45/19 30/48/20 29/46/20
f 30/48/20 32/50/21 31/49/21
f 32/50/21 34/52/22 33/51/22
f 34/52/22 36/54/23 35/53/23
f 36/54/23 38/56/11 37/55/11
f 38/56/11 40/58/24 39/57/24
f 40/58/24 42/60/25 41/59/25
f 42/60/25 44/62/26 43/61/26
f 44/62/26 46/64/12 45/63/12
f 46/64/12 48/66/27 47/65/27
f 48/66/27 18/34/13 17/36/13
s 16
f 50/67/14 52/76/14 69/68/14
s 17
f 153/70/14 154/157/14 71/71/14
s 18
f 51/73/14 49/122/14 68/74/14
s 19
f 52/76/16 54/83/16 74/77/16
s 20
f 70/78/16 73/86/16 164/79/16
s 58
f 51/73/16 72/75/16 76/81/16
s 22
f 54/83/19 56/90/19 78/84/19
s 59
f 77/85/19 166/92/19 164/79/19
s 60
f 53/82/19 76/81/19 80/87/19
s 61
f 58/89/21 81/96/21 78/84/21
s 62
f 82/91/21 163/229/21 166/92/21
s 63
f 55/88/21 80/87/21 84/93/21
s 64
f 60/95/23 85/100/23 81/96/23
s 65
f 57/94/23 84/93/23 88/97/23
s 30
f 60/95/24 62/230/24 90/99/24
s 31
f 150/101/24 155/231/24 92/102/24
s 66
f 59/98/24 88/97/24 91/104/24
s 33
f 60/108/1 58/232/1 56/233/1
f 56/233/1 54/234/1 52/106/1
f 52/106/1 50/235/1 64/107/1
f 64/107/1 62/236/1 60/108/1
f 60/108/1 56/233/1 52/106/1
s 34
f 62/109/26 64/118/26 94/110/26
s 35
f 155/112/26 156/162/26 96/113/26
s 67
f 61/115/26 91/237/26 95/116/26
s 37
f 64/118/27 50/67/27 65/69/27
s 38
f 168/119/27 170/174/27 93/120/27
s 39
f 49/122/27 63/117/27 95/116/27
s 40
f 61/125/10 63/238/10 49/239/10
f 49/239/10 51/240/10 53/123/10
f 53/123/10 55/241/10 57/124/10
f 57/124/10 59/242/10 61/125/10
f 61/125/10 49/239/10 53/123/10
s 6
f 109/126/2 104/16/2 105/127/21
s 4
f 111/128/19 105/127/19 103/12/8
s 3
f 115/129/5 101/243/5 102/130/14
s 9
f 117/131/16 102/130/16 100/132/6
s 5
f 113/133/5 114/136/14 108/134/14
s 4
f 114/136/16 112/220/6 107/10/6
s 2
f 97/137/2 119/4/2 120/138/21
s 9
f 99/139/19 120/138/19 118/24/8
s 41
f 125/140/28 126/209/28 128/141/29
f 128/141/29 130/144/30 129/143/30
f 130/144/30 132/212/31 131/145/31
s 42
f 135/148/32 133/213/42 134/244/42
f 135/148/32 134/244/42 180/146/32
f 179/147/32 136/205/32 135/148/32
s 43
f 135/148/33 136/205/33 138/149/34
f 138/149/34 140/152/35 139/151/35
s 44
f 140/152/36 122/245/37 121/153/37
s 46
f 154/157/16 148/164/16 75/158/16
s 68
f 178/159/1 124/246/1 122/160/1
s 69
f 153/70/27 67/72/27 96/113/27
s 70
f 149/163/19 79/169/19 75/158/19
s 71
f 167/165/24 86/247/24 89/166/24
s 72
f 147/168/21 83/170/21 79/169/21
s 73
f 168/119/14 66/121/14 70/78/14
s 74
f 150/101/23 87/103/23 83/170/23
s 75
f 169/173/26 89/248/26 93/120/26
s 45
f 121/154/10 123/249/10 177/189/10
s 47
f 179/147/1 180/146/1 146/190/1
f 136/205/1 179/147/1 152/191/1
s 44
f 121/153/37 122/245/37 124/206/38
s 76
f 125/140/39 171/250/39 172/208/39
s 57
f 178/210/40 177/251/40 123/207/40
s 42
f 132/212/41 134/244/42 133/213/42
s 77
g Brazo_1_SpacialRoverExploreralumArm
usemtl SpacialRoverExploreralumArm
f 8/252/10 103/253/10 104/254/10
s 78
f 100/255/1 4/256/1 2/257/1
s 77
f 104/254/10 5/258/10 6/259/10
f 6/259/10 7/260/10 8/252/10
f 8/252/10 106/261/10 108/262/10
f 108/262/10 107/263/10 103/253/10
f 103/253/10 105/264/10 104/254/10
f 104/254/10 6/259/10 8/252/10
f 8/252/10 108/262/10 103/253/10
s 78
f 2/257/1 97/265/1 99/266/1
f 99/266/1 98/267/1 100/255/1
f 100/255/1 102/268/1 101/269/1
f 101/269/1 3/270/1 4/256/1
f 4/256/1 1/271/1 2/257/1
f 2/257/1 99/266/1 100/255/1
f 100/255/1 101/269/1 4/256/1
