# Blender 5.2.2 LTS
# www.blender.org
mtllib BrazoParte2.mtl
g Brazo_2_RoverModificado.004
v 3.205051 2.720794 0.173240
v 3.137964 2.789647 0.165575
v 3.140076 2.785592 0.110670
v 3.188519 2.735404 0.102490
v 3.230640 2.690840 0.068247
v 3.260022 2.658685 0.013153
v 3.272194 2.643834 -0.054403
v 3.265303 2.648547 -0.124138
v 3.240396 2.672108 -0.185434
v 3.201269 2.710930 -0.228960
v 3.153875 2.759102 -0.248088
v 3.105431 2.809290 -0.239908
v 3.063312 2.853854 -0.205666
v 3.033929 2.886009 -0.150571
v 3.021757 2.900860 -0.083015
v 3.028649 2.896146 -0.013280
v 3.053554 2.872586 0.048016
v 3.092683 2.833763 0.091542
v 3.261924 2.662424 0.179737
v 3.305240 2.613219 0.045897
v 3.322281 2.592427 -0.048681
v 3.312634 2.599027 -0.146309
v 3.279947 2.627826 -0.288832
v 3.223073 2.686196 -0.295330
v 3.155987 2.755047 -0.302994
v 3.088901 2.823899 -0.310659
v 3.032027 2.882269 -0.317155
v 2.988711 2.931473 -0.183316
v 2.971669 2.952265 -0.088738
v 2.981318 2.945666 0.008892
v 3.014005 2.916867 0.151414
v 3.070878 2.858498 0.157912
v 3.236382 3.132722 0.144029
v 3.293257 3.074352 0.150526
v 3.360343 3.005501 0.158191
v 3.203696 3.161520 0.001507
v 3.194048 3.168120 -0.096122
v 3.211089 3.147329 -0.190702
v 3.254405 3.098124 -0.324542
v 3.311279 3.039754 -0.318043
v 3.378366 2.970902 -0.310380
v 3.445452 2.902050 -0.302714
v 3.502326 2.843681 -0.296218
v 3.535012 2.814882 -0.153694
v 3.544660 2.808282 -0.056067
v 3.527619 2.829074 0.038513
v 3.484303 2.878279 0.172353
v 3.427430 2.936649 0.165854
v 3.474625 2.886279 0.100048
v 3.252015 3.114747 0.074615
v 3.471865 2.891577 0.171800
v 3.249255 3.120046 0.146368
v 3.489957 2.856845 -0.298574
v 3.267347 3.085314 -0.324005
v 3.487197 2.862144 -0.226821
v 3.264587 3.090612 -0.252254
v 3.734429 3.146439 0.163080
v 3.736902 3.307180 0.151307
v 3.769021 3.226392 0.158506
v 3.672873 3.372895 0.143991
v 3.511820 3.374907 0.137648
v 3.592859 3.407191 0.138381
v 3.739662 3.301882 0.079555
v 3.737190 3.141140 0.091329
v 3.771780 3.221093 0.086756
v 3.514579 3.369609 0.065896
v 3.675632 3.367596 0.072240
v 3.595618 3.401893 0.066629
v 3.749762 3.117005 -0.235540
v 3.752234 3.277746 -0.247314
v 3.784353 3.196959 -0.240114
v 3.688205 3.343460 -0.254629
v 3.527152 3.345474 -0.260973
v 3.608191 3.377757 -0.260240
v 3.754993 3.272449 -0.319067
v 3.752522 3.111707 -0.307292
v 3.787113 3.191661 -0.311865
v 3.529912 3.340175 -0.332725
v 3.690965 3.338163 -0.326381
v 3.610950 3.372460 -0.331991
v 0.141068 0.220946 0.277971
v 0.146478 0.210563 0.137337
v 0.477654 -0.124498 0.316424
v 0.483064 -0.134882 0.175791
v 0.493171 -0.154285 -0.086981
v 0.498580 -0.164668 -0.227614
v 0.156585 0.191160 -0.125434
v 0.161994 0.180776 -0.266067
v 0.404374 0.140449 0.294042
v 0.467858 0.042581 0.303710
v 0.308128 0.206515 0.285461
v 0.488913 -0.072188 0.312994
v 0.193771 0.230721 0.279277
v 0.409783 0.130065 0.153408
v 0.473267 0.032197 0.163076
v 0.313537 0.196132 0.144829
v 0.494322 -0.082572 0.172361
v 0.199180 0.220337 0.138643
v 0.419889 0.110662 -0.109363
v 0.483374 0.012795 -0.099694
v 0.323644 0.176728 -0.117943
v 0.504429 -0.101976 -0.090410
v 0.209287 0.200934 -0.124129
v 0.425299 0.100278 -0.249995
v 0.488783 0.002411 -0.240328
v 0.329052 0.166345 -0.258576
v 0.214695 0.190550 -0.264762
v 0.509838 -0.112359 -0.231044
v -0.020566 0.147736 0.304293
v 0.002433 0.103588 -0.293638
v -0.087034 0.051493 0.308842
v -0.064036 0.007344 -0.289089
v -0.111612 -0.062706 0.316331
v -0.088614 -0.106856 -0.281602
v -0.090556 -0.177476 0.325614
v -0.067558 -0.221626 -0.272317
v -0.027073 -0.275344 0.335283
v -0.004076 -0.319494 -0.262649
v 0.069174 -0.341409 0.343862
v 0.092172 -0.385560 -0.254069
v 0.183530 -0.365616 0.350048
v 0.206529 -0.409766 -0.247883
v 0.298588 -0.344278 0.352898
v 0.321586 -0.388428 -0.245033
v 0.396830 -0.280642 0.351978
v 0.419827 -0.324792 -0.245953
v 0.463299 -0.184399 0.347429
v 0.486297 -0.228549 -0.250503
v 0.487875 -0.070199 0.339941
v 0.510875 -0.114349 -0.257990
v 0.466821 0.044572 0.330657
v 0.489820 0.000420 -0.267275
v 0.403337 0.142439 0.320988
v 0.426336 0.098288 -0.276943
v 0.307091 0.208505 0.312408
v 0.330090 0.164354 -0.285523
v 0.192734 0.232711 0.306223
v 0.215733 0.188560 -0.291709
v 0.077677 0.211371 0.303373
v 0.100675 0.167222 -0.294559
v 2.382416 2.351689 -0.199352
v 2.387825 2.341304 -0.339985
v 2.366899 2.381475 0.204053
v 2.372308 2.371091 0.063418
v 2.703486 2.036031 0.242505
v 2.708895 2.025646 0.101872
v 2.719002 2.006244 -0.160898
v 2.724411 1.995858 -0.301532
v 3.305066 2.945740 0.105191
v 3.353510 2.895552 0.097011
v 3.395629 2.850988 0.062767
v 3.425011 2.818832 0.007674
v 3.437183 2.803981 -0.059883
v 3.430291 2.808694 -0.129617
v 3.405385 2.832256 -0.190913
v 3.366258 2.871078 -0.234438
v 3.318865 2.919250 -0.253567
v 3.270420 2.969438 -0.245389
v 3.228301 3.014002 -0.211145
v 3.198919 3.046157 -0.156050
v 3.186747 3.061008 -0.088494
v 3.193639 3.056295 -0.018759
v 3.218544 3.032733 0.042537
v 3.257672 2.993911 0.086061
v 2.979053 2.532081 0.109446
v 2.930609 2.582269 0.117627
v 3.021172 2.487517 0.075202
v 3.050555 2.455362 0.020110
v 3.062727 2.440510 -0.047447
v 3.055835 2.445224 -0.117181
v 3.030930 2.468787 -0.178477
v 2.991801 2.507607 -0.222004
v 2.944408 2.555779 -0.241132
v 2.895963 2.605967 -0.232952
v 2.853844 2.650531 -0.198709
v 2.824462 2.682686 -0.143615
v 2.812289 2.697538 -0.076058
v 2.819181 2.692823 -0.006324
v 2.844086 2.669262 0.054972
v 2.883215 2.630441 0.098497
v 2.931623 2.589236 0.171338
v 2.794896 2.456522 0.175878
v 2.857874 2.391277 0.165244
v 2.912629 2.333343 0.120727
v 2.950826 2.291542 0.049106
v 2.966650 2.272235 -0.038717
v 2.957691 2.278362 -0.129373
v 2.925313 2.308992 -0.209057
v 2.874447 2.359460 -0.265640
v 2.812835 2.422083 -0.290508
v 2.749858 2.487328 -0.279874
v 2.695102 2.545262 -0.235357
v 2.656905 2.587063 -0.163735
v 2.641082 2.606370 -0.075913
v 2.650041 2.600242 0.014743
v 2.682418 2.569613 0.094428
v 2.733284 2.519144 0.151010
v 2.994601 2.523992 0.160704
v 3.049356 2.466059 0.116187
v 3.087553 2.424257 0.044566
v 3.103377 2.404950 -0.043258
v 3.094418 2.411079 -0.133914
v 3.062041 2.441708 -0.213597
v 3.011174 2.492176 -0.270181
v 2.949562 2.554799 -0.295048
v 2.886585 2.620044 -0.284414
v 2.831829 2.677977 -0.239898
v 2.793632 2.719778 -0.168276
v 2.777808 2.739085 -0.080453
v 2.786767 2.732957 0.010202
v 2.819145 2.702328 0.089887
v 2.870012 2.651859 0.146470
v 2.429520 2.317560 0.238314
v 2.330921 2.413616 0.076909
v 2.357419 2.390053 0.186102
v 2.748316 1.985237 0.124596
v 2.638218 2.103369 0.262156
v 2.713687 2.024410 0.226804
v 2.342421 2.391540 -0.222056
v 2.452519 2.273408 -0.359617
v 2.377049 2.352369 -0.324265
v 2.661216 2.059218 -0.335775
v 2.759815 1.963162 -0.174370
v 2.733318 1.986724 -0.283562
v 2.589168 2.664285 0.068334
v 2.687767 2.568229 0.229738
v 2.615666 2.640723 0.177525
v 2.896464 2.354040 0.253580
v 3.006562 2.235907 0.116019
v 2.971934 2.275079 0.218227
v 2.710765 2.524078 -0.368194
v 2.600667 2.642210 -0.230631
v 2.635296 2.603038 -0.332841
v 3.018061 2.213831 -0.182946
v 2.919462 2.309888 -0.344350
v 2.991564 2.237394 -0.292139
vn -0.6957 0.7140 -0.0795
vn 0.7174 0.6963 -0.0238
vn 0.7173 0.6963 -0.0238
vn 0.0383 -0.0736 -0.9966
vn 0.6957 -0.7140 0.0795
vn -0.0383 0.0736 0.9966
vn 0.3965 0.9165 -0.0524
vn -0.3682 0.9261 -0.0825
vn 0.9172 -0.3931 0.0643
vn 0.9172 -0.3932 0.0643
vn 0.9290 0.3701 0.0084
vn -0.3682 0.9261 -0.0826
vn -0.4936 0.4838 -0.7227
vn -0.7100 0.3424 0.6154
vn -0.5446 0.5817 0.6041
vn -0.6589 0.2444 -0.7114
vn -0.7711 0.0583 0.6341
vn -0.7201 -0.0397 -0.6928
vn -0.7187 -0.2272 0.6571
vn -0.6677 -0.3251 -0.6697
vn -0.5608 -0.4706 0.6812
vn -0.5098 -0.5686 -0.6456
vn -0.3214 -0.6349 0.7025
vn -0.2704 -0.7329 -0.6243
vn -0.0370 -0.6951 0.7179
vn 0.0141 -0.7931 -0.6089
vn 0.2492 -0.6421 0.7250
vn 0.3003 -0.7400 -0.6018
vn 0.4936 -0.4838 0.7227
vn 0.5446 -0.5818 -0.6041
vn 0.6589 -0.2444 0.7114
vn 0.7099 -0.3424 -0.6154
vn 0.7200 0.0397 0.6928
vn 0.7711 -0.0583 -0.6341
vn 0.6677 0.3251 0.6697
vn 0.7187 0.2272 -0.6572
vn 0.5098 0.5686 0.6456
vn 0.5608 0.4706 -0.6812
vn 0.2704 0.7329 0.6243
vn 0.3214 0.6349 -0.7025
vn -0.0141 0.7931 0.6089
vn 0.0370 0.6951 -0.7179
vn -0.3003 0.7400 0.6018
vn -0.2492 0.6420 -0.7250
vn -0.7173 -0.6963 0.0238
vn -0.7174 -0.6963 0.0238
vn 0.6748 -0.6859 0.2724
vn -0.6613 0.6912 0.2913
vn -0.6332 0.6373 -0.4392
vn 0.6898 -0.7146 -0.1165
vn -0.6748 0.6859 -0.2724
vn 0.6613 -0.6912 -0.2913
vn 0.6332 -0.6373 0.4392
vn -0.6898 0.7146 0.1165
vn 0.7937 0.0323 0.6075
vn 0.0346 0.7717 -0.6350
vn 0.0260 -0.9754 0.2191
vn 0.9923 -0.0697 -0.1028
vn 0.9811 -0.0483 0.1874
vn -0.5508 -0.4135 -0.7251
vn 0.6069 0.3058 -0.7336
vn -0.3482 -0.6213 -0.7019
vn 0.4043 0.5136 -0.7568
vn 0.0491 0.8712 0.4885
vn 0.3482 0.6213 0.7019
vn -0.4044 -0.5136 0.7568
vn 0.5508 0.4134 0.7251
vn -0.0372 0.9968 0.0710
vn -0.9811 0.0483 -0.1874
vn -0.9923 0.0697 0.1028
vn -0.0096 0.8567 0.5157
vn -0.6379 0.6427 -0.4243
vn -0.6648 0.6943 0.2755
vn -0.6648 0.6944 0.2755
vn 0.8379 -0.0527 -0.5432
vn 0.6379 -0.6427 0.4243
vn 0.6648 -0.6943 -0.2755
vn 0.5376 0.5908 0.6017
vn 0.6628 0.3333 0.6705
vn 0.7051 0.4172 0.5734
vn 0.3737 0.7573 0.5355
vn 0.1212 0.8838 0.4519
vn 0.2782 0.7280 0.6266
vn 0.8318 0.1545 0.5331
vn 0.8508 0.2631 0.4550
vn 0.4684 0.5347 0.7033
vn 0.9497 0.0255 0.3120
vn 0.9524 0.1519 0.2645
vn 0.9945 0.1005 0.0308
vn 0.9986 -0.0341 0.0409
vn 0.9709 -0.0152 -0.2389
vn 0.9706 0.1168 -0.2103
vn 0.8710 0.0793 -0.4849
vn 0.8845 0.1983 -0.4223
vn 0.7140 0.2351 -0.6595
vn 0.7492 0.3326 -0.5728
vn -0.3016 0.3412 0.8903
vn -0.5190 0.5569 0.6485
vn 0.1522 0.9731 0.1730
vn -0.6574 0.6878 0.3079
vn 0.1705 0.9380 -0.3018
vn -0.6280 0.6315 -0.4548
vn -0.4648 0.4528 -0.7609
vn 0.4178 0.6727 -0.6107
vn -0.2308 0.2052 -0.9511
vn 0.5853 0.4991 -0.6390
vn 0.3016 -0.3412 -0.8903
vn 0.5190 -0.5569 -0.6485
vn 0.6574 -0.6878 -0.3079
vn 0.6280 -0.6315 0.4548
vn 0.4648 -0.4528 0.7609
vn 0.2308 -0.2052 0.9511
vn 0.5238 0.4284 -0.7363
vn 0.3294 0.6298 -0.7034
vn 0.1604 0.8086 -0.5660
vn 0.0425 0.9377 -0.3450
vn -0.0064 0.9972 -0.0739
vn 0.0213 0.9783 0.2059
vn 0.2384 0.8916 0.3850
vn 0.1284 0.9894 -0.0681
vn 0.2721 0.8268 -0.4923
vn -0.0260 0.9754 -0.2191
vn -0.8130 -0.0873 -0.5757
vn 0.0913 0.7904 -0.6057
vn -0.0492 -0.8712 -0.4884
vn 0.8551 0.0065 -0.5185
vn -0.8551 -0.0065 0.5185
vn -0.0913 -0.7904 0.6057
vn 0.8130 0.0873 0.5757
vn -0.6069 -0.3058 0.7336
vn 0.0372 -0.9968 -0.0710
vt 0.355705 0.237792
vt 0.295105 0.328071
vt 0.280266 0.313231
vt 0.391665 0.201832
vt 0.425475 0.197701
vt 0.406504 0.216672
vt 0.458262 0.161182
vt 0.518862 0.070903
vt 0.533701 0.085743
vt 0.422302 0.197142
vt 0.388492 0.201273
vt 0.407462 0.182302
vt 0.557949 0.107683
vt 0.547523 0.053769
vt 0.583119 0.018173
vt 0.291933 0.327512
vt 0.352532 0.237233
vt 0.367372 0.252072
vt 0.557949 0.106662
vt 0.547523 0.052747
vt 0.583119 0.017152
vt 0.546801 0.055378
vt 0.582397 0.019782
vt 0.696705 0.119718
vt 0.546801 0.051138
vt 0.582397 0.015542
vt 0.696705 0.115478
vt 0.373685 0.219812
vt 0.388525 0.234652
vt 0.461435 0.161741
vt 0.428615 0.164882
vt 0.446595 0.146902
vt 0.443455 0.179721
vt 0.410635 0.182862
vt 0.440282 0.179162
vt 0.425442 0.164322
vt 0.385352 0.234092
vt 0.370512 0.219253
vt 0.403332 0.216113
vt 0.522034 0.071463
vt 0.370545 0.252632
vt 0.443422 0.146343
vt 0.697427 0.018173
vt 0.697427 0.118109
vt 0.583119 0.118109
vt 0.547523 0.082513
vt 0.557949 0.028599
vt 0.277093 0.312672
vt 0.697427 0.017152
vt 0.697427 0.117087
vt 0.583119 0.117087
vt 0.547523 0.081492
vt 0.557949 0.027577
vt 0.582397 0.119718
vt 0.557227 0.109292
vt 0.546801 0.084122
vt 0.557227 0.030208
vt 0.696705 0.019782
vt 0.582397 0.115478
vt 0.557227 0.105052
vt 0.546801 0.079883
vt 0.557227 0.025968
vt 0.696705 0.015542
vt 0.536874 0.086302
vt 0.607413 0.036614
vt 0.603145 0.014733
vt 0.607413 0.014733
vt 0.603145 0.036614
vt 0.598876 0.014733
vt 0.598876 0.036614
vt 0.594607 0.014733
vt 0.594607 0.036614
vt 0.590339 0.014733
vt 0.590339 0.036614
vt 0.586070 0.014733
vt 0.586070 0.036614
vt 0.581802 0.014733
vt 0.581802 0.036614
vt 0.577533 0.014733
vt 0.577533 0.036614
vt 0.573264 0.014733
vt 0.573264 0.036614
vt 0.568996 0.014733
vt 0.637294 0.036614
vt 0.633025 0.014733
vt 0.637294 0.014733
vt 0.633025 0.036614
vt 0.628757 0.014733
vt 0.628757 0.036614
vt 0.624488 0.014733
vt 0.624488 0.036614
vt 0.620219 0.014733
vt 0.620219 0.036614
vt 0.615951 0.014733
vt 0.615951 0.036614
vt 0.611682 0.014733
vt 0.611682 0.036614
vt 0.568996 0.036614
vt 0.414083 0.020191
vt 0.394006 0.009194
vt 0.414083 0.005200
vt 0.440583 0.031167
vt 0.463030 0.037589
vt 0.448707 0.043325
vt 0.440583 0.084166
vt 0.463030 0.077745
vt 0.463030 0.094766
vt 0.414084 0.095142
vt 0.394006 0.106139
vt 0.399742 0.092290
vt 0.379460 0.043325
vt 0.365137 0.057667
vt 0.365137 0.037589
vt 0.387584 0.031167
vt 0.399742 0.023043
vt 0.434161 0.009194
vt 0.463030 0.020567
vt 0.448707 0.072008
vt 0.463030 0.057667
vt 0.434161 0.106139
vt 0.414084 0.110133
vt 0.387584 0.084166
vt 0.365137 0.077745
vt 0.379460 0.072008
vt 0.365137 0.020567
vt 0.428425 0.023043
vt 0.451559 0.057667
vt 0.428425 0.092290
vt 0.360949 0.270723
vt 0.401924 0.282747
vt 0.387449 0.297222
vt 0.376608 0.057667
vt 0.365137 0.094766
vt 0.434161 0.010684
vt 0.434161 0.107629
vt 0.365137 0.079234
vt 0.312776 0.318896
vt 0.353472 0.331198
vt 0.339275 0.345396
vt 0.286543 0.345129
vt 0.325078 0.359593
vt 0.313042 0.371629
vt 0.298579 0.333093
vt 0.537138 0.094534
vt 0.541697 0.142974
vt 0.515198 0.116474
vt 0.464307 0.167365
vt 0.512746 0.171924
vt 0.490806 0.193865
vt 0.438073 0.193598
vt 0.450376 0.234295
vt 0.423876 0.207796
vt 0.389900 0.241772
vt 0.375425 0.256247
vt 0.326973 0.304699
vt 0.365508 0.319162
vt 0.500722 0.130949
vt 0.486247 0.145425
vt 0.452271 0.179401
vt 0.464573 0.220098
vt 0.411840 0.219831
vt 0.416399 0.268271
vt 0.339009 0.292663
vt 0.527222 0.157449
vt 0.478770 0.205901
vt 0.438340 0.246331
vt 0.365137 0.039078
vt 0.365137 0.022057
vt 0.394006 0.010684
vt 0.414084 0.006690
vt 0.463030 0.022057
vt 0.463030 0.039078
vt 0.463030 0.059156
vt 0.365137 0.059156
vt 0.463030 0.079234
vt 0.463030 0.096255
vt 0.414083 0.111622
vt 0.394006 0.107629
vt 0.365137 0.096255
vt 0.563638 0.121033
vt 0.580852 0.146243
vt 0.654403 0.833258
vt 0.628151 0.827709
vt 0.556250 0.098026
vt 0.676256 0.087072
vt 0.675217 0.091635
vt 0.557193 0.073165
vt 0.675612 0.059977
vt 0.674674 0.064508
vt 0.545290 0.056720
vt 0.536160 0.045764
vt 0.545290 0.045764
vt 0.520640 0.032070
vt 0.531595 0.041199
vt 0.520640 0.041199
vt 0.531595 0.032070
vt 0.548517 0.028842
vt 0.549855 0.032070
vt 0.560810 0.041199
vt 0.549855 0.041199
vt 0.549855 0.025082
vt 0.560810 0.015953
vt 0.560810 0.025082
vt 0.629694 0.112102
vt 0.643987 0.102551
vt 0.653538 0.116845
vt 0.630084 0.112301
vt 0.644378 0.102750
vt 0.653929 0.117044
vt 0.557340 0.054040
vt 0.679987 0.048462
vt 0.679987 0.054040
vt 0.557124 0.053931
vt 0.679770 0.048875
vt 0.679746 0.054452
vt 0.556784 0.078691
vt 0.680912 0.075517
vt 0.680800 0.081157
vt 0.557105 0.078806
vt 0.681243 0.075104
vt 0.681154 0.080745
vt 0.532927 0.141943
vt 0.460758 0.829304
vt 0.434016 0.833977
vt 0.551144 0.078535
vt 0.550610 0.097870
vt 0.551762 0.053997
vt 0.670009 0.105863
vt 0.673857 0.105126
vt 0.672638 0.106952
vt 0.667164 0.105863
vt 0.663315 0.105126
vt 0.666735 0.103710
vt 0.676475 0.107745
vt 0.674649 0.108965
vt 0.670437 0.103710
vt 0.677892 0.111165
vt 0.675738 0.111594
vt 0.675738 0.114439
vt 0.677891 0.114867
vt 0.676475 0.118287
vt 0.674650 0.117068
vt 0.673858 0.120904
vt 0.672638 0.119079
vt 0.670438 0.122321
vt 0.670009 0.120168
vt 0.649919 0.016570
vt 0.647358 0.035606
vt 0.647358 0.016570
vt 0.652480 0.016570
vt 0.649919 0.035606
vt 0.655042 0.035606
vt 0.655042 0.016570
vt 0.657603 0.016570
vt 0.660164 0.035606
vt 0.660164 0.016570
vt 0.662725 0.016570
vt 0.665286 0.035606
vt 0.665286 0.016570
vt 0.667848 0.035606
vt 0.667848 0.016570
vt 0.670409 0.016570
vt 0.672970 0.035606
vt 0.672970 0.016570
vt 0.675531 0.016570
vt 0.678092 0.035606
vt 0.678092 0.016570
vt 0.680653 0.016570
vt 0.642236 0.035606
vt 0.639675 0.016570
vt 0.642236 0.016570
vt 0.644797 0.016570
vt 0.669494 0.037595
vt 0.673194 0.045317
vt 0.669494 0.045317
vt 0.676893 0.037595
vt 0.676893 0.045317
vt 0.680593 0.037595
vt 0.680593 0.045317
vt 0.621401 0.037595
vt 0.625101 0.045317
vt 0.621401 0.045317
vt 0.628800 0.037595
vt 0.628800 0.045317
vt 0.632500 0.045317
vt 0.632500 0.037595
vt 0.636199 0.045317
vt 0.636199 0.037595
vt 0.639899 0.045317
vt 0.639899 0.037595
vt 0.643598 0.045317
vt 0.643598 0.037595
vt 0.647298 0.045317
vt 0.647298 0.037595
vt 0.650997 0.045317
vt 0.654696 0.037595
vt 0.654696 0.045317
vt 0.658396 0.045317
vt 0.662095 0.037595
vt 0.662095 0.045317
vt 0.665795 0.045317
vt 0.665795 0.037595
vt 0.664535 0.106952
vt 0.660698 0.107744
vt 0.661435 0.111592
vt 0.662523 0.108963
vt 0.659281 0.114865
vt 0.659282 0.111164
vt 0.662524 0.117066
vt 0.661435 0.114437
vt 0.663316 0.120904
vt 0.660698 0.118286
vt 0.667164 0.120168
vt 0.664535 0.119078
vt 0.666736 0.122321
vt 0.531595 0.025082
vt 0.520640 0.028576
vt 0.520640 0.025082
vt 0.531595 0.028576
vt 0.532666 0.056720
vt 0.532666 0.045764
vt 0.529173 0.045764
vt 0.560810 0.028576
vt 0.549855 0.028576
vt 0.548783 0.056720
vt 0.549855 0.044693
vt 0.560810 0.044693
vt 0.549855 0.070414
vt 0.532932 0.073642
vt 0.536160 0.056720
vt 0.579290 0.847266
vt 0.566549 0.865538
vt 0.691746 0.147570
vt 0.688723 0.858776
vt 0.676532 0.848430
vt 0.601776 0.832628
vt 0.678494 0.100209
vt 0.681646 0.102481
vt 0.678963 0.083255
vt 0.676003 0.096248
vt 0.678082 0.072920
vt 0.678212 0.056150
vt 0.675542 0.069053
vt 0.532932 0.044427
vt 0.532932 0.028842
vt 0.536160 0.027505
vt 0.545290 0.027505
vt 0.548517 0.044427
vt 0.560810 0.032070
vt 0.549855 0.015953
vt 0.651723 0.121227
vt 0.648369 0.124581
vt 0.643987 0.126396
vt 0.639244 0.126396
vt 0.634862 0.124581
vt 0.631509 0.121227
vt 0.629694 0.116845
vt 0.631509 0.107720
vt 0.634862 0.104366
vt 0.639244 0.102551
vt 0.648369 0.104366
vt 0.651723 0.107720
vt 0.653538 0.112102
vt 0.652114 0.121425
vt 0.648760 0.124779
vt 0.644378 0.126594
vt 0.639635 0.126594
vt 0.635253 0.124779
vt 0.631899 0.121425
vt 0.630084 0.117044
vt 0.631899 0.107919
vt 0.635253 0.104565
vt 0.639635 0.102750
vt 0.648760 0.104565
vt 0.652114 0.107919
vt 0.653929 0.112301
vt 0.557340 0.048462
vt 0.557148 0.048354
vt 0.556896 0.073051
vt 0.397997 0.866867
vt 0.420752 0.139323
vt 0.521681 0.861431
vt 0.509466 0.850825
vt 0.487253 0.835220
vt 0.411098 0.848528
vt 0.551615 0.073122
vt 0.652480 0.035606
vt 0.657603 0.035606
vt 0.662725 0.035606
vt 0.670409 0.035606
vt 0.675531 0.035606
vt 0.680653 0.035606
vt 0.639675 0.035606
vt 0.644797 0.035606
vt 0.673194 0.037595
vt 0.625101 0.037595
vt 0.650997 0.037595
vt 0.658396 0.037595
vt 0.529173 0.056720
vt 0.548783 0.045764
vt 0.548517 0.058057
vt 0.549855 0.061285
vt 0.548517 0.073642
vt 0.545290 0.074979
vt 0.536160 0.074979
vt 0.531595 0.070414
vt 0.531595 0.061285
vt 0.532932 0.058057
s 1
g off
g Brazo_2_SpacialRoverExploreralumWhite
usemtl SpacialRoverExploreralumWhite
f 61/1/1 50/2/1 52/3/1
s 2
f 60/4/2 63/5/2 67/6/3
s 3
f 73/7/1 54/8/1 56/9/1
s 4
f 72/10/2 75/11/2 79/12/3
s 5
f 68/13/4 63/14/4 64/15/4
s 6
f 55/16/5 76/17/5 69/18/5
s 7
f 80/19/4 75/20/4 76/21/4
s 8
f 72/22/6 73/23/6 55/24/6
s 9
f 60/25/6 61/26/6 51/27/6
s 10
f 67/6/7 62/28/7 60/4/7
s 11
f 68/29/8 61/1/8 62/28/8
s 12
f 64/30/9 59/31/9 57/32/10
s 13
f 65/33/11 58/34/11 59/31/11
s 14
f 79/12/7 74/35/7 72/10/7
s 15
f 80/36/8 73/7/8 74/35/8
s 16
f 76/17/9 71/37/9 69/18/9
s 17
f 77/38/11 70/39/11 71/37/11
s 18
f 51/40/5 64/30/5 57/32/5
s 1
f 61/1/1 66/41/1 50/2/1
s 2
f 60/4/2 58/34/2 63/5/2
s 3
f 73/7/1 78/42/1 54/8/1
s 4
f 72/10/2 70/39/2 75/11/2
s 19
f 64/15/4 49/43/4 50/44/4
s 5
f 50/44/4 66/45/4 68/13/4
f 68/13/4 67/46/4 63/14/4
f 63/14/4 65/47/4 64/15/4
f 64/15/4 50/44/4 68/13/4
s 6
f 55/16/5 53/48/5 76/17/5
s 20
f 76/21/4 53/49/4 54/50/4
s 7
f 54/50/4 78/51/4 80/19/4
f 80/19/4 79/52/4 75/20/4
f 75/20/4 77/53/4 76/21/4
f 76/21/4 54/50/4 80/19/4
s 8
f 55/24/6 69/54/6 71/55/6
f 71/55/6 70/56/6 72/22/6
f 72/22/6 74/57/6 73/23/6
s 21
f 73/23/6 56/58/6 55/24/6
s 8
f 55/24/6 71/55/6 72/22/6
s 9
f 51/27/6 57/59/6 59/60/6
f 59/60/6 58/61/6 60/25/6
f 60/25/6 62/62/6 61/26/6
s 22
f 61/26/6 52/63/6 51/27/6
s 9
f 51/27/6 59/60/6 60/25/6
s 10
f 67/6/7 68/29/7 62/28/7
s 11
f 68/29/8 66/41/8 61/1/8
s 12
f 64/30/9 65/33/9 59/31/9
s 13
f 65/33/11 63/5/11 58/34/11
s 14
f 79/12/7 80/36/7 74/35/7
s 15
f 80/36/8 78/42/12 73/7/8
s 16
f 76/17/9 77/38/9 71/37/9
s 17
f 77/38/11 75/11/11 70/39/11
s 18
f 51/40/5 49/64/5 64/30/5
s 23
g Brazo_2_SpacialRoverExploreralumGray
usemtl SpacialRoverExploreralumGray
f 110/65/13 111/66/14 109/67/15
f 112/68/16 113/69/17 111/66/14
f 114/70/18 115/71/19 113/69/17
f 116/72/20 117/73/21 115/71/19
f 118/74/22 119/75/23 117/73/21
f 120/76/24 121/77/25 119/75/23
f 122/78/26 123/79/27 121/77/25
f 124/80/28 125/81/29 123/79/27
f 126/82/30 127/83/31 125/81/29
f 128/84/32 129/85/33 127/86/31
f 130/87/34 131/88/35 129/85/33
f 132/89/36 133/90/37 131/88/35
f 134/91/38 135/92/39 133/90/37
f 136/93/40 137/94/41 135/92/39
f 138/95/42 139/96/43 137/94/41
f 140/97/44 109/67/15 139/96/43
f 110/65/13 112/68/16 111/66/14
f 112/68/16 114/70/18 113/69/17
f 114/70/18 116/72/20 115/71/19
f 116/72/20 118/74/22 117/73/21
f 118/74/22 120/76/24 119/75/23
f 120/76/24 122/78/26 121/77/25
f 122/78/26 124/80/28 123/79/27
f 124/80/28 126/82/30 125/81/29
f 126/82/30 128/98/32 127/83/31
f 128/84/32 130/87/34 129/85/33
f 130/87/34 132/89/36 131/88/35
f 132/89/36 134/91/38 133/90/37
f 134/91/38 136/93/40 135/92/39
f 136/93/40 138/95/42 137/94/41
f 138/95/42 140/97/44 139/96/43
f 140/97/44 110/65/13 109/67/15
s 24
g Brazo_2_SpacialRoverExploreralumBlack
usemtl SpacialRoverExploreralumBlack
f 15/99/45 30/100/45 29/101/45
f 13/102/45 26/103/46 12/104/46
f 9/105/46 24/106/46 23/107/45
f 7/108/46 20/109/46 6/110/46
f 18/111/45 2/112/46 32/113/45
f 17/114/45 30/100/45 16/115/45
f 13/102/45 28/116/45 27/117/45
f 10/118/46 25/119/45 24/106/46
f 7/108/46 22/120/46 21/121/46
f 5/122/46 1/123/46 4/124/45
f 17/114/45 32/113/45 31/125/45
f 15/99/45 28/116/45 14/126/45
f 12/104/46 25/119/45 11/127/46
f 9/105/46 22/120/46 8/128/46
s 25
f 20/129/47 45/130/47 46/131/47
s 24
f 4/124/45 2/112/46 3/132/46
f 5/122/46 20/109/46 19/133/46
s 26
f 44/134/2 38/135/3 34/136/3
s 27
f 2/137/6 48/138/6 35/139/6
f 31/140/6 34/141/6 33/142/6
f 32/143/6 35/139/6 34/141/6
s 28
f 31/144/48 36/145/48 30/146/48
s 29
f 27/147/49 38/148/49 39/149/49
s 30
f 25/150/4 42/151/4 24/152/4
s 31
f 22/153/50 45/130/50 21/154/50
s 27
f 1/155/6 47/156/6 48/138/6
s 32
f 29/157/51 38/148/51 28/158/51
s 30
f 26/159/4 41/160/4 25/150/4
s 33
f 23/161/52 44/162/52 22/153/52
s 34
f 19/163/53 46/131/53 47/156/53
s 35
f 29/157/54 36/145/54 37/164/54
s 30
f 27/147/4 40/165/4 26/159/4
f 24/152/4 43/166/4 23/161/4
s 24
f 15/99/45 16/115/45 30/100/45
f 13/102/45 27/117/45 26/103/46
f 9/105/46 10/118/46 24/106/46
f 7/108/46 21/121/46 20/109/46
f 18/111/45 3/132/46 2/112/46
f 17/114/45 31/125/45 30/100/45
f 13/102/45 14/126/45 28/116/45
f 10/118/46 11/127/46 25/119/45
f 7/108/46 8/128/46 22/120/46
f 5/122/46 19/133/46 1/123/46
f 17/114/45 18/111/45 32/113/45
f 15/99/45 29/101/45 28/116/45
f 12/104/46 26/103/46 25/119/45
f 9/105/46 23/107/45 22/120/46
s 25
f 20/129/47 21/154/47 45/130/47
s 24
f 4/124/45 1/123/46 2/112/46
f 5/122/46 6/110/46 20/109/46
s 26
f 48/167/2 47/168/2 46/169/2
f 46/169/2 45/170/2 44/134/2
f 44/134/2 43/171/3 42/172/3
f 44/134/2 42/172/3 41/173/2
f 48/167/2 46/169/2 44/134/2
f 35/174/3 48/167/2 44/134/2
f 44/134/2 41/173/2 40/175/2
f 40/175/2 39/176/2 38/135/3
f 38/135/3 37/177/3 36/178/3
f 36/178/3 33/179/3 34/136/3
f 34/136/3 35/174/3 44/134/2
f 44/134/2 40/175/2 38/135/3
f 38/135/3 36/178/3 34/136/3
s 27
f 2/137/6 1/155/6 48/138/6
f 31/140/6 32/143/6 34/141/6
f 32/143/6 2/137/6 35/139/6
s 28
f 31/144/48 33/180/48 36/145/48
s 29
f 27/147/49 28/158/49 38/148/49
s 30
f 25/150/4 41/160/4 42/151/4
s 31
f 22/153/50 44/162/50 45/130/50
s 27
f 1/155/6 19/163/6 47/156/6
s 32
f 29/157/51 37/164/51 38/148/51
s 30
f 26/159/4 40/165/4 41/160/4
s 33
f 23/161/52 43/166/52 44/162/52
s 34
f 19/163/53 20/129/53 46/131/53
s 35
f 29/157/54 30/146/54 36/145/54
s 30
f 27/147/4 39/149/4 40/165/4
f 24/152/4 42/151/4 43/166/4
s 36
g Brazo_2_SpacialRoverExploreralumArm
usemtl SpacialRoverExploreralumArm
f 145/181/55 91/182/6 89/183/6
f 144/184/56 95/185/4 94/186/4
s 37
f 147/187/55 101/188/6 99/189/6
s 38
f 216/190/57 234/191/58 229/192/59
f 220/193/60 235/194/61 222/195/62
f 231/196/63 227/197/64 229/192/59
f 226/198/65 217/199/66 228/200/67
f 225/201/68 219/202/69 214/203/70
s 23
f 130/204/34 122/205/26 114/206/18
f 123/207/27 131/208/35 139/209/43
s 37
f 141/210/71 88/211/72 87/212/73
s 36
f 143/213/71 82/214/72 81/215/74
f 146/216/75 83/217/76 84/218/77
s 37
f 148/219/75 85/220/76 86/221/77
f 148/222/75 104/223/4 106/224/4
s 36
f 145/225/55 144/184/56 143/226/71
s 37
f 147/187/55 142/227/56 141/210/71
s 39
f 166/228/78 198/229/79 165/230/80
f 180/231/81 211/232/82 212/233/83
f 165/230/80 199/234/84 167/235/85
f 180/231/81 181/236/86 166/228/78
f 167/235/85 200/237/87 168/238/88
f 169/239/89 200/237/87 201/240/90
f 169/239/89 202/241/91 170/242/92
f 170/242/92 203/243/93 171/244/94
f 171/244/94 204/245/95 172/246/96
f 164/247/97 166/248/78 149/249/6
f 163/250/98 180/251/81 164/247/97
f 178/252/99 163/250/98 162/253/100
f 161/254/1 178/252/99 162/253/100
f 176/255/101 161/254/1 160/256/102
f 159/257/103 176/255/101 160/256/102
f 174/258/104 159/257/103 158/259/105
f 173/260/106 158/259/105 157/261/4
f 156/262/107 173/260/106 157/261/4
f 171/263/94 156/262/107 155/264/108
f 154/265/109 171/263/94 155/264/108
f 169/266/89 154/265/109 153/267/5
f 152/268/110 169/266/89 153/267/5
f 167/269/85 152/270/110 151/271/111
f 150/272/112 167/269/85 151/271/111
f 166/248/78 150/272/112 149/249/6
f 182/273/6 198/274/79 181/275/86
f 198/274/79 184/276/111 199/277/84
f 199/277/84 185/278/110 200/279/87
f 185/280/110 201/281/90 200/282/87
f 201/281/90 187/283/109 202/284/91
f 187/283/109 203/285/93 202/284/91
f 188/286/108 204/287/95 203/285/93
f 189/288/107 205/289/113 204/287/95
f 190/290/4 206/291/114 205/289/113
f 191/292/105 207/293/115 206/291/114
f 192/294/103 208/295/116 207/293/115
f 208/295/116 194/296/1 209/297/117
f 194/296/1 210/298/118 209/297/117
f 210/298/118 196/299/98 211/300/82
f 196/299/98 212/301/83 211/300/82
f 197/302/97 181/275/86 212/301/83
f 179/303/119 210/304/118 211/232/82
f 177/305/120 210/304/118 178/306/99
f 177/305/120 208/307/116 209/308/117
f 175/309/121 208/307/116 176/310/101
f 175/309/121 206/311/114 207/312/115
f 173/313/106 206/311/114 174/314/104
f 173/313/106 204/245/95 205/315/113
s 38
f 232/316/122 221/317/123 219/318/69
f 233/319/124 220/193/60 221/317/123
f 234/191/58 224/320/125 236/321/126
f 224/320/125 235/322/61 236/321/126
f 225/201/68 215/323/127 227/324/64
f 215/323/127 226/198/65 227/324/64
f 229/192/59 218/325/128 216/190/57
f 230/326/129 217/199/66 218/327/128
f 213/328/130 221/329/123 223/330/131
s 36
f 92/331/6 83/332/76 145/181/55
f 145/181/55 143/333/71 81/334/74
f 145/181/55 81/334/74 93/335/6
f 90/336/6 92/331/6 145/181/55
f 89/183/6 90/336/6 145/181/55
f 145/181/55 93/335/6 91/182/6
f 98/337/4 82/338/72 144/184/56
f 144/184/56 146/216/75 84/218/77
f 144/184/56 84/218/77 97/339/4
f 96/340/4 98/337/4 144/184/56
f 94/186/4 96/340/4 144/184/56
f 144/184/56 97/339/4 95/185/4
s 37
f 102/341/6 85/220/76 147/187/55
f 147/187/55 141/210/71 87/212/73
f 147/187/55 87/212/73 103/342/6
f 100/343/6 102/341/6 147/187/55
f 99/189/6 100/343/6 147/187/55
f 147/187/55 103/342/6 101/188/6
s 38
f 216/190/57 223/330/131 234/191/58
f 220/193/60 231/196/63 235/194/61
f 229/192/59 234/191/58 236/344/126
f 236/344/126 235/194/61 231/196/63
f 231/196/63 233/345/124 232/346/122
f 232/346/122 225/347/68 227/197/64
f 227/197/64 226/198/65 228/200/67
f 228/200/67 230/348/129 229/192/59
f 229/192/59 236/344/126 231/196/63
f 231/196/63 232/346/122 227/197/64
f 227/197/64 228/200/67 229/192/59
f 226/198/65 213/349/130 217/199/66
f 225/201/68 232/350/122 219/202/69
s 23
f 114/206/18 112/351/16 110/352/13
f 110/352/13 140/353/44 138/354/42
f 138/354/42 136/355/40 134/356/38
f 134/356/38 132/357/36 130/204/34
f 130/204/34 128/358/32 126/359/30
f 126/359/30 124/360/28 122/205/26
f 122/205/26 120/361/24 118/362/22
f 118/362/22 116/363/20 114/206/18
f 114/206/18 110/352/13 138/354/42
f 138/354/42 134/356/38 130/204/34
f 130/204/34 126/359/30 122/205/26
f 122/205/26 118/362/22 114/206/18
f 114/206/18 138/354/42 130/204/34
f 139/209/43 109/364/15 111/365/14
f 111/365/14 113/366/17 115/367/19
f 115/367/19 117/368/21 119/369/23
f 119/369/23 121/370/25 123/207/27
f 123/207/27 125/371/29 127/372/31
f 127/372/31 129/373/33 131/208/35
f 131/208/35 133/374/37 135/375/39
f 135/375/39 137/376/41 139/209/43
f 139/209/43 111/365/14 115/367/19
f 115/367/19 119/369/23 123/207/27
f 123/207/27 127/372/31 131/208/35
f 131/208/35 135/375/39 139/209/43
f 139/209/43 115/367/19 123/207/27
s 37
f 141/210/71 142/377/56 88/211/72
s 36
f 143/213/71 144/378/56 82/214/72
f 146/216/75 145/379/55 83/217/76
s 37
f 148/219/75 147/187/55 85/220/76
f 88/380/72 142/381/56 148/222/75
f 148/222/75 86/382/77 108/383/4
f 148/222/75 108/383/4 105/384/4
f 107/385/4 88/380/72 148/222/75
f 106/224/4 107/385/4 148/222/75
f 148/222/75 105/384/4 104/223/4
s 36
f 145/225/55 146/216/75 144/184/56
s 37
f 147/187/55 148/386/75 142/227/56
s 39
f 166/228/78 181/236/86 198/229/79
f 180/231/81 179/303/119 211/232/82
f 165/230/80 198/229/79 199/234/84
f 180/231/81 212/233/83 181/236/86
f 167/235/85 199/234/84 200/237/87
f 169/239/89 168/238/88 200/237/87
f 169/239/89 201/240/90 202/241/91
f 170/242/92 202/241/91 203/243/93
f 171/244/94 203/243/93 204/245/95
f 164/247/97 180/251/81 166/248/78
f 163/250/98 179/387/119 180/251/81
f 178/252/99 179/387/119 163/250/98
f 161/254/1 177/388/120 178/252/99
f 176/255/101 177/388/120 161/254/1
f 159/257/103 175/389/121 176/255/101
f 174/258/104 175/389/121 159/257/103
f 173/260/106 174/258/104 158/259/105
f 156/262/107 172/390/96 173/260/106
f 171/263/94 172/390/96 156/262/107
f 154/265/109 170/391/92 171/263/94
f 169/266/89 170/391/92 154/265/109
f 152/268/110 168/392/88 169/266/89
f 167/269/85 168/393/88 152/270/110
f 150/272/112 165/394/80 167/269/85
f 166/248/78 165/394/80 150/272/112
f 182/273/6 183/395/112 198/274/79
f 198/274/79 183/395/112 184/276/111
f 199/277/84 184/276/111 185/278/110
f 185/280/110 186/396/5 201/281/90
f 201/281/90 186/396/5 187/283/109
f 187/283/109 188/286/108 203/285/93
f 188/286/108 189/288/107 204/287/95
f 189/288/107 190/290/4 205/289/113
f 190/290/4 191/292/105 206/291/114
f 191/292/105 192/294/103 207/293/115
f 192/294/103 193/397/102 208/295/116
f 208/295/116 193/397/102 194/296/1
f 194/296/1 195/398/100 210/298/118
f 210/298/118 195/398/100 196/299/98
f 196/299/98 197/302/97 212/301/83
f 197/302/97 182/273/6 181/275/86
f 179/303/119 178/306/99 210/304/118
f 177/305/120 209/308/117 210/304/118
f 177/305/120 176/310/101 208/307/116
f 175/309/121 207/312/115 208/307/116
f 175/309/121 174/314/104 206/311/114
f 173/313/106 205/315/113 206/311/114
f 173/313/106 172/246/96 204/245/95
s 38
f 232/316/122 233/319/124 221/317/123
f 233/319/124 231/196/63 220/193/60
f 234/191/58 223/330/131 224/320/125
f 224/320/125 222/399/62 235/322/61
f 225/201/68 214/203/70 215/323/127
f 215/323/127 213/349/130 226/198/65
f 229/192/59 230/400/129 218/325/128
f 230/326/129 228/200/67 217/199/66
f 223/330/131 216/190/57 218/401/128
f 218/401/128 217/402/66 213/328/130
f 213/328/130 215/403/127 214/404/70
f 214/404/70 219/405/69 221/329/123
f 221/329/123 220/406/60 222/407/62
f 222/407/62 224/408/125 223/330/131
f 223/330/131 218/401/128 213/328/130
f 213/328/130 214/404/70 221/329/123
f 221/329/123 222/407/62 223/330/131
