# Blender 5.2.2 LTS
# www.blender.org
mtllib Pinza.mtl
g Pinza_RoverModificado.001
v 0.221393 0.008346 0.101292
v 0.019720 -0.167859 0.109080
v 0.221185 -0.000541 -0.105156
v 0.019511 -0.176745 -0.097368
v -0.080773 0.222765 0.153104
v 0.001871 0.250664 0.151819
v -0.188746 0.084118 0.159180
v -0.081105 0.208660 -0.174593
v 0.001540 0.236559 -0.175877
v -0.150387 0.148127 -0.171917
v -0.182242 0.064888 0.160001
v -0.182233 0.064919 0.161203
v 0.021219 -0.167547 0.169800
v -0.150389 0.148075 -0.173114
v -0.182567 0.050711 -0.168891
v -0.081106 0.208609 -0.175790
v 0.001539 0.236508 -0.177074
v -0.182573 0.050783 -0.167695
v 0.020888 -0.181651 -0.157897
v 0.020103 0.241702 0.153390
v 0.020082 0.241660 0.152188
v 0.223542 0.009226 0.161987
v -0.188745 0.084170 0.160381
v -0.080772 0.222817 0.154304
v 0.001873 0.250715 0.153020
v 0.223210 -0.004879 -0.165710
v -0.060477 0.307523 -0.181712
v -0.060083 0.324287 0.207762
v -0.250712 0.141312 -0.174365
v -0.419330 0.144896 -0.166526
v -0.418944 0.161297 0.214558
v -0.250319 0.158076 0.215108
v -0.286019 0.582397 0.196881
v -0.286413 0.565644 -0.192359
v -0.570586 0.317357 -0.181385
v -0.570192 0.334110 0.207855
v -0.543940 0.689091 -0.084629
v -0.583084 0.653627 -0.113091
v -0.549948 0.684425 -0.070553
v -0.589092 0.648961 -0.099015
v -0.851871 0.879864 0.110659
v -0.891014 0.844400 0.082197
v -0.857879 0.875200 0.124735
v -0.897022 0.839734 0.096274
v -0.673194 0.584030 0.107053
v -0.634050 0.619495 0.135515
v -0.667186 0.588696 0.092977
v -0.628042 0.624160 0.121439
v -0.256677 0.138775 -0.110669
v -0.257069 0.135843 -0.172120
v -0.256469 0.147660 0.095780
v -0.256736 0.150019 0.157255
v -0.054736 0.312614 -0.180173
v -0.055004 0.314981 -0.118457
v -0.054795 0.323866 0.087992
v -0.054402 0.326811 0.149681
v -0.837534 0.751308 -0.082424
v -0.800572 0.782152 -0.118235
v -0.289231 0.199239 0.213198
v -0.359784 0.203959 0.213066
v -0.793651 0.788752 -0.105408
v -0.830612 0.757907 -0.069596
v -0.672616 0.577410 -0.061987
v -0.635654 0.608255 -0.097799
v -0.679537 0.570811 -0.074815
v -0.642575 0.601655 -0.110626
v -0.289071 0.206034 0.371052
v -0.359624 0.210753 0.370920
v -0.516119 0.378321 0.133765
v -0.548584 0.346802 0.060198
v -0.405448 0.476497 0.164622
v -0.470344 0.419800 0.167217
v -0.326970 0.540405 0.051027
v -0.359400 0.515228 0.127190
v -0.359397 0.505907 -0.093953
v -0.326931 0.537427 -0.020386
v -0.470067 0.407732 -0.124810
v -0.405171 0.464428 -0.127405
v -0.548545 0.343825 -0.011215
v -0.516115 0.369002 -0.087378
v -0.718036 0.540385 0.052037
v -0.685571 0.571904 0.125604
v -0.639795 0.613384 0.159057
v -0.574900 0.670080 0.156462
v -0.528852 0.708809 0.119029
v -0.496422 0.733986 0.042867
v -0.496383 0.731011 -0.028546
v -0.528848 0.699491 -0.102114
v -0.574623 0.658012 -0.135566
v -0.639519 0.601315 -0.132971
v -0.685567 0.562585 -0.095538
v -0.717997 0.537408 -0.019376
v -0.651812 0.599315 0.074840
v -0.669182 0.582450 0.035478
v -0.589924 0.654266 0.093304
v -0.624647 0.623930 0.094692
v -0.545260 0.690709 0.030350
v -0.562611 0.677239 0.071101
v -0.562607 0.672080 -0.051349
v -0.545236 0.688944 -0.011988
v -0.624494 0.617130 -0.069813
v -0.589772 0.647464 -0.071201
v -0.669159 0.580686 -0.006860
v -0.651807 0.594157 -0.047610
v -0.812096 0.745716 0.028596
v -0.794725 0.762580 0.067958
v -0.794721 0.757423 -0.054492
v -0.812073 0.743951 -0.013742
v -0.732686 0.810730 -0.078084
v -0.767407 0.780395 -0.076696
v -0.688150 0.852210 -0.018870
v -0.705521 0.835346 -0.058232
v -0.705525 0.840504 0.064218
v -0.688173 0.853974 0.023468
v -0.767560 0.787196 0.087810
v -0.732838 0.817532 0.086421
v -0.465869 0.325152 0.207957
v -0.463145 0.365829 0.206204
v -0.165206 0.345899 0.206760
v -0.167930 0.305222 0.208514
v -0.401201 0.419951 0.203812
v -0.350691 0.437002 0.203027
v -0.267165 0.431414 0.203183
v -0.219380 0.407788 0.204151
v -0.350532 0.443794 0.360881
v -0.401041 0.426745 0.361666
v -0.219220 0.414581 0.362005
v -0.267006 0.438208 0.361037
v -0.462985 0.372624 0.364058
v -0.465710 0.331946 0.365811
v -0.167771 0.312016 0.366368
v -0.165046 0.352693 0.364614
v 0.018901 -0.038005 0.303644
v -0.005113 -0.010571 0.302487
v 0.076682 -0.038440 0.303604
v 0.040896 -0.045499 0.303944
v 0.105947 0.011337 0.301432
v 0.094175 -0.023155 0.302928
v 0.077431 0.061549 0.299300
v 0.101444 0.034115 0.300456
v 0.019649 0.061983 0.299340
v 0.055435 0.069041 0.298999
v -0.009616 0.012206 0.301512
v 0.002157 0.046700 0.300015
v -0.004911 -0.001971 0.502302
v 0.019102 -0.029404 0.503459
v 0.041098 -0.036898 0.503759
v 0.076884 -0.029838 0.503419
v 0.094377 -0.014555 0.502743
v 0.106149 0.019938 0.501247
v 0.101646 0.042715 0.500271
v 0.077633 0.070149 0.499115
v 0.055637 0.077643 0.498814
v 0.019852 0.070583 0.499154
v 0.002359 0.055300 0.499830
v -0.009414 0.020806 0.501326
v -0.032055 -0.028969 0.303306
v -0.002940 -0.062230 0.304708
v 0.043373 -0.078009 0.305341
v 0.086762 -0.069449 0.304929
v 0.123594 -0.037268 0.303506
v 0.137867 0.004552 0.301692
v 0.128387 0.052512 0.299637
v 0.099271 0.085774 0.298235
v 0.052958 0.101553 0.297603
v 0.009570 0.092994 0.298015
v -0.027263 0.060813 0.299437
v -0.041536 0.018992 0.301252
v -0.003008 -0.065123 0.237483
v -0.032123 -0.031862 0.236080
v 0.086694 -0.072343 0.237703
v 0.043305 -0.080902 0.238115
v 0.137799 0.001659 0.234466
v 0.123526 -0.040162 0.236280
v 0.099204 0.082880 0.231009
v 0.128319 0.049619 0.232411
v 0.009502 0.090100 0.230789
v 0.052890 0.098660 0.230377
v -0.041604 0.016098 0.234026
v -0.027331 0.057920 0.232211
v 0.000466 -0.081013 -0.101444
v -0.033248 -0.042499 -0.103068
v 0.089386 -0.084281 -0.101394
v 0.039146 -0.094192 -0.100916
v 0.136675 -0.008979 -0.104683
v 0.120148 -0.057403 -0.102582
v 0.095044 0.069591 -0.108022
v 0.128757 0.031077 -0.106399
v 0.006123 0.072859 -0.108073
v 0.056364 0.082770 -0.108550
v -0.041166 -0.002444 -0.104784
v -0.024638 0.045982 -0.106885
v -0.033038 -0.033585 0.104033
v 0.000675 -0.072100 0.105657
v 0.039355 -0.085278 0.106185
v 0.089595 -0.075367 0.105708
v 0.120357 -0.048490 0.104520
v 0.136885 -0.000065 0.102419
v 0.128967 0.039991 0.100703
v 0.095253 0.078505 0.099079
v 0.056574 0.091684 0.098551
v 0.006333 0.081772 0.099028
v -0.024429 0.054896 0.100216
v -0.040956 0.006470 0.102317
v -0.908730 0.818950 0.033227
v -0.886975 0.840070 0.082522
v -0.850005 0.873572 0.109541
v -0.806520 0.911562 0.107802
v -0.769361 0.942816 0.077595
v -0.747630 0.959687 0.026561
v -0.747599 0.957286 -0.031018
v -0.769353 0.936166 -0.080314
v -0.806324 0.902664 -0.107332
v -0.849809 0.864674 -0.105593
v -0.886968 0.833421 -0.075386
v -0.908698 0.816550 -0.024352
v -0.870275 0.820991 0.083327
v -0.892029 0.799870 0.034031
v -0.833108 0.845595 -0.104788
v -0.789623 0.883585 -0.106527
v -0.730929 0.940606 0.027365
v -0.752660 0.923737 0.078399
v -0.891997 0.797470 -0.023547
v -0.870267 0.814341 -0.074582
v -0.752652 0.917087 -0.079509
v -0.730898 0.938207 -0.030214
v -0.789819 0.892483 0.108606
v -0.833304 0.854492 0.110345
v -0.868286 0.855852 0.068815
v -0.891002 0.833799 0.017342
v -0.805546 0.911229 0.079667
v -0.850951 0.871560 0.081483
v -0.765342 0.943575 0.012142
v -0.788032 0.925959 0.065431
v -0.788042 0.920385 -0.066606
v -0.765327 0.942438 -0.015133
v -0.850783 0.865008 -0.077458
v -0.805377 0.904677 -0.079274
v -0.890987 0.832662 -0.009933
v -0.868296 0.850277 -0.063222
v -0.890967 0.831209 -0.044792
v -0.851654 0.831265 -0.062420
v -0.874344 0.813649 -0.009132
v -0.748684 0.923426 -0.014331
v -0.771400 0.901372 -0.065805
v -0.834309 0.852548 0.082284
v -0.788903 0.892217 0.080469
v -0.874359 0.814786 0.018143
v -0.851644 0.836840 0.069616
v -0.788735 0.885664 -0.078473
v -0.834140 0.845995 -0.076657
v -0.771390 0.906947 0.066232
v -0.748699 0.924563 0.012943
v -0.715682 0.644099 0.090641
v -0.842518 0.788997 0.084533
v -0.803374 0.824461 0.112995
v -0.676538 0.679562 0.119103
v -0.848526 0.784332 0.098609
v -0.721690 0.639433 0.104717
v -0.682546 0.674897 0.133179
v -0.809382 0.819796 0.127071
v -0.708568 0.651075 0.099992
v -0.839661 0.800837 0.093678
v -0.817741 0.820696 0.109617
v -0.686647 0.670934 0.115930
v -0.843026 0.798224 0.101561
v -0.711932 0.648461 0.107874
v -0.690012 0.668322 0.123813
v -0.821105 0.818084 0.117499
v -0.659530 0.809613 -0.075831
v -0.698674 0.774148 -0.104292
v -0.653522 0.814278 -0.089907
v -0.692666 0.778815 -0.118369
v -0.665666 0.804264 -0.083496
v -0.785547 0.941218 -0.089269
v -0.810599 0.918521 -0.107484
v -0.781703 0.944205 -0.098278
v -0.806754 0.921507 -0.116493
v -0.686873 0.784553 -0.110720
v -0.690718 0.781567 -0.101711
v -0.661820 0.807250 -0.092504
v -0.745683 0.716542 0.023106
v -0.735728 0.726206 0.045664
v -0.717007 0.743171 0.059346
v -0.697107 0.760556 0.058550
v -0.678298 0.776376 0.043260
v -0.668354 0.784096 0.019906
v -0.668338 0.782882 -0.009228
v -0.678293 0.773216 -0.031786
v -0.697014 0.756253 -0.045468
v -0.716914 0.738867 -0.044672
v -0.735723 0.723047 -0.029382
v -0.745667 0.715327 -0.006028
v -0.778914 0.775542 0.043584
v -0.788869 0.765877 0.021026
v -0.788853 0.764663 -0.008108
v -0.778909 0.772383 -0.031462
v -0.760100 0.788203 -0.046752
v -0.740200 0.805588 -0.047547
v -0.721479 0.822552 -0.033866
v -0.711524 0.832217 -0.011307
v -0.711540 0.833432 0.017826
v -0.721484 0.825711 0.041180
v -0.740293 0.809892 0.056470
v -0.760192 0.792506 0.057266
v -0.870275 0.820991 0.083327
v -0.892029 0.799870 0.034031
v -0.833108 0.845595 -0.104788
v -0.789623 0.883585 -0.106527
v -0.730929 0.940606 0.027365
v -0.752660 0.923737 0.078399
v -0.891997 0.797470 -0.023547
v -0.870267 0.814341 -0.074582
v -0.752652 0.917087 -0.079509
v -0.730898 0.938207 -0.030214
v -0.789819 0.892483 0.108606
v -0.833304 0.854492 0.110345
v -0.851654 0.831265 -0.062420
v -0.874344 0.813649 -0.009132
v -0.748684 0.923426 -0.014331
v -0.771400 0.901372 -0.065805
v -0.834309 0.852548 0.082284
v -0.788903 0.892217 0.080469
v -0.874359 0.814786 0.018143
v -0.851644 0.836840 0.069616
v -0.788735 0.885664 -0.078473
v -0.834140 0.845995 -0.076657
v -0.771390 0.906947 0.066232
v -0.748699 0.924563 0.012943
v -0.289151 0.202637 0.292125
v -0.359704 0.207356 0.291993
v -0.463065 0.369226 0.285131
v -0.465789 0.328549 0.286884
v -0.167851 0.308619 0.287441
v -0.165126 0.349296 0.285687
v -0.401121 0.423348 0.282739
v -0.350612 0.440397 0.281954
v -0.219300 0.411184 0.283078
v -0.267085 0.434811 0.282110
vn 0.0010 0.0430 0.9991
vn -0.7527 -0.6580 0.0220
vn 0.6577 -0.7494 0.0757
vn 0.6576 -0.7532 -0.0124
vn -0.0668 -0.9968 0.0430
vn -0.5567 -0.8299 0.0363
vn 0.4411 -0.8967 0.0381
vn 0.8307 -0.5562 0.0231
vn -0.0110 -0.0598 -0.9981
vn -0.0120 -0.0616 -0.9980
vn -0.0015 -0.0425 -0.9991
vn 0.0002 0.0416 0.9991
vn 0.0003 0.0417 0.9991
vn 0.6583 -0.7521 0.0317
vn -0.0192 -0.9989 0.0430
vn -0.7527 -0.6577 0.0291
vn -0.6583 0.7521 -0.0317
vn -0.0010 -0.0430 -0.9991
vn 0.7527 0.6577 -0.0291
vn -0.7527 -0.6574 0.0362
vn 0.7527 0.6580 -0.0220
vn 0.7527 0.6574 -0.0362
vn 0.0001 -0.0451 -0.9990
vn 0.0002 -0.0449 -0.9990
vn 0.0003 -0.0445 -0.9990
vn 0.0020 0.0405 0.9992
vn -0.1942 -0.1290 0.9724
vn -0.5327 -0.4357 0.7256
vn -0.5327 -0.4356 0.7256
vn -0.5326 -0.4357 0.7256
vn 0.5343 0.4966 0.6840
vn 0.1977 0.2134 0.9568
vn 0.7272 0.6463 0.2310
vn 0.7272 0.6246 -0.2847
vn -0.7272 -0.6246 0.2847
vn -0.7273 -0.6463 -0.2310
vn 0.7273 0.6463 0.2310
vn -0.5344 -0.4966 -0.6840
vn -0.1977 -0.2134 -0.9568
vn -0.7272 -0.6463 -0.2310
vn 0.1942 0.1290 -0.9724
vn 0.5327 0.4357 -0.7256
vn 0.5344 0.4966 0.6840
vn -0.5343 -0.4966 -0.6840
vn -0.9978 0.0667 -0.0019
vn 0.9978 -0.0667 0.0019
vn 0.9978 -0.0668 0.0019
vn 0.6098 0.7918 -0.0347
vn 0.2601 0.9647 -0.0418
vn 0.5326 0.4357 -0.7256
vn 0.6565 -0.7538 0.0295
vn 0.6566 -0.7537 0.0292
vn 0.6559 -0.7542 0.0308
vn 0.6558 -0.7542 0.0324
vn 0.6558 -0.7543 0.0311
vn 0.6560 -0.7541 0.0328
vn 0.6566 -0.7534 0.0343
vn 0.6565 -0.7536 0.0340
vn 0.6589 -0.7515 0.0349
vn 0.6578 -0.7524 0.0349
vn 0.6575 -0.7527 0.0350
vn 0.6578 -0.7527 0.0285
vn 0.6575 -0.7529 0.0285
vn 0.6592 -0.7512 0.0349
vn 0.6591 -0.7515 0.0285
vn 0.6607 -0.7499 0.0326
vn 0.6602 -0.7504 0.0339
vn 0.6600 -0.7505 0.0342
vn 0.6589 -0.7517 0.0285
vn 0.6601 -0.7506 0.0294
vn 0.6600 -0.7507 0.0291
vn 0.6609 -0.7498 0.0323
vn 0.6607 -0.7500 0.0306
vn 0.6609 -0.7499 0.0310
vn -0.4988 0.8659 -0.0368
vn -0.1292 0.9907 -0.0425
vn -0.0488 -0.1281 -0.9906
vn -0.0026 0.0365 0.9993
vn -0.6583 0.7521 -0.0309
vn -0.6583 0.7520 -0.0317
vn -0.6583 0.7521 -0.0316
vn -0.0000 -0.0455 -0.9990
vn 0.0020 0.0407 0.9992
vn 0.0023 0.0415 0.9991
vn 0.0021 0.0406 0.9992
vn 0.8975 0.4406 -0.0199
vn 0.0668 0.9968 -0.0430
vn 0.5567 0.8299 -0.0363
vn -0.8307 0.5562 -0.0231
vn -0.4411 0.8967 -0.0381
vn -0.9978 0.0668 -0.0019
vn -0.8975 -0.4406 0.0199
vn -0.3755 -0.2916 0.8798
vn 0.6524 0.5911 0.4744
vn -0.6583 0.7521 -0.0318
vn 0.3755 0.2916 -0.8798
vn -0.6524 -0.5911 -0.4744
vn 0.6524 0.5911 0.4743
vn -0.6524 -0.5911 -0.4743
vn -0.4326 -0.4124 -0.8017
vn 0.4326 0.4125 0.8017
vn -0.6160 -0.5141 0.5968
vn -0.6160 -0.5141 0.5969
vn 0.6160 0.5141 -0.5969
vn -0.6524 -0.5910 -0.4744
vn -0.6584 0.7520 -0.0316
vn 0.6524 0.5910 0.4744
vn 0.3755 0.2916 -0.8797
vn 0.6521 0.5908 0.4750
vn 0.0667 0.9968 -0.0430
vn 0.4411 -0.8967 0.0382
vn -0.6558 0.7543 -0.0327
vn -0.6557 0.7544 -0.0309
vn -0.6564 0.7538 -0.0293
vn -0.6557 0.7544 -0.0308
vn -0.6565 0.7536 -0.0343
vn -0.6564 0.7536 -0.0342
vn -0.6609 0.7498 -0.0325
vn -0.6609 0.7498 -0.0326
vn -0.6602 0.7503 -0.0341
vn -0.6577 0.7528 -0.0283
vn -0.6602 0.7506 -0.0291
vn -0.6590 0.7516 -0.0283
vn -0.6577 0.7525 -0.0351
vn -0.6576 0.7528 -0.0284
vn -0.6590 0.7513 -0.0351
vn -0.6576 0.7525 -0.0351
vn -0.6602 0.7505 -0.0292
vn -0.6609 0.7499 -0.0307
vn 0.0011 0.0430 0.9991
vn 0.0010 0.0431 0.9991
vt 0.818999 0.778579
vt 0.914116 0.629338
vt 0.914250 0.778493
vt 0.819558 0.776844
vt 0.797985 0.627646
vt 0.819560 0.626737
vt 0.914250 0.607743
vt 0.818864 0.629424
vt 0.818692 0.607829
vt 0.915119 0.626737
vt 0.819713 0.605144
vt 0.914965 0.605144
vt 0.962003 0.951947
vt 0.995228 0.927786
vt 0.995228 0.951947
vt 0.962003 0.973785
vt 0.995228 0.997947
vt 0.962003 0.997947
vt 0.891213 0.476628
vt 0.812319 0.505639
vt 0.812040 0.418794
vt 0.811243 0.242324
vt 0.890323 0.270676
vt 0.890586 0.328813
vt 0.949127 0.418229
vt 0.890991 0.418491
vt 0.987917 0.416256
vt 0.948723 0.328551
vt 0.987521 0.328509
vt 0.724791 0.329561
vt 0.672336 0.417680
vt 0.671940 0.329934
vt 0.811636 0.329170
vt 0.702434 0.776609
vt 0.702733 0.627455
vt 0.895523 0.477370
vt 0.939836 0.465060
vt 0.928300 0.509248
vt 0.797126 0.778598
vt 0.701562 0.778493
vt 0.680153 0.629259
vt 0.701730 0.628386
vt 0.680476 0.776565
vt 0.681162 0.626459
vt 0.797289 0.628491
vt 0.915121 0.776844
vt 0.626731 0.450373
vt 0.578989 0.473778
vt 0.578989 0.450373
vt 0.507357 0.230394
vt 0.494830 0.202378
vt 0.507357 0.202378
vt 0.517136 0.287214
vt 0.532565 0.270977
vt 0.532565 0.287214
vt 0.517136 0.217712
vt 0.532565 0.234161
vt 0.517136 0.234161
vt 0.517136 0.180764
vt 0.532565 0.164103
vt 0.532565 0.180764
vt 0.507357 0.173801
vt 0.494830 0.145344
vt 0.507357 0.145344
vt 0.507357 0.344240
vt 0.494830 0.315784
vt 0.507357 0.315784
vt 0.507357 0.116716
vt 0.494830 0.088480
vt 0.507357 0.088480
vt 0.517136 0.004110
vt 0.532565 0.020771
vt 0.517136 0.020771
vt 0.507357 0.059955
vt 0.494830 0.031939
vt 0.507357 0.031939
vt 0.507357 0.287155
vt 0.494830 0.258919
vt 0.507357 0.258919
vt 0.517136 0.057719
vt 0.532565 0.074168
vt 0.517136 0.074168
vt 0.638821 0.473778
vt 0.638821 0.450373
vt 0.756065 0.473778
vt 0.743975 0.450373
vt 0.756065 0.450373
vt 0.719595 0.473778
vt 0.703799 0.450373
vt 0.719595 0.450373
vt 0.494830 0.287155
vt 0.494830 0.116716
vt 0.507357 0.003361
vt 0.494830 0.003361
vt 0.494830 0.230394
vt 0.517136 0.110984
vt 0.532565 0.127221
vt 0.517136 0.127221
vt 0.532565 0.217712
vt 0.532565 0.324096
vt 0.532565 0.110984
vt 0.517136 0.164103
vt 0.517136 0.270977
vt 0.532565 0.057719
vt 0.489613 0.131072
vt 0.829839 0.948499
vt 0.844705 0.974433
vt 0.818216 0.955939
vt 0.829839 0.935019
vt 0.912270 0.918134
vt 0.912270 0.935361
vt 0.897404 0.909427
vt 0.923894 0.956377
vt 0.909606 0.981126
vt 0.897350 0.974683
vt 0.909657 0.983020
vt 0.897404 0.976677
vt 0.923894 0.958183
vt 0.912270 0.937263
vt 0.912270 0.950743
vt 0.923894 0.929727
vt 0.897351 0.911421
vt 0.909606 0.904978
vt 0.856818 0.891058
vt 0.885343 0.890970
vt 0.885975 0.904853
vt 0.885292 0.997290
vt 0.885921 0.983402
vt 0.818216 0.927483
vt 0.844759 0.909178
vt 0.856189 0.904945
vt 0.856135 0.983495
vt 0.818216 0.930165
vt 0.832453 0.905328
vt 0.844706 0.911671
vt 0.856767 0.997378
vt 0.832504 0.983370
vt 0.844759 0.976927
vt 0.829840 0.937605
vt 0.818216 0.958621
vt 0.829840 0.951085
vt 0.885292 0.888814
vt 0.885921 0.902702
vt 0.856135 0.902609
vt 0.856766 0.888726
vt 0.832504 0.902734
vt 0.856189 0.981159
vt 0.832453 0.980776
vt 0.885974 0.981251
vt 0.856818 0.995046
vt 0.885343 0.995134
vt 0.909657 0.903084
vt 0.912270 0.948841
vt 0.923894 0.927921
vt 0.663201 0.450373
vt 0.663201 0.473778
vt 0.678997 0.473778
vt 0.743975 0.473778
vt 0.558039 0.473778
vt 0.678997 0.450373
vt 0.703799 0.473778
vt 0.803807 0.450373
vt 0.803807 0.473778
vt 0.797685 0.776800
vt 0.962003 0.927786
vt 0.995228 0.973785
vt 0.865200 0.505469
vt 0.864095 0.242086
vt 0.725195 0.419186
vt 0.913902 0.509248
vt 0.902576 0.502709
vt 0.895483 0.490423
vt 0.902746 0.465036
vt 0.914112 0.458521
vt 0.928510 0.458521
vt 0.946929 0.477346
vt 0.946889 0.490400
vt 0.939666 0.502733
vt 0.679605 0.778412
vt 0.626731 0.473778
vt 0.494830 0.173801
vt 0.494830 0.344240
vt 0.532565 0.004110
vt 0.494830 0.059955
vt 0.517136 0.324096
vt 0.558039 0.450373
vt 0.929180 0.609372
vt 0.990595 0.621480
vt 0.929180 0.621480
vt 0.929181 0.745772
vt 0.990595 0.757879
vt 0.929181 0.757879
vt 0.929181 0.718492
vt 0.990595 0.730599
vt 0.929181 0.730599
vt 0.929181 0.691212
vt 0.990595 0.703319
vt 0.929181 0.703319
vt 0.929181 0.676040
vt 0.990595 0.663932
vt 0.990595 0.676040
vt 0.929180 0.648760
vt 0.990595 0.636652
vt 0.990595 0.648760
vt 0.961280 0.946844
vt 0.928054 0.922682
vt 0.961280 0.922682
vt 0.961280 0.830683
vt 0.928054 0.854844
vt 0.928054 0.830683
vt 0.961280 0.900844
vt 0.928054 0.876682
vt 0.961280 0.876682
vt 0.908920 0.552420
vt 0.991114 0.582047
vt 0.908920 0.582047
vt 0.908920 0.589947
vt 0.582489 0.317517
vt 0.562160 0.244308
vt 0.582489 0.244308
vt 0.716648 0.317517
vt 0.696319 0.244308
vt 0.716648 0.244308
vt 0.671754 0.317517
vt 0.651774 0.244308
vt 0.671754 0.244308
vt 0.627253 0.317517
vt 0.607098 0.244308
vt 0.627253 0.244308
vt 0.805912 0.317517
vt 0.785932 0.244308
vt 0.805912 0.244308
vt 0.761412 0.317517
vt 0.741257 0.244308
vt 0.761411 0.244308
vt 0.608687 0.822261
vt 0.616587 0.851888
vt 0.608687 0.851888
vt 0.592237 0.963953
vt 0.628612 0.993580
vt 0.592237 0.993580
vt 0.652963 0.889415
vt 0.616587 0.859788
vt 0.652963 0.859788
vt 0.628612 0.918525
vt 0.592237 0.926426
vt 0.592237 0.918525
vt 0.616587 0.897316
vt 0.652963 0.897316
vt 0.803807 0.426967
vt 0.678997 0.426967
vt 0.578989 0.426967
vt 0.719595 0.426967
vt 0.743975 0.426967
vt 0.562160 0.317517
vt 0.537595 0.244308
vt 0.785932 0.317517
vt 0.741257 0.317517
vt 0.696319 0.317517
vt 0.651774 0.317517
vt 0.607098 0.317517
vt 0.695109 0.917171
vt 0.675457 0.894803
vt 0.700162 0.894726
vt 0.649450 0.981720
vt 0.637244 0.960729
vt 0.659301 0.953721
vt 0.680403 0.974121
vt 0.700055 0.996489
vt 0.675350 0.996566
vt 0.726062 0.909572
vt 0.708967 0.925115
vt 0.882102 0.885206
vt 0.836291 0.810139
vt 0.903840 0.799880
vt 0.663201 0.426967
vt 0.928054 0.784683
vt 0.961280 0.762844
vt 0.961280 0.784683
vt 0.928054 0.968682
vt 0.961280 0.968682
vt 0.961280 0.854844
vt 0.961280 0.808844
vt 0.928054 0.808844
vt 0.830149 0.564803
vt 0.835887 0.574741
vt 0.814149 0.566716
vt 0.826230 0.587641
vt 0.814149 0.544878
vt 0.929181 0.663932
vt 0.990595 0.594200
vt 0.929180 0.594200
vt 0.929180 0.636652
vt 0.628612 0.956053
vt 0.628612 0.963953
vt 0.652963 0.851888
vt 0.628612 0.926426
vt 0.616587 0.822261
vt 0.660863 0.822261
vt 0.652963 0.822261
vt 0.991114 0.544519
vt 0.991114 0.552420
vt 0.908920 0.514892
vt 0.991114 0.514892
vt 0.901020 0.544519
vt 0.908920 0.544519
vt 0.680462 0.917217
vt 0.666605 0.925217
vt 0.695049 0.974075
vt 0.708907 0.966075
vt 0.649557 0.909756
vt 0.659301 0.937777
vt 0.738268 0.930563
vt 0.716210 0.937571
vt 0.637244 0.930930
vt 0.738268 0.960362
vt 0.716210 0.953515
vt 0.725955 0.981536
vt 0.666545 0.966177
vt 0.830149 0.546791
vt 0.845142 0.513034
vt 0.835887 0.536853
vt 0.826230 0.523953
vt 0.888216 0.523953
vt 0.878559 0.536853
vt 0.862960 0.527848
vt 0.845142 0.598560
vt 0.851485 0.583746
vt 0.851485 0.527848
vt 0.869304 0.598560
vt 0.869304 0.513034
vt 0.862960 0.583746
vt 0.900297 0.566716
vt 0.888216 0.587641
vt 0.878559 0.574741
vt 0.900297 0.544878
vt 0.884296 0.546791
vt 0.884296 0.564803
vt 0.584336 0.963953
vt 0.584336 0.993580
vt 0.703799 0.426967
vt 0.756065 0.426967
vt 0.626731 0.426967
vt 0.638821 0.426967
vt 0.990595 0.609372
vt 0.990595 0.745772
vt 0.990595 0.718492
vt 0.990595 0.691212
vt 0.928054 0.946844
vt 0.928054 0.900844
vt 0.991114 0.589947
vt 0.616587 0.889415
vt 0.558039 0.426967
vt 0.537595 0.317517
vt 0.921617 0.817656
vt 0.921617 0.874948
vt 0.911358 0.885206
vt 0.864589 0.877952
vt 0.843545 0.856907
vt 0.836291 0.839395
vt 0.846549 0.799880
vt 0.928054 0.762844
vt 0.592237 0.956053
vt 0.660863 0.851888
vt 0.901020 0.514892
vt 0.694918 0.553132
vt 0.687018 0.523505
vt 0.694918 0.523505
vt 0.694918 0.561032
vt 0.813426 0.590659
vt 0.694918 0.590659
vt 0.813426 0.553132
vt 0.813426 0.523505
vt 0.694918 0.598560
vt 0.813426 0.561032
vt 0.687018 0.501767
vt 0.785346 0.497342
vt 0.785346 0.501767
vt 0.785346 0.518358
vt 0.687018 0.522782
vt 0.687018 0.518358
vt 0.687018 0.480751
vt 0.785346 0.480751
vt 0.583686 0.914547
vt 0.598318 0.898963
vt 0.603200 0.901804
vt 0.574761 0.816516
vt 0.555477 0.907992
vt 0.555471 0.816517
vt 0.579910 0.907991
vt 0.579904 0.816516
vt 0.599193 0.816516
vt 0.687018 0.553132
vt 0.813426 0.598560
vt 0.687018 0.497342
vt 0.785346 0.522782
vt 0.574767 0.907991
vt 0.603987 0.816560
vt 0.703212 0.935314
vt 0.692293 0.968139
vt 0.669325 0.942270
vt 0.745623 0.945876
vt 0.816728 0.954138
vt 0.745623 0.954138
vt 0.745623 0.903415
vt 0.816728 0.911677
vt 0.745623 0.911677
vt 0.745623 0.890447
vt 0.816728 0.882185
vt 0.816728 0.890447
vt 0.745623 0.924646
vt 0.816728 0.932908
vt 0.745623 0.932908
vt 0.745623 0.967107
vt 0.816728 0.975368
vt 0.745623 0.975369
vt 0.611886 0.352316
vt 0.599433 0.416633
vt 0.599433 0.352316
vt 0.559724 0.352316
vt 0.547170 0.416633
vt 0.547170 0.352316
vt 0.664198 0.352316
vt 0.651846 0.416633
vt 0.651846 0.352316
vt 0.533454 0.352316
vt 0.521001 0.416633
vt 0.521001 0.352316
vt 0.638155 0.352316
vt 0.625601 0.416633
vt 0.625601 0.352316
vt 0.994395 0.872300
vt 0.962003 0.858007
vt 0.994395 0.858007
vt 0.994395 0.817689
vt 0.962003 0.803291
vt 0.994395 0.803291
vt 0.994395 0.790191
vt 0.962003 0.775898
vt 0.994395 0.775898
vt 0.994395 0.899799
vt 0.962003 0.885401
vt 0.994395 0.885401
vt 0.796537 0.803056
vt 0.780657 0.789351
vt 0.799488 0.789292
vt 0.994395 0.912876
vt 0.962003 0.927063
vt 0.962003 0.912876
vt 0.533454 0.416633
vt 0.638155 0.416633
vt 0.585766 0.352316
vt 0.585766 0.416633
vt 0.573415 0.416633
vt 0.573415 0.352316
vt 0.507335 0.352316
vt 0.611886 0.416633
vt 0.745623 0.988337
vt 0.816728 0.869216
vt 0.745623 0.882185
vt 0.745623 0.869216
vt 0.816728 0.996599
vt 0.745623 0.996599
vt 0.962003 0.830767
vt 0.994395 0.830767
vt 0.994395 0.762844
vt 0.962003 0.872300
vt 0.962003 0.790191
vt 0.962003 0.899799
vt 0.962003 0.844954
vt 0.773368 0.808991
vt 0.762840 0.799637
vt 0.783579 0.803096
vt 0.817305 0.799505
vt 0.806748 0.808909
vt 0.799412 0.862455
vt 0.796489 0.848710
vt 0.806700 0.842815
vt 0.766902 0.820111
vt 0.762763 0.852300
vt 0.753450 0.836284
vt 0.766902 0.831859
vt 0.813167 0.819946
vt 0.753450 0.815785
vt 0.826619 0.836021
vt 0.826619 0.815521
vt 0.813167 0.831695
vt 0.817229 0.852168
vt 0.773320 0.842897
vt 0.780580 0.862513
vt 0.783531 0.848750
vt 0.673341 0.935314
vt 0.684260 0.929010
vt 0.692293 0.929010
vt 0.707228 0.942270
vt 0.707228 0.954879
vt 0.703212 0.961835
vt 0.684260 0.968139
vt 0.673341 0.961835
vt 0.669325 0.954879
vt 0.816728 0.945876
vt 0.816728 0.903415
vt 0.816728 0.924646
vt 0.816728 0.967107
vt 0.559724 0.416633
vt 0.664198 0.416633
vt 0.962003 0.817689
vt 0.994395 0.927063
vt 0.507335 0.416633
vt 0.816728 0.988337
vt 0.962003 0.762844
vt 0.994395 0.844954
s 1
g off
g Pinza_SpacialRoverExploreralumWhite
usemtl SpacialRoverExploreralumWhite
f 49/1/1 3/2/1 54/3/1
s 2
f 52/4/2 2/5/2 13/6/2
s 3
f 26/7/3 4/8/3 19/9/3
s 4
f 22/10/4 2/11/4 1/12/4
s 5
f 159/13/5 169/14/6 172/15/5
f 160/16/7 174/17/8 161/18/8
s 6
f 29/19/9 35/20/10 34/21/11
s 7
f 36/22/12 32/23/13 28/24/1
s 8
f 28/24/14 29/25/14 27/26/14
s 9
f 30/27/15 32/28/15 31/29/15
s 10
f 36/30/16 30/31/16 31/32/16
s 11
f 34/21/17 36/30/17 33/33/17
s 12
f 2/5/18 55/34/18 1/35/18
s 13
f 285/36/17 289/37/17 293/38/17
s 14
f 28/24/19 34/21/19 33/33/19
s 15
f 50/39/20 4/8/20 49/1/20
s 16
f 53/40/21 3/41/21 26/42/21
s 17
f 1/35/22 56/43/22 22/44/22
s 18
f 50/39/23 26/42/24 19/45/25
s 19
f 52/4/26 22/10/26 56/46/26
s 20
f 333/47/16 60/48/16 331/49/16
s 21
f 228/50/27 206/51/28 217/52/29
s 22
f 235/53/30 250/54/27 245/55/28
f 240/56/31 251/57/32 237/58/32
f 239/59/33 248/60/34 243/61/33
s 21
f 218/62/35 216/63/36 223/64/36
f 226/65/34 210/66/37 221/67/37
f 224/68/38 214/69/39 219/70/39
s 22
f 236/71/35 253/72/40 233/73/40
s 21
f 220/74/41 212/75/42 225/76/42
f 222/77/43 208/78/32 227/79/32
s 22
f 234/80/44 247/81/39 231/82/39
s 23
f 118/83/45 333/47/45 332/84/45
s 24
f 120/85/46 335/86/47 334/87/47
s 25
f 124/88/48 339/89/49 338/90/48
s 5
f 172/15/5 160/16/7 159/13/5
s 21
f 206/51/28 218/62/35 217/52/29
f 214/69/39 220/74/41 219/70/39
f 221/67/37 209/91/43 222/77/43
f 224/68/38 216/63/36 215/92/38
f 226/93/34 212/75/42 211/94/34
f 228/50/27 208/78/32 207/95/27
s 22
f 232/96/41 249/97/50 229/98/50
f 240/56/31 243/61/33 242/99/43
f 244/100/35 235/53/30 245/55/28
f 246/101/41 231/82/39 247/81/39
f 249/97/50 230/102/34 229/98/50
f 251/57/32 238/103/27 237/58/32
f 233/73/40 252/104/38 234/80/44
s 26
f 216/63/17 241/105/17 215/92/17
f 233/106/17 234/107/17 210/108/17
f 236/109/17 233/106/17 210/108/17
f 241/110/17 239/111/17 240/112/17
f 205/113/17 206/114/17 229/115/17
s 27
f 311/116/51 328/117/52 310/118/53
f 320/119/54 310/118/53 329/120/55
f 315/121/56 320/119/54 321/122/57
f 310/118/53 320/119/54 315/121/56
f 314/123/58 315/121/56 321/122/57
f 308/124/59 309/125/60 326/126/61
f 321/122/57 326/126/61 314/123/58
f 316/127/62 323/128/63 311/116/51
s 26
f 236/109/17 211/129/17 235/130/17
s 27
f 328/117/52 329/120/55 310/118/53
f 327/131/64 308/124/59 326/126/61
f 322/132/65 323/128/63 316/127/62
f 312/133/66 313/134/67 318/135/68
f 322/132/65 316/127/62 317/136/69
f 313/134/67 308/124/59 327/131/64
f 322/132/65 317/136/69 306/137/70
f 313/134/67 327/131/64 318/135/68
f 325/138/71 322/132/65 306/137/70
f 319/139/72 312/133/66 318/135/68
f 306/137/70 307/140/73 325/138/71
f 326/126/61 309/125/60 314/123/58
f 323/128/63 328/117/52 311/116/51
f 312/133/66 319/139/72 324/141/74
f 312/133/66 324/141/74 307/140/73
f 307/140/73 324/141/74 325/138/71
s 26
f 214/142/17 237/143/17 238/144/17
f 213/145/17 238/144/17 212/146/17
f 234/107/17 231/147/17 209/148/17
f 234/107/17 209/148/17 210/108/17
f 213/145/17 214/142/17 238/144/17
f 232/149/17 208/150/17 231/147/17
f 238/144/17 235/130/17 212/146/17
f 232/149/17 207/151/17 208/150/17
f 215/152/17 237/143/17 214/142/17
f 232/149/17 206/114/17 207/151/17
f 215/152/17 240/112/17 237/143/17
f 229/115/17 206/114/17 232/149/17
f 215/152/17 241/110/17 240/112/17
f 230/153/17 205/113/17 229/115/17
f 211/129/17 212/146/17 235/130/17
f 231/147/17 208/150/17 209/148/17
f 216/154/17 239/111/17 241/110/17
f 216/154/17 230/153/17 239/111/17
f 216/154/17 205/113/17 230/153/17
f 236/109/17 210/108/17 211/129/17
s 25
f 118/83/17 336/155/75 121/156/75
f 336/155/75 122/157/76 121/156/75
f 119/158/19 338/90/48 335/86/19
s 28
f 59/159/5 331/49/5 60/48/5
s 25
f 337/160/76 123/161/49 122/157/76
s 29
f 120/85/14 330/162/14 59/163/14
s 30
f 49/1/1 4/8/1 3/2/1
s 2
f 52/4/2 51/164/2 2/5/2
s 3
f 26/7/3 3/2/3 4/8/3
s 4
f 22/10/4 13/6/4 2/11/4
s 5
f 159/13/5 158/165/6 169/14/6
f 160/16/7 171/166/7 174/17/8
s 6
f 34/21/11 27/26/11 29/19/9
f 29/19/9 30/167/77 35/20/10
s 7
f 28/24/1 33/33/1 36/22/12
f 36/22/12 31/168/78 32/23/13
s 8
f 28/24/14 32/28/14 29/25/14
s 9
f 30/27/15 29/25/15 32/28/15
s 10
f 36/30/16 35/169/16 30/31/16
s 11
f 34/21/17 35/169/17 36/30/17
s 31
f 2/5/18 51/164/18 55/34/18
s 13
f 293/38/17 282/170/17 283/171/17
f 283/171/17 284/172/79 285/36/17
f 285/36/17 286/173/17 287/174/17
f 287/174/17 288/175/80 289/37/17
f 289/37/17 290/176/17 291/177/17
f 291/177/17 292/178/81 293/38/17
f 293/38/17 283/171/17 285/36/17
f 285/36/17 287/174/17 289/37/17
f 289/37/17 291/177/17 293/38/17
s 14
f 28/24/19 27/26/19 34/21/19
s 32
f 50/39/20 19/45/20 4/8/20
s 16
f 53/40/21 54/179/21 3/41/21
s 33
f 1/35/22 55/34/22 56/43/22
s 18
f 50/39/23 53/40/82 26/42/24
s 34
f 52/4/83 13/6/84 22/10/85
s 35
f 333/47/16 117/180/16 60/48/16
s 21
f 228/50/27 207/95/27 206/51/28
s 22
f 235/53/30 238/103/27 250/54/27
f 240/56/31 242/99/43 251/57/32
f 239/59/33 230/102/34 248/60/34
s 21
f 218/62/35 205/181/35 216/63/36
f 226/65/34 211/182/34 210/66/37
f 224/68/38 215/92/38 214/69/39
s 22
f 236/71/35 244/183/35 253/72/40
s 21
f 220/74/41 213/184/41 212/75/42
f 222/77/43 209/91/43 208/78/32
s 22
f 234/80/44 252/104/38 247/81/39
s 23
f 118/83/45 117/180/45 333/47/45
s 24
f 120/85/46 119/158/46 335/86/47
s 25
f 124/88/48 123/161/49 339/89/49
s 5
f 172/15/5 171/166/7 160/16/7
s 21
f 206/51/28 205/181/35 218/62/35
f 214/69/39 213/184/41 220/74/41
f 221/67/37 210/66/37 209/91/43
f 224/68/38 223/64/36 216/63/36
f 226/93/34 225/76/42 212/75/42
f 228/50/27 227/79/32 208/78/32
s 22
f 232/96/41 246/101/41 249/97/50
f 240/56/31 239/59/33 243/61/33
f 244/100/35 236/185/35 235/53/30
f 246/101/41 232/96/41 231/82/39
f 249/97/50 248/60/34 230/102/34
f 251/57/32 250/54/27 238/103/27
f 233/73/40 253/72/40 252/104/38
s 25
f 118/83/17 332/84/17 336/155/75
f 336/155/75 337/160/76 122/157/76
f 119/158/19 124/88/48 338/90/48
s 36
f 59/159/5 330/186/5 331/49/5
s 25
f 337/160/76 339/89/49 123/161/49
s 37
f 120/85/14 334/87/14 330/162/14
s 38
g Pinza_SpacialRoverExploreralumGray
usemtl SpacialRoverExploreralumGray
f 186/187/8 196/188/7 183/189/7
f 188/190/86 198/191/46 185/192/46
f 190/193/87 200/194/88 187/195/88
f 192/196/89 202/197/90 189/198/90
f 191/199/91 193/200/92 204/201/45
f 181/202/6 195/203/5 194/204/6
s 5
f 162/205/46 176/206/86 163/207/86
f 167/208/89 177/209/90 180/210/89
f 164/211/88 178/212/87 165/213/87
s 39
f 271/214/93 39/215/93 270/216/93
s 40
f 39/215/94 272/217/94 270/216/94
s 41
f 79/218/36 81/219/35 92/220/36
f 73/221/33 87/222/34 86/223/33
f 75/224/42 89/225/41 88/226/42
f 77/227/39 91/228/38 90/229/39
f 69/230/28 83/231/27 82/232/28
f 71/233/32 85/234/43 84/235/32
s 42
f 43/236/95 42/237/17 44/238/17
s 43
f 257/239/96 47/240/96 254/241/96
s 44
f 261/242/93 44/243/93 258/244/93
s 45
f 47/245/97 259/246/97 254/247/97
s 46
f 41/248/98 261/242/94 256/249/94
s 37
f 334/87/14 67/250/14 330/162/14
s 25
f 125/251/76 339/89/49 337/160/76
s 36
f 330/186/5 68/252/5 331/49/5
s 25
f 335/86/19 127/253/48 132/254/19
s 41
f 70/255/35 82/256/28 81/219/35
f 84/235/32 72/257/27 71/233/32
f 86/223/33 74/258/31 73/221/33
f 88/226/42 76/259/34 75/224/42
f 90/229/39 78/260/41 77/227/39
f 92/220/36 80/261/38 79/218/36
s 47
f 100/262/17 86/263/17 87/264/17
f 82/265/17 83/266/17 96/267/17
f 94/268/17 92/269/17 81/270/17
f 88/271/17 99/272/17 87/264/17
s 48
f 127/273/1 129/274/1 68/275/1
s 25
f 126/276/75 337/160/76 336/155/75
f 332/84/17 126/276/75 336/155/75
s 5
f 170/277/92 158/278/6 157/279/92
f 174/280/8 162/205/46 161/281/8
f 176/206/86 164/211/88 163/207/86
f 178/212/87 166/282/90 165/213/87
f 180/210/89 168/283/45 167/208/89
f 157/279/92 179/284/45 170/277/92
s 49
f 140/285/1 137/286/1 163/287/1
f 137/286/1 162/288/1 163/287/1
f 164/289/1 140/285/1 163/287/1
s 38
f 200/194/88 188/190/86 187/195/88
f 194/204/6 182/290/92 181/202/6
f 198/291/46 186/187/8 185/292/46
f 202/197/90 190/193/87 189/198/90
f 204/201/45 192/196/89 191/199/91
f 183/189/7 195/203/5 184/293/5
s 50
f 257/239/98 46/294/94 48/295/94
s 51
f 255/296/97 44/243/99 42/237/99
s 52
f 46/294/93 259/246/93 45/297/93
s 53
f 41/298/96 255/296/96 42/237/96
s 54
f 261/299/14 255/296/14 256/300/14
s 55
f 271/214/97 38/301/97 40/302/97
s 56
f 38/301/96 272/303/96 37/304/96
s 57
f 271/305/17 272/303/17 273/306/17
s 47
f 97/307/17 98/308/17 86/263/17
f 92/269/17 103/309/17 104/310/17
f 85/311/17 98/308/17 95/312/17
f 88/271/17 89/313/17 102/314/17
f 99/272/17 88/271/17 102/314/17
f 84/315/17 85/311/17 95/312/17
f 90/316/17 102/314/17 89/313/17
f 95/312/17 96/267/17 84/315/17
f 90/316/17 101/317/17 102/314/17
f 90/316/17 91/318/17 101/317/17
f 93/319/17 82/265/17 96/267/17
f 81/270/17 82/265/17 93/319/17
f 98/308/17 85/311/17 86/263/17
f 91/318/17 92/269/17 104/310/17
f 94/268/17 81/270/17 93/319/17
f 96/267/17 83/266/17 84/315/17
f 91/318/17 104/310/17 101/317/17
f 92/269/17 94/268/17 103/309/17
f 99/272/17 100/262/17 87/264/17
f 86/263/17 100/262/17 97/307/17
s 49
f 140/285/1 164/289/1 139/320/1
f 166/321/1 142/322/1 165/323/1
f 168/324/1 143/325/1 144/326/1
f 137/286/1 161/327/1 162/288/1
f 161/327/1 137/286/1 138/328/1
f 141/329/1 142/322/1 166/321/1
f 160/330/1 161/327/1 138/328/1
f 167/331/1 144/326/1 166/321/1
f 160/330/1 138/328/1 135/332/1
f 158/333/1 159/334/1 136/335/1
f 160/330/1 135/332/1 136/335/1
f 167/331/1 168/324/1 144/326/1
f 159/334/1 160/330/1 136/335/1
f 157/336/1 134/337/1 143/325/1
f 133/338/1 158/333/1 136/335/1
f 168/324/1 157/336/1 143/325/1
f 134/337/1 158/333/1 133/338/1
f 164/289/1 165/323/1 139/320/1
f 144/326/1 141/329/1 166/321/1
f 158/333/1 134/337/1 157/336/1
f 142/322/1 139/320/1 165/323/1
s 58
f 260/339/17 254/241/17 259/340/17
s 25
f 338/90/48 128/341/49 127/253/48
s 24
f 334/87/47 132/254/47 131/342/47
s 23
f 332/84/45 130/343/91 129/344/91
s 20
f 130/343/16 331/49/16 68/252/16
s 38
f 186/187/8 197/345/8 196/188/7
f 188/190/86 199/346/86 198/191/46
f 190/193/87 201/347/87 200/194/88
f 192/196/89 203/348/89 202/197/90
f 191/199/91 182/290/92 193/200/92
f 181/202/6 184/293/5 195/203/5
s 5
f 162/205/46 173/349/47 176/206/86
f 167/208/89 166/282/90 177/209/90
f 164/211/88 175/350/88 178/212/87
s 59
f 271/214/93 40/302/93 39/215/93
s 40
f 39/215/94 37/351/94 272/217/94
s 41
f 79/218/36 70/255/35 81/219/35
f 73/221/33 76/259/34 87/222/34
f 75/224/42 78/260/41 89/225/41
f 77/227/39 80/261/38 91/228/38
f 69/230/28 72/257/27 83/231/27
f 71/233/32 74/258/31 85/234/43
s 42
f 43/236/95 41/298/95 42/237/17
s 60
f 257/239/96 48/295/96 47/240/96
s 44
f 261/242/93 43/352/93 44/243/93
s 45
f 47/245/97 45/297/97 259/246/97
s 46
f 41/248/98 43/352/98 261/242/94
s 37
f 334/87/14 131/342/14 67/250/14
s 25
f 125/251/76 128/341/49 339/89/49
s 36
f 330/186/5 67/353/5 68/252/5
s 25
f 335/86/19 338/90/48 127/253/48
s 41
f 70/255/35 69/354/28 82/256/28
f 84/235/32 83/231/27 72/257/27
f 86/223/33 85/234/43 74/258/31
f 88/226/42 87/222/34 76/259/34
f 90/229/39 89/225/41 78/260/41
f 92/220/36 91/228/38 80/261/38
s 48
f 68/275/1 67/355/1 131/356/1
f 131/356/1 132/357/1 127/273/1
f 127/273/1 128/358/1 125/359/1
f 125/359/1 126/360/1 129/274/1
f 129/274/1 130/361/1 68/275/1
f 68/275/1 131/356/1 127/273/1
f 127/273/1 125/359/1 129/274/1
s 25
f 126/276/75 125/251/76 337/160/76
f 332/84/17 129/344/17 126/276/75
s 5
f 170/277/92 169/362/6 158/278/6
f 174/280/8 173/349/47 162/205/46
f 176/206/86 175/350/88 164/211/88
f 178/212/87 177/209/90 166/282/90
f 180/210/89 179/284/45 168/283/45
f 157/279/92 168/283/45 179/284/45
s 38
f 200/194/88 199/346/86 188/190/86
f 194/204/6 193/200/92 182/290/92
f 198/291/46 197/345/8 186/187/8
f 202/197/90 201/347/87 190/193/87
f 204/201/45 203/348/89 192/196/89
f 183/189/7 196/188/7 195/203/5
s 50
f 257/239/98 260/363/98 46/294/94
s 51
f 255/296/97 258/244/97 44/243/99
s 61
f 46/294/93 260/363/93 259/246/93
s 53
f 41/298/96 256/300/96 255/296/96
s 54
f 261/299/14 258/364/14 255/296/14
s 55
f 271/214/97 273/306/97 38/301/97
s 62
f 38/301/96 273/306/96 272/303/96
s 57
f 271/305/17 270/365/17 272/303/17
s 58
f 260/339/17 257/239/95 254/241/17
s 25
f 338/90/48 339/89/49 128/341/49
s 24
f 334/87/47 335/86/47 132/254/47
s 23
f 332/84/45 333/47/45 130/343/91
s 20
f 130/343/16 333/47/16 331/49/16
s 63
g Pinza_SpacialRoverExploreralumBlack
usemtl SpacialRoverExploreralumBlack
f 61/366/17 57/367/17 62/368/17
s 64
f 58/369/100 65/370/100 57/371/100
s 65
f 64/372/101 62/368/101 63/373/101
s 66
f 65/370/102 62/374/103 57/371/103
s 67
f 58/369/104 64/372/104 66/375/104
s 68
f 264/376/98 268/377/98 265/378/98
s 69
f 262/379/105 266/380/97 263/381/97
s 70
f 268/377/93 266/382/93 267/383/93
s 71
f 263/381/96 265/378/96 262/379/96
s 72
f 278/384/17 275/385/106 277/386/106
s 73
f 279/387/96 277/388/96 281/389/96
s 74
f 276/390/97 279/387/99 280/391/99
s 75
f 274/392/107 277/386/98 275/385/98
s 76
f 276/390/93 274/392/93 275/385/93
s 63
f 61/366/17 58/393/17 57/367/17
s 77
f 58/369/100 66/375/100 65/370/100
s 78
f 64/372/101 61/366/101 62/368/101
s 66
f 65/370/102 63/394/102 62/374/103
s 67
f 58/369/104 61/366/104 64/372/104
s 68
f 264/376/98 269/395/98 268/377/98
s 69
f 262/379/105 267/396/105 266/380/97
s 79
f 268/377/93 269/395/93 266/382/93
s 71
f 263/381/96 264/376/108 265/378/96
s 72
f 278/384/17 276/390/17 275/385/106
s 80
f 279/387/96 278/397/96 277/388/96
s 74
f 276/390/97 278/397/97 279/387/99
s 75
f 274/392/107 281/398/109 277/386/98
s 81
f 276/390/93 280/391/93 274/392/93
s 82
g Pinza_SpacialRoverExploreralumOrange
usemtl SpacialRoverExploreralumOrange
f 146/399/1 150/400/1 154/401/1
s 83
f 140/402/86 150/403/46 137/404/46
f 144/405/89 154/406/90 141/407/90
f 143/408/45 145/409/92 156/410/45
f 142/411/110 152/412/88 139/413/88
f 138/414/8 148/415/7 135/416/111
s 84
f 98/417/43 116/418/32 95/419/32
f 94/420/35 108/421/36 103/422/40
f 102/423/41 112/424/42 99/425/42
f 104/426/38 110/427/39 101/428/39
f 100/429/34 114/430/33 97/431/37
s 85
f 303/432/38 285/433/39 304/434/39
f 295/435/34 293/436/33 296/437/37
f 297/438/43 291/439/32 298/440/32
f 301/441/35 287/442/40 302/443/36
s 86
f 301/444/112 114/445/113 111/446/112
s 85
f 300/447/28 290/448/27 289/449/28
s 84
f 104/426/38 108/421/36 107/450/38
f 100/429/34 112/424/42 111/451/34
f 96/452/27 116/418/32 115/453/27
f 106/454/28 94/420/35 93/455/28
f 110/427/39 102/456/41 101/428/39
f 97/431/37 113/457/43 98/417/43
f 96/452/27 106/454/28 93/455/28
s 83
f 148/415/7 136/458/5 135/416/111
f 154/406/90 142/411/110 141/407/90
f 156/410/45 144/405/89 143/408/45
f 152/412/88 140/402/86 139/413/88
f 150/403/46 138/414/8 137/404/46
f 146/459/6 134/460/92 133/461/6
f 136/458/5 146/462/6 133/463/6
s 85
f 283/464/42 295/435/34 294/465/42
f 291/439/32 299/466/27 298/440/32
f 302/443/36 286/467/38 303/432/38
f 297/438/43 293/436/33 292/468/43
f 301/441/35 289/449/28 288/469/35
f 284/470/41 304/434/39 285/433/39
f 294/465/42 284/470/41 283/464/42
s 86
f 303/471/114 113/472/114 114/445/113
f 114/445/113 301/444/112 302/473/115
f 112/474/116 300/475/117 111/446/112
f 302/473/115 303/471/114 114/445/113
f 108/476/118 296/477/119 297/478/120
f 113/472/114 303/471/114 304/479/121
f 106/480/122 115/481/123 305/482/123
f 300/475/117 112/474/116 299/483/124
f 116/484/125 113/472/114 304/479/121
f 110/485/126 299/483/124 109/486/127
f 304/479/121 305/482/123 116/484/125
f 110/485/126 298/487/126 299/483/124
f 110/485/126 107/488/120 298/487/126
f 294/489/128 106/480/122 305/482/123
f 105/490/129 106/480/122 294/489/128
f 112/474/116 109/486/127 299/483/124
f 107/488/120 108/476/118 297/478/120
f 295/491/129 105/490/129 294/489/128
f 305/482/123 115/481/123 116/484/125
f 107/488/120 297/478/120 298/487/126
f 295/491/129 108/476/118 105/490/129
f 300/475/117 301/444/112 111/446/112
f 108/476/118 295/491/129 296/477/119
s 82
f 154/401/1 155/492/130 156/493/1
f 156/493/1 145/494/1 146/399/1
f 146/399/1 147/495/1 148/496/1
f 148/496/1 149/497/130 150/400/1
f 150/400/1 151/498/130 152/499/1
f 152/499/1 153/500/131 154/401/1
f 154/401/1 156/493/1 146/399/1
f 146/399/1 148/496/1 150/400/1
f 150/400/1 152/499/1 154/401/1
s 83
f 140/402/86 151/501/86 150/403/46
f 144/405/89 155/502/89 154/406/90
f 143/408/45 134/460/92 145/409/92
f 142/411/110 153/503/87 152/412/88
f 138/414/8 149/504/8 148/415/7
s 84
f 98/417/43 113/457/43 116/418/32
f 94/420/35 105/505/35 108/421/36
f 102/423/41 109/506/41 112/424/42
f 104/426/38 107/450/38 110/427/39
f 100/429/34 111/451/34 114/430/33
s 85
f 303/432/38 286/467/38 285/433/39
f 295/435/34 282/507/34 293/436/33
f 297/438/43 292/468/43 291/439/32
f 301/441/35 288/469/35 287/442/40
f 300/447/28 299/508/27 290/448/27
s 84
f 104/426/38 103/422/40 108/421/36
f 100/429/34 99/425/42 112/424/42
f 96/452/27 95/419/32 116/418/32
f 106/454/28 105/505/35 94/420/35
f 110/427/39 109/509/41 102/456/41
f 97/431/37 114/430/33 113/457/43
f 96/452/27 115/453/27 106/454/28
s 83
f 148/415/7 147/510/5 136/458/5
f 154/406/90 153/503/87 142/411/110
f 156/410/45 155/502/89 144/405/89
f 152/412/88 151/501/86 140/402/86
f 150/403/46 149/504/8 138/414/8
f 146/459/6 145/409/92 134/460/92
f 136/458/5 147/510/5 146/462/6
s 85
f 283/464/42 282/507/34 295/435/34
f 291/439/32 290/511/27 299/466/27
f 302/443/36 287/442/40 286/467/38
f 297/438/43 296/437/37 293/436/33
f 301/441/35 300/447/28 289/449/28
f 284/470/41 305/512/41 304/434/39
f 294/465/42 305/512/41 284/470/41
l 10 14
l 15 18
l 20 21
l 11 12
l 5 24
l 6 25
l 9 17
l 7 23
l 8 16
