# Blender 5.2.2 LTS
# www.blender.org
mtllib PLDD.mtl
g PLDD_PLDD
v 3.273637 -1.004301 -0.076794
v 3.297544 -0.942779 -0.048677
v 3.307446 -0.917295 0.019206
v 3.297544 -0.942779 0.087088
v 3.273637 -1.004301 0.115206
v 3.249730 -1.065823 0.087088
v 3.239828 -1.091306 0.019206
v 3.249730 -1.065823 -0.048677
v 3.346556 -1.056436 -0.095995
v 3.346557 -0.952755 -0.062253
v 3.302252 -0.930433 -0.062253
v 3.346557 -0.909810 0.019206
v 3.314135 -0.899853 0.019206
v 3.346557 -0.952755 0.100665
v 3.302252 -0.930433 0.100665
v 3.346556 -1.056436 0.134406
v 3.273564 -1.004260 0.134406
v 3.346557 -1.160116 0.100665
v 3.244876 -1.078087 0.100665
v 3.346557 -1.203061 0.019206
v 3.232993 -1.108666 0.019206
v 3.346557 -1.160116 -0.062253
v 3.244876 -1.078087 -0.062253
v 3.273564 -1.004260 -0.095995
v 3.570331 -1.341612 -0.320148
v 3.570331 -1.144174 -0.219285
v 3.658019 -1.341612 -0.308603
v 3.631913 -1.144174 -0.211177
v 3.739730 -1.341612 -0.274757
v 3.689299 -1.144174 -0.187407
v 3.809898 -1.341612 -0.220916
v 3.738577 -1.144174 -0.149595
v 3.863740 -1.341612 -0.150748
v 3.776390 -1.144174 -0.100316
v 3.897586 -1.341612 -0.069035
v 3.800160 -1.144174 -0.042930
v 3.909131 -1.341612 0.018653
v 3.808268 -1.144174 0.018653
v 3.897586 -1.341612 0.106340
v 3.800160 -1.144174 0.080235
v 3.863740 -1.341612 0.188052
v 3.776390 -1.144174 0.137621
v 3.809898 -1.341612 0.258220
v 3.738577 -1.144174 0.186899
v 3.739730 -1.341612 0.312062
v 3.689299 -1.144174 0.224712
v 3.658019 -1.341612 0.345908
v 3.631913 -1.144174 0.248482
v 3.570331 -1.341612 0.357452
v 3.570331 -1.144174 0.256590
v 3.482643 -1.341612 0.345908
v 3.508748 -1.144174 0.248482
v 3.400931 -1.341612 0.312062
v 3.451362 -1.144174 0.224712
v 3.330763 -1.341612 0.258220
v 3.402084 -1.144174 0.186899
v 3.276921 -1.341612 0.188052
v 3.344417 -1.144174 0.161415
v 3.243075 -1.341612 0.106340
v 3.344417 -1.144174 0.092552
v 3.231531 -1.341612 0.018652
v 3.344417 -1.144174 0.018652
v 3.243075 -1.341612 -0.069035
v 3.344417 -1.144174 -0.055247
v 3.276921 -1.341612 -0.150748
v 3.344417 -1.144174 -0.124110
v 3.330763 -1.341612 -0.220915
v 3.402084 -1.144174 -0.149595
v 3.400930 -1.341612 -0.274757
v 3.451362 -1.144174 -0.187407
v 3.482643 -1.341612 -0.308604
v 3.508748 -1.144174 -0.211177
v 3.570331 -1.431612 -0.218508
v 3.631712 -1.431612 -0.210427
v 3.688911 -1.431612 -0.186735
v 3.738028 -1.431612 -0.149045
v 3.775717 -1.431612 -0.099928
v 3.799410 -1.431612 -0.042729
v 3.807491 -1.431612 0.018652
v 3.799410 -1.431612 0.080034
v 3.775717 -1.431612 0.137232
v 3.738028 -1.431612 0.186350
v 3.688911 -1.431612 0.224039
v 3.631712 -1.431612 0.247731
v 3.570331 -1.431612 0.255812
v 3.508949 -1.431612 0.247731
v 3.451751 -1.431612 0.224039
v 3.402633 -1.431612 0.186350
v 3.364944 -1.431612 0.137232
v 3.341252 -1.431612 0.080034
v 3.333171 -1.431612 0.018652
v 3.341252 -1.431612 -0.042729
v 3.364944 -1.431612 -0.099928
v 3.402633 -1.431612 -0.149045
v 3.451751 -1.431612 -0.186735
v 3.508949 -1.431612 -0.210427
v 3.658019 -1.144174 -0.308603
v 3.570331 -1.144174 -0.320148
v 3.739730 -1.144174 -0.274757
v 3.809898 -1.144174 -0.220916
v 3.863740 -1.144174 -0.150748
v 3.897586 -1.144174 -0.069035
v 3.909131 -1.144174 0.018653
v 3.897586 -1.144174 0.106340
v 3.863740 -1.144174 0.188052
v 3.809898 -1.144174 0.258220
v 3.739730 -1.144174 0.312062
v 3.658019 -1.144174 0.345908
v 3.570331 -1.144174 0.357452
v 3.482643 -1.144174 0.345908
v 3.400931 -1.144174 0.312062
v 3.330763 -1.144174 0.258220
v 3.276921 -1.144174 0.188052
v 3.243075 -1.144174 0.106340
v 3.231531 -1.144174 0.018652
v 3.243075 -1.144174 -0.069035
v 3.276921 -1.144174 -0.150748
v 3.330763 -1.144174 -0.220915
v 3.400930 -1.144174 -0.274757
v 3.482643 -1.144174 -0.308604
v 3.614670 -0.814174 -0.146825
v 3.570331 -0.814174 -0.152663
v 3.655988 -0.814174 -0.129711
v 3.691469 -0.814174 -0.102485
v 3.718694 -0.814174 -0.067005
v 3.735808 -0.814174 -0.025687
v 3.741645 -0.814174 0.018652
v 3.735808 -0.814174 0.062992
v 3.718694 -0.814174 0.104310
v 3.691469 -0.814174 0.139790
v 3.655988 -0.814174 0.167015
v 3.614670 -0.814174 0.184130
v 3.570331 -0.814174 0.189967
v 3.525991 -0.814174 0.184130
v 3.484673 -0.814174 0.167015
v 3.449193 -0.814174 0.139790
v 3.347672 -0.814174 0.121441
v 3.347672 -0.814174 0.071860
v 3.347672 -0.814174 0.018652
v 3.347672 -0.814174 -0.034555
v 3.347672 -0.814174 -0.084136
v 3.449193 -0.814174 -0.102485
v 3.484673 -0.814174 -0.129711
v 3.525991 -0.814174 -0.146825
v 3.570331 -0.944174 -0.320148
v 3.570331 -0.944174 0.357452
v 3.482643 -0.944174 0.345908
v 3.400931 -0.944174 0.312062
v 3.482643 -0.944174 -0.308604
v 3.400930 -0.944174 -0.274757
v 3.570331 -0.944174 -0.219285
v 3.570331 -0.944174 0.256590
v 3.508748 -0.944174 0.248482
v 3.451362 -0.944174 0.224712
v 3.508748 -0.944174 -0.211177
v 3.451362 -0.944174 -0.187407
v 0.455128 -0.244174 0.312062
v 0.455128 0.155826 0.312062
v 0.455128 -0.244174 -0.187407
v 0.455128 -0.244174 -0.274757
v 0.455128 0.155826 -0.187407
v 0.455128 0.155826 -0.274757
v 2.028943 -0.664174 -0.274757
v 2.028943 -0.464174 -0.274757
v 2.028943 -0.664174 -0.187407
v 2.028943 -0.464174 -0.187407
v 2.028943 -0.661174 0.224712
v 2.028943 -0.461174 0.224712
v 2.028943 -0.461174 0.312062
v 2.028943 -0.661174 0.312062
v 2.029102 -0.754174 0.224712
v 2.029102 -0.404174 0.312062
v 2.029102 -0.404174 0.224712
v 2.029102 -0.754174 0.312062
v 2.029102 -0.754174 -0.274757
v 2.029102 -0.754174 -0.187407
v 2.029102 -0.404174 -0.274757
v 2.029102 -0.404174 -0.187407
v 0.853774 -0.113428 -0.076794
v 0.873122 -0.049639 -0.048677
v 0.881136 -0.023217 0.019206
v 0.873122 -0.049639 0.087088
v 0.853774 -0.113428 0.115206
v 0.834427 -0.177216 0.087088
v 0.826413 -0.203638 0.019206
v 0.834427 -0.177216 -0.048677
v 0.403408 0.189058 -0.085333
v 0.373613 0.090824 -0.128634
v 0.933802 -0.147470 -0.128634
v 0.415750 0.229749 0.019206
v 0.403408 0.189059 0.123744
v 0.373613 0.090824 0.167046
v 0.343818 -0.007410 0.123744
v 0.331476 -0.048100 0.019206
v 0.343818 -0.007410 -0.085333
v 0.963597 -0.049236 -0.085333
v 0.975939 -0.008545 0.019206
v 0.963597 -0.049235 0.123744
v 0.933802 -0.147470 0.167046
v 0.904006 -0.245703 0.123744
v 0.891665 -0.286394 0.019206
v 0.904006 -0.245704 -0.085333
v 0.455128 0.155826 0.224712
v 0.455128 -0.244174 0.224712
v 0.691224 -0.320674 0.312062
v 0.691224 0.071826 0.224712
v 0.691224 0.071826 0.312062
v 0.691224 -0.320674 0.224712
v 0.691224 -0.320674 -0.274757
v 0.691224 -0.320674 -0.187407
v 0.691224 0.071826 -0.274757
v 0.691224 0.071826 -0.187407
v 0.457488 -0.246795 0.429426
v 0.457488 0.159765 0.429426
v 0.457488 0.159764 -0.392120
v 0.457488 -0.246796 -0.392120
v 0.688863 -0.324551 -0.392120
v 0.688863 0.074387 0.429426
v 0.688863 -0.324550 0.429426
v 0.688863 0.074387 -0.392120
v 0.457488 0.127463 -0.392120
v 0.455128 0.123602 -0.274757
v 0.455128 -0.212398 -0.274757
v 0.457488 -0.214047 -0.392120
v 0.455128 0.123602 0.312062
v 0.457488 0.127464 0.429426
v 0.457488 -0.214047 0.429426
v 0.455128 -0.212398 0.312062
v -0.044852 0.123602 -0.274757
v -0.144872 0.023548 -0.274757
v -0.115577 0.094297 -0.274757
v -0.144872 -0.112388 -0.274757
v -0.044852 -0.212398 -0.274757
v -0.115577 -0.183105 -0.274757
v -0.142511 0.027409 -0.392120
v -0.042491 0.127463 -0.392120
v -0.113216 0.098158 -0.392120
v -0.042491 -0.214047 -0.392120
v -0.142511 -0.114038 -0.392120
v -0.113216 -0.184755 -0.392120
v -0.144872 0.023548 0.312062
v -0.044852 0.123602 0.312062
v -0.115577 0.094297 0.312062
v -0.044852 -0.212398 0.312062
v -0.144872 -0.112387 0.312062
v -0.115577 -0.183105 0.312062
v -0.042491 0.127464 0.429426
v -0.142511 0.027409 0.429426
v -0.113216 0.098159 0.429426
v -0.142511 -0.114038 0.429426
v -0.042491 -0.214047 0.429426
v -0.113216 -0.184755 0.429426
v -0.044852 -0.044398 -0.274757
v -0.042491 -0.043292 -0.392120
v 3.449193 -0.814174 0.018652
v 3.673909 -2.976001 -0.645986
v 3.808693 -2.976012 -0.645986
v 3.723779 -2.999467 -0.645986
v 3.773113 -2.999471 -0.645986
v 3.461050 -2.719573 -0.645985
v 3.500088 -2.847781 -0.645985
v 3.448758 -2.760211 -0.645985
v 3.463046 -2.807139 -0.645985
v 3.808693 -2.976012 -0.837986
v 3.673909 -2.976001 -0.837986
v 3.773113 -2.999471 -0.837986
v 3.723779 -2.999467 -0.837986
v 3.500088 -2.847781 -0.837985
v 3.461050 -2.719573 -0.837985
v 3.463046 -2.807139 -0.837985
v 3.448758 -2.760211 -0.837985
v 3.684291 -1.139778 -0.921424
v 3.587382 -1.080392 -0.921424
v 3.476866 -1.106924 -0.921424
v 3.417480 -1.203833 -0.921424
v 3.444013 -1.314350 -0.921424
v 3.540921 -1.373735 -0.921424
v 3.651438 -1.347202 -0.921424
v 3.710823 -1.250294 -0.921424
v 4.075790 -1.880718 -0.645986
v 4.075790 -1.880719 -0.837986
v 4.423433 -2.137155 -0.837986
v 4.423433 -2.137155 -0.645986
v 4.353771 -1.501741 -0.645986
v 4.353771 -1.501742 -0.837986
v 3.677256 -1.007203 -0.645986
v 3.475655 -1.008150 -0.645985
v 3.339623 -1.193604 -0.645985
v 3.399275 -1.386180 -0.645985
v 3.321637 -1.254821 -0.645985
v 3.343471 -1.325309 -0.645985
v 3.475655 -1.008150 -0.837985
v 3.677256 -1.007203 -0.837986
v 3.399275 -1.386181 -0.837985
v 3.339623 -1.193605 -0.837985
v 3.343470 -1.325309 -0.837985
v 3.321637 -1.254821 -0.837985
v 4.484138 -1.597906 -0.837986
v 4.583123 -1.919448 -0.837986
v 4.576926 -1.699648 -0.837986
v 4.613158 -1.817340 -0.837986
v 4.583123 -1.919447 -0.645986
v 4.484138 -1.597905 -0.645986
v 4.613158 -1.817340 -0.645986
v 4.576926 -1.699647 -0.645986
v 3.684291 -1.139777 -0.480625
v 3.587383 -1.080391 -0.480625
v 3.476866 -1.106924 -0.480625
v 3.417480 -1.203832 -0.480625
v 3.444013 -1.314349 -0.480625
v 3.540922 -1.373734 -0.480625
v 3.651438 -1.347201 -0.480625
v 3.710823 -1.250293 -0.480625
v 3.570332 -1.315097 0.454872
v 3.570332 -1.140682 0.454872
v 3.460723 -1.315097 0.440441
v 3.460723 -1.140682 0.440441
v 3.358582 -1.315097 0.398133
v 3.358582 -1.140682 0.398133
v 3.270873 -1.315097 0.330832
v 3.270873 -1.140682 0.330832
v 3.203571 -1.315097 0.243122
v 3.203571 -1.140682 0.243122
v 3.161263 -1.315097 0.140982
v 3.161263 -1.140682 0.140982
v 3.146832 -1.315097 0.031372
v 3.146832 -1.140682 0.031372
v 3.161263 -1.315097 -0.078238
v 3.161263 -1.140682 -0.078238
v 3.203570 -1.315097 -0.180378
v 3.203570 -1.140682 -0.180378
v 3.270873 -1.315097 -0.268088
v 3.270873 -1.140682 -0.268088
v 3.358582 -1.315097 -0.335390
v 3.358582 -1.140682 -0.335390
v 3.460722 -1.315097 -0.377698
v 3.460722 -1.140682 -0.377698
v 3.570332 -1.315097 -0.392128
v 3.570332 -1.140682 -0.392128
v 3.679942 -1.315097 -0.377698
v 3.679942 -1.140682 -0.377698
v 3.782082 -1.315097 -0.335390
v 3.782082 -1.140682 -0.335390
v 3.869791 -1.315097 -0.268088
v 3.869791 -1.140682 -0.268088
v 3.937094 -1.315097 -0.180379
v 3.937094 -1.140682 -0.180379
v 3.979402 -1.315097 -0.078238
v 3.979402 -1.140682 -0.078238
v 3.993833 -1.315097 0.031372
v 3.993833 -1.140682 0.031372
v 3.979402 -1.315097 0.140981
v 3.979402 -1.140682 0.140981
v 3.937094 -1.315097 0.243122
v 3.937094 -1.140682 0.243122
v 3.869792 -1.315097 0.330831
v 3.869792 -1.140682 0.330831
v 3.782082 -1.315097 0.398133
v 3.782082 -1.140682 0.398133
v 3.679942 -1.315097 0.440441
v 3.679942 -1.140682 0.440441
v 3.897588 -1.140682 0.119060
v 3.809900 -1.140682 0.270940
v 3.863742 -1.140682 0.200772
v 3.658020 -1.140682 0.358628
v 3.739732 -1.140682 0.324781
v 3.482644 -1.140682 0.358628
v 3.570332 -1.140682 0.370172
v 3.897588 -1.140682 -0.056316
v 3.809900 -1.140682 -0.208196
v 3.863741 -1.140682 -0.138028
v 3.658020 -1.140682 -0.295884
v 3.482644 -1.140682 -0.295884
v 3.570332 -1.140682 -0.307428
v 3.739732 -1.140682 -0.262037
v 3.330765 -1.140682 0.270940
v 3.330764 -1.140682 -0.208196
v 3.231532 -1.140682 0.031372
v 3.243076 -1.140682 0.119060
v 3.276923 -1.140682 -0.138028
v 3.243076 -1.140682 -0.056316
v 3.276923 -1.140682 0.200772
v 3.909132 -1.140682 0.031372
v 3.400932 -1.140682 -0.262037
v 3.400932 -1.140682 0.324782
v 3.570332 -1.315097 0.370172
v 3.400932 -1.315097 0.324782
v 3.482644 -1.315097 0.358628
v 3.243076 -1.315097 0.119060
v 3.276923 -1.315097 0.200772
v 3.231532 -1.315097 0.031372
v 3.330765 -1.315097 0.270940
v 3.739732 -1.315097 -0.262037
v 3.570332 -1.315097 -0.307428
v 3.658020 -1.315097 -0.295884
v 3.400932 -1.315097 -0.262037
v 3.482644 -1.315097 -0.295884
v 3.276923 -1.315097 -0.138028
v 3.330764 -1.315097 -0.208196
v 3.909132 -1.315097 0.031372
v 3.897588 -1.315097 -0.056316
v 3.897588 -1.315097 0.119060
v 3.739732 -1.315097 0.324781
v 3.809900 -1.315097 0.270940
v 3.863741 -1.315097 -0.138028
v 3.863742 -1.315097 0.200772
v 3.809900 -1.315097 -0.208196
v 3.243076 -1.315097 -0.056316
v 3.658020 -1.315097 0.358628
v 3.460722 -1.315097 -0.482508
v 3.460722 -1.140682 -0.482508
v 3.570332 -1.315097 -0.482508
v 3.570332 -1.140682 -0.482508
v 3.679942 -1.315097 -0.482508
v 3.679942 -1.140682 -0.482508
v 3.838294 -2.890161 -0.837986
v 3.911499 -2.816956 -0.837986
v 3.938294 -2.716955 -0.837986
v 3.911499 -2.616956 -0.837986
v 3.538295 -2.716955 -0.837985
v 3.565090 -2.616956 -0.837985
v 3.638295 -2.543751 -0.837986
v 3.565090 -2.816956 -0.837985
v 3.638295 -2.890161 -0.837986
v 3.838294 -2.543749 -0.837986
v 3.782458 -2.905122 -0.837986
v 3.738295 -2.516954 -0.837986
v 3.738295 -2.916955 -0.837986
v 3.911499 -2.816956 -0.645986
v 3.565090 -2.616956 -0.645986
v 3.738295 -2.516954 -0.645986
v 3.638295 -2.543751 -0.645986
v 3.738295 -2.916955 -0.645986
v 3.838294 -2.890161 -0.645986
v 3.754130 -2.912711 -0.645986
v 3.938294 -2.716955 -0.645986
v 3.538295 -2.716955 -0.645986
v 3.838294 -2.543749 -0.645986
v 3.565090 -2.816956 -0.645986
v 3.638295 -2.890161 -0.645986
v 3.654130 -2.894403 -0.645986
v 3.911499 -2.616956 -0.645986
v 3.538265 -1.196691 -0.645986
v 3.538265 -1.196691 -0.837986
vn -0.4804 0.1605 0.8622
vn -0.2029 0.1582 0.9663
vn -0.4016 0.1140 0.9087
vn 0.1716 -0.7487 -0.6403
vn -0.0000 -0.7487 -0.6629
vn -0.0000 -1.0000 -0.0000
vn -0.0000 -0.7487 0.6629
vn -0.1716 -0.7487 0.6403
vn -0.6629 -0.7487 -0.0000
vn -0.6403 -0.7487 0.1716
vn -0.1716 -0.7487 -0.6403
vn -0.3315 -0.7487 -0.5741
vn 0.6403 -0.7487 -0.1716
vn 0.6629 -0.7487 -0.0000
vn 0.3315 -0.7487 0.5741
vn 0.1716 -0.7487 0.6403
vn -0.5741 -0.7487 0.3315
vn -0.4688 -0.7487 0.4688
vn -0.4688 -0.7487 -0.4688
vn -0.5741 -0.7487 -0.3315
vn 0.5741 -0.7487 -0.3315
vn 0.4688 -0.7487 -0.4688
vn 0.4688 -0.7487 0.4688
vn 0.5741 -0.7487 0.3315
vn -0.3315 -0.7487 0.5741
vn -0.6403 -0.7487 -0.1716
vn 0.3315 -0.7487 -0.5741
vn 0.6403 -0.7487 0.1716
vn -0.2588 -0.0000 -0.9659
vn -0.1305 -0.0000 -0.9914
vn -0.0438 -0.0000 -0.9990
vn -0.0000 1.0000 -0.0000
vn -0.2588 -0.0000 0.9659
vn -0.1761 -0.0000 0.9844
vn -0.3723 -0.0000 0.9281
vn 0.1305 -0.0000 0.9914
vn 0.2588 -0.0000 0.9659
vn 0.8489 0.1979 0.4901
vn 0.6931 0.1979 0.6931
vn -0.2537 0.1979 -0.9468
vn -0.0000 0.1979 -0.9802
vn 0.4901 0.1979 -0.8489
vn 0.2537 0.1979 -0.9468
vn -1.0000 0.0099 -0.0000
vn 0.4901 0.1979 0.8489
vn 0.6931 0.1979 -0.6931
vn 0.2537 0.1979 0.9468
vn 0.8489 0.1979 -0.4901
vn -0.0000 0.1979 0.9802
vn 0.9468 0.1979 -0.2537
vn -0.2537 0.1979 0.9468
vn 0.9802 0.1979 -0.0000
vn -0.4804 0.1605 -0.8622
vn -0.2029 0.1582 -0.9663
vn -0.4069 0.1858 -0.8944
vn -0.4901 0.1979 0.8489
vn 0.9468 0.1979 0.2537
vn -0.4901 0.1979 -0.8489
vn -0.4069 0.1858 0.8944
vn 0.1246 0.9896 0.0720
vn 0.1239 0.9897 -0.0715
vn 0.1886 0.9764 -0.1056
vn 0.2588 -0.0000 -0.9659
vn 0.1305 -0.0000 -0.9914
vn 0.2177 -0.0000 -0.9760
vn -0.0438 -0.0000 0.9990
vn 0.1767 -0.0000 0.9843
vn 0.2176 -0.0000 0.9760
vn -0.3722 -0.0000 -0.9282
vn 1.0000 -0.0000 -0.0000
vn 0.9998 -0.0000 0.0201
vn -0.0000 -0.0000 -1.0000
vn -0.3082 -0.9513 -0.0000
vn -0.3082 -0.9513 0.0075
vn -0.3107 -0.9505 0.0104
vn 0.3352 0.9421 -0.0000
vn 0.3391 0.9406 0.0157
vn 0.3391 0.9406 -0.0158
vn 0.3382 0.9409 -0.0206
vn 0.3352 0.9421 -0.0046
vn -0.3082 -0.9513 -0.0075
vn -0.0000 -0.0000 1.0000
vn 0.3298 0.9440 -0.0075
vn -0.3150 -0.9326 0.1763
vn -0.3298 -0.9440 0.0071
vn -0.3302 -0.9439 -0.0000
vn -0.1762 -0.0000 -0.9844
vn 0.1897 0.9761 0.1062
vn 0.3317 0.9434 0.0071
vn 0.3321 0.9433 -0.0000
vn -0.3167 -0.9318 -0.1773
vn -0.3317 -0.9434 -0.0076
vn -0.3161 -0.9310 -0.1825
vn 0.1767 -0.0000 -0.9843
vn -0.3107 -0.9505 -0.0104
vn 0.3382 0.9409 0.0206
vn 0.3459 0.9375 0.0384
vn -0.3111 -0.9502 0.0214
vn -0.3183 -0.9472 0.0377
vn 0.9998 -0.0000 -0.0201
vn -0.3111 -0.9502 -0.0214
vn -0.9998 -0.0000 0.0201
vn -0.9998 -0.0000 -0.0201
vn -0.0000 0.9995 -0.0329
vn -0.1919 0.9810 -0.0284
vn -0.0000 0.9995 0.0329
vn -0.1919 0.9810 0.0284
vn -0.1983 0.9797 0.0282
vn -0.0000 -0.9999 0.0140
vn -0.1923 -0.9813 0.0099
vn -0.0000 -0.9999 -0.0140
vn -0.1923 -0.9813 -0.0099
vn -0.1978 -0.9802 -0.0098
vn -0.9802 -0.1972 0.0169
vn -0.9816 0.1906 0.0135
vn -0.9811 -0.1929 0.0170
vn -0.9816 0.1906 -0.0135
vn -0.9802 -0.1972 -0.0169
vn -0.9811 -0.1929 -0.0170
vn -0.3827 0.9236 0.0227
vn -0.9239 0.3826 -0.0060
vn -0.9798 0.1994 -0.0132
vn -0.9238 -0.3827 -0.0132
vn -0.3826 -0.9239 0.0053
vn -0.1978 -0.9802 0.0098
vn -0.3827 -0.9239 0.0053
vn -0.9798 0.1994 0.0131
vn -0.9239 0.3826 0.0060
vn -0.3827 0.9236 -0.0227
vn -0.1983 0.9797 -0.0283
vn -0.3826 -0.9239 -0.0053
vn -0.3827 -0.9239 -0.0053
vn -0.9238 -0.3827 0.0132
vn -0.4016 0.1140 -0.9087
vn -0.1305 -0.0000 0.9914
vn 0.3352 0.9421 0.0046
vn 0.3459 0.9375 -0.0384
vn 0.3391 0.9406 -0.0157
vn 0.1762 -0.0000 0.9844
vn 0.1889 0.9763 -0.1054
vn 0.3302 0.9439 -0.0000
vn 0.3298 0.9440 -0.0071
vn -0.3144 -0.9318 0.1815
vn -0.3167 -0.9319 -0.1770
vn -0.3321 -0.9433 -0.0000
vn -0.3317 -0.9434 -0.0071
vn -0.1758 -0.0000 0.9844
vn -0.3183 -0.9472 -0.0377
vn -0.1345 -0.3653 -0.9211
vn -0.1353 -0.3678 -0.9200
vn -0.1353 -0.3679 -0.9200
vn -0.3199 -0.8696 -0.3762
vn -0.3202 -0.8706 -0.3736
vn -0.3202 -0.8706 -0.3735
vn -0.3202 -0.8706 0.3736
vn -0.3199 -0.8696 0.3762
vn -0.3202 -0.8706 0.3735
vn -0.1353 -0.3678 0.9200
vn -0.1345 -0.3653 0.9211
vn -0.1353 -0.3679 0.9200
vn 0.1354 0.3678 0.9200
vn 0.1346 0.3653 0.9211
vn 0.3207 0.8704 0.3736
vn 0.3204 0.8694 0.3762
vn 0.3207 0.8704 0.3735
vn 0.3204 0.8694 -0.3762
vn 0.3207 0.8704 -0.3736
vn 0.3207 0.8704 -0.3735
vn 0.1346 0.3653 -0.9211
vn 0.1354 0.3678 -0.9200
vn -0.1345 -0.3652 -0.9211
vn -0.3199 -0.8695 -0.3762
vn -0.3199 -0.8695 0.3762
vn 0.1345 0.3652 0.9211
vn 0.1345 0.3652 -0.9211
vn -0.5000 -0.0000 0.8660
vn -0.7071 -0.0000 0.7071
vn -0.8660 -0.0000 0.5000
vn -0.9659 -0.0000 0.2588
vn -1.0000 -0.0000 -0.0000
vn -0.9659 -0.0000 -0.2588
vn -0.8660 -0.0000 -0.5000
vn -0.7071 -0.0000 -0.7071
vn -0.5000 -0.0000 -0.8660
vn -0.3827 -0.0000 -0.9239
vn 0.3827 -0.0000 -0.9239
vn 0.5000 -0.0000 -0.8660
vn 0.7071 -0.0000 -0.7071
vn 0.8660 -0.0000 -0.5000
vn 0.9659 -0.0000 -0.2588
vn 0.9659 -0.0000 0.2588
vn 0.8660 -0.0000 0.5000
vn 0.7071 -0.0000 0.7071
vn 0.5000 -0.0000 0.8660
vn 0.0005 1.0000 -0.0000
vn -0.0005 0.9999 -0.0148
vn -0.0002 0.9997 0.0239
vn -0.0000 -0.9999 0.0149
vn -0.0027 -0.9999 -0.0113
vn 0.5860 0.1714 0.7920
vn 0.3346 -0.4632 0.8207
vn 0.1436 -0.9279 0.3442
vn 0.1436 -0.9279 -0.3442
vn 0.3346 -0.4632 -0.8207
vn -0.9310 0.3651 0.0030
vn -0.9305 0.3663 -0.0000
vn -0.9305 0.3664 -0.0000
vn -0.9321 0.3622 -0.0043
vn -0.9310 0.3651 -0.0031
vn -0.9332 0.3593 -0.0031
vn -0.9337 0.3581 -0.0000
vn -0.9321 0.3622 0.0043
vn -0.9332 0.3593 0.0031
vn -0.9310 0.3651 0.0031
vn -0.9310 0.3651 -0.0030
vn -0.2382 -0.3139 -0.9191
vn -0.2389 -0.3113 -0.9198
vn -0.2422 -0.3003 -0.9226
vn -0.5885 -0.7215 -0.3648
vn -0.5903 -0.7174 -0.3699
vn -0.5924 -0.7127 -0.3757
vn -0.5903 -0.7174 0.3700
vn -0.5885 -0.7215 0.3648
vn -0.5924 -0.7127 0.3757
vn -0.2389 -0.3113 0.9198
vn -0.2382 -0.3139 0.9191
vn -0.2422 -0.3002 0.9226
vn 0.1945 0.3296 0.9239
vn 0.2043 0.3172 0.9261
vn 0.2160 0.3022 0.9285
vn 0.3157 0.8647 0.3906
vn 0.3775 0.8279 0.4149
vn 0.4071 0.8080 0.4260
vn 0.3775 0.8279 -0.4149
vn 0.3154 0.8649 -0.3905
vn 0.4071 0.8080 -0.4260
vn 0.2043 0.3172 -0.9261
vn 0.1945 0.3296 -0.9239
vn 0.2160 0.3022 -0.9285
vn 0.1529 0.3594 -0.9206
vn 0.3629 0.8531 -0.3749
vn 0.3629 0.8531 0.3749
vn 0.1529 0.3594 0.9206
vn -0.1529 -0.3594 0.9206
vn -0.3629 -0.8531 0.3749
vn -0.3629 -0.8531 -0.3749
vn -0.1529 -0.3594 -0.9206
vn 0.7449 0.5873 0.3165
vn 0.7449 0.5873 -0.3165
vn 0.5860 0.1714 -0.7920
vn 0.1436 -0.9278 0.3442
vn -0.2341 -0.3274 -0.9154
vn -0.5862 -0.7266 -0.3583
vn -0.5903 -0.7174 0.3699
vn -0.5862 -0.7266 0.3583
vn -0.2341 -0.3274 0.9154
vn 0.1770 0.3514 0.9193
vn 0.3154 0.8649 0.3905
vn 0.2724 0.8870 0.3727
vn 0.3772 0.8280 0.4149
vn 0.2724 0.8870 -0.3727
vn 0.1770 0.3514 -0.9193
vn -0.8947 0.4467 -0.0000
vn -0.8066 0.5911 -0.0000
vn -0.5121 -0.8589 -0.0000
vn -0.6696 -0.7428 -0.0000
vn 0.6894 -0.7244 -0.0000
vn 0.5505 -0.8349 -0.0000
vn -0.0001 -1.0000 -0.0000
vn -0.2182 -0.9759 -0.0000
vn -0.9572 0.2895 -0.0000
vn -0.9566 -0.2913 -0.0000
vn -0.8691 -0.4946 -0.0000
vn -0.6696 -0.7427 -0.0000
vn 0.5225 0.8526 -0.0000
vn -0.2334 0.9724 -0.0000
vn -0.8526 0.5225 -0.0000
vn -0.9724 -0.2334 -0.0000
vn -0.5225 -0.8526 -0.0000
vn 0.2334 -0.9724 -0.0000
vn 0.8526 -0.5225 -0.0000
vn 0.9724 0.2334 -0.0000
vn -0.5901 -0.8073 -0.0000
vn -0.6669 -0.7452 -0.0000
vn 0.8065 -0.5913 -0.0000
vn 0.6694 0.7429 -0.0000
vn 0.5919 0.8060 -0.0000
vn 0.5901 0.8073 -0.0000
vn -0.8964 0.4433 -0.0000
vn -0.8063 0.5915 -0.0000
vn -0.8672 -0.4979 -0.0000
vn -0.9552 -0.2959 -0.0000
vn -0.9594 0.2819 -0.0000
vn 0.6695 0.7429 -0.0000
vn 0.8683 0.4960 -0.0000
vn 0.9557 0.2942 -0.0000
vn 0.9594 -0.2822 -0.0000
vn 0.8963 -0.4435 -0.0000
vn -0.0047 1.0000 -0.0000
vn 0.0003 -0.0006 -1.0000
vn 0.5504 -0.8349 -0.0000
vt 0.158491 0.932821
vt 0.236822 0.926542
vt 0.164577 0.949018
vt 0.141144 0.497956
vt 0.170140 0.518034
vt 0.139172 0.518034
vt 0.272475 0.481245
vt 0.260245 0.574143
vt 0.185908 0.517102
vt 0.314867 0.591543
vt 0.282148 0.578375
vt 0.293126 0.569490
vt 0.202555 0.613260
vt 0.228006 0.588844
vt 0.221839 0.619191
vt 0.141144 0.538112
vt 0.175607 0.545607
vt 0.146983 0.557424
vt 0.184794 0.432376
vt 0.214508 0.451376
vt 0.202075 0.458074
vt 0.281333 0.422434
vt 0.282148 0.457693
vt 0.269652 0.451114
vt 0.241907 0.621258
vt 0.256115 0.588977
vt 0.261994 0.619382
vt 0.156467 0.575230
vt 0.191182 0.569006
vt 0.169233 0.590852
vt 0.169233 0.445217
vt 0.182246 0.477997
vt 0.156467 0.460838
vt 0.261994 0.416686
vt 0.242054 0.445777
vt 0.241907 0.414810
vt 0.281333 0.613634
vt 0.299185 0.604235
vt 0.184794 0.603692
vt 0.214508 0.584692
vt 0.171520 0.532089
vt 0.175607 0.490462
vt 0.171520 0.503980
vt 0.202555 0.422808
vt 0.228006 0.447224
vt 0.299184 0.431833
vt 0.293126 0.466578
vt 0.242054 0.590291
vt 0.182246 0.558071
vt 0.191182 0.467062
vt 0.256115 0.447091
vt 0.269652 0.584954
vt 0.202075 0.577995
vt 0.146983 0.478645
vt 0.221839 0.416877
vt 0.355951 0.674789
vt 0.331741 0.729534
vt 0.331741 0.674789
vt 0.292802 0.853465
vt 0.265293 0.845822
vt 0.281298 0.833540
vt 0.272936 0.873331
vt 0.281561 0.862091
vt 0.267514 0.886421
vt 0.253011 0.861828
vt 0.265665 0.900469
vt 0.245291 0.880467
vt 0.245290 0.920471
vt 0.242657 0.900469
vt 0.272936 0.927606
vt 0.267514 0.914516
vt 0.265293 0.955115
vt 0.253011 0.939110
vt 0.281561 0.938847
vt 0.281298 0.967397
vt 0.356133 0.729666
vt 0.380343 0.674921
vt 0.380343 0.729666
vt 0.303026 0.871163
vt 0.283061 0.895406
vt 0.287456 0.870483
vt 0.322059 0.870992
vt 0.305232 0.896374
vt 0.346583 0.881324
vt 0.326898 0.891571
vt 0.331314 0.859962
vt 0.362945 0.866331
vt 0.351179 0.836287
vt 0.341247 0.848124
vt 0.360434 0.825257
vt 0.374868 0.847615
vt 0.382510 0.804279
vt 0.381542 0.826450
vt 0.353925 0.791268
vt 0.357298 0.806484
vt 0.304133 0.674789
vt 0.287130 0.729534
vt 0.287130 0.674789
vt 0.137404 0.836450
vt 0.214768 0.843977
vt 0.138260 0.850593
vt 0.162255 0.712532
vt 0.228028 0.753951
vt 0.156678 0.725557
vt 0.147576 0.752382
vt 0.224503 0.763524
vt 0.221476 0.773266
vt 0.169701 0.961063
vt 0.240512 0.935215
vt 0.215908 0.854115
vt 0.139844 0.864672
vt 0.144077 0.766112
vt 0.218956 0.783151
vt 0.175200 0.973990
vt 0.244471 0.944522
vt 0.217571 0.864180
vt 0.142154 0.878651
vt 0.141291 0.780004
vt 0.216950 0.793154
vt 0.248430 0.953829
vt 0.180699 0.986916
vt 0.219752 0.874145
vt 0.145183 0.892492
vt 0.139226 0.794021
vt 0.215464 0.803246
vt 0.252120 0.962501
vt 0.185823 0.998961
vt 0.148922 0.906158
vt 0.222444 0.883985
vt 0.214500 0.813402
vt 0.137888 0.808126
vt 0.175388 0.687433
vt 0.252120 0.704389
vt 0.241500 0.726502
vt 0.153362 0.919613
vt 0.225641 0.893672
vt 0.214062 0.823594
vt 0.137280 0.822282
vt 0.236539 0.735416
vt 0.168497 0.699813
vt 0.229334 0.903182
vt 0.214152 0.833795
vt 0.232044 0.744574
vt 0.151780 0.738852
vt 0.296054 0.819148
vt 0.237437 0.785305
vt 0.256976 0.751463
vt 0.352529 0.647548
vt 0.331923 0.674921
vt 0.335527 0.647548
vt 0.368952 0.643148
vt 0.356133 0.674921
vt 0.368770 0.761307
vt 0.355951 0.729534
vt 0.379336 0.735800
vt 0.335345 0.756907
vt 0.352347 0.756907
vt 0.287312 0.729666
vt 0.304315 0.674921
vt 0.304315 0.729666
vt 0.270310 0.729666
vt 0.287312 0.674921
vt 0.331923 0.729666
vt 0.270128 0.729534
vt 0.270128 0.674789
vt 0.380161 0.674789
vt 0.304133 0.729534
vt 0.956039 0.781802
vt 0.893884 0.852332
vt 0.932111 0.769751
vt 0.890865 0.898939
vt 0.857526 0.982512
vt 0.833885 0.894386
vt 0.319939 0.846194
vt 0.299937 0.825820
vt 0.319939 0.823187
vt 0.305892 0.848043
vt 0.292802 0.947472
vt 0.305892 0.952894
vt 0.319939 0.954743
vt 0.299937 0.975117
vt 0.319939 0.977751
vt 0.933060 0.769976
vt 0.879378 0.743141
vt 0.935547 0.750207
vt 0.895048 0.851037
vt 0.836230 0.865353
vt 0.838153 0.845521
vt 0.835472 0.874525
vt 0.892452 0.879077
vt 0.937430 0.723339
vt 0.878987 0.736985
vt 0.881155 0.717178
vt 0.876891 0.762910
vt 0.027237 0.272773
vt 0.355043 0.316332
vt 0.012606 0.315985
vt 0.038157 0.252523
vt 0.369674 0.273121
vt 0.023486 0.336257
vt 0.355043 0.336257
vt 0.038551 0.379319
vt 0.370109 0.379319
vt 0.039338 0.273096
vt 0.371101 0.252831
vt 0.371122 0.272756
vt 0.024232 0.316144
vt 0.356037 0.335729
vt 0.013381 0.336432
vt 0.356017 0.315804
vt 0.028138 0.379600
vt 0.370794 0.378897
vt 0.324265 0.104617
vt 0.404101 0.124543
vt 0.324265 0.124542
vt 0.404102 0.106439
vt 0.324265 0.126364
vt 0.324265 0.106439
vt 0.030359 0.208893
vt 0.000348 0.124541
vt 0.030359 0.020265
vt 0.351027 0.029399
vt 0.351594 0.009483
vt 0.030927 0.000348
vt 0.000348 0.104616
vt 0.030359 0.022088
vt 0.351026 0.031221
vt 0.000348 0.106440
vt 0.351594 0.221499
vt 0.030359 0.210717
vt 0.351027 0.201582
vt 0.000348 0.126365
vt 0.835720 0.899164
vt 0.889841 0.897450
vt 0.912984 0.985458
vt 0.589710 0.208842
vt 0.475662 0.169892
vt 0.475662 0.130942
vt 0.833846 0.892038
vt 0.883411 0.716663
vt 0.938656 0.723597
vt 0.938656 0.977793
vt 0.915886 0.891205
vt 0.935261 0.743146
vt 0.876765 0.763676
vt 0.830450 0.847439
vt 0.837807 0.847835
vt 0.826533 0.891137
vt 0.876003 0.715704
vt 0.869336 0.762890
vt 0.873627 0.770455
vt 0.588812 0.132482
vt 0.475302 0.105696
vt 0.589350 0.105696
vt 0.589171 0.104156
vt 0.475123 0.104156
vt 0.589171 0.027512
vt 0.475662 0.000739
vt 0.589710 0.000738
vt 0.588811 0.001021
vt 0.475302 0.027795
vt 0.474763 0.001022
vt 0.440380 0.027718
vt 0.408834 0.001132
vt 0.439841 0.000945
vt 0.458631 0.202443
vt 0.451948 0.155304
vt 0.474764 0.132481
vt 0.459169 0.099011
vt 0.452487 0.050608
vt 0.409194 0.027402
vt 0.440740 0.000816
vt 0.440201 0.027590
vt 0.374265 0.027129
vt 0.391010 0.000424
vt 0.391728 0.027205
vt 0.408476 0.000620
vt 0.457662 0.027580
vt 0.458200 0.000806
vt 0.475123 0.027512
vt 0.408116 0.027914
vt 0.391369 0.001329
vt 0.390650 0.028110
vt 0.373906 0.001405
vt 0.457840 0.027728
vt 0.457302 0.000954
vt 0.475123 0.065834
vt 0.458990 0.034194
vt 0.452308 0.081333
vt 0.458990 0.097471
vt 0.452308 0.050325
vt 0.459529 0.137626
vt 0.452846 0.153764
vt 0.459529 0.202160
vt 0.475662 0.208842
vt 0.452846 0.186029
vt 0.304147 0.812937
vt 0.327305 0.795419
vt 0.327305 0.804844
vt 0.327305 0.785305
vt 0.304147 0.785305
vt 0.327305 0.775191
vt 0.304147 0.757673
vt 0.327305 0.765766
vt 0.189563 0.503461
vt 0.196624 0.491231
vt 0.206610 0.481245
vt 0.218840 0.474184
vt 0.232481 0.470528
vt 0.246604 0.470528
vt 0.260245 0.474183
vt 0.282461 0.491230
vt 0.289522 0.503461
vt 0.293177 0.517102
vt 0.293177 0.531224
vt 0.289522 0.544865
vt 0.282461 0.557095
vt 0.272475 0.567081
vt 0.246604 0.577798
vt 0.232482 0.577798
vt 0.218841 0.574143
vt 0.206610 0.567081
vt 0.196624 0.557095
vt 0.189563 0.544865
vt 0.185908 0.531224
vt 0.314867 0.444525
vt 0.377707 0.782613
vt 0.183637 0.672223
vt 0.266401 0.747559
vt 0.276515 0.746227
vt 0.286629 0.747559
vt 0.296054 0.751463
vt 0.286629 0.823051
vt 0.276515 0.824383
vt 0.266401 0.823051
vt 0.256976 0.819147
vt 0.248883 0.812937
vt 0.242673 0.804844
vt 0.238769 0.795419
vt 0.238769 0.775191
vt 0.242673 0.765766
vt 0.248883 0.757673
vt 0.379518 0.668655
vt 0.270310 0.674921
vt 0.380161 0.729534
vt 0.918428 0.863051
vt 0.914063 0.985413
vt 0.893125 0.870869
vt 0.369714 0.253196
vt 0.028445 0.252831
vt 0.404101 0.104618
vt 0.404102 0.126364
vt 0.351026 0.199760
vt 0.030927 0.230633
vt 0.857431 0.981727
vt 0.855531 0.974503
vt 0.589710 0.130942
vt 0.828132 0.874130
vt 0.828935 0.864453
vt 0.872190 0.742210
vt 0.871778 0.736223
vt 0.840903 0.841148
vt 0.589350 0.027795
vt 0.588811 0.209125
vt 0.474764 0.209125
vt 0.451948 0.186312
vt 0.458631 0.139166
vt 0.452487 0.082873
vt 0.459169 0.034477
vt 0.373547 0.000348
vt 0.373188 0.028186
vt 0.071802 0.403474
vt 0.085879 0.981510
vt 0.072027 0.979730
vt 0.057838 0.403204
vt 0.058079 0.978995
vt 0.044131 0.979741
vt 0.030281 0.981533
vt 0.043874 0.403485
vt 0.016430 0.983325
vt 0.029923 0.404157
vt 0.113680 0.984027
vt 0.127630 0.404792
vt 0.127630 0.983289
vt 0.099703 0.404793
vt 0.099731 0.983290
vt 0.085753 0.404133
vt 0.015973 0.404828
vt 0.113666 0.405066
vt 0.504430 0.564988
vt 0.464329 0.590407
vt 0.464329 0.564988
vt 0.504430 0.590407
vt 0.464329 0.615825
vt 0.504430 0.615825
vt 0.464329 0.641244
vt 0.504430 0.641244
vt 0.464329 0.666662
vt 0.504430 0.666662
vt 0.464329 0.692080
vt 0.464185 0.841407
vt 0.504286 0.815989
vt 0.504286 0.841407
vt 0.464185 0.815989
vt 0.504286 0.790571
vt 0.464185 0.790571
vt 0.504286 0.765152
vt 0.464185 0.765152
vt 0.504286 0.739734
vt 0.464185 0.739734
vt 0.504286 0.714316
vt 0.464185 0.714316
vt 0.504286 0.688897
vt 0.795896 0.719174
vt 0.759757 0.722508
vt 0.779633 0.702785
vt 0.799510 0.683062
vt 0.818369 0.702067
vt 0.504430 0.285387
vt 0.464329 0.310805
vt 0.464329 0.285387
vt 0.504430 0.310805
vt 0.464329 0.336223
vt 0.504430 0.336223
vt 0.464329 0.361642
vt 0.504430 0.361642
vt 0.464329 0.387060
vt 0.504430 0.387060
vt 0.464329 0.412479
vt 0.504430 0.412479
vt 0.464329 0.437897
vt 0.504430 0.437897
vt 0.464329 0.463315
vt 0.504430 0.463315
vt 0.464329 0.488734
vt 0.504430 0.488734
vt 0.464329 0.514152
vt 0.955567 0.641979
vt 0.951869 0.621353
vt 0.955553 0.607604
vt 0.833918 0.609383
vt 0.860001 0.546413
vt 0.851117 0.579621
vt 0.504430 0.514152
vt 0.464329 0.539570
vt 0.504430 0.539570
vt 0.838231 0.627323
vt 0.847128 0.559748
vt 0.847141 0.594123
vt 0.964171 0.575157
vt 0.955275 0.642732
vt 0.955261 0.608357
vt 0.724516 0.790003
vt 0.688378 0.793337
vt 0.708254 0.773614
vt 0.831137 0.651678
vt 0.849996 0.670684
vt 0.746989 0.772897
vt 0.778617 0.741513
vt 0.728130 0.753891
vt 0.504430 0.692080
vt 0.464185 0.688897
vt 0.955553 0.593370
vt 0.969068 0.591590
vt 0.969068 0.609383
vt 0.964463 0.626570
vt 0.942986 0.654560
vt 0.934687 0.643746
vt 0.944752 0.633680
vt 0.922360 0.650863
vt 0.927576 0.663457
vt 0.910390 0.668062
vt 0.892597 0.668062
vt 0.875410 0.663457
vt 0.860001 0.654560
vt 0.847420 0.641979
vt 0.838524 0.626570
vt 0.833918 0.591590
vt 0.838523 0.574404
vt 0.847420 0.558995
vt 0.875410 0.537517
vt 0.892597 0.532912
vt 0.910390 0.532912
vt 0.927576 0.537517
vt 0.942985 0.546413
vt 0.955567 0.558995
vt 0.964463 0.574404
vt 0.951869 0.579620
vt 0.944752 0.567293
vt 0.908611 0.654547
vt 0.894376 0.654547
vt 0.934687 0.557228
vt 0.880627 0.650863
vt 0.922360 0.550111
vt 0.908611 0.546427
vt 0.868300 0.643746
vt 0.858235 0.633680
vt 0.894376 0.546427
vt 0.851117 0.621353
vt 0.880627 0.550111
vt 0.868300 0.557228
vt 0.847433 0.607604
vt 0.847433 0.593370
vt 0.858235 0.567293
vt 0.847141 0.608357
vt 0.850825 0.622106
vt 0.833626 0.610136
vt 0.833626 0.592343
vt 0.838231 0.575157
vt 0.857942 0.568046
vt 0.850825 0.580373
vt 0.868007 0.557981
vt 0.859709 0.547166
vt 0.875118 0.538270
vt 0.892305 0.533665
vt 0.910097 0.533665
vt 0.927284 0.538270
vt 0.942693 0.547166
vt 0.955275 0.559748
vt 0.968776 0.592343
vt 0.968776 0.610136
vt 0.964171 0.627323
vt 0.942693 0.655313
vt 0.927284 0.664210
vt 0.910098 0.668815
vt 0.892305 0.668815
vt 0.875118 0.664210
vt 0.859709 0.655313
vt 0.847128 0.642732
vt 0.857942 0.634433
vt 0.868008 0.644498
vt 0.880335 0.550864
vt 0.894084 0.547180
vt 0.880335 0.651616
vt 0.908318 0.547180
vt 0.894084 0.655300
vt 0.908318 0.655300
vt 0.922067 0.550864
vt 0.934395 0.557981
vt 0.922068 0.651616
vt 0.944460 0.568046
vt 0.934395 0.644498
vt 0.944460 0.634433
vt 0.951577 0.580373
vt 0.955261 0.594123
vt 0.951577 0.622106
vt 0.707237 0.812343
vt 0.568572 0.944563
vt 0.537280 0.956369
vt 0.553971 0.936334
vt 0.520480 0.936775
vt 0.543062 0.923611
vt 0.511467 0.912589
vt 0.537210 0.907906
vt 0.537156 0.891146
vt 0.511384 0.886778
vt 0.616123 0.936055
vt 0.649618 0.936193
vt 0.632994 0.955938
vt 0.153748 0.658318
vt 0.140500 0.649839
vt 0.143872 0.648442
vt 0.153748 0.624599
vt 0.140500 0.633079
vt 0.152351 0.621227
vt 0.167715 0.624599
vt 0.180963 0.633078
vt 0.177591 0.634475
vt 0.167715 0.658318
vt 0.180963 0.649839
vt 0.169112 0.661690
vt 0.152351 0.661690
vt 0.143872 0.634475
vt 0.169112 0.621227
vt 0.177591 0.648442
vt 0.294410 0.628061
vt 0.316404 0.638658
vt 0.303163 0.654603
vt 0.278832 0.634244
vt 0.288540 0.664224
vt 0.271053 0.665000
vt 0.250979 0.659843
vt 0.262587 0.638365
vt 0.359108 0.604284
vt 0.366040 0.585149
vt 0.379236 0.599341
vt 0.343253 0.611702
vt 0.352748 0.595358
vt 0.324403 0.613094
vt 0.329650 0.622718
vt 0.309410 0.620584
vt 0.348497 0.964209
vt 0.511384 0.938399
vt 0.511184 0.964209
vt 0.348697 0.938399
vt 0.348697 0.886778
vt 0.820237 0.989670
vt 0.657349 0.963860
vt 0.820037 0.963860
vt 0.657149 0.938050
vt 0.819836 0.938050
vt 0.657066 0.912240
vt 0.819753 0.912240
vt 0.819836 0.886429
vt 0.348296 0.990018
vt 0.510984 0.990018
vt 0.585097 0.947359
vt 0.559766 0.969040
vt 0.610623 0.968811
vt 0.585214 0.973346
vt 0.601597 0.944414
vt 0.626918 0.923233
vt 0.246051 0.641100
vt 0.339204 0.605230
vt 0.348780 0.912589
vt 0.657549 0.989670
vt 0.657149 0.886429
vt 0.994327 0.817174
vt 0.962802 0.831297
vt 0.962802 0.817174
vt 0.994327 0.831297
vt 0.962802 0.845419
vt 0.994327 0.845419
vt 0.962802 0.859541
vt 0.994327 0.859541
vt 0.962802 0.873664
vt 0.994327 0.873664
vt 0.962802 0.887786
vt 0.994327 0.887786
vt 0.962802 0.901908
vt 0.994327 0.901908
vt 0.962802 0.916030
vt 0.994327 0.916030
vt 0.962802 0.930153
vt 0.994327 0.930153
vt 0.962802 0.944275
vt 0.994327 0.944275
vt 0.962802 0.958397
vt 0.994327 0.958397
vt 0.962802 0.972519
vt 0.994327 0.972519
vt 0.962802 0.986642
vt 0.994327 0.647707
vt 0.962802 0.661830
vt 0.962802 0.647707
vt 0.994327 0.661830
vt 0.962802 0.675952
vt 0.994327 0.675952
vt 0.962802 0.690074
vt 0.994327 0.690074
vt 0.962802 0.704196
vt 0.994327 0.704196
vt 0.962802 0.718319
vt 0.994327 0.718319
vt 0.962802 0.732441
vt 0.994327 0.732441
vt 0.962802 0.746563
vt 0.994327 0.746563
vt 0.962802 0.760685
vt 0.994327 0.760685
vt 0.962802 0.774808
vt 0.994327 0.774808
vt 0.962802 0.788930
vt 0.994327 0.788930
vt 0.962802 0.803052
vt 0.994327 0.803052
vt 0.994327 0.986642
vt 0.412781 0.600293
vt 0.447115 0.786267
vt 0.412781 0.786267
vt 0.655773 0.769248
vt 0.646465 0.757291
vt 0.653842 0.756864
vt 0.731026 0.608897
vt 0.683109 0.715848
vt 0.673987 0.702396
vt 0.447115 0.535471
vt 0.412781 0.574095
vt 0.412781 0.535471
vt 0.643519 0.862347
vt 0.640886 0.850941
vt 0.652371 0.847264
vt 0.638652 0.850460
vt 0.636639 0.862785
vt 0.631443 0.859817
vt 0.447115 0.509172
vt 0.412781 0.516793
vt 0.412781 0.509172
vt 0.447115 0.516793
vt 0.412781 0.525615
vt 0.447115 0.525615
vt 0.447115 0.592701
vt 0.447115 0.600293
vt 0.412781 0.592701
vt 0.447115 0.583929
vt 0.412781 0.583929
vt 0.447115 0.574095
vt 0.604933 0.568400
vt 0.531964 0.587214
vt 0.531964 0.568400
vt 0.604933 0.606029
vt 0.531964 0.606029
vt 0.604933 0.455512
vt 0.531964 0.474327
vt 0.531964 0.455512
vt 0.604933 0.474327
vt 0.531964 0.493141
vt 0.604933 0.493142
vt 0.531964 0.511956
vt 0.604933 0.530771
vt 0.531964 0.530771
vt 0.511274 0.852424
vt 0.531804 0.802859
vt 0.581370 0.823389
vt 0.531964 0.549585
vt 0.604933 0.549585
vt 0.446973 0.265650
vt 0.412640 0.415503
vt 0.412640 0.265650
vt 0.412781 0.323198
vt 0.516590 0.709155
vt 0.588510 0.712864
vt 0.521473 0.722452
vt 0.446973 0.710876
vt 0.412639 0.681908
vt 0.446973 0.681908
vt 0.805523 0.631494
vt 0.813393 0.617237
vt 0.446973 0.532055
vt 0.640043 0.501669
vt 0.673401 0.488912
vt 0.646361 0.512610
vt 0.412640 0.454875
vt 0.446973 0.496004
vt 0.412640 0.496003
vt 0.446973 0.415503
vt 0.412640 0.430270
vt 0.446973 0.430270
vt 0.412640 0.443465
vt 0.446973 0.443465
vt 0.683182 0.623136
vt 0.680900 0.632689
vt 0.653904 0.617314
vt 0.412639 0.710876
vt 0.446973 0.735500
vt 0.412639 0.735500
vt 0.504567 0.258512
vt 0.465328 0.283679
vt 0.465328 0.258512
vt 0.447115 0.255884
vt 0.412781 0.274916
vt 0.412781 0.255884
vt 0.447115 0.323198
vt 0.560146 0.874505
vt 0.510580 0.853974
vt 0.531111 0.804409
vt 0.412640 0.532055
vt 0.649216 0.771736
vt 0.641330 0.769962
vt 0.627564 0.754032
vt 0.640055 0.747382
vt 0.634379 0.759821
vt 0.634272 0.764472
vt 0.622654 0.736008
vt 0.631608 0.749796
vt 0.520371 0.693207
vt 0.544588 0.749966
vt 0.811881 0.598457
vt 0.801392 0.580184
vt 0.531802 0.678883
vt 0.548273 0.664970
vt 0.774456 0.658721
vt 0.785106 0.561500
vt 0.609810 0.717537
vt 0.606566 0.723398
vt 0.607213 0.731110
vt 0.611576 0.738613
vt 0.624670 0.800397
vt 0.615122 0.810734
vt 0.664035 0.836051
vt 0.677533 0.822068
vt 0.679490 0.827514
vt 0.650242 0.858669
vt 0.654518 0.846571
vt 0.677874 0.834002
vt 0.673119 0.839797
vt 0.680257 0.615164
vt 0.660567 0.591726
vt 0.674022 0.641261
vt 0.633785 0.593367
vt 0.670297 0.458675
vt 0.700442 0.465214
vt 0.643833 0.481869
vt 0.639117 0.490417
vt 0.621807 0.719660
vt 0.663229 0.756133
vt 0.677342 0.746414
vt 0.629223 0.705049
vt 0.642943 0.696077
vt 0.684312 0.731957
vt 0.659321 0.695108
vt 0.604933 0.587214
vt 0.604933 0.511956
vt 0.581370 0.852424
vt 0.560839 0.872955
vt 0.531804 0.872955
vt 0.511274 0.823389
vt 0.560839 0.802859
vt 0.446973 0.454875
vt 0.504567 0.283679
vt 0.447115 0.274916
vt 0.560146 0.804409
vt 0.580676 0.824939
vt 0.580676 0.853974
vt 0.531111 0.874505
vt 0.510580 0.824939
vt 0.667001 0.822261
vt 0.662613 0.808774
vt 0.626831 0.847723
vt 0.616099 0.837617
vt 0.652068 0.799233
vt 0.612012 0.824374
vt 0.638180 0.796150
s 1
g off
g PLDD_SpacialRoverExploreralumWhite
usemtl SpacialRoverExploreralumWhite
f 56/1/1 137/2/2 58/3/3
s 2
f 27/4/4 73/5/5 25/6/5
s 3
f 80/7/6 88/8/6 96/9/6
s 2
f 49/10/7 86/11/8 85/12/7
f 61/13/9 90/14/10 59/15/10
f 71/16/11 95/17/12 69/18/12
f 35/19/13 79/20/14 78/21/13
f 45/22/15 84/23/16 83/24/15
f 57/25/17 88/26/18 55/27/18
f 67/28/19 93/29/20 65/30/20
f 33/31/21 76/32/22 31/33/22
f 43/34/23 81/35/24 41/36/24
f 53/37/25 86/11/8 51/38/8
f 63/39/26 91/40/9 61/13/9
f 25/6/5 96/41/11 71/16/11
f 27/4/4 75/42/27 74/43/4
f 37/44/14 80/45/28 79/20/14
f 47/46/16 85/47/7 84/23/16
f 57/25/17 90/14/10 89/48/17
f 67/28/19 95/17/12 94/49/19
f 33/31/21 78/21/13 77/50/21
f 43/34/23 83/24/15 82/51/23
f 53/37/25 88/26/18 87/52/25
f 65/30/20 92/53/26 63/39/26
f 31/33/22 75/42/27 29/54/27
f 39/55/28 81/35/24 80/45/28
s 4
f 120/56/29 145/57/30 98/58/31
s 5
f 30/59/32 100/60/32 99/61/32
f 34/62/32 100/60/32 32/63/32
f 36/64/32 101/65/32 34/62/32
f 38/66/32 102/67/32 36/64/32
f 38/66/32 104/68/32 103/69/32
f 42/70/32 104/68/32 40/71/32
f 42/70/32 106/72/32 105/73/32
f 44/74/32 107/75/32 106/72/32
s 4
f 110/76/33 148/77/34 111/78/35
s 6
f 56/79/32 111/80/32 54/81/32
f 58/82/32 112/83/32 56/79/32
f 58/82/32 114/84/32 113/85/32
f 60/86/32 115/87/32 114/84/32
f 64/88/32 115/87/32 62/89/32
f 66/90/32 116/91/32 64/88/32
f 66/90/32 118/92/32 117/93/32
f 70/94/32 118/92/32 68/95/32
s 7
f 26/96/36 155/97/37 72/98/37
s 1
f 42/99/38 130/100/39 44/101/39
f 72/102/40 122/103/41 26/104/41
f 30/105/42 121/106/43 123/107/42
s 8
f 60/108/44 137/2/44 138/109/44
s 1
f 44/101/39 131/110/45 46/111/45
f 32/112/46 123/107/42 124/113/46
s 8
f 62/114/44 138/109/44 139/115/44
s 1
f 46/111/45 132/116/47 48/117/47
f 34/118/48 124/113/46 125/119/48
s 8
f 62/114/44 140/120/44 64/121/44
s 1
f 48/117/47 133/122/49 50/123/49
f 36/124/50 125/119/48 126/125/50
s 8
f 64/121/44 141/126/44 66/127/44
s 1
f 52/128/51 133/122/49 134/129/51
f 36/124/50 127/130/52 38/131/52
f 68/132/53 141/133/54 142/134/55
f 54/135/56 134/129/51 135/136/56
f 38/131/52 128/137/57 40/138/57
f 68/132/53 143/139/58 70/140/58
f 56/1/1 135/136/56 136/141/59
f 40/138/57 129/142/38 42/99/38
f 70/140/58 144/143/40 72/102/40
f 28/144/43 122/103/41 121/106/43
s 9
f 135/145/32 127/146/32 123/147/32
s 10
f 153/148/32 146/149/32 152/150/32
f 154/151/60 147/152/32 153/148/32
s 11
f 156/153/61 149/154/32 150/155/62
f 151/156/32 149/154/32 155/157/32
s 12
f 52/158/63 152/159/64 50/160/64
f 54/161/65 153/162/63 52/158/63
s 4
f 109/163/66 147/152/33 110/76/33
s 7
f 72/98/37 156/164/67 70/165/68
s 4
f 119/166/69 149/154/29 120/56/29
s 13
f 98/58/70 151/167/70 26/96/70
s 14
f 205/168/71 218/169/71 219/170/71
s 15
f 206/171/72 204/172/72 203/173/72
s 16
f 109/163/70 152/159/70 146/149/70
s 5
f 26/174/32 97/175/32 98/176/32
f 26/174/32 28/177/32 97/175/32
f 107/75/32 46/178/32 48/179/32
f 28/177/32 30/59/32 99/61/32
f 28/177/32 99/61/32 97/175/32
f 50/180/32 108/181/32 48/179/32
f 109/182/32 108/181/32 50/180/32
f 108/181/32 107/75/32 48/179/32
s 17
f 210/183/73 160/184/74 209/185/75
s 18
f 212/186/76 162/187/77 161/188/76
s 19
f 158/189/78 218/169/79 207/190/80
s 20
f 208/191/73 157/192/81 204/193/73
s 21
f 212/186/82 159/194/82 210/183/82
s 19
f 206/171/76 158/189/78 207/190/80
s 7
f 156/195/67 165/196/82 70/197/68
s 11
f 150/198/62 166/199/83 156/195/61
s 22
f 119/200/84 165/196/85 163/201/86
s 4
f 150/202/87 163/201/72 164/203/72
s 10
f 148/204/88 168/205/89 169/206/90
s 23
f 111/207/91 167/208/92 54/209/93
s 4
f 148/204/34 170/210/82 111/207/35
s 12
f 154/211/94 167/208/72 168/212/72
s 24
f 172/213/70 171/214/70 173/215/70
s 25
f 176/216/70 177/217/70 178/218/70
s 15
f 173/215/72 208/219/72 206/220/72
s 26
f 172/213/82 205/221/82 174/222/82
s 20
f 171/223/73 205/221/95 208/224/73
s 19
f 172/213/76 206/220/76 207/225/80
s 21
f 178/218/82 210/226/82 176/227/82
s 18
f 177/217/76 212/228/76 178/218/76
s 17
f 176/229/73 209/230/75 175/231/73
s 27
f 177/217/72 209/230/72 211/232/72
s 28
f 221/233/72 220/234/72 217/235/72
f 224/236/72 254/237/72 236/238/72
s 18
f 162/187/77 220/234/96 215/239/97
s 17
f 209/185/75 216/240/98 217/241/99
s 29
f 209/242/100 220/234/100 211/243/100
s 20
f 205/244/95 213/245/101 157/192/81
s 30
f 158/189/102 226/246/102 214/247/102
s 31
f 221/248/103 162/187/103 215/239/103
s 32
f 160/184/103 224/249/103 216/240/103
s 33
f 227/250/102 157/192/102 213/245/102
s 34
f 227/251/82 219/170/82 218/169/82
s 35
f 225/252/104 247/253/105 226/254/104
s 36
f 222/255/106 236/238/107 229/256/108
s 37
f 223/257/109 238/258/110 224/259/109
s 38
f 228/260/111 251/261/112 244/262/113
s 39
f 250/263/114 241/264/115 245/265/116
s 40
f 246/266/72 241/267/72 242/268/72
s 34
f 249/269/82 250/270/82 251/261/82
s 41
f 230/271/117 239/272/118 232/273/119
s 36
f 229/274/108 237/275/120 231/276/120
s 41
f 231/276/121 235/277/122 230/271/117
f 239/272/118 234/278/123 232/273/119
s 37
f 240/279/124 233/280/125 234/278/126
s 39
f 248/281/127 243/282/128 241/264/115
s 35
f 249/283/129 242/284/130 243/282/129
s 38
f 244/262/113 252/285/131 246/286/132
s 39
f 246/286/133 250/263/114 245/265/116
s 42
f 222/255/82 253/287/82 233/280/82
f 233/280/82 253/287/82 234/288/82
f 230/289/82 253/287/82 231/290/82
f 231/290/82 253/287/82 229/256/82
f 234/288/82 253/287/82 232/291/82
f 232/291/82 253/287/82 230/289/82
s 28
f 236/238/72 254/237/72 237/292/72
f 237/292/72 254/237/72 235/293/72
f 240/294/72 254/237/72 238/295/72
f 235/293/72 254/237/72 239/296/72
f 239/296/72 254/237/72 240/294/72
s 9
f 136/297/32 138/298/32 137/299/32
f 139/300/32 255/301/32 140/302/32
f 140/302/32 142/303/32 141/304/32
f 138/298/32 255/301/32 139/300/32
s 1
f 56/1/1 136/141/59 137/2/2
s 2
f 27/4/4 74/43/4 73/5/5
s 3
f 96/9/6 73/305/6 74/306/6
f 74/306/6 75/307/6 76/308/6
f 76/308/6 77/309/6 78/310/6
f 78/310/6 79/311/6 80/7/6
f 80/7/6 81/312/6 82/313/6
f 82/313/6 83/314/6 84/315/6
f 84/315/6 85/316/6 86/317/6
f 86/317/6 87/318/6 88/8/6
f 88/8/6 89/319/6 90/320/6
f 90/320/6 91/321/6 92/322/6
f 92/322/6 93/323/6 94/324/6
f 94/324/6 95/325/6 96/9/6
f 96/9/6 74/306/6 76/308/6
f 76/308/6 78/310/6 80/7/6
f 80/7/6 82/313/6 84/315/6
f 84/315/6 86/317/6 88/8/6
f 88/8/6 90/320/6 92/322/6
f 92/322/6 94/324/6 96/9/6
f 96/9/6 76/308/6 80/7/6
f 80/7/6 84/315/6 88/8/6
f 88/8/6 92/322/6 96/9/6
s 2
f 49/10/7 51/38/8 86/11/8
f 61/13/9 91/40/9 90/14/10
f 71/16/11 96/41/11 95/17/12
f 35/19/13 37/44/14 79/20/14
f 45/22/15 47/46/16 84/23/16
f 57/25/17 89/48/17 88/26/18
f 67/28/19 94/49/19 93/29/20
f 33/31/21 77/50/21 76/32/22
f 43/34/23 82/51/23 81/35/24
f 53/37/25 87/52/25 86/11/8
f 63/39/26 92/53/26 91/40/9
f 25/6/5 73/5/5 96/41/11
f 27/4/4 29/54/27 75/42/27
f 37/44/14 39/55/28 80/45/28
f 47/46/16 49/326/7 85/47/7
f 57/25/17 59/15/10 90/14/10
f 67/28/19 69/18/12 95/17/12
f 33/31/21 35/19/13 78/21/13
f 43/34/23 45/22/15 83/24/15
f 53/37/25 55/27/18 88/26/18
f 65/30/20 93/29/20 92/53/26
f 31/33/22 76/32/22 75/42/27
f 39/55/28 41/36/24 81/35/24
s 4
f 120/56/29 149/154/29 145/57/30
s 5
f 30/59/32 32/63/32 100/60/32
f 34/62/32 101/65/32 100/60/32
f 36/64/32 102/67/32 101/65/32
f 38/66/32 103/69/32 102/67/32
f 38/66/32 40/71/32 104/68/32
f 42/70/32 105/73/32 104/68/32
f 42/70/32 44/74/32 106/72/32
f 44/74/32 46/178/32 107/75/32
s 4
f 110/76/33 147/152/33 148/77/34
s 6
f 56/79/32 112/83/32 111/80/32
f 58/82/32 113/85/32 112/83/32
f 58/82/32 60/86/32 114/84/32
f 60/86/32 62/89/32 115/87/32
f 64/88/32 116/91/32 115/87/32
f 66/90/32 117/93/32 116/91/32
f 66/90/32 68/95/32 118/92/32
f 70/94/32 119/327/32 118/92/32
s 7
f 26/96/36 151/167/36 155/97/37
s 1
f 42/99/38 129/142/38 130/100/39
f 72/102/40 144/143/40 122/103/41
f 30/105/42 28/144/43 121/106/43
s 8
f 60/108/44 58/3/44 137/2/44
s 1
f 44/101/39 130/100/39 131/110/45
f 32/112/46 30/105/42 123/107/42
s 8
f 62/114/44 60/108/44 138/109/44
s 1
f 46/111/45 131/110/45 132/116/47
f 34/118/48 32/112/46 124/113/46
s 8
f 62/114/44 139/115/44 140/120/44
s 1
f 48/117/47 132/116/47 133/122/49
f 36/124/50 34/118/48 125/119/48
s 8
f 64/121/44 140/120/44 141/126/44
s 1
f 52/128/51 50/123/49 133/122/49
f 36/124/50 126/125/50 127/130/52
f 68/132/53 66/328/134 141/133/54
f 54/135/56 52/128/51 134/129/51
f 38/131/52 127/130/52 128/137/57
f 68/132/53 142/134/55 143/139/58
f 56/1/1 54/135/56 135/136/56
f 40/138/57 128/137/57 129/142/38
f 70/140/58 143/139/58 144/143/40
f 28/144/43 26/104/41 122/103/41
s 9
f 123/147/32 121/329/32 122/330/32
f 122/330/32 144/331/32 143/332/32
f 143/332/32 142/303/32 255/301/32
f 255/301/32 136/297/32 135/145/32
f 135/145/32 134/333/32 133/334/32
f 133/334/32 132/335/32 131/336/32
f 131/336/32 130/337/32 129/338/32
f 129/338/32 128/339/32 127/146/32
f 127/146/32 126/340/32 125/341/32
f 125/341/32 124/342/32 123/147/32
f 123/147/32 122/330/32 143/332/32
f 143/332/32 255/301/32 135/145/32
f 135/145/32 133/334/32 131/336/32
f 131/336/32 129/338/32 127/146/32
f 127/146/32 125/341/32 123/147/32
f 123/147/32 143/332/32 135/145/32
f 135/145/32 131/336/32 127/146/32
s 10
f 153/148/32 147/152/32 146/149/32
f 154/151/60 148/343/88 147/152/32
s 11
f 156/153/61 155/157/32 149/154/32
f 151/156/32 145/57/32 149/154/32
s 12
f 52/158/63 153/162/63 152/159/64
f 54/161/65 154/344/94 153/162/63
s 4
f 109/163/66 146/149/135 147/152/33
s 7
f 72/98/37 155/97/37 156/164/67
s 4
f 119/166/69 150/345/87 149/154/29
s 13
f 98/58/70 145/57/70 151/167/70
s 14
f 205/168/71 207/346/71 218/169/71
s 15
f 206/171/72 208/347/72 204/172/72
s 16
f 109/163/70 50/160/70 152/159/70
s 43
f 210/183/73 159/194/73 160/184/74
s 18
f 212/186/76 211/348/136 162/187/77
s 19
f 158/189/78 214/247/137 218/169/79
s 20
f 208/191/73 205/244/95 157/192/81
s 44
f 212/186/82 161/188/82 159/194/82
s 45
f 206/171/76 203/173/76 158/189/138
s 46
f 156/195/139 166/199/82 165/196/82
s 47
f 150/198/140 164/349/141 166/199/142
s 22
f 119/200/84 70/197/143 165/196/85
s 4
f 150/202/87 119/200/69 163/201/72
s 10
f 148/204/88 154/350/60 168/205/89
s 48
f 111/207/144 170/210/145 167/208/146
s 49
f 148/204/147 169/206/82 170/210/82
s 12
f 154/211/94 54/209/65 167/208/72
s 24
f 172/213/70 174/351/70 171/214/70
s 25
f 176/216/70 175/352/70 177/217/70
s 15
f 173/215/72 171/353/72 208/219/72
s 26
f 172/213/82 207/225/82 205/221/82
s 20
f 171/223/73 174/222/73 205/221/95
s 19
f 172/213/76 173/215/76 206/220/76
s 21
f 178/218/82 212/228/82 210/226/82
s 18
f 177/217/76 211/232/136 212/228/76
s 17
f 176/229/73 210/354/73 209/230/75
s 27
f 177/217/72 175/231/72 209/230/72
s 28
f 217/235/72 216/355/72 224/356/72
f 221/233/72 215/239/72 220/234/72
f 217/235/72 224/356/72 221/233/72
f 236/238/72 221/357/72 224/236/72
f 224/236/72 238/295/72 254/237/72
s 18
f 162/187/77 211/348/136 220/234/96
s 17
f 209/185/75 160/184/74 216/240/98
s 29
f 209/242/100 217/235/100 220/234/100
s 20
f 205/244/95 219/170/148 213/245/101
s 30
f 158/189/102 225/358/102 226/246/102
s 50
f 221/248/103 222/359/103 162/187/103
s 32
f 160/184/103 223/360/103 224/249/103
s 51
f 227/250/102 228/361/102 157/192/102
s 34
f 218/169/82 214/247/82 226/362/82
f 227/251/82 213/245/82 219/170/82
f 218/169/82 226/362/82 227/251/82
s 35
f 225/252/104 242/268/130 247/253/105
s 36
f 222/255/106 221/357/106 236/238/107
s 37
f 223/257/109 233/280/125 238/258/110
s 38
f 228/260/111 227/363/111 251/261/112
s 39
f 250/263/114 248/281/127 241/264/115
s 52
f 242/268/72 225/252/72 228/364/72
s 40
f 228/364/72 244/365/72 246/266/72
f 246/266/72 245/366/72 241/267/72
f 241/267/72 243/367/72 242/268/72
f 242/268/72 228/364/72 246/266/72
s 34
f 251/261/82 227/363/82 226/254/82
f 226/254/82 247/253/82 249/269/82
f 249/269/82 248/368/82 250/270/82
f 250/270/82 252/369/82 251/261/82
f 251/261/82 226/254/82 249/269/82
s 41
f 230/271/117 235/277/122 239/272/118
s 36
f 229/274/108 236/370/107 237/275/120
s 41
f 231/276/121 237/275/121 235/277/122
f 239/272/118 240/279/123 234/278/123
s 37
f 240/279/124 238/258/110 233/280/125
s 39
f 248/281/127 249/283/128 243/282/128
s 35
f 249/283/129 247/371/105 242/284/130
s 38
f 244/262/113 251/261/112 252/285/131
s 39
f 246/286/133 252/285/133 250/263/114
s 53
f 233/280/82 223/257/82 222/255/82
s 42
f 222/255/82 229/256/82 253/287/82
s 9
f 136/297/32 255/301/32 138/298/32
f 140/302/32 255/301/32 142/303/32
s 54
g PLDD_SpacialRoverExploreralumGray
usemtl SpacialRoverExploreralumGray
f 186/372/149 1/373/150 8/374/151
s 55
f 185/375/152 8/374/153 7/376/154
s 56
f 6/377/155 185/375/156 7/376/157
s 57
f 5/378/158 184/379/159 6/377/160
s 58
f 4/380/161 183/381/162 5/378/161
s 59
f 3/382/163 182/383/164 4/384/165
s 60
f 180/385/166 3/382/167 2/386/168
s 61
f 179/387/169 2/386/170 1/373/170
s 54
f 186/372/149 179/387/171 1/373/150
s 55
f 185/375/152 186/372/172 8/374/153
s 56
f 6/377/155 184/379/173 185/375/156
s 57
f 5/378/158 183/381/159 184/379/159
s 58
f 4/380/161 182/388/174 183/381/162
s 59
f 3/382/163 181/389/164 182/383/164
s 60
f 180/385/166 181/389/166 3/382/167
s 61
f 179/387/169 180/385/175 2/386/170
s 62
f 315/390/82 316/391/33 314/392/82
f 317/393/33 318/394/176 316/391/33
f 319/395/176 320/396/177 318/394/176
f 321/397/177 322/398/178 320/396/177
f 323/399/178 324/400/179 322/398/178
f 325/401/179 326/402/180 324/403/179
f 327/404/180 328/405/181 326/402/180
f 329/406/181 330/407/182 328/405/181
f 331/408/182 332/409/183 330/407/182
f 333/410/183 334/411/184 332/409/183
f 335/412/184 336/413/185 334/411/184
s 63
f 338/414/6 410/415/6 412/416/6
f 338/414/6 414/417/6 340/418/6
s 62
f 341/419/186 342/420/187 340/421/186
f 343/422/187 344/423/188 342/420/187
f 345/424/188 346/425/189 344/423/188
f 347/426/189 348/427/190 346/425/189
f 349/428/190 350/429/70 348/427/190
f 351/430/70 352/431/191 350/429/70
f 353/432/191 354/433/192 352/431/191
f 355/434/192 356/435/193 354/433/192
f 357/436/193 358/437/194 356/435/193
s 64
f 321/438/32 382/439/32 379/440/195
f 351/441/32 343/442/32 371/443/32
s 62
f 359/444/194 360/445/37 358/437/194
f 361/446/37 314/392/82 360/445/37
s 63
f 320/447/6 328/448/6 389/449/6
f 344/450/6 352/451/6 401/452/6
s 64
f 339/453/32 415/454/32 413/455/32
s 65
f 340/418/70 415/456/70 341/457/70
s 66
f 337/458/180 410/415/180 336/459/180
s 64
f 339/453/32 411/460/32 337/458/32
s 62
f 315/390/82 317/393/33 316/391/33
f 317/393/33 319/395/176 318/394/176
f 319/395/176 321/397/177 320/396/177
f 321/397/177 323/399/178 322/398/178
f 323/399/178 325/461/179 324/400/179
f 325/401/179 327/404/180 326/402/180
f 327/404/180 329/406/181 328/405/181
f 329/406/181 331/408/182 330/407/182
f 331/408/182 333/410/183 332/409/183
f 333/410/183 335/412/184 334/411/184
f 335/412/184 337/462/185 336/413/185
s 63
f 338/414/6 336/459/6 410/415/6
f 338/414/6 412/416/6 414/417/6
s 62
f 341/419/186 343/422/187 342/420/187
f 343/422/187 345/424/188 344/423/188
f 345/424/188 347/426/189 346/425/189
f 347/426/189 349/428/190 348/427/190
f 349/428/190 351/430/70 350/429/70
f 351/430/70 353/432/191 352/431/191
f 353/432/191 355/434/192 354/433/192
f 355/434/192 357/436/193 356/435/193
f 357/436/193 359/444/194 358/437/194
s 64
f 378/463/32 327/464/32 325/465/32
f 325/465/32 323/466/32 321/438/32
f 321/438/32 319/467/32 385/468/32
f 321/438/32 385/468/32 376/469/32
f 378/463/32 325/465/32 321/438/32
f 379/440/195 378/463/32 321/438/32
f 321/438/32 376/469/32 382/439/32
f 367/470/32 385/468/32 319/467/32
f 319/467/32 317/471/32 315/472/32
f 315/472/32 361/473/32 359/474/32
f 359/474/32 357/475/32 355/476/32
f 355/476/32 353/477/32 351/441/32
f 351/441/32 349/478/32 347/479/32
f 347/479/32 345/480/32 343/442/32
f 343/442/32 341/481/32 339/482/32
f 339/482/32 337/483/32 335/484/32
f 335/484/32 333/485/32 331/486/32
f 331/486/32 329/487/32 327/464/32
f 327/464/32 378/463/32 381/488/32
f 327/464/32 381/488/32 380/489/32
f 335/484/32 331/486/32 327/464/32
f 343/442/32 339/482/32 335/484/32
f 351/441/32 347/479/32 343/442/32
f 359/474/32 355/476/32 351/441/32
f 319/467/32 315/472/32 359/474/32
f 368/490/196 367/470/32 319/467/32
f 365/491/32 368/490/196 319/467/32
f 335/484/32 327/464/32 380/489/32
f 335/484/32 380/489/32 377/492/32
f 365/491/32 319/467/32 359/474/32
f 366/493/32 365/491/32 359/474/32
f 335/484/32 377/492/32 384/494/32
f 335/484/32 384/494/32 373/495/32
f 363/496/32 366/493/32 359/474/32
f 364/497/32 363/496/32 359/474/32
f 343/442/32 335/484/32 373/495/32
f 343/442/32 373/495/32 374/498/197
f 364/497/32 359/474/32 351/441/32
f 362/499/32 364/497/32 351/441/32
f 343/442/32 374/498/197 372/500/32
f 343/442/32 372/500/32 375/501/32
f 383/502/32 362/499/32 351/441/32
f 369/503/32 383/502/32 351/441/32
f 343/442/32 375/501/32 370/504/32
f 371/443/32 369/503/32 351/441/32
f 343/442/32 370/504/32 371/443/32
s 62
f 359/444/194 361/446/37 360/445/37
f 361/446/37 315/390/82 314/392/82
s 63
f 390/505/6 392/506/6 320/447/6
f 320/447/6 322/507/6 324/508/6
f 324/508/6 326/509/6 328/448/6
f 328/448/6 408/510/6 391/511/6
f 389/449/6 390/505/6 320/447/6
f 328/448/6 391/511/6 389/449/6
f 320/447/6 324/508/6 328/448/6
f 398/512/6 408/510/6 328/448/6
f 328/448/6 330/513/6 332/514/6
f 332/514/6 334/515/6 336/516/6
f 336/516/6 338/517/6 340/518/6
f 340/518/6 342/519/6 344/450/6
f 344/450/6 346/520/6 348/521/6
f 348/521/6 350/522/6 352/451/6
f 352/451/6 354/523/6 356/524/6
f 356/524/6 358/525/6 360/526/6
f 360/526/6 314/527/6 316/528/6
f 316/528/6 318/529/6 320/447/6
f 320/447/6 392/506/6 387/530/6
f 320/447/6 387/530/6 388/531/6
f 360/526/6 316/528/6 320/447/6
f 352/451/6 356/524/6 360/526/6
f 344/450/6 348/521/6 352/451/6
f 336/516/6 340/518/6 344/450/6
f 328/448/6 332/514/6 336/516/6
f 399/532/198 398/512/6 328/448/6
f 396/533/6 399/532/198 328/448/6
f 360/526/6 320/447/6 388/531/6
f 360/526/6 388/531/6 386/534/6
f 396/533/6 328/448/6 336/516/6
f 397/535/6 396/533/6 336/516/6
f 360/526/6 386/534/6 409/536/6
f 360/526/6 409/536/6 403/537/6
f 394/538/6 397/535/6 336/516/6
f 395/539/6 394/538/6 336/516/6
f 352/451/6 360/526/6 403/537/6
f 352/451/6 403/537/6 404/540/199
f 395/539/6 336/516/6 344/450/6
f 393/541/6 395/539/6 344/450/6
f 352/451/6 404/540/199 406/542/6
f 352/451/6 406/542/6 402/543/6
f 407/544/6 393/541/6 344/450/6
f 405/545/6 407/544/6 344/450/6
f 352/451/6 402/543/6 400/546/6
f 401/452/6 405/545/6 344/450/6
f 352/451/6 400/546/6 401/452/6
s 64
f 339/453/32 341/547/32 415/454/32
s 67
f 340/418/70 414/417/70 415/456/70
s 68
f 337/458/180 411/460/180 410/415/180
s 64
f 339/453/32 413/455/32 411/460/32
s 69
g PLDD_SpacialRoverExploreralumBlack
usemtl SpacialRoverExploreralumBlack
f 186/548/200 189/549/200 179/550/200
s 70
f 179/550/201 196/551/201 180/552/201
s 71
f 180/552/202 197/553/202 181/554/202
s 72
f 182/555/203 197/553/203 198/556/203
s 73
f 183/557/204 198/558/204 199/559/204
s 74
f 8/560/205 21/561/206 7/562/207
f 5/563/208 19/564/209 17/565/208
f 4/566/210 13/567/211 3/568/211
f 1/569/212 11/570/213 24/571/212
f 1/569/212 23/572/214 8/560/205
f 6/573/215 21/561/206 19/564/209
f 5/563/208 15/574/210 4/566/210
f 2/575/213 13/567/211 11/570/213
s 75
f 23/576/216 9/577/217 22/578/218
s 76
f 21/579/219 22/578/220 20/580/221
s 77
f 18/581/222 21/579/223 20/580/224
s 78
f 16/582/225 19/583/226 18/581/227
s 79
f 14/584/228 17/585/229 16/586/230
s 80
f 12/587/231 15/588/232 14/584/233
s 81
f 11/589/234 12/587/235 10/590/236
s 82
f 24/591/237 10/590/238 9/577/239
s 83
f 188/592/240 196/593/240 189/594/240
s 84
f 187/595/241 197/553/241 196/593/241
s 85
f 197/553/242 191/596/242 198/556/242
s 86
f 198/597/243 192/598/243 199/599/243
s 87
f 199/599/244 193/600/244 200/601/244
s 88
f 200/601/245 194/602/245 201/603/245
s 89
f 194/602/246 202/604/246 201/603/246
s 90
f 195/605/247 189/594/247 202/606/247
s 91
f 185/607/248 202/608/248 186/548/248
s 92
f 185/607/249 200/609/249 201/610/249
s 93
f 184/611/250 199/559/250 200/609/250
s 69
f 186/548/200 202/608/200 189/549/200
s 70
f 179/550/201 189/549/201 196/551/201
s 71
f 180/552/202 196/551/251 197/553/202
s 72
f 182/555/203 181/554/203 197/553/203
s 73
f 183/557/204 182/612/204 198/558/204
s 74
f 8/560/205 23/572/214 21/561/206
f 5/563/208 6/573/215 19/564/209
f 4/566/210 15/574/210 13/567/211
f 1/569/212 2/575/213 11/570/213
f 1/569/212 24/571/212 23/572/214
f 6/573/215 7/562/207 21/561/206
f 5/563/208 17/565/208 15/574/210
f 2/575/213 3/568/211 13/567/211
s 75
f 23/576/216 24/591/252 9/577/217
s 76
f 21/579/219 23/576/253 22/578/220
s 94
f 18/581/254 19/583/255 21/579/223
s 95
f 16/582/225 17/613/256 19/583/226
s 96
f 14/584/228 15/588/257 17/585/229
s 97
f 12/587/258 13/614/259 15/588/260
s 81
f 11/589/234 13/614/261 12/587/235
s 82
f 24/591/237 11/589/262 10/590/238
s 83
f 188/592/240 187/595/240 196/593/240
s 84
f 187/595/241 190/615/241 197/553/241
s 98
f 197/553/242 190/615/242 191/596/242
s 99
f 198/597/243 191/616/243 192/598/243
s 100
f 199/599/244 192/598/244 193/600/244
s 101
f 200/601/245 193/600/245 194/602/245
s 89
f 194/602/246 195/617/246 202/604/246
s 90
f 195/605/247 188/592/247 189/594/247
s 91
f 185/607/248 201/610/248 202/608/248
s 92
f 185/607/249 184/611/249 200/609/249
s 93
f 184/611/250 183/557/250 199/559/250
s 4
g PLDD_SpacialRoverExploreralumOrange
usemtl SpacialRoverExploreralumOrange
f 98/618/31 27/619/63 25/620/72
f 97/621/63 29/622/187 27/619/63
f 99/623/187 31/624/188 29/622/187
f 100/625/188 33/626/189 31/624/188
f 101/627/189 35/628/190 33/626/189
f 102/629/190 37/630/70 35/628/190
f 103/631/70 39/632/191 37/630/70
f 104/633/191 41/634/192 39/632/191
f 105/635/192 43/636/193 41/634/192
f 106/637/193 45/638/194 43/636/193
f 107/639/194 47/640/37 45/638/194
f 108/641/37 49/642/82 47/640/37
f 109/643/66 51/644/33 49/645/82
f 110/646/33 53/647/176 51/644/33
f 111/648/35 55/649/177 53/647/176
f 112/650/177 57/651/178 55/649/177
f 113/652/178 59/653/179 57/651/178
f 114/654/179 61/655/180 59/653/179
f 115/656/180 63/657/181 61/655/180
f 116/658/181 65/659/182 63/657/181
f 117/660/182 67/661/183 65/659/182
f 118/662/183 69/663/184 67/661/183
f 119/664/69 71/665/29 69/663/184
f 120/666/29 25/620/72 71/665/29
f 98/618/31 97/621/63 27/619/63
f 97/621/63 99/623/187 29/622/187
f 99/623/187 100/625/188 31/624/188
f 100/625/188 101/627/189 33/626/189
f 101/627/189 102/629/190 35/628/190
f 102/629/190 103/631/70 37/630/70
f 103/631/70 104/633/191 39/632/191
f 104/633/191 105/635/192 41/634/192
f 105/635/192 106/637/193 43/636/193
f 106/637/193 107/639/194 45/638/194
f 107/639/194 108/641/37 47/640/37
f 108/641/37 109/667/66 49/642/82
f 109/643/66 110/646/33 51/644/33
f 110/646/33 111/648/35 53/647/176
f 111/648/35 112/650/177 55/649/177
f 112/650/177 113/652/178 57/651/178
f 113/652/178 114/654/179 59/653/179
f 114/654/179 115/656/180 61/655/180
f 115/656/180 116/658/181 63/657/181
f 116/658/181 117/660/182 65/659/182
f 117/660/182 118/662/183 67/661/183
f 118/662/183 119/664/69 69/663/184
f 119/664/69 120/666/29 71/665/29
f 120/666/29 98/618/31 25/620/72
s 102
g PLDD_SpacialRoverExploreralumGrayDeep
usemtl SpacialRoverExploreralumGrayDeep
f 269/668/263 280/669/264 281/670/264
s 103
f 264/671/72 428/672/72 426/673/72
f 281/674/72 419/675/72 425/676/72
s 104
f 256/677/265 268/678/266 265/679/265
s 105
f 258/680/82 433/681/82 441/682/82
f 435/683/82 259/684/82 257/685/82
s 106
f 257/686/267 266/687/268 264/688/267
s 104
f 259/689/269 267/690/270 266/687/269
f 258/691/270 265/679/265 267/690/270
s 102
f 269/668/263 262/692/271 260/693/263
s 104
f 271/694/272 263/695/273 262/692/272
f 270/696/273 261/697/274 263/695/273
s 107
f 272/698/275 307/699/275 306/700/275
s 108
f 307/699/276 274/701/276 308/702/276
s 109
f 274/703/277 309/704/277 308/705/277
s 110
f 275/706/278 310/707/278 309/704/278
s 111
f 276/708/279 311/709/279 310/707/279
s 112
f 311/709/280 278/710/280 312/711/280
s 113
f 273/712/72 279/713/72 277/714/72
s 114
f 278/710/281 313/715/281 312/711/281
s 115
f 279/716/282 306/700/282 313/715/282
s 116
f 280/717/283 294/718/284 281/719/283
s 106
f 282/720/285 257/686/267 264/688/267
s 105
f 304/721/82 280/722/82 302/723/82
s 117
f 303/724/286 285/725/287 284/726/287
s 103
f 299/727/72 281/674/72 301/728/72
s 117
f 285/725/287 286/729/288 284/726/287
s 103
f 296/730/72 444/731/72 294/732/72
s 118
f 295/733/289 287/734/290 292/735/290
s 116
f 289/736/284 296/737/291 294/718/284
f 291/738/291 297/739/292 296/737/291
s 118
f 290/740/293 295/733/289 297/739/293
s 105
f 290/741/82 291/742/82 443/743/82
s 117
f 298/744/294 305/745/295 300/746/295
f 305/747/295 301/748/296 300/749/295
s 106
f 304/750/297 299/751/298 301/752/297
f 299/751/298 283/753/285 282/720/285
s 119
f 308/754/82 310/755/82 312/756/82
s 120
f 292/735/299 286/729/299 293/757/299
s 103
f 428/672/72 266/758/72 267/759/72
f 265/760/72 428/761/72 267/762/72
f 265/763/72 423/764/72 424/765/72
s 105
f 280/722/82 304/721/82 305/766/82
f 302/723/82 280/722/82 283/767/82
s 103
f 300/768/72 281/674/72 298/769/72
s 105
f 303/770/82 284/771/82 280/722/82
f 280/722/82 305/766/82 303/770/82
s 103
f 281/674/72 299/727/72 282/772/72
f 301/728/72 281/674/72 300/768/72
f 298/769/72 281/674/72 285/773/72
f 269/774/72 423/764/72 271/775/72
f 270/776/72 423/764/72 268/777/72
f 271/775/72 423/764/72 270/776/72
s 105
f 435/683/82 258/680/82 259/684/82
f 283/767/82 438/778/82 442/779/82
f 439/780/82 260/781/82 262/782/82
f 256/783/82 440/784/82 439/780/82
f 262/782/82 263/785/82 439/780/82
f 263/785/82 261/786/82 439/780/82
f 443/743/82 280/722/82 284/771/82
f 288/787/82 443/743/82 287/788/82
f 443/743/82 291/742/82 289/789/82
f 443/743/82 288/787/82 290/741/82
f 287/788/82 443/743/82 286/790/82
s 103
f 444/731/72 285/773/72 281/674/72
f 444/731/72 292/791/72 293/792/72
f 292/791/72 444/731/72 295/793/72
f 444/731/72 297/794/72 295/793/72
f 297/794/72 444/731/72 296/730/72
s 102
f 269/668/263 260/693/263 280/669/264
s 103
f 264/671/72 266/758/72 428/672/72
f 420/795/72 423/764/72 269/774/72
f 264/671/72 426/673/72 416/796/72
f 264/671/72 416/796/72 417/797/72
f 421/798/300 420/795/72 269/774/72
f 422/799/72 421/798/300 269/774/72
f 282/772/72 264/671/72 417/797/72
f 282/772/72 417/797/72 418/800/72
f 422/799/72 269/774/72 281/674/72
f 427/801/72 422/799/72 281/674/72
f 281/674/72 282/772/72 418/800/72
f 281/674/72 418/800/72 419/675/72
f 425/676/72 427/801/72 281/674/72
s 104
f 256/677/265 261/697/274 268/678/266
s 105
f 441/682/82 256/783/82 258/680/82
f 258/680/82 435/683/82 433/681/82
s 106
f 257/686/267 259/689/301 266/687/268
s 104
f 259/689/269 258/691/270 267/690/270
f 258/691/270 256/677/265 265/679/265
s 102
f 269/668/263 271/694/271 262/692/271
s 104
f 271/694/272 270/696/273 263/695/273
f 270/696/273 268/678/266 261/697/274
s 107
f 272/698/275 273/802/275 307/699/275
s 108
f 307/699/276 273/802/276 274/701/276
s 109
f 274/703/277 275/706/277 309/704/277
s 110
f 275/706/278 276/708/278 310/707/278
s 111
f 276/708/279 277/803/279 311/709/279
s 112
f 311/709/280 277/803/280 278/710/280
s 113
f 277/714/72 276/804/72 275/805/72
f 275/805/72 274/806/72 273/712/72
f 273/712/72 272/807/72 279/713/72
f 279/713/72 278/808/72 277/714/72
f 277/714/72 275/805/72 273/712/72
s 114
f 278/710/281 279/716/281 313/715/281
s 115
f 279/716/282 272/698/282 306/700/282
s 116
f 280/717/283 289/736/284 294/718/284
s 106
f 282/720/285 283/753/285 257/686/267
s 117
f 303/724/286 298/744/294 285/725/287
f 285/725/287 293/757/288 286/729/288
s 118
f 295/733/289 288/809/289 287/734/290
s 116
f 289/736/284 291/738/291 296/737/291
f 291/738/291 290/740/292 297/739/292
s 118
f 290/740/293 288/809/289 295/733/289
s 117
f 298/744/294 303/724/286 305/745/295
f 305/747/295 304/810/296 301/748/296
s 106
f 304/750/297 302/811/298 299/751/298
f 299/751/298 302/811/298 283/753/285
s 119
f 312/756/82 313/812/82 306/813/82
f 306/813/82 307/814/82 308/754/82
f 308/754/82 309/815/82 310/755/82
f 310/755/82 311/816/82 312/756/82
f 312/756/82 306/813/82 308/754/82
s 120
f 292/735/299 287/734/299 286/729/299
s 103
f 424/765/72 428/672/72 265/763/72
f 265/763/72 268/777/72 423/764/72
s 105
f 260/781/82 439/780/82 437/817/82
f 260/781/82 437/817/82 430/818/82
f 434/819/82 435/683/82 257/685/82
f 429/820/82 434/819/82 257/685/82
f 280/722/82 260/781/82 430/818/82
f 280/722/82 430/818/82 432/821/82
f 429/820/82 257/685/82 283/767/82
f 436/822/82 429/820/82 283/767/82
f 283/767/82 280/722/82 432/821/82
f 283/767/82 432/821/82 431/823/82
f 442/779/82 436/822/82 283/767/82
f 283/767/82 431/823/82 438/778/82
f 439/780/82 261/786/82 256/783/82
f 256/783/82 441/682/82 440/784/82
f 284/771/82 286/790/82 443/743/82
f 443/743/82 289/789/82 280/722/82
s 103
f 281/674/72 294/732/72 444/731/72
f 444/731/72 293/792/72 285/773/72
