# Blender 5.2.2 LTS
# www.blender.org
mtllib PLDI.mtl
g LlantaDelanteraIzquierda_LlantaDelanteraIzquierda
v -3.137425 -0.898435 0.062305
v -3.161333 -0.836913 0.034188
v -3.171235 -0.811429 -0.033695
v -3.161333 -0.836913 -0.101577
v -3.137425 -0.898435 -0.129695
v -3.113518 -0.959957 -0.101577
v -3.103615 -0.985441 -0.033695
v -3.113518 -0.959957 0.034188
v -3.210344 -0.950570 0.081506
v -3.210345 -0.846889 0.047764
v -3.166040 -0.824567 0.047764
v -3.210345 -0.803944 -0.033695
v -3.177923 -0.793987 -0.033695
v -3.210345 -0.846889 -0.115154
v -3.166040 -0.824567 -0.115154
v -3.210344 -0.950570 -0.148895
v -3.137352 -0.898394 -0.148895
v -3.210345 -1.054251 -0.115154
v -3.108664 -0.972221 -0.115154
v -3.210345 -1.097195 -0.033695
v -3.096780 -1.002801 -0.033695
v -3.210345 -1.054251 0.047764
v -3.108664 -0.972221 0.047764
v -3.137352 -0.898394 0.081506
v -3.434118 -1.235746 0.305659
v -3.434118 -1.038308 0.204796
v -3.521806 -1.235746 0.294114
v -3.495701 -1.038308 0.196688
v -3.603518 -1.235746 0.260268
v -3.553087 -1.038308 0.172918
v -3.673686 -1.235746 0.206427
v -3.602365 -1.038308 0.135106
v -3.727528 -1.235746 0.136259
v -3.640177 -1.038308 0.085827
v -3.761374 -1.235746 0.054546
v -3.663948 -1.038308 0.028441
v -3.772918 -1.235746 -0.033142
v -3.672055 -1.038308 -0.033142
v -3.761374 -1.235746 -0.120829
v -3.663948 -1.038308 -0.094724
v -3.727528 -1.235746 -0.202541
v -3.640177 -1.038308 -0.152110
v -3.673686 -1.235746 -0.272709
v -3.602365 -1.038308 -0.201388
v -3.603518 -1.235746 -0.326551
v -3.553087 -1.038308 -0.239201
v -3.521806 -1.235746 -0.360397
v -3.495701 -1.038308 -0.262971
v -3.434118 -1.235746 -0.371941
v -3.434118 -1.038308 -0.271079
v -3.346430 -1.235746 -0.360397
v -3.372536 -1.038308 -0.262971
v -3.264719 -1.235746 -0.326551
v -3.315150 -1.038308 -0.239201
v -3.194551 -1.235746 -0.272709
v -3.265872 -1.038308 -0.201388
v -3.140709 -1.235746 -0.202541
v -3.208204 -1.038308 -0.175904
v -3.106863 -1.235746 -0.120829
v -3.208204 -1.038308 -0.107041
v -3.095319 -1.235746 -0.033141
v -3.208204 -1.038308 -0.033141
v -3.106863 -1.235746 0.054546
v -3.208204 -1.038308 0.040758
v -3.140709 -1.235746 0.136259
v -3.208204 -1.038308 0.109621
v -3.194551 -1.235746 0.206426
v -3.265872 -1.038308 0.135106
v -3.264718 -1.235746 0.260268
v -3.315150 -1.038308 0.172918
v -3.346430 -1.235746 0.294115
v -3.372536 -1.038308 0.196688
v -3.434119 -1.325746 0.204019
v -3.495500 -1.325746 0.195938
v -3.552699 -1.325746 0.172246
v -3.601816 -1.325746 0.134556
v -3.639505 -1.325746 0.085439
v -3.663198 -1.325746 0.028240
v -3.671279 -1.325746 -0.033141
v -3.663198 -1.325746 -0.094523
v -3.639505 -1.325746 -0.151721
v -3.601816 -1.325746 -0.200839
v -3.552699 -1.325746 -0.238528
v -3.495500 -1.325746 -0.262220
v -3.434119 -1.325746 -0.270301
v -3.372737 -1.325746 -0.262220
v -3.315539 -1.325746 -0.238528
v -3.266421 -1.325746 -0.200839
v -3.228733 -1.325746 -0.151721
v -3.205040 -1.325746 -0.094523
v -3.196959 -1.325746 -0.033141
v -3.205040 -1.325746 0.028240
v -3.228733 -1.325746 0.085439
v -3.266421 -1.325746 0.134556
v -3.315539 -1.325746 0.172246
v -3.372737 -1.325746 0.195938
v -3.521806 -1.038308 0.294114
v -3.434118 -1.038308 0.305659
v -3.603518 -1.038308 0.260268
v -3.673686 -1.038308 0.206427
v -3.727528 -1.038308 0.136259
v -3.761374 -1.038308 0.054546
v -3.772918 -1.038308 -0.033142
v -3.761374 -1.038308 -0.120829
v -3.727528 -1.038308 -0.202541
v -3.673686 -1.038308 -0.272709
v -3.603518 -1.038308 -0.326551
v -3.521806 -1.038308 -0.360397
v -3.434118 -1.038308 -0.371941
v -3.346430 -1.038308 -0.360397
v -3.264719 -1.038308 -0.326551
v -3.194551 -1.038308 -0.272709
v -3.140709 -1.038308 -0.202541
v -3.106863 -1.038308 -0.120829
v -3.095319 -1.038308 -0.033141
v -3.106863 -1.038308 0.054546
v -3.140709 -1.038308 0.136259
v -3.194551 -1.038308 0.206426
v -3.264718 -1.038308 0.260268
v -3.346430 -1.038308 0.294115
v -3.478458 -0.708309 0.132336
v -3.434118 -0.708309 0.138174
v -3.519776 -0.708309 0.115222
v -3.555257 -0.708309 0.087997
v -3.582482 -0.708309 0.052516
v -3.599596 -0.708309 0.011198
v -3.605433 -0.708309 -0.033141
v -3.599596 -0.708309 -0.077481
v -3.582482 -0.708309 -0.118799
v -3.555257 -0.708309 -0.154279
v -3.519776 -0.708309 -0.181504
v -3.478458 -0.708309 -0.198619
v -3.434118 -0.708309 -0.204456
v -3.389779 -0.708309 -0.198619
v -3.348462 -0.708309 -0.181504
v -3.312982 -0.708309 -0.154279
v -3.211461 -0.708309 -0.135930
v -3.211461 -0.708309 -0.086349
v -3.211461 -0.708309 -0.033141
v -3.211461 -0.708309 0.020066
v -3.211461 -0.708309 0.069647
v -3.312982 -0.708309 0.087997
v -3.348462 -0.708309 0.115222
v -3.389779 -0.708309 0.132336
v -3.434118 -0.838308 0.305659
v -3.434118 -0.838308 -0.371941
v -3.346430 -0.838308 -0.360397
v -3.264719 -0.838308 -0.326551
v -3.346430 -0.838308 0.294115
v -3.264718 -0.838308 0.260268
v -3.434118 -0.838308 0.204796
v -3.434118 -0.838308 -0.271079
v -3.372536 -0.838308 -0.262971
v -3.315150 -0.838308 -0.239201
v -3.372536 -0.838308 0.196688
v -3.315150 -0.838308 0.172918
v -0.318916 -0.138309 -0.326550
v -0.318916 0.261692 -0.326550
v -0.318916 -0.138311 0.172918
v -0.318916 -0.138311 0.260269
v -0.318916 0.261691 0.172919
v -0.318916 0.261691 0.260269
v -1.892730 -0.558308 0.260268
v -1.892730 -0.358308 0.260268
v -1.892730 -0.558308 0.172918
v -1.892730 -0.358308 0.172918
v -1.892730 -0.555308 -0.239201
v -1.892730 -0.355308 -0.239201
v -1.892730 -0.355308 -0.326551
v -1.892730 -0.555308 -0.326551
v -1.892890 -0.648308 -0.239201
v -1.892890 -0.298308 -0.326550
v -1.892890 -0.298308 -0.239201
v -1.892890 -0.648308 -0.326551
v -1.892890 -0.648308 0.260268
v -1.892890 -0.648308 0.172918
v -1.892890 -0.298308 0.260269
v -1.892890 -0.298308 0.172918
v -0.717562 -0.007562 0.062306
v -0.736910 0.056227 0.034189
v -0.744924 0.082649 -0.033694
v -0.736910 0.056227 -0.101576
v -0.717562 -0.007562 -0.129694
v -0.698215 -0.071351 -0.101576
v -0.690201 -0.097773 -0.033694
v -0.698215 -0.071351 0.034189
v -0.267196 0.294924 0.070845
v -0.237401 0.196690 0.114146
v -0.797589 -0.041607 0.114146
v -0.279538 0.335615 -0.033694
v -0.267196 0.294924 -0.138232
v -0.237401 0.196690 -0.181534
v -0.207606 0.098455 -0.138232
v -0.195264 0.057765 -0.033694
v -0.207606 0.098454 0.070845
v -0.827385 0.056630 0.070845
v -0.839727 0.097320 -0.033694
v -0.827385 0.056630 -0.138232
v -0.797589 -0.041605 -0.181534
v -0.767794 -0.139838 -0.138232
v -0.755453 -0.180528 -0.033695
v -0.767794 -0.139838 0.070845
v -0.318916 0.261692 -0.239200
v -0.318916 -0.138309 -0.239201
v -0.555012 -0.214809 -0.326550
v -0.555012 0.177691 -0.239200
v -0.555011 0.177691 -0.326550
v -0.555011 -0.214809 -0.239201
v -0.555011 -0.214810 0.260269
v -0.555011 -0.214810 0.172918
v -0.555012 0.177689 0.260269
v -0.555012 0.177689 0.172919
v -0.321276 -0.140930 -0.443915
v -0.321276 0.265630 -0.443914
v -0.321276 0.265629 0.377632
v -0.321276 -0.140933 0.377632
v -0.552651 -0.218688 0.377632
v -0.552651 0.180253 -0.443914
v -0.552651 -0.218685 -0.443915
v -0.552651 0.180251 0.377632
v -0.321276 0.233326 0.377632
v -0.318916 0.229465 0.260269
v -0.318916 -0.106535 0.260269
v -0.321276 -0.108183 0.377632
v -0.318916 0.229467 -0.326550
v -0.321276 0.233329 -0.443914
v -0.321276 -0.108182 -0.443915
v -0.318916 -0.106533 -0.326550
v 0.181064 0.229465 0.260269
v 0.281084 0.129414 0.260269
v 0.251789 0.200160 0.260269
v 0.281084 -0.006525 0.260269
v 0.181064 -0.106535 0.260269
v 0.251789 -0.077242 0.260269
v 0.278724 0.133273 0.377632
v 0.178703 0.233326 0.377632
v 0.249428 0.204021 0.377632
v 0.178703 -0.108183 0.377632
v 0.278724 -0.008175 0.377632
v 0.249428 -0.078890 0.377632
v 0.281084 0.129414 -0.326550
v 0.181064 0.229467 -0.326550
v 0.251789 0.200162 -0.326550
v 0.181064 -0.106533 -0.326550
v 0.281084 -0.006522 -0.326550
v 0.251789 -0.077240 -0.326550
v 0.178703 0.233329 -0.443914
v 0.278724 0.133275 -0.443914
v 0.249428 0.204024 -0.443914
v 0.278724 -0.008173 -0.443915
v 0.178703 -0.108182 -0.443915
v 0.249428 -0.078889 -0.443915
v 0.181064 0.061467 0.260269
v 0.178703 0.062571 0.377632
v -3.312982 -0.708309 -0.033141
v -3.539515 -2.870134 -0.900964
v -3.674300 -2.870144 -0.900964
v -3.589385 -2.893601 -0.900964
v -3.638719 -2.893605 -0.900964
v -3.326657 -2.613708 -0.900964
v -3.365695 -2.741915 -0.900964
v -3.314365 -2.654346 -0.900964
v -3.328653 -2.701273 -0.900964
v -3.674300 -2.870144 -0.708963
v -3.539515 -2.870134 -0.708963
v -3.638719 -2.893605 -0.708963
v -3.589385 -2.893601 -0.708963
v -3.365695 -2.741915 -0.708963
v -3.326657 -2.613708 -0.708963
v -3.328653 -2.701273 -0.708963
v -3.314365 -2.654346 -0.708963
v -3.320161 -1.033910 -0.985337
v -3.417070 -0.974525 -0.985337
v -3.527586 -1.001058 -0.985337
v -3.586972 -1.097966 -0.985337
v -3.560440 -1.208482 -0.985337
v -3.463531 -1.267868 -0.985337
v -3.353014 -1.241335 -0.985337
v -3.293628 -1.144427 -0.985337
v -3.941399 -1.774851 -0.900963
v -3.941399 -1.774851 -0.708963
v -4.289041 -2.031289 -0.708963
v -4.289041 -2.031289 -0.900963
v -4.219380 -1.395874 -0.900963
v -4.219380 -1.395874 -0.708963
v -3.542862 -0.901337 -0.900963
v -3.341262 -0.902284 -0.900963
v -3.205230 -1.087738 -0.900963
v -3.264882 -1.280313 -0.900963
v -3.187243 -1.148955 -0.900963
v -3.209077 -1.219442 -0.900963
v -3.341262 -0.902284 -0.708963
v -3.542862 -0.901337 -0.708963
v -3.264882 -1.280314 -0.708963
v -3.205230 -1.087738 -0.708963
v -3.209077 -1.219442 -0.708963
v -3.187243 -1.148955 -0.708963
v -4.349745 -1.492040 -0.708963
v -4.448731 -1.813582 -0.708963
v -4.442536 -1.593782 -0.708963
v -4.478768 -1.711474 -0.708963
v -4.448731 -1.813581 -0.900963
v -4.349745 -1.492039 -0.900963
v -4.478768 -1.711474 -0.900963
v -4.442536 -1.593781 -0.900963
v -3.320161 -1.033910 -0.544538
v -3.417070 -0.974525 -0.544538
v -3.527586 -1.001058 -0.544538
v -3.586972 -1.097966 -0.544538
v -3.560440 -1.208482 -0.544538
v -3.463531 -1.267868 -0.544538
v -3.353014 -1.241335 -0.544538
v -3.293628 -1.144427 -0.544538
v -3.434120 -1.209231 0.390959
v -3.434120 -1.034816 0.390959
v -3.543730 -1.209231 0.376528
v -3.543730 -1.034816 0.376528
v -3.645869 -1.209231 0.334220
v -3.645869 -1.034816 0.334220
v -3.733581 -1.209231 0.266919
v -3.733581 -1.034816 0.266919
v -3.800882 -1.209231 0.179209
v -3.800882 -1.034816 0.179209
v -3.843189 -1.209231 0.077069
v -3.843189 -1.034816 0.077069
v -3.857620 -1.209231 -0.032541
v -3.857620 -1.034816 -0.032541
v -3.843189 -1.209231 -0.142151
v -3.843189 -1.034816 -0.142151
v -3.800882 -1.209231 -0.244291
v -3.800882 -1.034816 -0.244291
v -3.733581 -1.209231 -0.332001
v -3.733581 -1.034816 -0.332001
v -3.645869 -1.209231 -0.399303
v -3.645869 -1.034816 -0.399303
v -3.543730 -1.209231 -0.441611
v -3.543730 -1.034816 -0.441611
v -3.434120 -1.209231 -0.456041
v -3.434120 -1.034816 -0.456041
v -3.324510 -1.209231 -0.441611
v -3.324510 -1.034816 -0.441611
v -3.222371 -1.209231 -0.399303
v -3.222371 -1.034816 -0.399303
v -3.134660 -1.209231 -0.332001
v -3.134660 -1.034816 -0.332001
v -3.067358 -1.209231 -0.244291
v -3.067358 -1.034816 -0.244291
v -3.025052 -1.209231 -0.142151
v -3.025052 -1.034816 -0.142151
v -3.010621 -1.209231 -0.032541
v -3.010621 -1.034816 -0.032541
v -3.025052 -1.209231 0.077069
v -3.025052 -1.034816 0.077069
v -3.067358 -1.209231 0.179209
v -3.067358 -1.034816 0.179209
v -3.134660 -1.209231 0.266918
v -3.134660 -1.034816 0.266918
v -3.222371 -1.209231 0.334220
v -3.222371 -1.034816 0.334220
v -3.324510 -1.209231 0.376528
v -3.324510 -1.034816 0.376528
v -3.106865 -1.034816 0.055147
v -3.194553 -1.034816 0.207027
v -3.140711 -1.034816 0.136859
v -3.346431 -1.034816 0.294715
v -3.264720 -1.034816 0.260868
v -3.521809 -1.034816 0.294715
v -3.434120 -1.034816 0.306259
v -3.106865 -1.034816 -0.120229
v -3.194553 -1.034816 -0.272109
v -3.140711 -1.034816 -0.201941
v -3.346431 -1.034816 -0.359797
v -3.521809 -1.034816 -0.359797
v -3.434120 -1.034816 -0.371341
v -3.264720 -1.034816 -0.325950
v -3.673688 -1.034816 0.207027
v -3.673688 -1.034816 -0.272109
v -3.772921 -1.034816 -0.032541
v -3.761376 -1.034816 0.055147
v -3.727530 -1.034816 -0.201941
v -3.761376 -1.034816 -0.120229
v -3.727530 -1.034816 0.136859
v -3.095320 -1.034816 -0.032541
v -3.603521 -1.034816 -0.325950
v -3.603521 -1.034816 0.260869
v -3.434120 -1.209231 0.306259
v -3.603521 -1.209231 0.260869
v -3.521809 -1.209231 0.294715
v -3.761376 -1.209231 0.055147
v -3.727530 -1.209231 0.136859
v -3.772921 -1.209231 -0.032541
v -3.673688 -1.209231 0.207027
v -3.264720 -1.209231 -0.325950
v -3.434120 -1.209231 -0.371341
v -3.346431 -1.209231 -0.359797
v -3.603521 -1.209231 -0.325950
v -3.521809 -1.209231 -0.359797
v -3.727530 -1.209231 -0.201941
v -3.673688 -1.209231 -0.272109
v -3.095320 -1.209231 -0.032541
v -3.106865 -1.209231 -0.120229
v -3.106865 -1.209231 0.055147
v -3.264720 -1.209231 0.260868
v -3.194553 -1.209231 0.207027
v -3.140711 -1.209231 -0.201941
v -3.140711 -1.209231 0.136859
v -3.194553 -1.209231 -0.272109
v -3.761376 -1.209231 -0.120229
v -3.346431 -1.209231 0.294715
v -3.543730 -1.209231 -0.546421
v -3.543730 -1.034816 -0.546421
v -3.434120 -1.209231 -0.546421
v -3.434120 -1.034816 -0.546421
v -3.324510 -1.209231 -0.546421
v -3.324510 -1.034816 -0.546421
v -3.703901 -2.784293 -0.708963
v -3.777106 -2.711088 -0.708963
v -3.803901 -2.611088 -0.708963
v -3.777106 -2.511088 -0.708963
v -3.403901 -2.611088 -0.708963
v -3.430696 -2.511088 -0.708963
v -3.503901 -2.437883 -0.708963
v -3.430696 -2.711088 -0.708963
v -3.503901 -2.784293 -0.708963
v -3.703901 -2.437883 -0.708963
v -3.648065 -2.799255 -0.708963
v -3.603901 -2.411089 -0.708963
v -3.603901 -2.811090 -0.708963
v -3.777106 -2.711088 -0.900964
v -3.430696 -2.511088 -0.900964
v -3.603901 -2.411089 -0.900964
v -3.503901 -2.437883 -0.900964
v -3.603901 -2.811090 -0.900964
v -3.703901 -2.784293 -0.900964
v -3.619738 -2.806846 -0.900964
v -3.803901 -2.611088 -0.900964
v -3.403901 -2.611088 -0.900964
v -3.703901 -2.437883 -0.900964
v -3.430696 -2.711088 -0.900964
v -3.503901 -2.784293 -0.900964
v -3.519737 -2.788538 -0.900964
v -3.777106 -2.511088 -0.900964
v -3.403872 -1.090825 -0.900963
v -3.403872 -1.090825 -0.708963
vn 0.4804 0.1605 -0.8622
vn 0.2029 0.1582 -0.9663
vn 0.4016 0.1140 -0.9087
vn -0.1716 -0.7487 0.6404
vn -0.0000 -0.7487 0.6629
vn -0.0000 -1.0000 -0.0000
vn -0.0000 -0.7487 -0.6629
vn 0.1716 -0.7487 -0.6403
vn 0.6629 -0.7487 -0.0000
vn 0.6403 -0.7487 -0.1716
vn 0.1716 -0.7487 0.6403
vn 0.3315 -0.7487 0.5741
vn -0.6404 -0.7487 0.1716
vn -0.6629 -0.7487 -0.0000
vn -0.6403 -0.7487 0.1716
vn -0.3315 -0.7487 -0.5741
vn -0.1716 -0.7487 -0.6403
vn 0.5741 -0.7487 -0.3315
vn 0.4688 -0.7487 -0.4688
vn 0.4688 -0.7487 0.4688
vn 0.5741 -0.7487 0.3315
vn -0.5741 -0.7487 0.3315
vn -0.4688 -0.7487 0.4688
vn -0.4688 -0.7487 -0.4688
vn -0.5741 -0.7487 -0.3315
vn 0.3315 -0.7487 -0.5741
vn 0.6403 -0.7487 0.1716
vn -0.3315 -0.7487 0.5741
vn -0.6403 -0.7487 -0.1716
vn -0.6404 -0.7487 -0.1716
vn 0.2588 -0.0000 0.9659
vn 0.1305 -0.0000 0.9914
vn 0.0438 -0.0000 0.9990
vn -0.0000 1.0000 -0.0000
vn 0.2588 -0.0000 -0.9659
vn 0.1761 -0.0000 -0.9844
vn 0.3723 -0.0000 -0.9281
vn -0.1305 -0.0000 -0.9914
vn -0.2588 -0.0000 -0.9659
vn -0.8489 0.1979 -0.4901
vn -0.6931 0.1979 -0.6931
vn 0.2537 0.1979 0.9468
vn -0.0000 0.1979 0.9802
vn -0.4901 0.1979 0.8489
vn -0.2537 0.1979 0.9468
vn 1.0000 0.0099 -0.0000
vn -0.4901 0.1979 -0.8489
vn -0.6931 0.1979 0.6931
vn -0.2537 0.1979 -0.9468
vn -0.8489 0.1979 0.4901
vn -0.0000 0.1979 -0.9802
vn -0.9468 0.1979 0.2537
vn 0.2537 0.1979 -0.9468
vn -0.9802 0.1979 -0.0000
vn 0.4804 0.1605 0.8622
vn 0.2030 0.1582 0.9663
vn 0.4069 0.1858 0.8944
vn 0.4901 0.1979 -0.8489
vn -0.9468 0.1979 -0.2537
vn 0.4901 0.1979 0.8489
vn 0.4069 0.1858 -0.8944
vn -0.1246 0.9896 -0.0720
vn -0.1239 0.9897 0.0715
vn -0.1886 0.9764 0.1056
vn -0.2588 -0.0000 0.9659
vn -0.1305 -0.0000 0.9914
vn -0.2177 -0.0000 0.9760
vn 0.0438 -0.0000 -0.9990
vn -0.1767 -0.0000 -0.9843
vn -0.2176 -0.0000 -0.9760
vn 0.3722 -0.0000 0.9282
vn -1.0000 -0.0000 -0.0000
vn -0.9998 -0.0000 -0.0201
vn -0.0000 -0.0000 1.0000
vn 0.3082 -0.9513 -0.0000
vn 0.3082 -0.9513 -0.0075
vn 0.3107 -0.9505 -0.0104
vn -0.3352 0.9421 -0.0000
vn -0.3391 0.9406 -0.0157
vn -0.3391 0.9406 0.0157
vn -0.3382 0.9409 0.0206
vn -0.3352 0.9421 0.0046
vn 0.3082 -0.9513 0.0075
vn -0.0000 -0.0000 -1.0000
vn -0.3298 0.9440 0.0075
vn 0.3150 -0.9326 -0.1763
vn 0.3298 -0.9440 -0.0071
vn 0.3302 -0.9439 -0.0000
vn 0.1762 -0.0000 0.9844
vn -0.1897 0.9761 -0.1062
vn -0.3317 0.9434 -0.0071
vn -0.3321 0.9433 -0.0000
vn 0.3167 -0.9318 0.1772
vn 0.3317 -0.9434 0.0076
vn 0.3161 -0.9310 0.1825
vn -0.1767 -0.0000 0.9843
vn 0.3107 -0.9505 0.0104
vn -0.3382 0.9409 -0.0206
vn -0.3459 0.9375 -0.0384
vn 0.3111 -0.9502 -0.0214
vn 0.3183 -0.9472 -0.0377
vn -0.9998 -0.0000 0.0201
vn 0.3111 -0.9502 0.0214
vn 0.9998 -0.0000 -0.0201
vn 0.9998 -0.0000 0.0201
vn -0.0000 0.9995 0.0329
vn 0.1919 0.9810 0.0284
vn -0.0000 0.9995 -0.0329
vn 0.1919 0.9810 -0.0284
vn 0.1983 0.9797 -0.0282
vn -0.0000 -0.9999 -0.0140
vn 0.1923 -0.9813 -0.0099
vn -0.0000 -0.9999 0.0140
vn 0.1923 -0.9813 0.0099
vn 0.1978 -0.9802 0.0098
vn 0.9802 -0.1972 -0.0169
vn 0.9816 0.1906 -0.0135
vn 0.9811 -0.1929 -0.0170
vn 0.9816 0.1906 0.0135
vn 0.9802 -0.1972 0.0169
vn 0.9811 -0.1929 0.0170
vn 0.3827 0.9236 -0.0227
vn 0.9239 0.3826 0.0060
vn 0.9798 0.1994 0.0131
vn 0.9238 -0.3827 0.0132
vn 0.3827 -0.9239 -0.0053
vn 0.1978 -0.9802 -0.0098
vn 0.9798 0.1994 -0.0131
vn 0.9239 0.3826 -0.0060
vn 0.3827 0.9236 0.0227
vn 0.1983 0.9797 0.0283
vn 0.3827 -0.9239 0.0053
vn 0.9238 -0.3827 -0.0132
vn 0.4016 0.1140 0.9087
vn 0.1305 -0.0000 -0.9914
vn -0.3352 0.9421 -0.0046
vn -0.3459 0.9375 0.0384
vn -0.1761 -0.0000 -0.9844
vn -0.1890 0.9763 0.1054
vn -0.3302 0.9439 -0.0000
vn -0.3298 0.9440 0.0071
vn 0.3144 -0.9318 -0.1815
vn 0.3167 -0.9319 0.1769
vn 0.3321 -0.9433 -0.0000
vn 0.3317 -0.9434 0.0071
vn 0.1757 -0.0000 -0.9844
vn 0.3183 -0.9472 0.0377
vn 0.1345 -0.3653 0.9211
vn 0.1353 -0.3678 0.9200
vn 0.1353 -0.3679 0.9200
vn 0.3199 -0.8696 0.3762
vn 0.3202 -0.8706 0.3736
vn 0.3202 -0.8706 0.3735
vn 0.3202 -0.8706 -0.3736
vn 0.3199 -0.8696 -0.3762
vn 0.3202 -0.8706 -0.3735
vn 0.1353 -0.3678 -0.9200
vn 0.1345 -0.3653 -0.9211
vn 0.1353 -0.3679 -0.9200
vn -0.1354 0.3678 -0.9200
vn -0.1346 0.3653 -0.9211
vn -0.3207 0.8704 -0.3736
vn -0.3204 0.8694 -0.3762
vn -0.3207 0.8704 -0.3735
vn -0.3204 0.8694 0.3762
vn -0.3207 0.8704 0.3736
vn -0.3207 0.8704 0.3735
vn -0.1346 0.3653 0.9211
vn -0.1354 0.3678 0.9200
vn 0.1345 -0.3652 0.9211
vn 0.3199 -0.8695 0.3762
vn 0.3199 -0.8695 -0.3762
vn -0.1345 0.3652 -0.9211
vn -0.1345 0.3652 0.9211
vn -0.5000 -0.0000 0.8660
vn -0.7071 -0.0000 0.7071
vn -0.8660 -0.0000 0.5000
vn -0.9659 -0.0000 0.2588
vn -0.9659 -0.0000 -0.2588
vn -0.8660 -0.0000 -0.5000
vn -0.7071 -0.0000 -0.7071
vn -0.5000 -0.0000 -0.8660
vn -0.3827 -0.0000 -0.9239
vn 0.3827 -0.0000 -0.9239
vn 0.5000 -0.0000 -0.8660
vn 0.7071 -0.0000 -0.7071
vn 0.8660 -0.0000 -0.5000
vn 0.9659 -0.0000 -0.2588
vn 1.0000 -0.0000 -0.0000
vn 0.9659 -0.0000 0.2588
vn 0.8660 -0.0000 0.5000
vn 0.7071 -0.0000 0.7071
vn 0.5000 -0.0000 0.8660
vn -0.0000 1.0000 -0.0039
vn 0.0004 0.9999 -0.0149
vn -0.0000 0.9998 0.0202
vn -0.0080 -1.0000 0.0037
vn 0.0015 -1.0000 0.0038
vn -0.5860 0.1714 -0.7920
vn -0.3346 -0.4632 -0.8207
vn -0.1436 -0.9279 -0.3442
vn -0.1436 -0.9279 0.3442
vn -0.3346 -0.4632 0.8207
vn 0.9310 0.3651 -0.0030
vn 0.9305 0.3663 -0.0000
vn 0.9321 0.3622 0.0043
vn 0.9310 0.3651 0.0031
vn 0.9332 0.3592 0.0031
vn 0.9337 0.3580 -0.0000
vn 0.9321 0.3622 -0.0043
vn 0.9332 0.3593 -0.0031
vn 0.9310 0.3651 -0.0031
vn 0.9310 0.3651 0.0030
vn 0.9332 0.3593 0.0031
vn 0.9332 0.3592 -0.0031
vn 0.2382 -0.3139 0.9191
vn 0.2389 -0.3113 0.9198
vn 0.2422 -0.3003 0.9226
vn 0.5885 -0.7215 0.3648
vn 0.5903 -0.7174 0.3699
vn 0.5924 -0.7127 0.3757
vn 0.5903 -0.7174 -0.3700
vn 0.5885 -0.7215 -0.3648
vn 0.5924 -0.7127 -0.3757
vn 0.2389 -0.3113 -0.9198
vn 0.2382 -0.3139 -0.9191
vn 0.2422 -0.3002 -0.9226
vn -0.1945 0.3296 -0.9239
vn -0.2043 0.3172 -0.9261
vn -0.2160 0.3022 -0.9285
vn -0.3158 0.8647 -0.3906
vn -0.3775 0.8279 -0.4149
vn -0.4071 0.8080 -0.4260
vn -0.3775 0.8279 0.4149
vn -0.3154 0.8649 0.3905
vn -0.4071 0.8080 0.4260
vn -0.2043 0.3172 0.9261
vn -0.1945 0.3296 0.9239
vn -0.2160 0.3022 0.9285
vn -0.1529 0.3594 0.9206
vn -0.3629 0.8531 0.3749
vn -0.3629 0.8531 -0.3749
vn -0.1529 0.3594 -0.9206
vn 0.1529 -0.3594 -0.9206
vn 0.3629 -0.8531 -0.3749
vn 0.3629 -0.8531 0.3749
vn 0.1529 -0.3594 0.9206
vn -0.7449 0.5873 -0.3165
vn -0.7449 0.5873 0.3165
vn -0.5860 0.1714 0.7920
vn 0.2341 -0.3274 0.9154
vn 0.5862 -0.7266 0.3583
vn 0.5903 -0.7174 -0.3699
vn 0.5862 -0.7266 -0.3583
vn 0.2341 -0.3274 -0.9154
vn -0.1770 0.3514 -0.9193
vn -0.3154 0.8649 -0.3905
vn -0.2724 0.8870 -0.3727
vn -0.3772 0.8281 -0.4147
vn -0.2724 0.8870 0.3727
vn -0.1770 0.3514 0.9193
vn 0.8947 0.4467 -0.0000
vn 0.8066 0.5911 -0.0000
vn 0.6696 -0.7428 -0.0000
vn 0.5122 -0.8589 -0.0000
vn -0.6894 -0.7244 -0.0000
vn -0.5505 -0.8349 -0.0000
vn 0.0001 -1.0000 -0.0000
vn 0.2182 -0.9759 -0.0000
vn 0.9572 0.2895 -0.0000
vn 0.9566 -0.2913 -0.0000
vn 0.8691 -0.4946 -0.0000
vn 0.8692 -0.4945 -0.0000
vn 0.5225 0.8526 -0.0000
vn -0.2334 0.9724 -0.0000
vn -0.8526 0.5225 -0.0000
vn -0.9724 -0.2334 -0.0000
vn -0.5225 -0.8526 -0.0000
vn 0.2334 -0.9724 -0.0000
vn 0.8526 -0.5225 -0.0000
vn 0.9724 0.2334 -0.0000
vn 0.5901 -0.8073 -0.0000
vn 0.6669 -0.7452 -0.0000
vn -0.8065 -0.5913 -0.0000
vn -0.6694 0.7429 -0.0000
vn -0.5919 0.8060 -0.0000
vn -0.5901 0.8073 -0.0000
vn 0.8963 0.4433 -0.0000
vn 0.8063 0.5915 -0.0000
vn 0.8672 -0.4979 -0.0000
vn 0.9552 -0.2959 -0.0000
vn 0.9594 0.2819 -0.0000
vn -0.8683 0.4960 -0.0000
vn -0.6695 0.7429 -0.0000
vn -0.9557 0.2942 -0.0000
vn -0.9594 -0.2822 -0.0000
vn -0.8963 -0.4435 -0.0000
vn 0.0047 1.0000 -0.0000
vn 0.6696 -0.7427 -0.0000
vn 0.8964 0.4433 -0.0000
vt 0.158491 0.932821
vt 0.236822 0.926542
vt 0.164577 0.949018
vt 0.141144 0.497956
vt 0.170140 0.518034
vt 0.139172 0.518034
vt 0.272475 0.481245
vt 0.260245 0.574143
vt 0.185908 0.517102
vt 0.314867 0.591543
vt 0.282148 0.578375
vt 0.293126 0.569490
vt 0.202555 0.613260
vt 0.228006 0.588844
vt 0.221839 0.619191
vt 0.141144 0.538112
vt 0.175607 0.545607
vt 0.146983 0.557424
vt 0.184794 0.432376
vt 0.214508 0.451376
vt 0.202075 0.458074
vt 0.281333 0.422434
vt 0.282148 0.457693
vt 0.269652 0.451114
vt 0.241907 0.621258
vt 0.256115 0.588977
vt 0.261994 0.619382
vt 0.156467 0.575230
vt 0.191182 0.569006
vt 0.169233 0.590852
vt 0.169233 0.445217
vt 0.182246 0.477997
vt 0.156467 0.460838
vt 0.261994 0.416686
vt 0.242054 0.445777
vt 0.241907 0.414810
vt 0.281333 0.613634
vt 0.299185 0.604235
vt 0.184794 0.603692
vt 0.214508 0.584692
vt 0.171520 0.532089
vt 0.175607 0.490462
vt 0.171520 0.503980
vt 0.202555 0.422808
vt 0.228006 0.447224
vt 0.299184 0.431833
vt 0.293126 0.466578
vt 0.242054 0.590291
vt 0.182246 0.558071
vt 0.191182 0.467062
vt 0.256115 0.447091
vt 0.269652 0.584954
vt 0.202075 0.577995
vt 0.146983 0.478645
vt 0.221839 0.416877
vt 0.355951 0.674789
vt 0.331741 0.729534
vt 0.331741 0.674789
vt 0.292802 0.853465
vt 0.265293 0.845822
vt 0.281298 0.833540
vt 0.272936 0.873331
vt 0.281561 0.862091
vt 0.267514 0.886421
vt 0.253011 0.861828
vt 0.265665 0.900469
vt 0.245291 0.880467
vt 0.245290 0.920471
vt 0.242657 0.900469
vt 0.272936 0.927606
vt 0.267514 0.914516
vt 0.265293 0.955115
vt 0.253011 0.939110
vt 0.281561 0.938847
vt 0.281298 0.967397
vt 0.356133 0.729666
vt 0.380343 0.674921
vt 0.380343 0.729666
vt 0.303026 0.871163
vt 0.283061 0.895406
vt 0.287456 0.870483
vt 0.322059 0.870992
vt 0.305232 0.896374
vt 0.346583 0.881324
vt 0.326898 0.891571
vt 0.331314 0.859962
vt 0.362945 0.866331
vt 0.351179 0.836287
vt 0.341247 0.848124
vt 0.360434 0.825257
vt 0.374868 0.847615
vt 0.382510 0.804279
vt 0.381542 0.826450
vt 0.353925 0.791268
vt 0.357298 0.806484
vt 0.304133 0.674789
vt 0.287130 0.729534
vt 0.287130 0.674789
vt 0.137404 0.836450
vt 0.214768 0.843977
vt 0.138260 0.850593
vt 0.162255 0.712532
vt 0.228028 0.753951
vt 0.156678 0.725557
vt 0.147576 0.752382
vt 0.224503 0.763524
vt 0.221476 0.773266
vt 0.169701 0.961063
vt 0.240512 0.935215
vt 0.215908 0.854115
vt 0.139844 0.864672
vt 0.144077 0.766112
vt 0.218956 0.783151
vt 0.175200 0.973990
vt 0.244471 0.944522
vt 0.217571 0.864180
vt 0.142154 0.878651
vt 0.141291 0.780004
vt 0.216950 0.793154
vt 0.248430 0.953829
vt 0.180699 0.986916
vt 0.219752 0.874145
vt 0.145183 0.892492
vt 0.139226 0.794021
vt 0.215464 0.803246
vt 0.252120 0.962501
vt 0.185823 0.998961
vt 0.148922 0.906158
vt 0.222444 0.883985
vt 0.214500 0.813402
vt 0.137888 0.808126
vt 0.175388 0.687433
vt 0.252120 0.704389
vt 0.241500 0.726502
vt 0.153362 0.919613
vt 0.225641 0.893672
vt 0.214062 0.823594
vt 0.137280 0.822282
vt 0.236539 0.735416
vt 0.168497 0.699813
vt 0.229334 0.903182
vt 0.214152 0.833795
vt 0.232044 0.744574
vt 0.151780 0.738852
vt 0.296054 0.819148
vt 0.237437 0.785305
vt 0.256976 0.751463
vt 0.352529 0.647548
vt 0.331923 0.674921
vt 0.335527 0.647548
vt 0.368952 0.643148
vt 0.356133 0.674921
vt 0.368770 0.761307
vt 0.355951 0.729534
vt 0.379336 0.735800
vt 0.335345 0.756907
vt 0.352347 0.756907
vt 0.287312 0.729666
vt 0.304315 0.674921
vt 0.304315 0.729666
vt 0.270310 0.729666
vt 0.287312 0.674921
vt 0.331923 0.729666
vt 0.270128 0.729534
vt 0.270128 0.674789
vt 0.380161 0.674789
vt 0.304133 0.729534
vt 0.956039 0.781802
vt 0.893884 0.852332
vt 0.932111 0.769751
vt 0.890865 0.898939
vt 0.857526 0.982512
vt 0.833885 0.894386
vt 0.319939 0.846194
vt 0.299937 0.825820
vt 0.319939 0.823187
vt 0.305892 0.848043
vt 0.292802 0.947472
vt 0.305892 0.952894
vt 0.319939 0.954743
vt 0.299937 0.975117
vt 0.319939 0.977751
vt 0.933060 0.769976
vt 0.879378 0.743141
vt 0.935547 0.750207
vt 0.895048 0.851037
vt 0.836230 0.865353
vt 0.838153 0.845521
vt 0.835472 0.874525
vt 0.892452 0.879077
vt 0.937430 0.723339
vt 0.878987 0.736985
vt 0.881155 0.717178
vt 0.876891 0.762910
vt 0.027237 0.272773
vt 0.355043 0.316332
vt 0.012606 0.315985
vt 0.038157 0.252523
vt 0.369674 0.273121
vt 0.023486 0.336257
vt 0.355043 0.336257
vt 0.038551 0.379319
vt 0.370109 0.379319
vt 0.039338 0.273096
vt 0.371101 0.252831
vt 0.371122 0.272756
vt 0.024232 0.316144
vt 0.356037 0.335729
vt 0.013381 0.336432
vt 0.356017 0.315804
vt 0.028138 0.379600
vt 0.370794 0.378897
vt 0.324265 0.104617
vt 0.404101 0.124543
vt 0.324265 0.124542
vt 0.404102 0.106439
vt 0.324265 0.126364
vt 0.324265 0.106439
vt 0.030359 0.208893
vt 0.000348 0.124541
vt 0.030359 0.020265
vt 0.351027 0.029399
vt 0.351594 0.009483
vt 0.030927 0.000348
vt 0.000348 0.104616
vt 0.030359 0.022088
vt 0.351026 0.031221
vt 0.000348 0.106440
vt 0.351594 0.221499
vt 0.030359 0.210717
vt 0.351027 0.201582
vt 0.000348 0.126365
vt 0.835720 0.899164
vt 0.889841 0.897450
vt 0.912984 0.985458
vt 0.589710 0.208842
vt 0.475662 0.169892
vt 0.475662 0.130942
vt 0.833846 0.892038
vt 0.883411 0.716663
vt 0.938656 0.723597
vt 0.938656 0.977793
vt 0.915886 0.891205
vt 0.935261 0.743146
vt 0.876765 0.763676
vt 0.830450 0.847439
vt 0.837807 0.847835
vt 0.826533 0.891137
vt 0.876003 0.715704
vt 0.869336 0.762890
vt 0.873627 0.770455
vt 0.588812 0.132482
vt 0.475302 0.105696
vt 0.589350 0.105696
vt 0.589171 0.104156
vt 0.475123 0.104156
vt 0.589171 0.027512
vt 0.475662 0.000739
vt 0.589710 0.000738
vt 0.588811 0.001021
vt 0.475302 0.027795
vt 0.474763 0.001022
vt 0.440380 0.027718
vt 0.408834 0.001132
vt 0.439841 0.000945
vt 0.458631 0.202443
vt 0.451948 0.155304
vt 0.474764 0.132481
vt 0.459169 0.099011
vt 0.452487 0.050608
vt 0.409194 0.027402
vt 0.440740 0.000816
vt 0.440201 0.027590
vt 0.374265 0.027129
vt 0.391010 0.000424
vt 0.391728 0.027205
vt 0.408476 0.000620
vt 0.457662 0.027580
vt 0.458200 0.000806
vt 0.475123 0.027512
vt 0.408116 0.027914
vt 0.391369 0.001329
vt 0.390650 0.028110
vt 0.373906 0.001405
vt 0.457840 0.027728
vt 0.457302 0.000954
vt 0.475123 0.065834
vt 0.458990 0.034194
vt 0.452308 0.081333
vt 0.458990 0.097471
vt 0.452308 0.050325
vt 0.459529 0.137626
vt 0.452846 0.153764
vt 0.459529 0.202160
vt 0.475662 0.208842
vt 0.452846 0.186029
vt 0.304147 0.812937
vt 0.327305 0.795419
vt 0.327305 0.804844
vt 0.327305 0.785305
vt 0.304147 0.785305
vt 0.327305 0.775191
vt 0.304147 0.757673
vt 0.327305 0.765766
vt 0.189563 0.503461
vt 0.196624 0.491231
vt 0.206610 0.481245
vt 0.218840 0.474184
vt 0.232481 0.470528
vt 0.246604 0.470528
vt 0.260245 0.474183
vt 0.282461 0.491230
vt 0.289522 0.503461
vt 0.293177 0.517102
vt 0.293177 0.531224
vt 0.289522 0.544865
vt 0.282461 0.557095
vt 0.272475 0.567081
vt 0.246604 0.577798
vt 0.232482 0.577798
vt 0.218841 0.574143
vt 0.206610 0.567081
vt 0.196624 0.557095
vt 0.189563 0.544865
vt 0.185908 0.531224
vt 0.314867 0.444525
vt 0.377707 0.782613
vt 0.183637 0.672223
vt 0.266401 0.747559
vt 0.276515 0.746227
vt 0.286629 0.747559
vt 0.296054 0.751463
vt 0.286629 0.823051
vt 0.276515 0.824383
vt 0.266401 0.823051
vt 0.256976 0.819147
vt 0.248883 0.812937
vt 0.242673 0.804844
vt 0.238769 0.795419
vt 0.238769 0.775191
vt 0.242673 0.765766
vt 0.248883 0.757673
vt 0.379518 0.668655
vt 0.270310 0.674921
vt 0.380161 0.729534
vt 0.918428 0.863051
vt 0.914063 0.985413
vt 0.893125 0.870869
vt 0.369714 0.253196
vt 0.028445 0.252831
vt 0.404101 0.104618
vt 0.404102 0.126364
vt 0.351026 0.199760
vt 0.030927 0.230633
vt 0.857431 0.981727
vt 0.855531 0.974503
vt 0.589710 0.130942
vt 0.828132 0.874130
vt 0.828935 0.864453
vt 0.872190 0.742210
vt 0.871778 0.736223
vt 0.840903 0.841148
vt 0.589350 0.027795
vt 0.588811 0.209125
vt 0.474764 0.209125
vt 0.451948 0.186312
vt 0.458631 0.139166
vt 0.452487 0.082873
vt 0.459169 0.034477
vt 0.373547 0.000348
vt 0.373188 0.028186
vt 0.071802 0.403474
vt 0.085879 0.981510
vt 0.072027 0.979730
vt 0.057838 0.403204
vt 0.058079 0.978995
vt 0.044131 0.979741
vt 0.030281 0.981533
vt 0.043874 0.403485
vt 0.016430 0.983325
vt 0.029923 0.404157
vt 0.113680 0.984027
vt 0.127630 0.404792
vt 0.127630 0.983289
vt 0.099703 0.404793
vt 0.099731 0.983290
vt 0.085753 0.404133
vt 0.015973 0.404828
vt 0.113666 0.405066
vt 0.462786 0.548643
vt 0.504803 0.522010
vt 0.504802 0.548643
vt 0.462786 0.522010
vt 0.504802 0.495378
vt 0.462786 0.495378
vt 0.504803 0.468745
vt 0.462786 0.468745
vt 0.504803 0.442112
vt 0.462786 0.442112
vt 0.504803 0.415480
vt 0.462786 0.415480
vt 0.504803 0.388847
vt 0.462786 0.388847
vt 0.504803 0.362214
vt 0.462786 0.362214
vt 0.504803 0.335581
vt 0.462786 0.335581
vt 0.504803 0.308949
vt 0.462786 0.308949
vt 0.504803 0.282316
vt 0.462786 0.282316
vt 0.504803 0.255684
vt 0.752572 0.761246
vt 0.714721 0.764886
vt 0.735466 0.744140
vt 0.756212 0.723395
vt 0.776049 0.743232
vt 0.462786 0.841603
vt 0.504803 0.814970
vt 0.504803 0.841603
vt 0.462786 0.814970
vt 0.504803 0.788337
vt 0.462786 0.788337
vt 0.504803 0.761704
vt 0.462786 0.761705
vt 0.504803 0.735072
vt 0.462786 0.735072
vt 0.504803 0.708439
vt 0.462786 0.708439
vt 0.504803 0.681806
vt 0.462786 0.681806
vt 0.504803 0.655174
vt 0.462786 0.655174
vt 0.504803 0.628541
vt 0.462786 0.628541
vt 0.504803 0.601908
vt 0.874472 0.666967
vt 0.894344 0.657632
vt 0.909258 0.657632
vt 0.874472 0.535011
vt 0.945275 0.544332
vt 0.909258 0.544346
vt 0.462786 0.601908
vt 0.504803 0.575276
vt 0.462786 0.575276
vt 0.929130 0.666439
vt 0.858327 0.657118
vt 0.894344 0.657104
vt 0.874472 0.534483
vt 0.945275 0.543804
vt 0.909258 0.543818
vt 0.827074 0.686744
vt 0.789223 0.690384
vt 0.809968 0.669638
vt 0.809060 0.710221
vt 0.701547 0.817734
vt 0.734558 0.784723
vt 0.830714 0.648893
vt 0.850551 0.668730
vt 0.462786 0.255683
vt 0.923664 0.653771
vt 0.929130 0.666967
vt 0.911122 0.671792
vt 0.892480 0.671792
vt 0.858327 0.657646
vt 0.867022 0.646314
vt 0.879938 0.653771
vt 0.856476 0.635768
vt 0.845144 0.644463
vt 0.835823 0.628318
vt 0.830998 0.610310
vt 0.830998 0.591667
vt 0.835823 0.573660
vt 0.845144 0.557514
vt 0.858327 0.544332
vt 0.892480 0.530185
vt 0.911122 0.530185
vt 0.929130 0.535011
vt 0.958458 0.557514
vt 0.967779 0.573660
vt 0.972604 0.591667
vt 0.972604 0.610310
vt 0.967779 0.628318
vt 0.958458 0.644463
vt 0.945275 0.657646
vt 0.936580 0.646314
vt 0.947126 0.635768
vt 0.849018 0.622852
vt 0.845158 0.608446
vt 0.954584 0.622852
vt 0.845158 0.593532
vt 0.958444 0.608446
vt 0.958444 0.593532
vt 0.849018 0.579126
vt 0.856476 0.566209
vt 0.954584 0.579126
vt 0.867022 0.555663
vt 0.947126 0.566209
vt 0.936580 0.555663
vt 0.879938 0.548206
vt 0.894344 0.544346
vt 0.923664 0.548206
vt 0.909258 0.657104
vt 0.923664 0.653244
vt 0.911122 0.671264
vt 0.892480 0.671264
vt 0.874472 0.666439
vt 0.867022 0.645787
vt 0.879938 0.653244
vt 0.856476 0.635241
vt 0.845144 0.643935
vt 0.835823 0.627790
vt 0.830998 0.609783
vt 0.830998 0.591140
vt 0.835823 0.573132
vt 0.845144 0.556987
vt 0.858327 0.543804
vt 0.892480 0.529658
vt 0.911122 0.529658
vt 0.929130 0.534483
vt 0.958458 0.556987
vt 0.967779 0.573132
vt 0.972604 0.591140
vt 0.972604 0.609783
vt 0.967779 0.627790
vt 0.958458 0.643935
vt 0.945275 0.657118
vt 0.936580 0.645787
vt 0.947127 0.635241
vt 0.849018 0.622324
vt 0.845158 0.607918
vt 0.954584 0.622324
vt 0.845158 0.593004
vt 0.958444 0.607918
vt 0.958444 0.593004
vt 0.849018 0.578598
vt 0.856476 0.565682
vt 0.954584 0.578598
vt 0.867022 0.555136
vt 0.947126 0.565682
vt 0.936580 0.555136
vt 0.879938 0.547679
vt 0.894344 0.543818
vt 0.923664 0.547679
vt 0.681710 0.797897
vt 0.568572 0.944563
vt 0.537280 0.956369
vt 0.553971 0.936334
vt 0.520480 0.936775
vt 0.543062 0.923611
vt 0.511467 0.912589
vt 0.537210 0.907906
vt 0.537156 0.891146
vt 0.511384 0.886778
vt 0.616123 0.936055
vt 0.649618 0.936193
vt 0.632994 0.955938
vt 0.153748 0.658318
vt 0.140500 0.649839
vt 0.143872 0.648442
vt 0.153748 0.624599
vt 0.140500 0.633079
vt 0.152351 0.621227
vt 0.167715 0.624599
vt 0.180963 0.633078
vt 0.177591 0.634475
vt 0.167715 0.658318
vt 0.180963 0.649839
vt 0.169112 0.661690
vt 0.152351 0.661690
vt 0.143872 0.634475
vt 0.169112 0.621227
vt 0.177591 0.648442
vt 0.294410 0.628061
vt 0.316404 0.638658
vt 0.303163 0.654603
vt 0.278832 0.634244
vt 0.288540 0.664224
vt 0.271053 0.665000
vt 0.250979 0.659843
vt 0.262587 0.638365
vt 0.359108 0.604284
vt 0.366040 0.585149
vt 0.379236 0.599341
vt 0.343253 0.611702
vt 0.352748 0.595358
vt 0.324403 0.613094
vt 0.329650 0.622718
vt 0.309410 0.620584
vt 0.348497 0.964209
vt 0.511384 0.938399
vt 0.511184 0.964209
vt 0.348697 0.938399
vt 0.348697 0.886778
vt 0.820237 0.989670
vt 0.657349 0.963860
vt 0.820037 0.963860
vt 0.657149 0.938050
vt 0.819836 0.938050
vt 0.657066 0.912240
vt 0.819753 0.912240
vt 0.819836 0.886429
vt 0.348296 0.990018
vt 0.510984 0.990018
vt 0.585097 0.947359
vt 0.559766 0.969040
vt 0.610623 0.968811
vt 0.585214 0.973346
vt 0.601597 0.944414
vt 0.626918 0.923233
vt 0.246051 0.641100
vt 0.339204 0.605230
vt 0.348780 0.912589
vt 0.657549 0.989670
vt 0.657149 0.886429
vt 0.994327 0.817174
vt 0.962802 0.831297
vt 0.962802 0.817174
vt 0.994327 0.831297
vt 0.962802 0.845419
vt 0.994327 0.845419
vt 0.962802 0.859541
vt 0.994327 0.859541
vt 0.962802 0.873664
vt 0.994327 0.873664
vt 0.962802 0.887786
vt 0.994327 0.887786
vt 0.962802 0.901908
vt 0.994327 0.901908
vt 0.962802 0.916030
vt 0.994327 0.916030
vt 0.962802 0.930153
vt 0.994327 0.930153
vt 0.962802 0.944275
vt 0.994327 0.944275
vt 0.962802 0.958397
vt 0.994327 0.958397
vt 0.962802 0.972519
vt 0.994327 0.972519
vt 0.962802 0.986642
vt 0.994327 0.647707
vt 0.962802 0.661830
vt 0.962802 0.647707
vt 0.994327 0.661830
vt 0.962802 0.675952
vt 0.994327 0.675952
vt 0.962802 0.690074
vt 0.994327 0.690074
vt 0.962802 0.704196
vt 0.994327 0.704196
vt 0.962802 0.718319
vt 0.994327 0.718319
vt 0.962802 0.732441
vt 0.994327 0.732441
vt 0.962802 0.746563
vt 0.994327 0.746563
vt 0.962802 0.760685
vt 0.994327 0.760685
vt 0.962802 0.774808
vt 0.994327 0.774808
vt 0.962802 0.788930
vt 0.994327 0.788930
vt 0.962802 0.803052
vt 0.994327 0.803052
vt 0.994327 0.986642
vt 0.446808 0.427699
vt 0.410834 0.232841
vt 0.446808 0.232841
vt 0.632238 0.759429
vt 0.645887 0.751305
vt 0.654210 0.752382
vt 0.731374 0.612328
vt 0.675901 0.700636
vt 0.661621 0.693659
vt 0.410834 0.455149
vt 0.446808 0.495619
vt 0.410834 0.495619
vt 0.647416 0.873419
vt 0.641549 0.860400
vt 0.643953 0.860497
vt 0.587853 0.715344
vt 0.639049 0.803549
vt 0.624784 0.807560
vt 0.410834 0.523174
vt 0.446808 0.515189
vt 0.446808 0.523174
vt 0.410834 0.515189
vt 0.446808 0.505945
vt 0.410834 0.505945
vt 0.410834 0.435654
vt 0.410834 0.427699
vt 0.446808 0.435654
vt 0.410834 0.444845
vt 0.446808 0.444845
vt 0.604324 0.568977
vt 0.529992 0.588143
vt 0.529992 0.568977
vt 0.604324 0.607309
vt 0.529992 0.607309
vt 0.604324 0.453982
vt 0.529992 0.473148
vt 0.529992 0.453982
vt 0.604324 0.473148
vt 0.529992 0.492313
vt 0.604324 0.492314
vt 0.529992 0.511479
vt 0.604324 0.530645
vt 0.529992 0.530645
vt 0.581610 0.823235
vt 0.560098 0.875168
vt 0.508165 0.853656
vt 0.529992 0.549811
vt 0.604324 0.549811
vt 0.409193 0.770086
vt 0.445168 0.613073
vt 0.445168 0.770086
vt 0.446808 0.718033
vt 0.511272 0.709819
vt 0.516326 0.724022
vt 0.409193 0.303589
vt 0.445168 0.333941
vt 0.409193 0.333941
vt 0.803258 0.634256
vt 0.810877 0.620505
vt 0.409193 0.490953
vt 0.643705 0.508671
vt 0.675929 0.496407
vt 0.649788 0.519243
vt 0.445168 0.571820
vt 0.409193 0.528727
vt 0.445168 0.528727
vt 0.409193 0.613073
vt 0.445168 0.597601
vt 0.409193 0.597601
vt 0.445168 0.583775
vt 0.409193 0.583775
vt 0.691303 0.620627
vt 0.688667 0.630854
vt 0.659919 0.613819
vt 0.445168 0.277788
vt 0.445168 0.303589
vt 0.409193 0.277788
vt 0.445168 0.254716
vt 0.410834 0.788563
vt 0.446808 0.768621
vt 0.446808 0.788563
vt 0.410834 0.718033
vt 0.531428 0.800321
vt 0.583361 0.821833
vt 0.561849 0.873766
vt 0.445168 0.490953
vt 0.545606 0.663188
vt 0.515499 0.692915
vt 0.527848 0.677830
vt 0.540381 0.753649
vt 0.809447 0.602372
vt 0.799349 0.584717
vt 0.773224 0.660494
vt 0.783655 0.566654
vt 0.688311 0.611999
vt 0.667573 0.586410
vt 0.638721 0.587662
vt 0.681110 0.639941
vt 0.672978 0.467211
vt 0.702069 0.473570
vt 0.647394 0.489562
vt 0.642829 0.497807
vt 0.654682 0.766645
vt 0.647369 0.768129
vt 0.639301 0.765414
vt 0.611302 0.733713
vt 0.622106 0.732277
vt 0.629119 0.745322
vt 0.623592 0.716622
vt 0.608168 0.725816
vt 0.608660 0.718547
vt 0.612460 0.713653
vt 0.664270 0.753134
vt 0.680071 0.741511
vt 0.631744 0.702529
vt 0.686275 0.728331
vt 0.645516 0.694305
vt 0.684831 0.713384
vt 0.446808 0.455149
vt 0.656846 0.858385
vt 0.653952 0.869601
vt 0.640468 0.874677
vt 0.627981 0.858829
vt 0.680651 0.831336
vt 0.683110 0.836855
vt 0.681898 0.843797
vt 0.677140 0.850338
vt 0.658707 0.857833
vt 0.667501 0.846861
vt 0.634156 0.872213
vt 0.614647 0.844878
vt 0.669580 0.831894
vt 0.610803 0.831574
vt 0.664838 0.817303
vt 0.614447 0.817895
vt 0.653698 0.807071
vt 0.604324 0.588143
vt 0.604324 0.511479
vt 0.508165 0.823234
vt 0.529676 0.801723
vt 0.560098 0.801723
vt 0.581610 0.853657
vt 0.529676 0.875168
vt 0.409193 0.571820
vt 0.409193 0.254716
vt 0.410834 0.768621
vt 0.531428 0.873766
vt 0.509916 0.852255
vt 0.509916 0.821833
vt 0.561850 0.800321
vt 0.583361 0.852255
s 1
g off
g LlantaDelanteraIzquierda_SpacialRoverExploreralumWhite
usemtl SpacialRoverExploreralumWhite
f 56/1/1 137/2/2 58/3/3
s 2
f 27/4/4 73/5/5 25/6/5
s 3
f 80/7/6 88/8/6 96/9/6
s 2
f 49/10/7 86/11/8 85/12/7
f 61/13/9 90/14/10 59/15/10
f 71/16/11 95/17/12 69/18/12
f 35/19/13 79/20/14 78/21/15
f 45/22/16 84/23/17 83/24/16
f 57/25/18 88/26/19 55/27/19
f 67/28/20 93/29/21 65/30/21
f 33/31/22 76/32/23 31/33/23
f 43/34/24 81/35/25 41/36/25
f 53/37/26 86/11/8 51/38/8
f 63/39/27 91/40/9 61/13/9
f 25/6/5 96/41/11 71/16/11
f 27/4/4 75/42/28 74/43/4
f 37/44/14 80/45/29 79/20/14
f 47/46/17 85/47/7 84/23/17
f 57/25/18 90/14/10 89/48/18
f 67/28/20 95/17/12 94/49/20
f 33/31/22 78/21/15 77/50/22
f 43/34/24 83/24/16 82/51/24
f 53/37/26 88/26/19 87/52/26
f 65/30/21 92/53/27 63/39/27
f 31/33/23 75/42/28 29/54/28
f 39/55/30 81/35/25 80/45/29
s 4
f 120/56/31 145/57/32 98/58/33
s 5
f 30/59/34 100/60/34 99/61/34
f 34/62/34 100/60/34 32/63/34
f 36/64/34 101/65/34 34/62/34
f 38/66/34 102/67/34 36/64/34
f 38/66/34 104/68/34 103/69/34
f 42/70/34 104/68/34 40/71/34
f 42/70/34 106/72/34 105/73/34
f 44/74/34 107/75/34 106/72/34
s 4
f 110/76/35 148/77/36 111/78/37
s 6
f 56/79/34 111/80/34 54/81/34
f 58/82/34 112/83/34 56/79/34
f 58/82/34 114/84/34 113/85/34
f 60/86/34 115/87/34 114/84/34
f 64/88/34 115/87/34 62/89/34
f 66/90/34 116/91/34 64/88/34
f 66/90/34 118/92/34 117/93/34
f 70/94/34 118/92/34 68/95/34
s 7
f 26/96/38 155/97/39 72/98/39
s 1
f 42/99/40 130/100/41 44/101/41
f 72/102/42 122/103/43 26/104/43
f 30/105/44 121/106/45 123/107/44
s 8
f 60/108/46 137/2/46 138/109/46
s 1
f 44/101/41 131/110/47 46/111/47
f 32/112/48 123/107/44 124/113/48
s 8
f 62/114/46 138/109/46 139/115/46
s 1
f 46/111/47 132/116/49 48/117/49
f 34/118/50 124/113/48 125/119/50
s 8
f 62/114/46 140/120/46 64/121/46
s 1
f 48/117/49 133/122/51 50/123/51
f 36/124/52 125/119/50 126/125/52
s 8
f 64/121/46 141/126/46 66/127/46
s 1
f 52/128/53 133/122/51 134/129/53
f 36/124/52 127/130/54 38/131/54
f 68/132/55 141/133/56 142/134/57
f 54/135/58 134/129/53 135/136/58
f 38/131/54 128/137/59 40/138/59
f 68/132/55 143/139/60 70/140/60
f 56/1/1 135/136/58 136/141/61
f 40/138/59 129/142/40 42/99/40
f 70/140/60 144/143/42 72/102/42
f 28/144/45 122/103/43 121/106/45
s 9
f 135/145/34 127/146/34 123/147/34
s 10
f 153/148/34 146/149/34 152/150/34
f 154/151/62 147/152/34 153/148/34
s 11
f 156/153/63 149/154/34 150/155/64
f 151/156/34 149/154/34 155/157/34
s 12
f 52/158/65 152/159/66 50/160/66
f 54/161/67 153/162/65 52/158/65
s 4
f 109/163/68 147/152/35 110/76/35
s 7
f 72/98/39 156/164/69 70/165/70
s 4
f 119/166/71 149/154/31 120/56/31
s 13
f 98/58/72 151/167/72 26/96/72
s 14
f 205/168/73 218/169/73 219/170/73
s 15
f 206/171/74 204/172/74 203/173/74
s 16
f 109/163/72 152/159/72 146/149/72
s 5
f 26/174/34 97/175/34 98/176/34
f 26/174/34 28/177/34 97/175/34
f 107/75/34 46/178/34 48/179/34
f 28/177/34 30/59/34 99/61/34
f 28/177/34 99/61/34 97/175/34
f 50/180/34 108/181/34 48/179/34
f 109/182/34 108/181/34 50/180/34
f 108/181/34 107/75/34 48/179/34
s 17
f 210/183/75 160/184/76 209/185/77
s 18
f 212/186/78 162/187/79 161/188/78
s 19
f 158/189/80 218/169/81 207/190/82
s 20
f 208/191/75 157/192/83 204/193/75
s 21
f 212/186/84 159/194/84 210/183/84
s 19
f 206/171/78 158/189/80 207/190/82
s 7
f 156/195/69 165/196/84 70/197/70
s 11
f 150/198/64 166/199/85 156/195/63
s 22
f 119/200/86 165/196/87 163/201/88
s 4
f 150/202/89 163/201/74 164/203/74
s 10
f 148/204/90 168/205/91 169/206/92
s 23
f 111/207/93 167/208/94 54/209/95
s 4
f 148/204/36 170/210/84 111/207/37
s 12
f 154/211/96 167/208/74 168/212/74
s 24
f 172/213/72 171/214/72 173/215/72
s 25
f 176/216/72 177/217/72 178/218/72
s 15
f 173/215/74 208/219/74 206/220/74
s 26
f 172/213/84 205/221/84 174/222/84
s 20
f 171/223/75 205/221/97 208/224/75
s 19
f 172/213/78 206/220/78 207/225/82
s 21
f 178/218/84 210/226/84 176/227/84
s 18
f 177/217/78 212/228/78 178/218/78
s 17
f 176/229/75 209/230/77 175/231/75
s 27
f 177/217/74 209/230/74 211/232/74
s 28
f 221/233/74 220/234/74 217/235/74
f 224/236/74 254/237/74 236/238/74
s 18
f 162/187/79 220/234/98 215/239/99
s 17
f 209/185/77 216/240/100 217/241/101
s 29
f 209/242/102 220/234/102 211/243/102
s 20
f 205/244/97 213/245/103 157/192/83
s 30
f 158/189/104 226/246/104 214/247/104
s 31
f 221/248/105 162/187/105 215/239/105
s 32
f 160/184/105 224/249/105 216/240/105
s 33
f 227/250/104 157/192/104 213/245/104
s 34
f 227/251/84 219/170/84 218/169/84
s 35
f 225/252/106 247/253/107 226/254/106
s 36
f 222/255/108 236/238/109 229/256/110
s 37
f 223/257/111 238/258/112 224/259/111
s 38
f 228/260/113 251/261/114 244/262/115
s 39
f 250/263/116 241/264/117 245/265/118
s 40
f 246/266/74 241/267/74 242/268/74
s 34
f 249/269/84 250/270/84 251/261/84
s 41
f 230/271/119 239/272/120 232/273/121
s 36
f 229/274/110 237/275/122 231/276/122
s 41
f 231/276/123 235/277/124 230/271/119
f 239/272/120 234/278/125 232/273/121
s 37
f 240/279/126 233/280/127 234/278/126
s 39
f 248/281/128 243/282/129 241/264/117
s 35
f 249/283/130 242/284/131 243/282/130
s 38
f 244/262/115 252/285/132 246/286/132
s 39
f 246/286/133 250/263/116 245/265/118
s 42
f 222/255/84 253/287/84 233/280/84
f 233/280/84 253/287/84 234/288/84
f 230/289/84 253/287/84 231/290/84
f 231/290/84 253/287/84 229/256/84
f 234/288/84 253/287/84 232/291/84
f 232/291/84 253/287/84 230/289/84
s 28
f 236/238/74 254/237/74 237/292/74
f 237/292/74 254/237/74 235/293/74
f 240/294/74 254/237/74 238/295/74
f 235/293/74 254/237/74 239/296/74
f 239/296/74 254/237/74 240/294/74
s 9
f 136/297/34 138/298/34 137/299/34
f 139/300/34 255/301/34 140/302/34
f 140/302/34 142/303/34 141/304/34
f 138/298/34 255/301/34 139/300/34
s 1
f 56/1/1 136/141/61 137/2/2
s 2
f 27/4/4 74/43/4 73/5/5
s 3
f 96/9/6 73/305/6 74/306/6
f 74/306/6 75/307/6 76/308/6
f 76/308/6 77/309/6 78/310/6
f 78/310/6 79/311/6 80/7/6
f 80/7/6 81/312/6 82/313/6
f 82/313/6 83/314/6 84/315/6
f 84/315/6 85/316/6 86/317/6
f 86/317/6 87/318/6 88/8/6
f 88/8/6 89/319/6 90/320/6
f 90/320/6 91/321/6 92/322/6
f 92/322/6 93/323/6 94/324/6
f 94/324/6 95/325/6 96/9/6
f 96/9/6 74/306/6 76/308/6
f 76/308/6 78/310/6 80/7/6
f 80/7/6 82/313/6 84/315/6
f 84/315/6 86/317/6 88/8/6
f 88/8/6 90/320/6 92/322/6
f 92/322/6 94/324/6 96/9/6
f 96/9/6 76/308/6 80/7/6
f 80/7/6 84/315/6 88/8/6
f 88/8/6 92/322/6 96/9/6
s 2
f 49/10/7 51/38/8 86/11/8
f 61/13/9 91/40/9 90/14/10
f 71/16/11 96/41/11 95/17/12
f 35/19/13 37/44/14 79/20/14
f 45/22/16 47/46/17 84/23/17
f 57/25/18 89/48/18 88/26/19
f 67/28/20 94/49/20 93/29/21
f 33/31/22 77/50/22 76/32/23
f 43/34/24 82/51/24 81/35/25
f 53/37/26 87/52/26 86/11/8
f 63/39/27 92/53/27 91/40/9
f 25/6/5 73/5/5 96/41/11
f 27/4/4 29/54/28 75/42/28
f 37/44/14 39/55/30 80/45/29
f 47/46/17 49/326/7 85/47/7
f 57/25/18 59/15/10 90/14/10
f 67/28/20 69/18/12 95/17/12
f 33/31/22 35/19/13 78/21/15
f 43/34/24 45/22/16 83/24/16
f 53/37/26 55/27/19 88/26/19
f 65/30/21 93/29/21 92/53/27
f 31/33/23 76/32/23 75/42/28
f 39/55/30 41/36/25 81/35/25
s 4
f 120/56/31 149/154/31 145/57/32
s 5
f 30/59/34 32/63/34 100/60/34
f 34/62/34 101/65/34 100/60/34
f 36/64/34 102/67/34 101/65/34
f 38/66/34 103/69/34 102/67/34
f 38/66/34 40/71/34 104/68/34
f 42/70/34 105/73/34 104/68/34
f 42/70/34 44/74/34 106/72/34
f 44/74/34 46/178/34 107/75/34
s 4
f 110/76/35 147/152/35 148/77/36
s 6
f 56/79/34 112/83/34 111/80/34
f 58/82/34 113/85/34 112/83/34
f 58/82/34 60/86/34 114/84/34
f 60/86/34 62/89/34 115/87/34
f 64/88/34 116/91/34 115/87/34
f 66/90/34 117/93/34 116/91/34
f 66/90/34 68/95/34 118/92/34
f 70/94/34 119/327/34 118/92/34
s 7
f 26/96/38 151/167/38 155/97/39
s 1
f 42/99/40 129/142/40 130/100/41
f 72/102/42 144/143/42 122/103/43
f 30/105/44 28/144/45 121/106/45
s 8
f 60/108/46 58/3/46 137/2/46
s 1
f 44/101/41 130/100/41 131/110/47
f 32/112/48 30/105/44 123/107/44
s 8
f 62/114/46 60/108/46 138/109/46
s 1
f 46/111/47 131/110/47 132/116/49
f 34/118/50 32/112/48 124/113/48
s 8
f 62/114/46 139/115/46 140/120/46
s 1
f 48/117/49 132/116/49 133/122/51
f 36/124/52 34/118/50 125/119/50
s 8
f 64/121/46 140/120/46 141/126/46
s 1
f 52/128/53 50/123/51 133/122/51
f 36/124/52 126/125/52 127/130/54
f 68/132/55 66/328/134 141/133/56
f 54/135/58 52/128/53 134/129/53
f 38/131/54 127/130/54 128/137/59
f 68/132/55 142/134/57 143/139/60
f 56/1/1 54/135/58 135/136/58
f 40/138/59 128/137/59 129/142/40
f 70/140/60 143/139/60 144/143/42
f 28/144/45 26/104/43 122/103/43
s 9
f 123/147/34 121/329/34 122/330/34
f 122/330/34 144/331/34 143/332/34
f 143/332/34 142/303/34 255/301/34
f 255/301/34 136/297/34 135/145/34
f 135/145/34 134/333/34 133/334/34
f 133/334/34 132/335/34 131/336/34
f 131/336/34 130/337/34 129/338/34
f 129/338/34 128/339/34 127/146/34
f 127/146/34 126/340/34 125/341/34
f 125/341/34 124/342/34 123/147/34
f 123/147/34 122/330/34 143/332/34
f 143/332/34 255/301/34 135/145/34
f 135/145/34 133/334/34 131/336/34
f 131/336/34 129/338/34 127/146/34
f 127/146/34 125/341/34 123/147/34
f 123/147/34 143/332/34 135/145/34
f 135/145/34 131/336/34 127/146/34
s 10
f 153/148/34 147/152/34 146/149/34
f 154/151/62 148/343/90 147/152/34
s 11
f 156/153/63 155/157/34 149/154/34
f 151/156/34 145/57/34 149/154/34
s 12
f 52/158/65 153/162/65 152/159/66
f 54/161/67 154/344/96 153/162/65
s 4
f 109/163/68 146/149/135 147/152/35
s 7
f 72/98/39 155/97/39 156/164/69
s 4
f 119/166/71 150/345/89 149/154/31
s 13
f 98/58/72 145/57/72 151/167/72
s 14
f 205/168/73 207/346/73 218/169/73
s 15
f 206/171/74 208/347/74 204/172/74
s 16
f 109/163/72 50/160/72 152/159/72
s 43
f 210/183/75 159/194/75 160/184/76
s 18
f 212/186/78 211/348/136 162/187/79
s 19
f 158/189/80 214/247/137 218/169/81
s 20
f 208/191/75 205/244/97 157/192/83
s 44
f 212/186/84 161/188/84 159/194/84
s 45
f 206/171/78 203/173/78 158/189/80
s 46
f 156/195/138 166/199/84 165/196/84
s 47
f 150/198/139 164/349/140 166/199/141
s 22
f 119/200/86 70/197/142 165/196/87
s 4
f 150/202/89 119/200/71 163/201/74
s 10
f 148/204/90 154/350/62 168/205/91
s 48
f 111/207/143 170/210/144 167/208/145
s 49
f 148/204/146 169/206/84 170/210/84
s 12
f 154/211/96 54/209/67 167/208/74
s 24
f 172/213/72 174/351/72 171/214/72
s 25
f 176/216/72 175/352/72 177/217/72
s 15
f 173/215/74 171/353/74 208/219/74
s 26
f 172/213/84 207/225/84 205/221/84
s 20
f 171/223/75 174/222/75 205/221/97
s 19
f 172/213/78 173/215/78 206/220/78
s 21
f 178/218/84 212/228/84 210/226/84
s 18
f 177/217/78 211/232/136 212/228/78
s 17
f 176/229/75 210/354/75 209/230/77
s 27
f 177/217/74 175/231/74 209/230/74
s 28
f 217/235/74 216/355/74 224/356/74
f 221/233/74 215/239/74 220/234/74
f 217/235/74 224/356/74 221/233/74
f 236/238/74 221/357/74 224/236/74
f 224/236/74 238/295/74 254/237/74
s 18
f 162/187/79 211/348/136 220/234/98
s 17
f 209/185/77 160/184/76 216/240/100
s 29
f 209/242/102 217/235/102 220/234/102
s 20
f 205/244/97 219/170/147 213/245/103
s 30
f 158/189/104 225/358/104 226/246/104
s 50
f 221/248/105 222/359/105 162/187/105
s 32
f 160/184/105 223/360/105 224/249/105
s 51
f 227/250/104 228/361/104 157/192/104
s 34
f 218/169/84 214/247/84 226/362/84
f 227/251/84 213/245/84 219/170/84
f 218/169/84 226/362/84 227/251/84
s 35
f 225/252/106 242/268/131 247/253/107
s 36
f 222/255/108 221/357/108 236/238/109
s 37
f 223/257/111 233/280/127 238/258/112
s 38
f 228/260/113 227/363/113 251/261/114
s 39
f 250/263/116 248/281/128 241/264/117
s 52
f 242/268/74 225/252/74 228/364/74
s 40
f 228/364/74 244/365/74 246/266/74
f 246/266/74 245/366/74 241/267/74
f 241/267/74 243/367/74 242/268/74
f 242/268/74 228/364/74 246/266/74
s 34
f 251/261/84 227/363/84 226/254/84
f 226/254/84 247/253/84 249/269/84
f 249/269/84 248/368/84 250/270/84
f 250/270/84 252/369/84 251/261/84
f 251/261/84 226/254/84 249/269/84
s 41
f 230/271/119 235/277/124 239/272/120
s 36
f 229/274/110 236/370/109 237/275/122
s 41
f 231/276/123 237/275/123 235/277/124
f 239/272/120 240/279/125 234/278/125
s 37
f 240/279/126 238/258/112 233/280/127
s 39
f 248/281/128 249/283/129 243/282/129
s 35
f 249/283/130 247/371/107 242/284/131
s 38
f 244/262/115 251/261/114 252/285/132
s 39
f 246/286/133 252/285/133 250/263/116
s 53
f 233/280/84 223/257/84 222/255/84
s 42
f 222/255/84 229/256/84 253/287/84
s 9
f 136/297/34 255/301/34 138/298/34
f 140/302/34 255/301/34 142/303/34
s 54
g LlantaDelanteraIzquierda_SpacialRoverExploreralumGray
usemtl SpacialRoverExploreralumGray
f 186/372/148 1/373/149 8/374/150
s 55
f 185/375/151 8/374/152 7/376/153
s 56
f 6/377/154 185/375/155 7/376/156
s 57
f 5/378/157 184/379/158 6/377/159
s 58
f 4/380/160 183/381/161 5/378/160
s 59
f 3/382/162 182/383/163 4/384/164
s 60
f 180/385/165 3/382/166 2/386/167
s 61
f 179/387/168 2/386/169 1/373/169
s 54
f 186/372/148 179/387/170 1/373/149
s 55
f 185/375/151 186/372/171 8/374/152
s 56
f 6/377/154 184/379/172 185/375/155
s 57
f 5/378/157 183/381/158 184/379/158
s 58
f 4/380/160 182/388/173 183/381/161
s 59
f 3/382/162 181/389/163 182/383/163
s 60
f 180/385/165 181/389/165 3/382/166
s 61
f 179/387/168 180/385/174 2/386/169
s 62
f 315/390/74 316/391/65 314/392/74
f 317/393/65 318/394/175 316/391/65
f 319/395/175 320/396/176 318/394/175
f 321/397/176 322/398/177 320/396/176
f 323/399/177 324/400/178 322/398/177
f 325/401/178 326/402/72 324/400/178
f 327/403/72 328/404/179 326/402/72
f 329/405/179 330/406/180 328/404/179
f 331/407/180 332/408/181 330/406/180
f 333/409/181 334/410/182 332/408/181
f 335/411/182 336/412/183 334/410/182
s 63
f 338/413/6 410/414/6 412/415/6
f 338/413/6 414/416/6 340/417/6
s 62
f 341/418/184 342/419/185 340/420/184
f 343/421/185 344/422/186 342/419/185
f 345/423/186 346/424/187 344/422/186
f 347/425/187 348/426/188 346/424/187
f 349/427/188 350/428/189 348/426/188
f 351/429/189 352/430/190 350/428/189
f 353/431/190 354/432/191 352/430/190
f 355/433/191 356/434/192 354/432/191
f 357/435/192 358/436/193 356/434/192
s 64
f 321/437/34 382/438/34 379/439/194
f 351/440/34 343/441/34 371/442/34
s 62
f 359/443/193 360/444/31 358/436/193
f 361/445/31 314/392/74 360/444/31
s 63
f 320/446/6 328/447/6 389/448/6
f 344/449/6 352/450/6 401/451/6
s 64
f 339/452/34 415/453/34 413/454/34
s 65
f 340/417/189 415/453/189 341/455/189
s 66
f 337/456/72 410/414/72 336/457/72
s 64
f 339/452/34 411/458/34 337/459/34
s 62
f 315/390/74 317/393/65 316/391/65
f 317/393/65 319/395/175 318/394/175
f 319/395/175 321/397/176 320/396/176
f 321/397/176 323/399/177 322/398/177
f 323/399/177 325/401/178 324/400/178
f 325/401/178 327/403/72 326/402/72
f 327/403/72 329/405/179 328/404/179
f 329/405/179 331/407/180 330/406/180
f 331/407/180 333/409/181 332/408/181
f 333/409/181 335/411/182 334/410/182
f 335/411/182 337/460/183 336/412/183
s 63
f 338/413/6 336/457/6 410/414/6
f 338/413/6 412/415/6 414/416/6
s 62
f 341/418/184 343/421/185 342/419/185
f 343/421/185 345/423/186 344/422/186
f 345/423/186 347/425/187 346/424/187
f 347/425/187 349/427/188 348/426/188
f 349/427/188 351/429/189 350/428/189
f 351/429/189 353/431/190 352/430/190
f 353/431/190 355/433/191 354/432/191
f 355/433/191 357/435/192 356/434/192
f 357/435/192 359/443/193 358/436/193
s 64
f 378/461/34 327/462/34 325/463/34
f 325/463/34 323/464/34 321/437/34
f 321/437/34 319/465/34 385/466/34
f 321/437/34 385/466/34 376/467/34
f 378/461/34 325/463/34 321/437/34
f 379/439/194 378/461/34 321/437/34
f 321/437/34 376/467/34 382/438/34
f 367/468/34 385/466/34 319/465/34
f 319/465/34 317/469/34 315/470/34
f 315/470/34 361/471/34 359/472/34
f 359/472/34 357/473/34 355/474/34
f 355/474/34 353/475/34 351/440/34
f 351/440/34 349/476/34 347/477/34
f 347/477/34 345/478/34 343/441/34
f 343/441/34 341/479/34 339/480/34
f 339/480/34 337/481/34 335/482/34
f 335/482/34 333/483/34 331/484/34
f 331/484/34 329/485/34 327/462/34
f 327/462/34 378/461/34 381/486/34
f 327/462/34 381/486/34 380/487/34
f 335/482/34 331/484/34 327/462/34
f 343/441/34 339/480/34 335/482/34
f 351/440/34 347/477/34 343/441/34
f 359/472/34 355/474/34 351/440/34
f 319/465/34 315/470/34 359/472/34
f 368/488/195 367/468/34 319/465/34
f 365/489/34 368/488/195 319/465/34
f 335/482/34 327/462/34 380/487/34
f 335/482/34 380/487/34 377/490/34
f 365/489/34 319/465/34 359/472/34
f 366/491/34 365/489/34 359/472/34
f 335/482/34 377/490/34 384/492/34
f 335/482/34 384/492/34 373/493/34
f 363/494/34 366/491/34 359/472/34
f 364/495/34 363/494/34 359/472/34
f 343/441/34 335/482/34 373/493/34
f 343/441/34 373/493/34 374/496/196
f 364/495/34 359/472/34 351/440/34
f 362/497/34 364/495/34 351/440/34
f 343/441/34 374/496/196 372/498/34
f 343/441/34 372/498/34 375/499/34
f 383/500/34 362/497/34 351/440/34
f 369/501/34 383/500/34 351/440/34
f 343/441/34 375/499/34 370/502/34
f 371/442/34 369/501/34 351/440/34
f 343/441/34 370/502/34 371/442/34
s 62
f 359/443/193 361/445/31 360/444/31
f 361/445/31 315/390/74 314/392/74
s 63
f 390/503/6 392/504/6 320/446/6
f 320/446/6 322/505/6 324/506/6
f 324/506/6 326/507/6 328/447/6
f 328/447/6 408/508/6 391/509/6
f 389/448/6 390/503/6 320/446/6
f 328/447/6 391/509/6 389/448/6
f 320/446/6 324/506/6 328/447/6
f 398/510/6 408/508/6 328/447/6
f 328/447/6 330/511/6 332/512/6
f 332/512/6 334/513/6 336/514/6
f 336/514/6 338/515/6 340/516/6
f 340/516/6 342/517/6 344/449/6
f 344/449/6 346/518/6 348/519/6
f 348/519/6 350/520/6 352/450/6
f 352/450/6 354/521/6 356/522/6
f 356/522/6 358/523/6 360/524/6
f 360/524/6 314/525/6 316/526/6
f 316/526/6 318/527/6 320/446/6
f 320/446/6 392/504/6 387/528/6
f 320/446/6 387/528/6 388/529/6
f 360/524/6 316/526/6 320/446/6
f 352/450/6 356/522/6 360/524/6
f 344/449/6 348/519/6 352/450/6
f 336/514/6 340/516/6 344/449/6
f 328/447/6 332/512/6 336/514/6
f 399/530/197 398/510/6 328/447/6
f 396/531/6 399/530/197 328/447/6
f 360/524/6 320/446/6 388/529/6
f 360/524/6 388/529/6 386/532/6
f 396/531/6 328/447/6 336/514/6
f 397/533/6 396/531/6 336/514/6
f 360/524/6 386/532/6 409/534/6
f 360/524/6 409/534/6 403/535/6
f 394/536/6 397/533/6 336/514/6
f 395/537/6 394/536/6 336/514/6
f 352/450/6 360/524/6 403/535/6
f 352/450/6 403/535/6 404/538/198
f 395/537/6 336/514/6 344/449/6
f 393/539/6 395/537/6 344/449/6
f 352/450/6 404/538/198 406/540/6
f 352/450/6 406/540/6 402/541/6
f 407/542/6 393/539/6 344/449/6
f 405/543/6 407/542/6 344/449/6
f 352/450/6 402/541/6 400/544/6
f 401/451/6 405/543/6 344/449/6
f 352/450/6 400/544/6 401/451/6
s 64
f 339/452/34 341/455/34 415/453/34
s 67
f 340/417/189 414/416/189 415/453/189
s 68
f 337/456/72 411/545/72 410/414/72
s 64
f 339/452/34 413/454/34 411/458/34
s 69
g LlantaDelanteraIzquierda_SpacialRoverExploreralumBlack
usemtl SpacialRoverExploreralumBlack
f 186/546/199 189/547/199 179/548/199
s 70
f 179/548/200 196/549/200 180/550/200
s 71
f 180/550/201 197/551/201 181/552/201
s 72
f 182/553/202 197/551/202 198/554/202
s 73
f 183/555/203 198/556/203 199/557/203
s 74
f 8/558/204 21/559/205 7/560/205
f 5/561/206 19/562/207 17/563/206
f 4/564/208 13/565/209 3/566/209
f 1/567/210 11/568/211 24/569/210
f 1/567/210 23/570/212 8/558/204
f 6/571/213 21/559/205 19/562/207
f 5/561/206 15/572/214 4/564/208
f 2/573/215 13/565/209 11/568/211
s 75
f 23/574/216 9/575/217 22/576/218
s 76
f 21/577/219 22/576/220 20/578/221
s 77
f 18/579/222 21/577/223 20/578/224
s 78
f 16/580/225 19/581/226 18/579/227
s 79
f 14/582/228 17/583/229 16/584/230
s 80
f 12/585/231 15/586/232 14/582/233
s 81
f 11/587/234 12/585/235 10/588/236
s 82
f 24/589/237 10/588/238 9/575/239
s 83
f 188/590/240 196/591/240 189/592/240
s 84
f 187/593/241 197/551/241 196/591/241
s 85
f 197/551/242 191/594/242 198/554/242
s 86
f 198/595/243 192/596/243 199/597/243
s 87
f 199/597/244 193/598/244 200/599/244
s 88
f 200/599/245 194/600/245 201/601/245
s 89
f 194/600/246 202/602/246 201/601/246
s 90
f 195/603/247 189/592/247 202/604/247
s 91
f 185/605/248 202/606/248 186/546/248
s 92
f 185/605/249 200/607/249 201/608/249
s 93
f 184/609/250 199/557/250 200/607/250
s 69
f 186/546/199 202/606/199 189/547/199
s 70
f 179/548/200 189/547/200 196/549/200
s 71
f 180/550/201 196/549/201 197/551/201
s 72
f 182/553/202 181/552/202 197/551/202
s 73
f 183/555/203 182/610/203 198/556/203
s 74
f 8/558/204 23/570/212 21/559/205
f 5/561/206 6/571/213 19/562/207
f 4/564/208 15/572/214 13/565/209
f 1/567/210 2/573/215 11/568/211
f 1/567/210 24/569/210 23/570/212
f 6/571/213 7/560/205 21/559/205
f 5/561/206 17/563/206 15/572/214
f 2/573/215 3/566/209 13/565/209
s 75
f 23/574/216 24/589/251 9/575/217
s 76
f 21/577/219 23/574/252 22/576/220
s 94
f 18/579/253 19/581/254 21/577/223
s 95
f 16/580/225 17/611/255 19/581/226
s 96
f 14/582/228 15/586/256 17/583/229
s 97
f 12/585/257 13/612/258 15/586/259
s 81
f 11/587/234 13/612/260 12/585/235
s 82
f 24/589/237 11/587/261 10/588/238
s 83
f 188/590/240 187/593/240 196/591/240
s 84
f 187/593/241 190/613/241 197/551/241
s 98
f 197/551/242 190/613/242 191/594/242
s 99
f 198/595/243 191/614/243 192/596/243
s 100
f 199/597/244 192/596/244 193/598/244
s 101
f 200/599/245 193/598/245 194/600/245
s 89
f 194/600/246 195/615/246 202/602/246
s 90
f 195/603/247 188/590/247 189/592/247
s 91
f 185/605/248 201/608/248 202/606/248
s 92
f 185/605/249 184/609/249 200/607/249
s 93
f 184/609/250 183/555/250 199/557/250
s 4
g LlantaDelanteraIzquierda_SpacialRoverExploreralumOrange
usemtl SpacialRoverExploreralumOrange
f 98/616/33 27/617/65 25/618/74
f 97/619/65 29/620/175 27/617/65
f 99/621/175 31/622/176 29/620/175
f 100/623/176 33/624/177 31/622/176
f 101/625/177 35/626/178 33/624/177
f 102/627/178 37/628/72 35/626/178
f 103/629/72 39/630/179 37/628/72
f 104/631/179 41/632/180 39/630/179
f 105/633/180 43/634/181 41/632/180
f 106/635/181 45/636/182 43/634/181
f 107/637/182 47/638/39 45/636/182
f 108/639/39 49/640/84 47/638/39
f 109/641/68 51/642/35 49/643/84
f 110/644/35 53/645/185 51/642/35
f 111/646/37 55/647/186 53/645/185
f 112/648/186 57/649/187 55/647/186
f 113/650/187 59/651/188 57/649/187
f 114/652/188 61/653/189 59/651/188
f 115/654/189 63/655/190 61/653/189
f 116/656/190 65/657/191 63/655/190
f 117/658/191 67/659/192 65/657/191
f 118/660/192 69/661/193 67/659/192
f 119/662/71 71/663/31 69/661/193
f 120/664/31 25/618/74 71/663/31
f 98/616/33 97/619/65 27/617/65
f 97/619/65 99/621/175 29/620/175
f 99/621/175 100/623/176 31/622/176
f 100/623/176 101/625/177 33/624/177
f 101/625/177 102/627/178 35/626/178
f 102/627/178 103/629/72 37/628/72
f 103/629/72 104/631/179 39/630/179
f 104/631/179 105/633/180 41/632/180
f 105/633/180 106/635/181 43/634/181
f 106/635/181 107/637/182 45/636/182
f 107/637/182 108/639/39 47/638/39
f 108/639/39 109/665/68 49/640/84
f 109/641/68 110/644/35 51/642/35
f 110/644/35 111/646/37 53/645/185
f 111/646/37 112/648/186 55/647/186
f 112/648/186 113/650/187 57/649/187
f 113/650/187 114/652/188 59/651/188
f 114/652/188 115/654/189 61/653/189
f 115/654/189 116/656/190 63/655/190
f 116/656/190 117/658/191 65/657/191
f 117/658/191 118/660/192 67/659/192
f 118/660/192 119/662/71 69/661/193
f 119/662/71 120/664/31 71/663/31
f 120/664/31 98/616/33 25/618/74
s 102
g LlantaDelanteraIzquierda_SpacialRoverExploreralumGrayDeep
usemtl SpacialRoverExploreralumGrayDeep
f 269/666/262 280/667/263 281/668/263
s 103
f 265/669/74 428/670/74 426/671/74
f 281/672/74 425/673/74 427/674/74
s 104
f 261/675/264 265/676/265 256/677/265
s 105
f 258/678/84 435/679/84 433/680/84
f 280/681/84 431/682/84 438/683/84
s 106
f 257/684/266 266/685/267 264/686/266
s 104
f 259/687/268 267/688/269 266/685/268
f 258/689/269 265/676/265 267/688/269
s 102
f 269/666/262 262/690/270 260/691/262
s 104
f 271/692/271 263/693/272 262/690/271
f 270/694/273 261/675/264 263/693/272
s 107
f 272/695/274 307/696/274 306/697/274
s 108
f 307/696/275 274/698/275 308/699/275
s 109
f 274/700/276 309/701/276 308/702/276
s 110
f 275/703/277 310/704/277 309/701/277
s 111
f 276/705/278 311/706/278 310/704/278
s 112
f 311/706/279 278/707/279 312/708/279
s 113
f 273/709/84 279/710/84 277/711/84
s 114
f 278/707/280 313/712/280 312/708/280
s 115
f 279/713/281 306/697/281 313/712/281
s 116
f 280/714/282 294/715/283 281/716/282
s 106
f 282/717/284 257/684/266 264/686/266
s 105
f 304/718/84 280/681/84 302/719/84
s 117
f 303/720/285 285/721/286 284/722/286
s 103
f 299/723/74 281/672/74 301/724/74
s 117
f 285/721/286 286/725/287 284/722/286
s 103
f 296/726/74 444/727/74 294/728/74
s 118
f 295/729/288 287/730/289 292/731/289
s 116
f 289/732/283 296/733/290 294/715/283
f 291/734/290 297/735/291 296/733/290
s 118
f 290/736/292 295/729/288 297/735/292
s 105
f 290/737/84 291/738/84 443/739/84
s 117
f 303/720/285 300/740/293 298/741/294
f 305/742/293 301/743/295 300/740/293
s 106
f 304/744/296 299/745/297 301/746/296
f 299/745/297 283/747/284 282/717/284
s 119
f 308/748/74 310/749/74 312/750/74
s 120
f 287/730/298 293/751/298 292/731/298
s 105
f 443/739/84 280/681/84 284/752/84
f 305/753/84 280/681/84 304/718/84
f 280/681/84 305/753/84 303/754/84
f 280/681/84 303/754/84 284/752/84
f 302/719/84 280/681/84 283/755/84
s 103
f 300/756/74 281/672/74 298/757/74
f 301/724/74 281/672/74 300/756/74
f 281/672/74 299/723/74 282/758/74
f 298/757/74 281/672/74 285/759/74
s 105
f 288/760/84 443/739/84 287/761/84
f 287/761/84 443/739/84 286/762/84
f 443/739/84 288/760/84 290/737/84
f 443/739/84 291/738/84 289/763/84
s 103
f 444/727/74 285/759/74 281/672/74
f 444/727/74 292/764/74 293/765/74
f 292/764/74 444/727/74 295/766/74
f 295/766/74 444/727/74 297/767/74
f 297/767/74 444/727/74 296/726/74
s 102
f 269/666/262 260/691/262 280/667/263
s 103
f 426/671/74 264/768/74 266/769/74
f 266/769/74 267/770/74 265/669/74
f 265/669/74 268/771/74 423/772/74
f 265/669/74 423/772/74 424/773/74
f 426/671/74 266/769/74 265/669/74
f 265/669/74 424/773/74 428/670/74
f 420/774/74 423/772/74 268/771/74
f 268/771/74 270/775/74 271/776/74
f 271/776/74 269/777/74 281/672/74
f 264/768/74 426/671/74 416/778/74
f 264/768/74 416/778/74 417/779/74
f 420/774/74 268/771/74 271/776/74
f 421/780/74 420/774/74 271/776/74
f 282/758/74 264/768/74 417/779/74
f 282/758/74 417/779/74 418/781/74
f 421/780/74 271/776/74 281/672/74
f 422/782/74 421/780/74 281/672/74
f 281/672/74 282/758/74 418/781/74
f 281/672/74 418/781/74 419/783/74
f 427/674/74 422/782/74 281/672/74
f 281/672/74 419/783/74 425/673/74
s 104
f 261/675/264 268/784/299 265/676/265
s 105
f 441/785/84 256/786/84 258/678/84
f 258/678/84 259/787/84 435/679/84
f 433/680/84 441/785/84 258/678/84
f 434/788/84 435/679/84 259/787/84
f 280/681/84 260/789/84 262/790/84
f 262/790/84 263/791/84 261/792/84
f 256/786/84 441/785/84 440/793/84
f 256/786/84 440/793/84 439/794/84
f 262/790/84 261/792/84 256/786/84
f 434/788/84 259/787/84 257/795/84
f 429/796/84 434/788/84 257/795/84
f 262/790/84 256/786/84 439/794/84
f 262/790/84 439/794/84 437/797/84
f 429/796/84 257/795/84 283/755/84
f 436/798/84 429/796/84 283/755/84
f 262/790/84 437/797/84 430/799/84
f 280/681/84 262/790/84 430/799/84
f 436/798/84 283/755/84 280/681/84
f 442/800/84 436/798/84 280/681/84
f 280/681/84 430/799/84 432/801/84
f 280/681/84 432/801/84 431/682/84
f 438/683/84 442/800/84 280/681/84
s 106
f 257/684/266 259/687/267 266/685/267
s 104
f 259/687/268 258/689/269 267/688/269
f 258/689/269 256/677/265 265/676/265
s 102
f 269/666/262 271/692/270 262/690/270
s 104
f 271/692/271 270/694/273 263/693/272
f 270/694/273 268/784/299 261/675/264
s 107
f 272/695/274 273/802/274 307/696/274
s 108
f 307/696/275 273/802/275 274/698/275
s 109
f 274/700/276 275/703/276 309/701/276
s 110
f 275/703/277 276/705/277 310/704/277
s 111
f 276/705/278 277/803/278 311/706/278
s 112
f 311/706/279 277/803/279 278/707/279
s 113
f 277/711/84 276/804/84 275/805/84
f 275/805/84 274/806/84 273/709/84
f 273/709/84 272/807/84 279/710/84
f 279/710/84 278/808/84 277/711/84
f 277/711/84 275/805/84 273/709/84
s 114
f 278/707/280 279/713/280 313/712/280
s 115
f 279/713/281 272/695/281 306/697/281
s 116
f 280/714/282 289/732/283 294/715/283
s 106
f 282/717/284 283/747/284 257/684/266
s 117
f 303/720/285 298/741/294 285/721/286
f 285/721/286 293/751/287 286/725/287
s 118
f 295/729/288 288/809/300 287/730/289
s 116
f 289/732/283 291/734/290 296/733/290
f 291/734/290 290/736/291 297/735/291
s 118
f 290/736/292 288/809/300 295/729/288
s 117
f 303/720/285 305/742/293 300/740/293
f 305/742/293 304/810/295 301/743/295
s 106
f 304/744/296 302/811/297 299/745/297
f 299/745/297 302/811/297 283/747/284
s 119
f 312/750/74 313/812/74 306/813/74
f 306/813/74 307/814/74 308/748/74
f 308/748/74 309/815/74 310/749/74
f 310/749/74 311/816/74 312/750/74
f 312/750/74 306/813/74 308/748/74
s 120
f 287/730/298 286/725/298 293/751/298
s 105
f 284/752/84 286/762/84 443/739/84
f 443/739/84 289/763/84 280/681/84
s 103
f 281/672/74 294/728/74 444/727/74
f 444/727/74 293/765/74 285/759/74
