# Blender 5.2.2 LTS
# www.blender.org
mtllib PLTD.mtl
g LlantaTraseraDerecha_LlantaTraseraDerecha
v 1.913028 -1.678717 -0.005949
v 1.987551 -1.600514 -0.113949
v 1.934856 -1.655812 -0.082316
v 2.017362 -1.569230 -0.113949
v 2.091884 -1.491027 -0.005949
v 2.070057 -1.513932 -0.082316
v 1.987551 -1.600514 0.145251
v 1.913028 -1.678717 0.037251
v 1.934856 -1.655812 0.113619
v 2.091884 -1.491027 0.037251
v 2.017362 -1.569230 0.145251
v 2.070057 -1.513932 0.113619
v 2.724894 -1.813772 -0.464348
v 2.724895 -2.096615 -0.464348
v 2.783473 -1.955193 -0.464348
v 2.724895 -2.096615 0.495652
v 2.724894 -1.813772 0.495652
v 2.783473 -1.955193 0.495652
v 2.512763 -2.308747 -0.464348
v 2.229920 -2.308747 -0.464348
v 2.371341 -2.367325 -0.464348
v 2.229920 -2.308747 0.495652
v 2.512763 -2.308747 0.495652
v 2.371341 -2.367325 0.495652
v 0.193017 -0.304144 -0.380348
v 0.753153 0.267036 -0.380348
v 0.193017 -0.304144 -0.188347
v 0.753153 0.267036 -0.188347
v 2.581242 -2.438505 -0.380348
v 2.298414 -2.441267 -0.380348
v 2.492094 -2.491142 -0.380348
v 2.388572 -2.492152 -0.380348
v 2.858551 -1.870087 -0.380348
v 2.861311 -2.152916 -0.380348
v 2.911187 -1.959235 -0.380348
v 2.912198 -2.062757 -0.380348
v 2.581243 -2.438505 -0.188348
v 2.492094 -2.491142 -0.188348
v 2.861311 -2.152916 -0.188348
v 2.912198 -2.062757 -0.188348
v 2.911187 -1.959235 -0.188348
v 2.190823 -1.605240 0.495652
v 2.138795 -1.633050 0.495652
v 2.093191 -1.670475 0.495652
v 2.055766 -1.716077 0.495652
v 2.010832 -1.824560 0.495652
v 2.027957 -1.768106 0.495652
v 2.247276 -2.178424 0.495652
v 2.010832 -1.941979 0.495652
v 2.093191 -2.096064 0.495652
v 2.138795 -2.133489 0.495652
v 2.055766 -2.050462 0.495652
v 2.305986 -2.184206 0.495652
v 2.190823 -2.161298 0.495652
v 2.027957 -1.998433 0.495652
v 2.309850 -2.183826 0.495652
v 2.005049 -1.883269 0.495652
v 2.518781 -1.670475 0.495652
v 2.556206 -1.716078 0.495652
v 2.473178 -1.633049 0.495652
v 2.584015 -1.768106 0.495652
v 2.421150 -1.605240 0.495652
v 2.601141 -1.824559 0.495652
v 2.601141 -1.941979 0.495652
v 2.606923 -1.883269 0.495652
v 2.518781 -2.096064 0.495652
v 2.556206 -2.050462 0.495652
v 2.584015 -1.998433 0.495652
v 2.364696 -1.588115 0.495652
v 2.305986 -1.582332 0.495652
v 2.247276 -1.588115 0.495652
v 2.473178 -2.133489 0.495652
v 2.421150 -2.161299 0.495652
v 2.364696 -2.178424 0.495652
v 2.192079 -2.161680 -0.464348
v 2.190823 -2.161298 -0.464348
v 2.093191 -2.096064 -0.464348
v 2.055766 -2.050462 -0.464348
v 2.138795 -2.133489 -0.464348
v 2.518781 -1.670475 -0.464348
v 2.556206 -1.716078 -0.464348
v 2.473178 -1.633049 -0.464348
v 2.584015 -1.768106 -0.464348
v 2.421150 -1.605240 -0.464348
v 2.601141 -1.824559 -0.464348
v 2.364696 -1.588115 -0.464348
v 2.305986 -1.582332 -0.464348
v 2.190823 -1.605240 -0.464348
v 2.247276 -1.588115 -0.464348
v 2.093191 -1.670475 -0.464348
v 2.055766 -1.716077 -0.464348
v 2.138795 -1.633050 -0.464348
v 2.556206 -2.050462 -0.464348
v 2.518781 -2.096064 -0.464348
v 2.421150 -2.161299 -0.464348
v 2.364696 -2.178424 -0.464348
v 2.473178 -2.133489 -0.464348
v 2.247276 -2.178424 -0.464348
v 2.305986 -2.184206 -0.464348
v 2.027957 -1.998433 -0.464348
v 2.010832 -1.941979 -0.464348
v 2.005049 -1.883269 -0.464348
v 2.606923 -1.883269 -0.464348
v 2.601141 -1.941979 -0.464348
v 2.010832 -1.824560 -0.464348
v 2.027957 -1.768106 -0.464348
v 2.584015 -1.998433 -0.464348
v 2.421150 -1.605240 -0.188348
v 2.556206 -2.050462 -0.188348
v 2.138795 -1.633050 -0.188348
v 2.473178 -2.133489 -0.188348
v 2.055766 -1.716077 -0.188348
v 2.190823 -2.161298 -0.188348
v 2.027957 -1.998433 -0.188348
v 2.305986 -2.184206 -0.188348
v 2.556206 -1.716078 -0.380348
v 2.421150 -1.605240 -0.380348
v 2.305986 -1.582332 -0.380348
v 2.601141 -1.824559 -0.380348
v 2.584015 -1.998433 -0.380348
v 2.473178 -2.133489 -0.380348
v 2.055766 -1.716077 -0.380348
v 2.138795 -1.633050 -0.380348
v 2.010832 -1.824560 -0.380348
v 2.305986 -2.184206 -0.380348
v 2.190823 -2.161298 -0.380348
v 2.093191 -2.096064 -0.380348
v 2.010832 -1.941979 -0.380348
v 0.620371 -0.725287 -0.380348
v 0.620371 -0.725287 -0.188347
v 0.902927 -0.506863 -0.113948
v 0.930574 -0.478701 -0.113948
v 0.854056 -0.556646 0.113619
v 0.833813 -0.577266 -0.005949
v 0.979445 -0.428919 -0.082316
v 0.930574 -0.478701 0.145251
v 0.854056 -0.556646 -0.082316
v 0.833813 -0.577266 0.037251
v 0.999688 -0.408299 0.037251
v 0.999688 -0.408299 -0.005949
v 0.902927 -0.506863 0.145251
v 0.979445 -0.428919 0.113619
v -0.181542 -0.304113 -0.380348
v -0.355300 -0.130282 -0.380348
v -0.304407 -0.253169 -0.380348
v -0.355300 0.113381 -0.380348
v -0.181596 0.282820 -0.380348
v -0.304423 0.234981 -0.380348
v -0.355300 -0.130282 -0.188347
v -0.181542 -0.304113 -0.188347
v -0.304407 -0.253169 -0.188347
v -0.181596 0.282820 -0.188347
v -0.355300 0.113381 -0.188347
v -0.304423 0.234981 -0.188347
v 2.247276 -1.588115 -0.188348
v 2.584015 -1.768106 -0.188348
v 2.858551 -1.870087 -0.188348
v 0.405527 -0.021462 -0.169677
v 0.335582 -0.092591 -0.124441
v 1.010015 -0.405069 -0.124441
v 1.038987 -0.375607 -0.015236
v 0.801584 -0.617029 -0.015236
v 0.830557 -0.587566 -0.124441
v 0.801584 -0.617029 0.046539
v 0.830557 -0.587566 0.155745
v 0.900501 -0.516437 0.200979
v 0.445096 0.018777 -0.169677
v 0.445096 0.018777 0.200979
v 0.515040 0.089906 0.155745
v 0.940070 -0.476198 0.200979
v 1.010015 -0.405069 0.155745
v 0.900501 -0.516437 -0.169677
v 0.940070 -0.476198 -0.169677
v 0.405527 -0.021462 0.200979
v 1.038987 -0.375607 0.046539
v 0.335582 -0.092591 0.155745
v 0.306609 -0.122054 -0.015236
v 0.306609 -0.122054 0.046539
v 0.515040 0.089906 -0.124441
v 0.544012 0.119368 -0.015236
v 0.544012 0.119368 0.046540
v 2.116410 -1.460591 -0.464348
v 2.371714 -1.460591 -0.464348
v 2.244062 -1.407716 -0.464348
v 2.371714 -1.460591 0.495652
v 2.116410 -1.460591 0.495652
v 2.244062 -1.407716 0.495652
v 1.876739 -1.955566 -0.464348
v 1.876739 -1.700262 -0.464348
v 1.823864 -1.827914 -0.464348
v 1.876739 -1.700262 0.495652
v 1.876739 -1.955566 0.495652
v 1.823864 -1.827914 0.495652
v 2.605297 -1.866763 -0.188348
v 2.005049 -1.883269 -0.188348
v 2.298414 -2.441267 -0.188348
v 2.388572 -2.492152 -0.188348
v 2.518781 -1.670475 -0.188348
v 2.093191 -2.096064 -0.188348
v -0.181569 -0.010647 -0.380348
v -0.181569 -0.010647 -0.188347
v 0.193017 -0.304144 0.219653
v 0.753153 0.267036 0.219653
v 0.193017 -0.304144 0.411652
v 0.753153 0.267036 0.411653
v 2.581242 -2.438505 0.219652
v 2.298414 -2.441267 0.219652
v 2.492094 -2.491142 0.219652
v 2.388572 -2.492152 0.219652
v 2.858551 -1.870087 0.219652
v 2.861311 -2.152916 0.219652
v 2.911187 -1.959235 0.219652
v 2.912198 -2.062757 0.219652
v 2.581243 -2.438505 0.411652
v 2.492094 -2.491142 0.411652
v 2.861311 -2.152916 0.411652
v 2.912198 -2.062757 0.411652
v 2.911187 -1.959235 0.411652
v 2.421150 -1.605240 0.411652
v 2.556206 -2.050462 0.411652
v 2.138795 -1.633050 0.411652
v 2.473178 -2.133489 0.411652
v 2.055766 -1.716077 0.411652
v 2.190823 -2.161298 0.411652
v 2.027957 -1.998433 0.411652
v 2.305986 -2.184206 0.411652
v 2.556206 -1.716078 0.219652
v 2.421150 -1.605240 0.219652
v 2.305986 -1.582332 0.219652
v 2.601141 -1.824559 0.219652
v 2.584015 -1.998433 0.219652
v 2.473178 -2.133489 0.219652
v 2.055766 -1.716077 0.219652
v 2.138795 -1.633050 0.219652
v 2.010832 -1.824560 0.219652
v 2.305986 -2.184206 0.219652
v 2.190823 -2.161298 0.219652
v 2.093191 -2.096064 0.219652
v 2.010832 -1.941979 0.219652
v 0.620371 -0.725287 0.219653
v 0.620371 -0.725287 0.411652
v -0.181542 -0.304113 0.219653
v -0.355300 -0.130282 0.219653
v -0.304407 -0.253169 0.219653
v -0.355300 0.113381 0.219653
v -0.181596 0.282820 0.219653
v -0.304423 0.234981 0.219653
v -0.355300 -0.130282 0.411653
v -0.181542 -0.304113 0.411652
v -0.304407 -0.253169 0.411652
v -0.181596 0.282820 0.411653
v -0.355300 0.113381 0.411653
v -0.304423 0.234981 0.411653
v 2.247276 -1.588115 0.411652
v 2.584015 -1.768106 0.411652
v 2.858551 -1.870087 0.411652
v 2.605297 -1.866763 0.411652
v 2.005049 -1.883269 0.411652
v 2.298414 -2.441267 0.411652
v 2.388572 -2.492152 0.411652
v 2.518781 -1.670475 0.411652
v 2.093191 -2.096064 0.411652
v -0.181569 -0.010647 0.219653
v -0.181569 -0.010647 0.411653
v 2.005451 -1.941980 -0.676347
v 2.050386 -2.050462 -0.676347
v 2.133414 -2.133490 -0.676347
v 2.241896 -2.178424 -0.676347
v 2.415769 -2.161299 -0.676347
v 2.513400 -2.096064 -0.676347
v 2.578635 -1.998435 -0.676347
v 2.601543 -1.883270 -0.676347
v 2.578635 -1.768106 -0.676347
v 2.513400 -1.670475 -0.676347
v 2.415769 -1.605241 -0.676347
v 2.300606 -1.582333 -0.676347
v 2.133414 -1.633050 -0.676347
v 2.050386 -1.716078 -0.676347
v 2.005451 -1.824560 -0.676347
v 2.005451 -1.941979 0.579653
v 2.050385 -2.050462 0.579653
v 2.185442 -2.161299 0.579653
v 2.300605 -2.184207 0.579652
v 2.415768 -2.161299 0.579653
v 2.513400 -2.096064 0.579653
v 2.595760 -1.941980 0.579653
v 2.578635 -1.768106 0.579653
v 2.513399 -1.670475 0.579653
v 2.415769 -1.605241 0.579653
v 2.241895 -1.588116 0.579653
v 2.087811 -1.670475 0.579653
v 2.005451 -1.824560 0.579653
vn -0.0000 -0.0000 1.0000
vn -0.0000 -0.0000 -1.0000
vn 0.7993 -0.6010 -0.0000
vn 0.6165 -0.7874 -0.0000
vn -0.6093 -0.7929 -0.0000
vn -0.2494 -0.9684 -0.0000
vn 0.0098 -1.0000 -0.0000
vn 0.5084 -0.8611 -0.0000
vn 0.7927 0.6097 -0.0000
vn 0.9634 0.2682 -0.0000
vn 1.0000 0.0098 -0.0000
vn 0.8709 -0.4915 -0.0000
vn 0.0169 0.9999 -0.0000
vn -0.1763 0.9843 -0.0000
vn -0.9808 -0.1951 -0.0000
vn -0.9804 0.1968 -0.0000
vn -0.0001 -1.0000 -0.0000
vn -0.1953 -0.9807 -0.0000
vn -0.3830 -0.9237 -0.0000
vn -0.9239 -0.3826 -0.0000
vn -0.9225 0.3860 -0.0000
vn -0.3629 0.9318 -0.0000
vn -0.7019 -0.7123 -0.0000
vn -0.7085 -0.7057 -0.0000
vn 0.7124 0.7018 -0.0000
vn 0.3827 0.9239 -0.0000
vn 0.7071 0.7071 -0.0000
vn -0.1482 -0.9889 -0.0067
vn 0.0015 -1.0000 0.0019
vn -0.4262 -0.9046 0.0067
vn 0.3396 -0.9406 -0.0044
vn -0.0461 0.9989 -0.0042
vn 0.3396 0.9406 0.0044
vn 0.3827 -0.9239 -0.0000
vn -0.1951 0.9807 0.0087
vn 0.7390 -0.6737 0.0044
vn -0.5153 0.8570 -0.0063
vn -0.7071 0.7071 0.0091
vn 0.9233 -0.3840 -0.0019
vn 0.7071 -0.7071 -0.0000
vn -0.8323 0.5543 -0.0019
vn -0.8049 -0.5934 0.0044
vn 1.0000 0.0015 -0.0019
vn 0.9807 -0.1951 0.0091
vn -0.8315 -0.5556 -0.0000
vn -0.9707 0.2402 0.0044
vn 0.9405 0.3396 0.0044
vn 0.9239 0.3827 -0.0000
vn -0.5568 -0.8307 -0.0019
vn -0.9808 0.1951 -0.0000
vn 0.6911 0.6960 0.1950
vn 0.6926 0.6986 -0.1798
vn 0.6926 0.6986 0.1798
vn -0.1419 -0.1396 -0.9800
vn -0.2926 -0.2901 -0.9112
vn -0.1488 -0.1476 -0.9778
vn -0.6602 -0.6469 -0.3816
vn -0.7019 -0.6889 -0.1808
vn -0.6669 -0.6558 -0.3538
vn 0.6911 0.6960 -0.1950
vn 0.6582 0.6639 -0.3549
vn 0.2717 0.2709 -0.9235
vn 0.1496 0.1504 -0.9772
vn 0.2913 0.2928 -0.9107
vn -0.7018 -0.6889 0.1815
vn -0.6602 -0.6469 0.3816
vn -0.6669 -0.6558 0.3538
vn -0.2926 -0.2901 0.9112
vn -0.1419 -0.1396 0.9800
vn -0.1488 -0.1476 0.9778
vn 0.1501 0.1508 0.9771
vn 0.2717 0.2709 0.9235
vn 0.2913 0.2928 0.9107
vn 0.6582 0.6639 0.3549
vn 0.1360 0.1356 -0.9814
vn 0.1360 0.1355 0.9814
vn -0.7007 -0.6865 0.1942
vn -0.7007 -0.6865 -0.1942
vn -0.2729 -0.2684 -0.9238
vn 0.6516 0.6550 -0.3827
vn -0.7020 -0.6890 0.1803
vn -0.6603 -0.6470 0.3814
vn -0.2729 -0.2684 0.9238
vn 0.1492 0.1500 0.9774
vn 0.6516 0.6550 0.3827
vn 0.7748 -0.6319 -0.0168
vn 0.7749 -0.6319 0.0169
vn 0.7748 -0.6319 0.0168
vn 0.6634 -0.7459 -0.0590
vn 0.6977 -0.7111 -0.0870
vn 0.6970 -0.7118 -0.0868
vn 0.6634 -0.7459 0.0590
vn 0.6977 -0.7111 0.0870
vn 0.6654 -0.7440 0.0617
vn 0.7243 -0.6840 -0.0862
vn 0.7230 -0.6855 -0.0861
vn -0.6613 -0.6613 -0.3539
vn -0.6956 -0.6956 -0.1800
vn -0.6613 -0.6613 0.3539
vn -0.6956 -0.6956 0.1800
vn -0.6956 -0.6956 0.1797
vn -0.1505 -0.1505 0.9771
vn -0.2920 -0.2920 0.9107
vn -0.1502 -0.1502 -0.9772
vn -0.2920 -0.2920 -0.9107
vn -0.1486 -0.1486 -0.9777
vn 0.6956 0.6956 -0.1800
vn 0.6956 0.6956 0.1797
vn 0.6957 0.6955 0.1795
vn 0.2920 0.2920 -0.9107
vn 0.1502 0.1502 -0.9772
vn 0.1486 0.1486 0.9777
vn -0.1486 -0.1486 0.9777
vn -0.1498 -0.1497 0.9773
vn 0.6955 0.6955 0.1805
vn 0.6614 0.6614 0.3539
vn 0.6614 0.6614 -0.3539
vn 0.6956 0.6956 -0.1797
vn 0.1486 0.1486 -0.9777
vn -0.6956 -0.6956 -0.1797
vn 0.2920 0.2920 0.9107
vn 0.1501 0.1501 0.9772
vn 0.7558 -0.6523 -0.0573
vn 0.7749 -0.6319 -0.0169
vn 0.7538 -0.6543 -0.0598
vn 0.7558 -0.6523 0.0573
vn 0.7230 -0.6855 0.0861
vn 0.7243 -0.6840 0.0862
vn 0.6420 -0.7665 0.0177
vn 0.6419 -0.7666 0.0178
vn 0.6419 -0.7666 -0.0178
vn 0.6420 -0.7665 -0.0177
vn 0.6654 -0.7440 -0.0617
vn 0.6970 -0.7118 0.0868
vn 0.7538 -0.6543 0.0598
vn -0.5556 -0.8315 -0.0000
vn 0.5556 -0.8315 -0.0000
vn 0.8315 -0.5556 -0.0000
vn 0.9239 -0.3827 -0.0000
vn 0.8315 0.5556 -0.0000
vn -0.3827 -0.9239 -0.0000
vn -0.5556 0.8315 -0.0000
vn -0.8315 0.5556 -0.0000
vn -0.3827 0.9239 -0.0000
vn 0.5556 0.8315 -0.0000
vn -0.9239 -0.3827 -0.0000
vn -0.9239 0.3827 -0.0000
vn -0.0050 -0.0006 1.0000
vt 0.241622 0.510735
vt 0.262199 0.510897
vt 0.286090 0.562227
vt 0.489608 0.005306
vt 0.412377 0.408469
vt 0.393727 0.416523
vt 0.489280 0.541730
vt 0.476932 0.554704
vt 0.467015 0.487651
vt 0.355586 0.650679
vt 0.322106 0.581599
vt 0.355325 0.581474
vt 0.355122 0.527739
vt 0.321971 0.545776
vt 0.321904 0.527865
vt 0.355189 0.545651
vt 0.322039 0.563688
vt 0.322571 0.704539
vt 0.355721 0.686502
vt 0.355789 0.704413
vt 0.322503 0.686627
vt 0.355654 0.668590
vt 0.322435 0.668716
vt 0.359014 0.718922
vt 0.466215 0.740939
vt 0.359014 0.740939
vt 0.524386 0.718922
vt 0.496445 0.740938
vt 0.496445 0.718922
vt 0.465644 0.774585
vt 0.465073 0.808231
vt 0.597839 0.740938
vt 0.554889 0.718922
vt 0.597839 0.718922
vt 0.422129 0.652351
vt 0.465644 0.685276
vt 0.466215 0.718922
vt 0.554889 0.740938
vt 0.539637 0.718922
vt 0.539637 0.740938
vt 0.481330 0.718922
vt 0.481330 0.740938
vt 0.387036 0.496738
vt 0.390568 0.561476
vt 0.373158 0.557269
vt 0.360184 0.544921
vt 0.459751 0.559766
vt 0.413904 0.510586
vt 0.493487 0.524320
vt 0.289409 0.496661
vt 0.303742 0.557895
vt 0.316852 0.545313
vt 0.213057 0.493957
vt 0.216178 0.560147
vt 0.199008 0.555032
vt 0.186683 0.541999
vt 0.182530 0.524541
vt 0.480205 0.713200
vt 0.485803 0.699160
vt 0.485331 0.671223
vt 0.479258 0.657233
vt 0.465073 0.651630
vt 0.479258 0.802628
vt 0.485803 0.760701
vt 0.480205 0.746661
vt 0.485331 0.788638
vt 0.353162 0.008700
vt 0.320336 0.112629
vt 0.319944 0.008825
vt 0.353554 0.112504
vt 0.351243 0.008725
vt 0.015007 0.718923
vt 0.015007 0.740939
vt 0.182530 0.004687
vt 0.263125 0.406809
vt 0.242722 0.406644
vt 0.322372 0.007743
vt 0.069176 0.510735
vt 0.089753 0.510897
vt 0.113644 0.562227
vt 0.317162 0.005306
vt 0.239931 0.408469
vt 0.221281 0.416523
vt 0.316834 0.541730
vt 0.304486 0.554704
vt 0.294569 0.487651
vt 0.183140 0.650679
vt 0.149661 0.581599
vt 0.182879 0.581474
vt 0.182676 0.527740
vt 0.149525 0.545776
vt 0.149458 0.527865
vt 0.182744 0.545651
vt 0.149593 0.563688
vt 0.150125 0.704539
vt 0.183276 0.686502
vt 0.183343 0.704413
vt 0.150057 0.686627
vt 0.183208 0.668590
vt 0.149990 0.668716
vt 0.358473 0.718923
vt 0.465674 0.740939
vt 0.358473 0.740939
vt 0.523845 0.718922
vt 0.495904 0.740938
vt 0.495904 0.718922
vt 0.465103 0.774585
vt 0.464532 0.808231
vt 0.597298 0.740938
vt 0.554348 0.718922
vt 0.597298 0.718922
vt 0.421588 0.652351
vt 0.465103 0.685276
vt 0.465674 0.718922
vt 0.554348 0.740938
vt 0.539097 0.718922
vt 0.539097 0.740938
vt 0.480789 0.718922
vt 0.480790 0.740939
vt 0.214590 0.496738
vt 0.218122 0.561476
vt 0.200712 0.557269
vt 0.187738 0.544921
vt 0.287305 0.559766
vt 0.241458 0.510587
vt 0.321041 0.524320
vt 0.116963 0.496661
vt 0.131296 0.557895
vt 0.144407 0.545313
vt 0.040612 0.493957
vt 0.043732 0.560147
vt 0.026563 0.555032
vt 0.014238 0.541999
vt 0.010084 0.524541
vt 0.479664 0.713200
vt 0.485262 0.699160
vt 0.484790 0.671223
vt 0.478717 0.657233
vt 0.464532 0.651630
vt 0.478718 0.802628
vt 0.485262 0.760701
vt 0.479664 0.746661
vt 0.484790 0.788638
vt 0.180716 0.008700
vt 0.147890 0.112629
vt 0.147498 0.008825
vt 0.181108 0.112504
vt 0.178797 0.008725
vt 0.014467 0.718923
vt 0.014467 0.740940
vt 0.010084 0.004687
vt 0.090679 0.406809
vt 0.070276 0.406644
vt 0.149926 0.007743
vt 0.041319 0.640085
vt 0.048123 0.567897
vt 0.048068 0.640090
vt 0.091856 0.640067
vt 0.088455 0.567875
vt 0.095205 0.567872
vt 0.081814 0.640078
vt 0.034570 0.640080
vt 0.041374 0.567892
vt 0.081706 0.567885
vt 0.031332 0.567879
vt 0.074957 0.567895
vt 0.024528 0.640068
vt 0.021290 0.567867
vt 0.068316 0.640098
vt 0.075065 0.640088
vt 0.017778 0.640055
vt 0.112104 0.640045
vt 0.105247 0.567862
vt 0.111996 0.567852
vt 0.061567 0.640100
vt 0.064915 0.567905
vt 0.105355 0.640055
vt 0.011247 0.567842
vt 0.054872 0.567902
vt 0.054817 0.640095
vt 0.098605 0.640065
vt 0.118745 0.567842
vt 0.118853 0.640035
vt 0.203386 0.653880
vt 0.252675 0.674297
vt 0.216271 0.718655
vt 0.247843 0.705742
vt 0.199276 0.710525
vt 0.199276 0.657175
vt 0.375498 0.480017
vt 0.474507 0.468769
vt 0.471095 0.438735
vt 0.371238 0.460154
vt 0.459557 0.422014
vt 0.379579 0.431101
vt 0.432689 0.408165
vt 0.322368 0.650804
vt 0.355257 0.563563
vt 0.524386 0.740938
vt 0.422129 0.807510
vt 0.443938 0.507174
vt 0.203707 0.479271
vt 0.301010 0.479645
vt 0.305221 0.459500
vt 0.199888 0.459461
vt 0.204282 0.437423
vt 0.300863 0.438172
vt 0.223782 0.414267
vt 0.289721 0.421211
vt 0.203053 0.480017
vt 0.302061 0.468769
vt 0.298649 0.438735
vt 0.198792 0.460154
vt 0.287111 0.422014
vt 0.207133 0.431101
vt 0.260243 0.408165
vt 0.149922 0.650804
vt 0.182811 0.563562
vt 0.523845 0.740938
vt 0.421588 0.807510
vt 0.271492 0.507174
vt 0.031261 0.479271
vt 0.128564 0.479645
vt 0.132775 0.459500
vt 0.027442 0.459461
vt 0.031836 0.437423
vt 0.128417 0.438171
vt 0.051336 0.414267
vt 0.117276 0.421211
vt 0.011029 0.640034
vt 0.186631 0.674296
vt 0.192978 0.662422
vt 0.223036 0.649972
vt 0.235920 0.653880
vt 0.246328 0.662422
vt 0.252675 0.694331
vt 0.241545 0.710989
vt 0.229670 0.717336
vt 0.197762 0.710989
vt 0.186631 0.694331
vt 0.211151 0.650828
vt 0.224551 0.649509
vt 0.237435 0.653417
vt 0.247843 0.661959
vt 0.254190 0.673833
vt 0.254190 0.693868
vt 0.237435 0.714284
vt 0.224550 0.718192
vt 0.211151 0.716872
vt 0.190735 0.700117
vt 0.186826 0.687233
vt 0.190735 0.667583
vt 0.566835 0.188397
vt 0.972358 0.174418
vt 0.972430 0.185814
vt 0.565584 0.122015
vt 0.971579 0.102075
vt 0.971813 0.122275
vt 0.565029 0.100217
vt 0.971543 0.080541
vt 0.566762 0.177004
vt 0.972183 0.152884
vt 0.566458 0.155205
vt 0.971945 0.132683
vt 0.971603 0.069150
vt 0.565316 0.045226
vt 0.971864 0.047617
vt 0.566100 0.023436
vt 0.972308 0.027420
vt 0.972549 0.227551
vt 0.566808 0.210198
vt 0.972530 0.207349
vt 0.565899 0.133407
vt 0.566533 0.012048
vt 0.564916 0.067024
vt 0.564857 0.078417
vt 0.566527 0.232001
vt 0.972549 0.017014
vt 0.232807 0.594563
vt 0.240762 0.603562
vt 0.232461 0.601632
vt 0.198973 0.580562
vt 0.209438 0.566528
vt 0.210555 0.575731
vt 0.197826 0.612659
vt 0.207263 0.627403
vt 0.191235 0.619333
vt 0.217574 0.576043
vt 0.210243 0.566457
vt 0.219474 0.566967
vt 0.057949 0.714444
vt 0.046703 0.646475
vt 0.058043 0.646457
vt 0.029269 0.714404
vt 0.040703 0.646467
vt 0.040609 0.714454
vt 0.018631 0.714308
vt 0.029363 0.646417
vt 0.068587 0.714377
vt 0.068682 0.646391
vt 0.096047 0.714255
vt 0.102141 0.646276
vt 0.102047 0.714263
vt 0.084706 0.714272
vt 0.074163 0.646352
vt 0.084801 0.646286
vt 0.013150 0.714255
vt 0.018725 0.646321
vt 0.113481 0.646325
vt 0.113387 0.714312
vt 0.096141 0.646268
vt 0.074068 0.714339
vt 0.046609 0.714462
vt 0.124119 0.646422
vt 0.124025 0.714408
vt 0.228709 0.581829
vt 0.241256 0.593453
vt 0.235398 0.575242
vt 0.227141 0.613906
vt 0.216500 0.627796
vt 0.215494 0.618578
vt 0.185140 0.601200
vt 0.193564 0.599979
vt 0.193817 0.592905
vt 0.185502 0.591086
vt 0.192875 0.573434
vt 0.209034 0.618303
vt 0.233155 0.621113
vt 0.211118 0.575686
vt 0.013244 0.646268
vt 0.210617 0.819606
vt 0.118606 0.996451
vt 0.118606 0.819606
vt 0.316598 0.638264
vt 0.295815 0.658845
vt 0.291751 0.641371
vt 0.062210 0.819606
vt 0.006945 0.996451
vt 0.006945 0.819605
vt 0.267978 0.641369
vt 0.273802 0.643137
vt 0.315475 0.638254
vt 0.285919 0.643221
vt 0.291742 0.641452
vt 0.243029 0.638456
vt 0.243338 0.586724
vt 0.249404 0.606719
vt 0.523274 0.996451
vt 0.495075 0.819605
vt 0.523274 0.819605
vt 0.495075 0.996451
vt 0.466877 0.819605
vt 0.090408 0.996451
vt 0.062210 0.996451
vt 0.090408 0.819606
vt 0.323961 0.819606
vt 0.261522 0.996451
vt 0.261522 0.819606
vt 0.244234 0.638171
vt 0.244241 0.586658
vt 0.249416 0.606634
vt 0.250272 0.652759
vt 0.262611 0.638499
vt 0.264856 0.658808
vt 0.254048 0.629934
vt 0.257908 0.634638
vt 0.349414 0.996451
vt 0.323961 0.996451
vt 0.349414 0.819605
vt 0.374867 0.996451
vt 0.236070 0.996451
vt 0.210617 0.996451
vt 0.236069 0.819606
vt 0.466877 0.996451
vt 0.294873 0.658884
vt 0.267968 0.641461
vt 0.273800 0.643230
vt 0.309443 0.652836
vt 0.262585 0.638580
vt 0.263919 0.658955
vt 0.249275 0.653010
vt 0.253970 0.629908
vt 0.257859 0.634689
vt 0.248790 0.573597
vt 0.267994 0.584120
vt 0.262630 0.586983
vt 0.257926 0.590834
vt 0.310013 0.573608
vt 0.308528 0.600913
vt 0.305660 0.595550
vt 0.316413 0.586632
vt 0.310337 0.618753
vt 0.310925 0.612692
vt 0.291735 0.584013
vt 0.310960 0.573486
vt 0.297807 0.568042
vt 0.262615 0.586884
vt 0.249695 0.573494
vt 0.262859 0.568042
vt 0.273803 0.582250
vt 0.267981 0.584016
vt 0.257911 0.590744
vt 0.297127 0.638494
vt 0.301533 0.634870
vt 0.310444 0.652850
vt 0.285921 0.643141
vt 0.279861 0.643735
vt 0.297106 0.638584
vt 0.301808 0.634724
vt 0.250949 0.624158
vt 0.251132 0.624484
vt 0.254062 0.595528
vt 0.251184 0.600892
vt 0.249389 0.618838
vt 0.248796 0.612795
vt 0.251180 0.624567
vt 0.254051 0.595447
vt 0.251183 0.600812
vt 0.249414 0.618744
vt 0.248819 0.612689
vt 0.374867 0.819605
vt 0.279861 0.643821
vt 0.261929 0.568160
vt 0.273814 0.582357
vt 0.296856 0.568160
vt 0.315465 0.586765
vt 0.305666 0.630021
vt 0.308532 0.624657
vt 0.279865 0.581764
vt 0.310296 0.618837
vt 0.310891 0.612784
vt 0.285917 0.582360
vt 0.291737 0.584125
vt 0.310294 0.606732
vt 0.297100 0.586992
vt 0.301801 0.590850
vt 0.297102 0.586875
vt 0.301886 0.634594
vt 0.305612 0.630063
vt 0.301807 0.590729
vt 0.305671 0.595429
vt 0.308548 0.624621
vt 0.308545 0.600796
vt 0.310320 0.606625
vt 0.285913 0.582248
vt 0.279858 0.581653
s 1
g off
g LlantaTraseraDerecha_SpacialRoverExploreralumWhite
usemtl SpacialRoverExploreralumWhite
f 109/1/1 111/2/1 37/3/1
s 2
f 26/4/2 122/5/2 124/6/2
f 35/7/2 36/8/2 119/9/2
s 3
f 34/10/3 37/11/4 29/12/4
s 4
f 30/13/5 197/14/6 196/15/5
f 32/16/6 38/17/7 197/14/6
s 3
f 38/17/8 29/12/4 37/11/4
s 5
f 157/18/9 35/19/10 33/20/9
f 41/21/10 36/22/11 35/19/10
s 3
f 40/23/12 34/10/3 36/22/12
s 6
f 26/24/13 152/25/14 28/26/13
s 7
f 144/27/15 153/28/16 146/29/16
s 1
f 28/26/1 201/30/1 150/31/1
s 8
f 27/32/17 143/33/18 25/34/17
s 2
f 25/35/2 200/36/2 147/37/2
s 8
f 150/38/18 145/39/19 143/33/18
s 7
f 151/40/20 144/27/15 145/39/20
f 153/28/16 148/41/21 146/29/16
s 6
f 154/42/22 147/37/14 148/41/22
s 2
f 125/43/2 29/44/2 31/45/2
f 31/45/2 32/46/2 125/43/2
f 30/13/2 125/43/2 32/46/2
f 34/47/2 125/43/2 121/48/2
f 119/9/2 33/49/2 35/7/2
f 119/9/2 36/8/2 34/47/2
s 1
f 37/3/1 115/50/1 38/51/1
f 38/51/1 115/50/1 197/52/1
f 194/53/1 39/54/1 40/55/1
f 41/56/1 157/57/1 194/53/1
f 40/55/1 41/56/1 194/53/1
f 115/50/1 196/15/1 197/52/1
s 2
f 147/37/2 200/36/2 148/58/2
f 148/58/2 200/36/2 146/59/2
f 146/59/2 200/36/2 144/60/2
f 145/61/2 200/36/2 143/62/2
f 144/60/2 200/36/2 145/61/2
s 1
f 150/31/1 201/30/1 151/63/1
f 153/64/1 201/30/1 154/65/1
f 154/65/1 201/30/1 152/25/1
f 151/63/1 201/30/1 149/66/1
f 149/66/1 201/30/1 153/64/1
s 4
f 25/67/23 130/68/24 27/69/23
s 2
f 26/4/2 129/70/2 25/71/2
s 4
f 129/70/24 196/15/5 130/68/24
s 5
f 33/72/9 28/26/25 157/73/9
s 1
f 28/74/1 112/75/1 110/76/1
f 130/68/1 28/74/1 27/77/1
s 9
f 220/78/1 222/79/1 214/80/1
s 10
f 203/81/2 233/82/2 235/83/2
f 212/84/2 213/85/2 230/86/2
s 11
f 211/87/3 214/88/4 206/89/4
s 12
f 207/90/5 260/91/6 259/92/5
f 209/93/6 215/94/7 260/91/6
s 11
f 215/94/8 206/89/4 214/88/4
s 13
f 256/95/9 212/96/10 210/97/9
f 218/98/10 213/99/11 212/96/10
s 11
f 217/100/12 211/87/3 213/99/12
s 14
f 203/101/13 251/102/14 205/103/13
s 15
f 243/104/15 252/105/16 245/106/16
s 9
f 205/103/1 264/107/1 249/108/1
s 16
f 204/109/17 242/110/18 202/111/17
s 10
f 202/112/2 263/113/2 246/114/2
s 16
f 249/115/18 244/116/19 242/110/18
s 15
f 250/117/20 243/104/15 244/116/20
f 252/105/16 247/118/21 245/106/16
s 14
f 253/119/22 246/114/14 247/118/22
s 10
f 236/120/2 206/121/2 208/122/2
f 208/122/2 209/123/2 236/120/2
f 207/90/2 236/120/2 209/123/2
f 211/124/2 236/120/2 232/125/2
f 230/86/2 210/126/2 212/84/2
f 230/86/2 213/85/2 211/124/2
s 9
f 214/80/1 226/127/1 215/128/1
f 215/128/1 226/127/1 260/129/1
f 257/130/1 216/131/1 217/132/1
f 218/133/1 256/134/1 257/130/1
f 217/132/1 218/133/1 257/130/1
f 226/127/1 259/92/1 260/129/1
s 10
f 246/114/2 263/113/2 247/135/2
f 247/135/2 263/113/2 245/136/2
f 245/136/2 263/113/2 243/137/2
f 244/138/2 263/113/2 242/139/2
f 243/137/2 263/113/2 244/138/2
s 9
f 249/108/1 264/107/1 250/140/1
f 252/141/1 264/107/1 253/142/1
f 253/142/1 264/107/1 251/102/1
f 250/140/1 264/107/1 248/143/1
f 248/143/1 264/107/1 252/141/1
s 12
f 202/144/23 241/145/24 204/146/23
s 10
f 203/81/2 240/147/2 202/148/2
s 12
f 240/147/24 259/92/5 241/145/24
s 13
f 210/149/9 205/103/25 256/150/9
s 9
f 205/151/1 223/152/1 221/153/1
f 241/145/1 205/151/1 204/154/1
s 17
f 275/155/26 288/156/27 274/157/27
f 268/158/28 283/159/29 282/160/30
f 268/158/28 269/161/31 283/159/29
f 275/155/26 276/162/32 289/163/33
f 269/161/31 284/164/34 283/159/29
f 276/162/32 290/165/35 289/163/33
f 269/161/31 285/166/36 284/164/34
f 276/162/32 277/167/37 290/165/35
f 277/167/37 291/168/38 290/165/35
f 271/169/39 285/166/36 270/170/40
f 277/167/37 278/171/41 291/168/38
f 265/172/15 281/173/42 280/174/15
f 271/169/39 272/175/43 286/176/44
f 265/172/15 266/177/45 281/173/42
f 278/171/41 292/178/46 291/168/38
f 272/175/43 287/179/47 286/176/44
f 272/175/43 273/180/48 287/179/47
f 267/181/49 281/173/42 266/177/45
f 265/172/15 292/182/46 279/183/50
f 274/157/27 287/179/47 273/180/48
f 267/181/49 268/158/28 282/160/30
s 18
f 281/184/1 285/185/1 289/186/1
s 19
f 275/187/2 271/188/2 267/189/2
s 1
f 37/3/1 39/54/1 194/53/1
f 37/3/1 194/53/1 109/1/1
f 111/2/1 115/50/1 37/3/1
s 2
f 126/190/2 125/43/2 30/13/2
f 33/49/2 119/9/2 116/191/2
f 33/49/2 116/191/2 117/192/2
f 127/193/2 126/190/2 30/13/2
f 127/193/2 30/13/2 129/70/2
f 26/4/2 33/49/2 117/192/2
f 26/4/2 117/192/2 118/194/2
f 127/193/2 129/70/2 26/4/2
f 128/195/2 127/193/2 26/4/2
f 26/4/2 118/194/2 123/196/2
f 26/4/2 123/196/2 122/5/2
f 124/6/2 128/195/2 26/4/2
s 3
f 34/10/3 39/197/3 37/11/4
s 4
f 30/13/5 32/16/6 197/14/6
f 32/16/6 31/198/7 38/17/7
s 3
f 38/17/8 31/198/8 29/12/4
s 5
f 157/18/9 41/21/10 35/19/10
f 41/21/10 40/23/11 36/22/11
s 3
f 40/23/12 39/197/3 34/10/3
s 6
f 26/24/13 147/37/14 152/25/14
s 7
f 144/27/15 149/199/15 153/28/16
s 1
f 150/31/1 27/200/1 28/26/1
f 28/26/1 152/25/1 201/30/1
s 8
f 27/32/17 150/38/18 143/33/18
s 2
f 147/37/2 26/24/2 25/35/2
f 25/35/2 143/62/2 200/36/2
s 8
f 150/38/18 151/40/19 145/39/19
s 7
f 151/40/20 149/199/15 144/27/15
f 153/28/16 154/42/21 148/41/21
s 6
f 154/42/22 152/25/14 147/37/14
s 2
f 120/201/2 119/9/2 34/47/2
f 34/47/2 29/44/2 125/43/2
f 121/48/2 120/201/2 34/47/2
s 4
f 25/67/23 129/70/24 130/68/24
f 129/70/24 30/13/5 196/15/5
s 5
f 33/72/9 26/24/25 28/26/25
s 1
f 156/202/1 194/53/1 157/57/1
f 196/15/1 115/50/1 113/203/1
f 196/15/1 113/203/1 199/204/1
f 198/205/1 156/202/1 157/57/1
f 108/206/1 198/205/1 157/57/1
f 130/68/1 196/15/1 199/204/1
f 130/68/1 199/204/1 114/207/1
f 108/206/1 157/57/1 28/74/1
f 155/208/1 108/206/1 28/74/1
f 28/74/1 130/68/1 114/207/1
f 28/74/1 114/207/1 195/209/1
f 110/76/1 155/208/1 28/74/1
f 28/74/1 195/209/1 112/75/1
s 9
f 214/80/1 216/131/1 257/130/1
f 214/80/1 257/130/1 220/78/1
f 222/79/1 226/127/1 214/80/1
s 10
f 237/210/2 236/120/2 207/90/2
f 210/126/2 230/86/2 227/211/2
f 210/126/2 227/211/2 228/212/2
f 238/213/2 237/210/2 207/90/2
f 238/213/2 207/90/2 240/147/2
f 203/81/2 210/126/2 228/212/2
f 203/81/2 228/212/2 229/214/2
f 238/213/2 240/147/2 203/81/2
f 239/215/2 238/213/2 203/81/2
f 203/81/2 229/214/2 234/216/2
f 203/81/2 234/216/2 233/82/2
f 235/83/2 239/215/2 203/81/2
s 11
f 211/87/3 216/217/3 214/88/4
s 12
f 207/90/5 209/93/6 260/91/6
f 209/93/6 208/218/7 215/94/7
s 11
f 215/94/8 208/218/8 206/89/4
s 13
f 256/95/9 218/98/10 212/96/10
f 218/98/10 217/100/11 213/99/11
s 11
f 217/100/12 216/217/3 211/87/3
s 14
f 203/101/13 246/114/14 251/102/14
s 15
f 243/104/15 248/219/15 252/105/16
s 9
f 249/108/1 204/220/1 205/103/1
f 205/103/1 251/102/1 264/107/1
s 16
f 204/109/17 249/115/18 242/110/18
s 10
f 246/114/2 203/101/2 202/112/2
f 202/112/2 242/139/2 263/113/2
s 16
f 249/115/18 250/117/19 244/116/19
s 15
f 250/117/20 248/219/15 243/104/15
f 252/105/16 253/119/21 247/118/21
s 14
f 253/119/22 251/102/14 246/114/14
s 10
f 231/221/2 230/86/2 211/124/2
f 211/124/2 206/121/2 236/120/2
f 232/125/2 231/221/2 211/124/2
s 12
f 202/144/23 240/147/24 241/145/24
f 240/147/24 207/90/5 259/92/5
s 13
f 210/149/9 203/101/25 205/103/25
s 9
f 255/222/1 257/130/1 256/134/1
f 259/92/1 226/127/1 224/223/1
f 259/92/1 224/223/1 262/224/1
f 261/225/1 255/222/1 256/134/1
f 219/226/1 261/225/1 256/134/1
f 241/145/1 259/92/1 262/224/1
f 241/145/1 262/224/1 225/227/1
f 219/226/1 256/134/1 205/151/1
f 254/228/1 219/226/1 205/151/1
f 205/151/1 241/145/1 225/227/1
f 205/151/1 225/227/1 258/229/1
f 221/153/1 254/228/1 205/151/1
f 205/151/1 258/229/1 223/152/1
s 17
f 275/155/26 289/163/33 288/156/27
f 269/161/31 270/170/40 285/166/36
f 271/169/39 286/176/44 285/166/36
f 278/171/41 279/230/50 292/178/46
f 267/181/49 282/160/30 281/173/42
f 265/172/15 280/174/15 292/182/46
f 274/157/27 288/156/27 287/179/47
s 18
f 292/231/1 280/232/1 281/184/1
f 281/184/1 282/233/1 283/234/1
f 283/234/1 284/235/1 285/185/1
f 285/185/1 286/236/1 287/237/1
f 287/237/1 288/238/1 289/186/1
f 289/186/1 290/239/1 291/240/1
f 291/240/1 292/231/1 281/184/1
f 281/184/1 283/234/1 285/185/1
f 285/185/1 287/237/1 289/186/1
f 289/186/1 291/240/1 281/184/1
s 19
f 266/241/2 265/242/2 279/243/2
f 279/243/2 278/244/2 277/245/2
f 277/245/2 276/246/2 275/187/2
f 275/187/2 274/247/2 273/248/2
f 273/248/2 272/249/2 271/188/2
f 271/188/2 270/250/2 269/251/2
f 269/251/2 268/252/2 267/189/2
f 267/189/2 266/241/2 279/243/2
f 279/243/2 277/245/2 275/187/2
f 275/187/2 273/248/2 271/188/2
f 271/188/2 269/251/2 267/189/2
f 267/189/2 279/243/2 275/187/2
s 20
g LlantaTraseraDerecha_SpacialRoverExploreralumGray
usemtl SpacialRoverExploreralumGray
f 10/253/51 140/254/52 139/255/53
s 21
f 2/256/54 137/257/55 131/258/56
s 22
f 3/259/57 134/260/58 137/257/59
s 20
f 5/261/60 135/262/61 140/254/52
s 21
f 6/263/62 132/264/63 135/262/64
s 23
f 138/265/65 9/266/66 133/267/67
s 24
f 133/267/68 7/268/69 141/269/70
s 25
f 136/270/71 12/271/72 142/272/73
s 20
f 142/272/74 10/253/51 139/255/53
s 21
f 4/273/75 131/258/56 132/264/63
s 24
f 11/274/76 141/269/70 7/268/69
s 22
f 8/275/77 134/260/58 1/276/78
s 20
f 10/253/51 5/261/60 140/254/52
s 21
f 2/256/54 3/259/79 137/257/55
s 22
f 3/259/57 1/276/78 134/260/58
s 20
f 5/261/60 6/263/80 135/262/61
s 21
f 6/263/62 4/273/75 132/264/63
s 22
f 138/265/81 8/275/77 9/266/82
s 24
f 133/267/68 9/266/83 7/268/69
f 136/270/84 11/277/76 12/271/72
s 20
f 142/272/74 12/271/85 10/253/51
s 21
f 4/273/75 2/256/54 131/258/56
s 24
f 11/274/76 136/278/84 141/269/70
s 22
f 8/275/77 138/265/81 134/260/58
s 26
g LlantaTraseraDerecha_SpacialRoverExploreralumBlack
usemtl SpacialRoverExploreralumBlack
f 138/279/86 162/280/87 134/281/88
f 142/282/89 170/283/90 136/284/91
f 135/285/92 173/286/93 160/287/94
f 141/288/95 170/289/90 166/290/96
s 27
f 163/291/97 177/292/98 159/293/97
f 165/294/99 178/295/100 164/296/101
s 28
f 166/297/102 176/298/103 165/294/103
s 29
f 172/299/104 159/293/105 158/300/106
s 30
f 161/301/107 181/302/108 175/303/109
s 29
f 160/304/110 167/305/111 179/306/110
s 31
f 170/307/112 174/308/113 166/297/114
s 32
f 175/303/115 169/309/116 171/310/116
s 30
f 161/301/107 179/306/117 180/311/118
s 29
f 173/312/119 158/300/106 167/305/111
s 27
f 164/296/101 177/292/98 162/313/120
s 31
f 171/310/121 168/314/122 170/315/112
s 26
f 133/316/123 164/317/124 138/279/86
f 133/316/123 166/290/96 165/318/125
f 137/319/126 172/320/127 131/321/128
f 135/285/92 161/322/129 140/323/130
f 139/324/131 161/322/129 175/325/132
f 142/282/89 175/325/132 171/326/133
f 131/321/128 173/286/93 132/327/134
f 137/319/126 162/280/87 163/328/135
f 138/279/86 164/317/124 162/280/87
f 142/282/89 171/326/133 170/283/90
f 135/285/92 132/327/134 173/286/93
f 141/288/95 136/329/91 170/289/90
s 27
f 163/291/97 162/313/120 177/292/98
f 165/294/99 176/298/99 178/295/100
s 31
f 166/297/114 174/308/113 176/298/103
s 29
f 172/299/104 163/291/105 159/293/105
s 30
f 161/301/107 180/311/118 181/302/108
s 29
f 160/304/110 173/312/119 167/305/111
s 31
f 170/307/112 168/330/122 174/308/113
s 30
f 175/303/109 181/302/108 169/309/116
f 161/301/107 160/304/117 179/306/117
s 29
f 173/312/119 172/299/104 158/300/106
s 27
f 164/296/101 178/295/100 177/292/98
s 31
f 171/310/121 169/309/121 168/314/122
s 26
f 133/316/123 165/318/125 164/317/124
f 133/316/123 141/288/95 166/290/96
f 137/319/126 163/328/135 172/320/127
f 135/285/92 160/287/94 161/322/129
f 139/324/131 140/323/130 161/322/129
f 142/282/89 139/324/131 175/325/132
f 131/321/128 172/320/127 173/286/93
f 137/319/126 134/281/88 162/280/87
s 33
g LlantaTraseraDerecha_SpacialRoverExploreralumGrayDeep
usemtl SpacialRoverExploreralumGrayDeep
f 192/331/45 20/332/136 22/333/136
s 34
f 22/334/1 23/335/1 73/336/1
s 35
f 23/337/137 14/338/138 16/339/138
s 34
f 23/335/1 68/340/1 67/341/1
s 36
f 13/342/2 93/343/2 107/344/2
f 20/345/2 188/346/2 78/347/2
s 35
f 14/348/138 18/349/139 16/350/138
s 37
f 15/351/48 17/352/140 18/349/48
s 35
f 23/337/137 21/353/34 19/354/137
s 33
f 24/355/141 20/332/136 21/353/141
s 38
f 186/356/142 189/357/143 191/358/143
s 34
f 17/359/1 185/360/1 60/361/1
f 18/362/1 64/363/1 16/364/1
f 18/362/1 63/365/1 65/366/1
s 38
f 186/356/142 184/367/144 182/368/142
s 37
f 187/369/26 183/370/145 184/367/26
s 33
f 192/331/45 190/371/146 188/372/45
s 38
f 193/373/147 189/357/143 190/371/147
s 37
f 183/370/145 17/352/140 13/374/140
s 36
f 14/375/2 95/376/2 97/377/2
f 14/375/2 93/343/2 15/378/2
f 96/379/2 19/380/2 21/381/2
f 20/345/2 98/382/2 99/383/2
f 190/384/2 106/385/2 105/386/2
f 190/384/2 102/387/2 188/346/2
f 184/388/2 84/389/2 86/390/2
s 34
f 192/391/1 51/392/1 50/393/1
f 192/391/1 47/394/1 193/395/1
f 47/394/1 191/396/1 193/395/1
f 71/397/1 187/398/1 186/399/1
f 191/396/1 43/400/1 42/401/148
f 70/402/1 187/398/1 71/397/1
s 33
f 192/331/45 188/372/45 20/332/136
s 34
f 74/403/1 56/404/1 22/334/1
f 22/334/1 24/405/1 23/335/1
f 23/335/1 72/406/1 73/336/1
f 73/336/1 74/403/1 22/334/1
s 35
f 23/337/137 19/354/137 14/338/138
s 34
f 66/407/1 72/406/1 23/335/1
f 23/335/1 16/364/1 64/363/1
f 23/335/1 64/363/1 68/340/1
f 67/341/1 66/407/1 23/335/1
s 36
f 104/408/2 103/409/2 13/342/2
f 13/342/2 15/378/2 93/343/2
f 107/344/2 104/408/2 13/342/2
f 76/410/2 75/411/2 20/345/2
f 188/346/2 102/387/2 101/412/2
f 188/346/2 101/412/2 100/413/2
f 79/414/2 76/410/2 20/345/2
f 77/415/2 79/414/2 20/345/2
f 188/346/2 100/413/2 78/347/2
f 78/347/2 77/415/2 20/345/2
s 35
f 14/348/138 15/351/139 18/349/139
s 37
f 15/351/48 13/374/140 17/352/140
s 35
f 23/337/137 24/355/34 21/353/34
s 33
f 24/355/141 22/333/136 20/332/136
s 38
f 186/356/142 182/368/142 189/357/143
s 34
f 61/416/1 63/365/1 17/359/1
f 185/360/1 70/402/1 69/417/1
f 185/360/1 69/417/1 62/418/1
f 59/419/1 61/416/1 17/359/1
f 58/420/1 59/419/1 17/359/1
f 185/360/1 62/418/1 60/361/1
f 60/361/1 58/420/1 17/359/1
f 65/366/1 64/363/1 18/362/1
f 18/362/1 17/359/1 63/365/1
s 38
f 186/356/142 187/369/144 184/367/144
s 37
f 187/369/26 185/421/145 183/370/145
s 33
f 192/331/45 193/373/146 190/371/146
s 38
f 193/373/147 191/358/143 189/357/143
s 37
f 183/370/145 185/421/145 17/352/140
s 36
f 94/422/2 93/343/2 14/375/2
f 14/375/2 19/380/2 96/379/2
f 14/375/2 96/379/2 95/376/2
f 97/377/2 94/422/2 14/375/2
f 96/379/2 21/381/2 20/345/2
f 20/345/2 75/411/2 98/382/2
f 99/383/2 96/379/2 20/345/2
f 105/386/2 102/387/2 190/384/2
f 190/384/2 189/423/2 106/385/2
f 91/424/2 106/385/2 189/423/2
f 189/423/2 182/425/2 184/388/2
f 184/388/2 183/426/2 13/342/2
f 13/342/2 103/409/2 85/427/2
f 13/342/2 85/427/2 83/428/2
f 91/424/2 189/423/2 184/388/2
f 90/429/2 91/424/2 184/388/2
f 13/342/2 83/428/2 81/430/2
f 13/342/2 81/430/2 80/431/2
f 92/432/2 90/429/2 184/388/2
f 88/433/2 92/432/2 184/388/2
f 184/388/2 13/342/2 80/431/2
f 184/388/2 80/431/2 82/434/2
f 89/435/2 88/433/2 184/388/2
f 87/436/2 89/435/2 184/388/2
f 184/388/2 82/434/2 84/389/2
f 86/390/2 87/436/2 184/388/2
s 34
f 46/437/1 47/394/1 192/391/1
f 22/334/1 56/404/1 53/438/1
f 22/334/1 53/438/1 48/439/1
f 57/440/1 46/437/1 192/391/1
f 49/441/1 57/440/1 192/391/1
f 22/334/1 48/439/1 54/442/1
f 22/334/1 54/442/1 51/392/1
f 55/443/1 49/441/1 192/391/1
f 52/444/1 55/443/1 192/391/1
f 192/391/1 22/334/1 51/392/1
f 50/393/1 52/444/1 192/391/1
f 71/397/1 186/399/1 191/396/1
f 191/396/1 47/394/1 45/445/1
f 191/396/1 45/445/1 44/446/1
f 42/401/148 71/397/1 191/396/1
f 191/396/1 44/446/1 43/400/1
f 70/402/1 185/360/1 187/398/1
