# Blender 5.2.2 LTS
# www.blender.org
mtllib tdrsCuerpo.mtl
g polySurface5_polySurface5
v -0.043155 0.059416 -0.021310
v -0.043155 0.059416 -0.027641
v -0.052897 0.057805 -0.024475
v -0.046156 0.058920 -0.022595
v -0.046156 0.058920 -0.026356
v -0.048064 0.058604 -0.024475
v -0.045078 0.041865 -0.023434
v -0.042553 0.041865 -0.021619
v 0.006832 0.058921 -0.184856
v 0.012739 0.058921 -0.180565
v 0.018645 0.058921 -0.176274
v -0.000468 0.055204 -0.162387
v 0.006779 0.058894 -0.184693
v -0.019581 0.058921 -0.176274
v -0.013675 0.058921 -0.180565
v -0.007769 0.058921 -0.184856
v -0.007716 0.058894 -0.184693
v -0.000468 0.055204 -0.162387
v -0.024093 0.058921 -0.162387
v -0.021837 0.058921 -0.169331
v -0.019581 0.058921 -0.148501
v -0.021837 0.058921 -0.155444
v 0.018645 0.058921 -0.148501
v 0.012739 0.058921 -0.144210
v 0.006832 0.058921 -0.139919
v 0.006724 0.058866 -0.140254
v 0.023157 0.058921 -0.162387
v 0.020901 0.058921 -0.155444
v 0.020901 0.058921 -0.169331
v -0.001087 0.058921 -0.184856
v 0.005595 0.058921 -0.184856
v 0.009003 0.058081 -0.184995
v -0.011586 0.058081 -0.184995
v -0.006287 0.058921 -0.139919
v -0.007028 0.058921 -0.139919
v -0.007769 0.058921 -0.139919
v -0.011586 0.058081 -0.139780
v -0.009303 0.058081 -0.139780
v -0.018883 0.058443 -0.187088
v -0.016928 0.057264 -0.186597
v -0.016646 0.056592 -0.186321
v -0.018570 0.057696 -0.186781
v 0.010909 0.058081 -0.139780
v 0.010739 0.058026 -0.140117
v 0.017470 0.058675 -0.138446
v 0.017470 0.058633 -0.138809
v 0.017295 0.057913 -0.138754
v 0.017295 0.057862 -0.139112
v -0.017470 0.055836 0.151850
v -0.017470 0.058913 0.176171
v -0.010909 0.058081 0.174078
v 0.000468 0.054364 0.151470
v -0.017470 0.058675 0.127529
v -0.010909 0.058081 0.128863
v 0.018883 0.058443 0.176171
v 0.018883 0.056527 0.151850
v 0.000468 0.054364 0.151470
v 0.011586 0.058081 0.174078
v 0.018883 0.058443 0.127529
v 0.011586 0.058081 0.128862
v -0.006832 0.058921 0.173939
v -0.012739 0.058921 0.169648
v -0.018645 0.058921 0.165357
v 0.000468 0.055204 0.151470
v 0.019581 0.058921 0.165357
v 0.013675 0.058921 0.169648
v 0.007769 0.058921 0.173939
v 0.000468 0.055204 0.151470
v 0.024093 0.058921 0.151470
v 0.021837 0.058921 0.158413
v 0.019581 0.058921 0.137584
v 0.021837 0.058921 0.144527
v 0.007769 0.058921 0.129002
v 0.013675 0.058921 0.133293
v -0.018645 0.058921 0.137584
v -0.012739 0.058921 0.133293
v -0.006832 0.058921 0.129002
v -0.023157 0.058921 0.151470
v -0.020901 0.058921 0.144527
v -0.020901 0.058921 0.158413
v 0.000468 0.058921 0.173939
v 0.000468 0.058921 0.129002
v 0.000000 -0.040506 0.000000
v 0.000000 -0.040506 0.016110
v 0.000000 -0.048049 0.009028
v 0.000000 -0.048049 0.000000
v 0.000000 -0.040506 -0.016110
v 0.000000 -0.048049 -0.009028
v 0.000000 -0.040506 0.032844
v 0.000000 -0.048049 0.021314
v 0.000000 -0.048049 0.000000
v 0.000000 -0.048049 0.009028
v 0.000000 -0.048049 -0.009028
v 0.000000 -0.048049 0.021314
v 0.025000 0.040506 0.000000
v 0.050000 0.040506 0.000000
v 0.050000 0.043226 0.000000
v 0.025000 0.043226 0.000000
v 0.050604 0.381343 -0.013090
v 0.052552 0.381343 -0.013090
v 0.052552 0.381343 -0.013090
v 0.050604 0.381343 -0.013090
v -0.046156 0.058920 -0.026356
v -0.046156 0.058920 -0.022595
v -0.042553 0.041865 -0.021619
v -0.042553 0.041865 -0.025288
v -0.048064 0.058604 -0.024475
v -0.045078 0.041865 -0.023434
v 0.017470 0.058891 -0.186912
v 0.017470 0.058913 -0.187088
v 0.010909 0.058081 -0.184995
v 0.010826 0.058054 -0.184831
v -0.018883 0.058443 -0.187088
v -0.018883 0.058430 -0.186912
v -0.011506 0.058054 -0.184831
v -0.011586 0.058081 -0.184995
v -0.018883 0.056527 -0.162767
v -0.018883 0.058443 -0.138446
v -0.011586 0.058081 -0.139780
v -0.000468 0.054364 -0.162387
v -0.007769 0.058921 -0.139919
v -0.013675 0.058921 -0.144210
v -0.019581 0.058921 -0.148501
v -0.000468 0.055204 -0.162387
v 0.006832 0.058921 -0.184856
v 0.006779 0.058894 -0.184693
v -0.007716 0.058894 -0.184693
v -0.007769 0.058921 -0.184856
v -0.000468 0.055204 -0.162387
v 0.006724 0.058866 -0.140254
v 0.010739 0.058026 -0.140117
v -0.000468 0.054364 -0.162387
v -0.018570 0.057696 -0.186781
v -0.018570 0.057678 -0.186607
v 0.017295 0.058110 -0.186607
v 0.017295 0.058136 -0.186781
v 0.013313 0.039595 -0.153730
v 0.013313 0.041025 -0.151515
v 0.031529 0.008555 -0.051436
v 0.031547 0.004827 -0.051422
v 0.010998 0.040234 -0.152727
v 0.028849 0.004820 -0.051429
v 0.010998 0.040407 -0.152484
v 0.028858 0.008582 -0.051450
v 0.013313 0.041047 -0.151482
v -0.010276 0.040160 -0.152537
v -0.010276 0.040340 -0.152294
v -0.028858 0.008575 -0.051436
v -0.028858 0.004826 -0.051436
v -0.012592 0.039522 -0.153537
v -0.031532 0.004822 -0.051425
v -0.012592 0.040978 -0.151294
v -0.031532 0.008587 -0.051425
v 0.009003 0.058081 -0.184995
v 0.005595 0.058921 -0.184856
v 0.006214 0.058921 -0.184856
v 0.017470 0.055836 -0.162767
v 0.012464 0.041197 0.140977
v 0.012464 0.039756 0.143235
v 0.031532 0.004832 0.051436
v 0.031555 0.008582 0.051436
v 0.010151 0.040398 0.142229
v 0.028854 0.004823 0.051436
v 0.010151 0.040554 0.141984
v 0.028858 0.008582 0.051436
v -0.013228 0.039756 0.143235
v -0.013228 0.041197 0.140977
v -0.031532 0.008582 0.051436
v -0.031532 0.004832 0.051432
v -0.010915 0.040554 0.141984
v -0.028854 0.008582 0.051460
v -0.010915 0.040398 0.142229
v -0.028854 0.004832 0.051439
v 0.000000 -0.040506 -0.051436
v -0.025000 -0.040506 -0.051436
v -0.025000 -0.020253 -0.051436
v 0.000000 -0.020253 -0.051436
v -0.050000 -0.040506 -0.051436
v -0.050000 -0.020253 -0.051436
v -0.025000 0.000000 -0.051436
v 0.000000 0.000000 -0.051436
v -0.050000 0.000000 -0.051436
v -0.025000 0.020253 -0.051436
v 0.000000 0.020253 -0.051436
v -0.025000 0.040506 -0.051436
v 0.000000 0.040506 -0.051436
v -0.050000 0.020253 -0.051436
v -0.050000 0.040506 -0.051436
v -0.025000 0.040506 -0.025718
v 0.000000 0.040506 -0.025718
v -0.050000 0.040506 -0.025718
v -0.025000 0.040506 -0.016110
v 0.000000 0.040506 -0.016110
v 0.000000 0.040506 0.000000
v -0.025000 0.040506 0.000000
v -0.025000 0.040506 0.016110
v 0.000000 0.040506 0.016110
v -0.050000 0.040506 0.000000
v -0.050000 0.040506 0.016110
v 0.000000 0.040506 0.025718
v -0.025000 0.040506 0.025718
v -0.025000 0.040506 0.051436
v 0.000000 0.040506 0.051436
v -0.050000 0.040506 0.025718
v -0.050000 0.040506 0.051436
v -0.025000 0.020253 0.051436
v 0.000000 0.020253 0.051436
v -0.050000 0.020253 0.051436
v -0.025000 0.000000 0.051436
v 0.000000 0.000000 0.051436
v -0.025000 -0.020253 0.051436
v 0.000000 -0.020253 0.051436
v -0.050000 0.000000 0.051436
v -0.050000 -0.020253 0.051436
v -0.025000 -0.040506 0.051436
v 0.000000 -0.040506 0.051436
v -0.050000 -0.040506 0.051436
v -0.017205 -0.040506 0.025718
v 0.000000 -0.040506 0.032844
v -0.050000 -0.040506 0.025718
v -0.028215 -0.040506 0.016110
v -0.050000 -0.040506 0.016110
v -0.050000 -0.040506 0.000000
v -0.032062 -0.040506 0.000000
v -0.027476 -0.040506 -0.016110
v -0.050000 -0.040506 -0.016110
v -0.050000 -0.040506 -0.025718
v -0.017056 -0.040506 -0.027839
v 0.000000 -0.040506 -0.032844
v -0.050000 -0.020253 0.025718
v -0.050000 -0.020253 0.016110
v -0.050000 -0.020253 0.000000
v -0.050000 -0.020253 -0.016110
v -0.050000 -0.020253 -0.025718
v -0.050000 0.000000 0.025718
v -0.050000 0.000000 -0.025718
v -0.050000 0.020253 0.025718
v -0.050000 0.020253 -0.025718
v -0.050000 0.020253 0.000000
v -0.050000 0.020253 0.016110
v -0.050000 0.020253 -0.016110
v -0.050000 0.040506 -0.016110
v -0.050000 -0.004914 0.008873
v -0.050000 -0.004914 0.000000
v -0.050000 -0.000000 0.014165
v -0.050000 -0.004914 0.014165
v -0.050000 -0.004914 -0.008873
v -0.050000 -0.004914 -0.014165
v -0.050000 -0.000000 -0.014165
v -0.050000 0.004914 0.014165
v -0.050000 0.004914 0.000000
v -0.050000 0.004914 0.008873
v -0.050000 0.004914 -0.014165
v -0.050000 0.004914 -0.008873
v 0.025000 -0.020253 -0.051436
v 0.025000 -0.040506 -0.051436
v 0.050000 -0.020253 -0.051436
v 0.050000 -0.040506 -0.051436
v 0.025000 0.000000 -0.051436
v 0.050000 0.000000 -0.051436
v 0.025000 0.020253 -0.051436
v 0.025000 0.040506 -0.051436
v 0.050000 0.040506 -0.051436
v 0.050000 0.020253 -0.051436
v 0.025000 0.040506 -0.025718
v 0.025000 0.043226 -0.051436
v 0.025000 0.043226 -0.025718
v 0.050000 0.043226 -0.025718
v 0.050000 0.043226 -0.051436
v 0.025000 0.040506 -0.016110
v 0.025000 0.043226 -0.016110
v 0.050000 0.043226 -0.016110
v 0.025000 0.040506 0.016110
v 0.025000 0.040506 0.000000
v 0.050000 0.040506 0.016110
v 0.050000 0.040506 0.000000
v 0.025000 0.040506 0.051436
v 0.025000 0.040506 0.025718
v 0.050000 0.040506 0.051436
v 0.050000 0.040506 0.025718
v 0.025000 0.020253 0.051436
v 0.050000 0.020253 0.051436
v 0.025000 0.000000 0.051436
v 0.025000 -0.020253 0.051436
v 0.050000 -0.020253 0.051436
v 0.050000 0.000000 0.051436
v 0.025000 -0.040506 0.051436
v 0.050000 -0.040506 0.051436
v 0.017205 -0.040506 0.025718
v 0.050000 -0.040506 0.025718
v 0.028215 -0.040506 0.016110
v 0.032062 -0.040506 0.000000
v 0.050000 -0.040506 0.000000
v 0.050000 -0.040506 0.016110
v 0.027476 -0.040506 -0.016110
v 0.017056 -0.040506 -0.027839
v 0.050000 -0.040506 -0.025718
v 0.050000 -0.040506 -0.016110
v 0.050000 -0.020253 0.025718
v 0.050000 -0.020253 0.000000
v 0.050000 -0.020253 0.016110
v 0.050000 -0.020253 -0.025718
v 0.050000 -0.020253 -0.016110
v 0.050000 0.000000 0.025718
v 0.050000 0.000000 -0.025718
v 0.050000 0.020253 0.025718
v 0.050000 0.020253 -0.025718
v 0.050000 0.020253 0.000000
v 0.050000 0.020253 0.016110
v 0.053146 0.028219 -0.023156
v 0.052576 0.034179 -0.022236
v 0.052576 0.034179 -0.019720
v 0.053146 0.028219 -0.018672
v 0.050000 0.040506 -0.025718
v 0.050000 -0.004914 0.000000
v 0.050000 -0.004914 0.008873
v 0.050000 -0.004914 0.014165
v 0.050000 -0.000000 0.014165
v 0.050000 -0.004914 -0.014165
v 0.050000 -0.004914 -0.008873
v 0.050000 -0.000000 -0.014165
v 0.050000 0.004914 0.014165
v 0.050000 0.004914 0.008873
v 0.050000 0.004914 0.000000
v 0.050000 0.020253 -0.016110
v 0.050000 0.004914 -0.008873
v 0.050000 0.004914 -0.014165
v 0.050000 0.040506 -0.016110
v 0.025000 0.043226 0.000000
v 0.050000 0.043226 0.000000
v -0.031532 0.008582 0.051436
v -0.028854 0.008582 0.051436
v -0.031532 0.004832 0.051436
v -0.028854 0.004832 0.051436
v 0.000000 -0.040506 -0.032844
v 0.000000 -0.040506 -0.016110
v 0.000000 -0.048049 -0.009028
v 0.000000 -0.048049 -0.021314
v 0.000000 -0.048049 -0.021314
v 0.000000 -0.048049 -0.009028
v -0.045078 0.040506 -0.025288
v -0.042553 0.040506 -0.025288
v -0.045078 0.040506 -0.021619
v -0.042553 0.040506 -0.021619
v 0.050579 0.034179 -0.022236
v 0.049961 0.028219 -0.023156
v 0.050579 0.034179 -0.019720
v 0.049961 0.028219 -0.018672
v 0.050579 0.393379 -0.019720
v 0.050579 0.393379 -0.022236
v 0.052576 0.393379 -0.019720
v 0.052576 0.393379 -0.022236
v -0.013948 0.046697 -0.143280
v -0.012494 0.046697 -0.143280
v -0.016646 0.056592 -0.139214
v -0.018570 0.057696 -0.138754
v 0.000382 0.046697 -0.143280
v 0.013499 0.046697 -0.143280
v 0.015862 0.056973 -0.139138
v 0.000382 0.046811 -0.143283
v -0.018883 0.058443 -0.138446
v -0.016928 0.057264 -0.138937
v -0.009303 0.058081 -0.139780
v -0.011586 0.058081 -0.139780
v 0.000382 0.046819 -0.143284
v 0.016022 0.057671 -0.138856
v 0.017470 0.058675 -0.138446
v 0.010909 0.058081 -0.139780
v -0.011586 0.058081 -0.184995
v 0.000382 0.046819 -0.182251
v -0.016928 0.057264 -0.186597
v -0.018883 0.058443 -0.187088
v 0.009003 0.058081 -0.184995
v 0.016022 0.057889 -0.186678
v -0.018570 0.057696 -0.186781
v -0.016646 0.056592 -0.186321
v -0.012494 0.046697 -0.182255
v -0.013948 0.046697 -0.182255
v 0.000382 0.046811 -0.182251
v 0.015862 0.057177 -0.186397
v 0.013499 0.046697 -0.182255
v 0.000382 0.046697 -0.182255
v -0.012494 0.046606 -0.182114
v -0.013948 0.046606 -0.182114
v 0.013499 0.046606 -0.182114
v 0.000382 0.046606 -0.182114
v -0.006465 0.039803 -0.154079
v -0.005770 0.039803 -0.154079
v -0.005770 0.041150 -0.151968
v -0.006465 0.041150 -0.151968
v 0.000382 0.039803 -0.154079
v 0.006649 0.039803 -0.154079
v 0.006649 0.041150 -0.151968
v 0.000382 0.041150 -0.151968
v 0.014713 0.046606 -0.182114
v 0.014713 0.046697 -0.182255
v 0.017295 0.058136 -0.186781
v 0.017295 0.058110 -0.186607
v 0.014713 0.046511 -0.143570
v 0.014713 0.034256 -0.162767
v 0.017295 0.054464 -0.162767
v 0.017295 0.057862 -0.139112
v 0.017470 0.058633 -0.138809
v 0.017470 0.055836 -0.162767
v -0.000468 0.054364 -0.162387
v 0.010739 0.058026 -0.140117
v -0.018570 0.057678 -0.186607
v -0.013948 0.034256 -0.162767
v -0.018570 0.055111 -0.162767
v -0.012494 0.034256 -0.162767
v 0.000382 0.034256 -0.162767
v 0.013499 0.034256 -0.162767
v -0.012464 0.039756 -0.154152
v -0.012464 0.041197 -0.151894
v -0.010151 0.040398 -0.153146
v -0.010151 0.040554 -0.152901
v 0.013228 0.041175 -0.151928
v 0.013228 0.039756 -0.154152
v 0.014713 0.046697 -0.143280
v 0.007229 0.041150 -0.151968
v 0.010915 0.040554 -0.152901
v 0.013228 0.041197 -0.151894
v 0.007229 0.039803 -0.154079
v 0.010915 0.040398 -0.153146
v -0.012592 0.039522 -0.153537
v -0.012592 0.040978 -0.151294
v -0.010276 0.040160 -0.152537
v -0.010276 0.040340 -0.152294
v 0.013313 0.041025 -0.151515
v 0.013313 0.039595 -0.153730
v 0.010998 0.040407 -0.152484
v 0.013313 0.041047 -0.151482
v 0.010998 0.040234 -0.152727
v -0.018883 0.056527 -0.162767
v 0.006832 0.058921 -0.139919
v 0.000273 0.058921 -0.139919
v -0.006287 0.058921 -0.139919
v 0.010909 0.058081 -0.184995
v 0.017470 0.058913 -0.187088
v 0.017295 0.057913 -0.138754
v 0.017470 0.058891 -0.186912
v -0.018883 0.058430 -0.186912
v 0.013948 0.046697 0.132362
v -0.000382 0.046697 0.132362
v -0.000382 0.046819 0.132366
v 0.018883 0.058443 0.127529
v -0.014713 0.046697 0.132362
v -0.017470 0.058675 0.127529
v -0.010909 0.058081 0.128863
v 0.011586 0.058081 0.128862
v 0.011586 0.058081 0.174078
v -0.000382 0.046819 0.171334
v 0.018883 0.058443 0.176171
v -0.010909 0.058081 0.174078
v -0.017470 0.058913 0.176171
v -0.000382 0.046697 0.171338
v 0.013948 0.046697 0.171338
v -0.014713 0.046697 0.171338
v -0.000382 0.034256 0.151850
v 0.013948 0.034256 0.151850
v -0.014713 0.034256 0.151850
v 0.006465 0.039803 0.143162
v -0.000382 0.039803 0.143162
v -0.000382 0.041150 0.141051
v 0.006465 0.041150 0.141051
v -0.007229 0.039803 0.143162
v -0.007229 0.041150 0.141051
v -0.017470 0.055836 0.151850
v 0.018883 0.056527 0.151850
v 0.012464 0.039756 0.143235
v 0.012464 0.041197 0.140977
v 0.010151 0.040398 0.142229
v 0.010151 0.040554 0.141984
v -0.013228 0.041197 0.140977
v -0.013228 0.039756 0.143235
v -0.010915 0.040554 0.141984
v -0.010915 0.040398 0.142229
v 0.000000 -0.048049 0.009028
v -0.019338 -0.048049 0.009028
v -0.020917 -0.048049 0.000000
v 0.000000 -0.048049 0.000000
v 0.000000 -0.048049 -0.009028
v -0.019338 -0.048049 -0.009028
v -0.012629 -0.048049 -0.018269
v 0.000000 -0.048049 -0.021314
v 0.000000 -0.048049 0.021314
v -0.012629 -0.048049 0.018269
v 0.020917 -0.048049 0.000000
v 0.019338 -0.048049 0.009028
v 0.000000 -0.048049 -0.021314
v 0.012629 -0.048049 -0.018269
v 0.019338 -0.048049 -0.009028
v 0.000000 -0.048049 0.021314
v 0.012629 -0.048049 0.018269
v -0.050000 -0.004914 0.000000
v -0.050000 -0.004914 0.008873
v -0.089898 -0.001487 0.026755
v -0.089898 -0.001487 0.000000
v -0.089898 -0.001487 -0.026755
v -0.050000 -0.004914 -0.008873
v 0.050000 0.004914 0.008873
v 0.089898 0.001487 0.026755
v 0.089898 0.001487 -0.000000
v 0.050000 0.004914 0.000000
v 0.089898 0.001487 -0.026755
v 0.050000 0.004914 -0.008873
v -0.028215 -0.040506 0.016110
v -0.032062 -0.040506 0.000000
v -0.020917 -0.048049 0.000000
v -0.019338 -0.048049 0.009028
v -0.027476 -0.040506 -0.016110
v -0.017056 -0.040506 -0.027839
v -0.012629 -0.048049 -0.018269
v -0.019338 -0.048049 -0.009028
v 0.000000 -0.040506 -0.032844
v 0.000000 -0.048049 -0.021314
v 0.000000 -0.040506 0.032844
v -0.017205 -0.040506 0.025718
v -0.012629 -0.048049 0.018269
v 0.000000 -0.048049 0.021314
v 0.032062 -0.040506 0.000000
v 0.028215 -0.040506 0.016110
v 0.019338 -0.048049 0.009028
v 0.020917 -0.048049 0.000000
v 0.017056 -0.040506 -0.027839
v 0.012629 -0.048049 -0.018269
v 0.000000 -0.048049 -0.021314
v 0.027476 -0.040506 -0.016110
v 0.019338 -0.048049 -0.009028
v 0.017205 -0.040506 0.025718
v 0.012629 -0.048049 0.018269
v 0.000000 -0.048049 0.021314
v 0.050579 0.400811 -0.022236
v 0.050579 0.400811 -0.019720
v 0.052576 0.400811 -0.019720
v 0.052576 0.400811 -0.022236
v 0.052552 0.381343 -0.029029
v 0.050604 0.381343 -0.029029
v 0.050604 0.391727 -0.025936
v 0.052552 0.391727 -0.025936
v 0.056685 0.385358 -0.019751
v 0.056685 0.385358 -0.022205
v 0.055081 0.393246 -0.022205
v 0.055081 0.393246 -0.019751
v 0.050604 0.381343 -0.013090
v 0.052552 0.381343 -0.013090
v 0.052552 0.391727 -0.016183
v 0.050604 0.391727 -0.016183
v 0.046278 0.385267 -0.022205
v 0.046278 0.385267 -0.019751
v 0.047900 0.393428 -0.019751
v 0.047900 0.393428 -0.022205
v 0.052576 0.393379 -0.022236
v 0.050579 0.393379 -0.022236
v 0.050579 0.393379 -0.019720
v 0.052576 0.393379 -0.019720
v 0.052552 0.381343 -0.013090
v 0.050604 0.381343 -0.013090
v 0.052552 0.391727 -0.016183
v 0.050604 0.391727 -0.016183
vn -0.1726 -0.9780 0.1175
vn -0.1621 -0.9814 -0.1026
vn 0.3176 -0.8753 0.3646
vn 0.3094 -0.8853 -0.3471
vn 0.0151 -0.9999 -0.0000
vn -0.3884 -0.9215 0.0039
vn 0.3094 -0.8853 -0.3470
vn -0.9604 0.2786 0.0051
vn 0.5280 0.3302 0.7824
vn 0.5860 0.7284 0.3550
vn 0.3210 0.1339 -0.9375
vn 0.0959 -0.9866 -0.1321
vn 0.1257 -0.9878 -0.0914
vn 0.4962 -0.8682 -0.0005
vn -0.5038 -0.8638 0.0002
vn -0.1257 -0.9878 -0.0914
vn -0.0959 -0.9866 -0.1320
vn -0.3349 0.1300 -0.9333
vn -0.6086 0.7080 0.3582
vn -0.1554 -0.9878 -0.0000
vn -0.1551 -0.9866 -0.0504
vn -0.1552 -0.9866 0.0504
vn -0.1258 -0.9878 0.0913
vn 0.1257 -0.9878 0.0914
vn 0.0959 -0.9866 0.1320
vn 0.3218 0.1337 0.9373
vn 0.5881 0.7265 -0.3553
vn 0.1552 -0.9866 0.0504
vn 0.1554 -0.9878 -0.0000
vn 0.1551 -0.9866 -0.0504
vn 0.0051 0.6094 -0.7929
vn -0.3347 0.1298 -0.9333
vn -0.0000 0.1632 -0.9866
vn -0.0819 0.1649 -0.9829
vn 0.0452 0.0395 0.9982
vn -0.0000 0.1633 0.9866
vn -0.5141 0.0467 0.8565
vn -0.0601 0.8017 0.5947
vn -0.3203 0.1440 -0.9363
vn 0.0992 -0.2375 -0.9663
vn 0.0041 -0.3767 -0.9263
vn -0.5716 -0.5051 -0.6467
vn -0.0030 0.5547 0.8320
vn 0.1121 0.9733 -0.2005
vn 0.3652 0.1292 0.9219
vn 0.7514 0.6551 -0.0786
vn 0.6364 -0.4091 0.6539
vn 0.9770 -0.2068 0.0520
vn -0.7409 0.6716 -0.0017
vn -0.4073 0.1358 0.9031
vn -0.0934 0.7644 0.6380
vn -0.1547 0.9880 -0.0012
vn -0.3570 0.1601 -0.9203
vn -0.0491 0.5480 -0.8350
vn 0.2902 0.1928 0.9373
vn 0.7756 0.6313 -0.0006
vn 0.1603 0.9871 -0.0004
vn 0.0294 0.6023 0.7977
vn 0.3956 0.0329 -0.9178
vn 0.1097 0.7462 -0.6566
vn -0.4954 0.0583 0.8667
vn -0.0958 -0.9866 0.1318
vn -0.1257 -0.9879 0.0913
vn -0.4950 -0.8689 -0.0000
vn 0.0958 -0.9866 0.1318
vn 0.5141 0.0467 0.8565
vn 0.5036 -0.8639 -0.0000
vn 0.1550 -0.9866 0.0504
vn 0.1552 -0.9866 -0.0505
vn 0.5140 0.0467 -0.8565
vn 0.0958 -0.9866 -0.1318
vn -0.1257 -0.9879 -0.0913
vn -0.0958 -0.9866 -0.1318
vn -0.4954 0.0583 -0.8667
vn -0.1556 -0.9878 -0.0000
vn -0.1550 -0.9866 -0.0504
vn -0.1550 -0.9866 0.0504
vn -0.0000 0.1632 0.9866
vn -0.0000 0.1633 -0.9866
vn -1.0000 -0.0003 -0.0000
vn 1.0000 -0.0000 -0.0000
vn -1.0000 -0.0003 -0.0002
vn -1.0000 -0.0000 -0.0000
vn -1.0000 -0.0003 -0.0001
vn -0.3016 0.9044 0.3018
vn 0.9044 0.3015 0.3018
vn 0.5773 0.5774 0.5774
vn -0.5774 0.5773 0.5774
vn -0.0000 1.0000 -0.0000
vn 0.3096 -0.8851 -0.3476
vn 0.3175 -0.8754 0.3646
vn 0.5282 0.3302 0.7823
vn 0.5397 0.2929 -0.7892
vn -0.3887 -0.9213 0.0035
vn -0.9604 0.2785 0.0051
vn 0.7469 0.6602 0.0796
vn 0.3155 0.4465 -0.8373
vn -0.0453 0.8722 -0.4871
vn 0.1056 0.9738 0.2015
vn -0.3202 0.1438 -0.9364
vn -0.8030 0.5921 0.0680
vn -0.1300 0.9721 0.1953
vn 0.0050 0.6096 -0.7927
vn -0.7744 0.6327 0.0007
vn -0.3567 0.2101 0.9103
vn -0.0601 0.8014 0.5951
vn -0.1609 0.9870 0.0006
vn -0.1257 -0.9878 0.0914
vn -0.5039 -0.8638 0.0002
vn 0.3212 0.1339 -0.9375
vn -0.3350 0.1297 -0.9333
vn 0.4966 -0.8680 -0.0003
vn 0.5881 0.7265 -0.3555
vn 0.1124 0.9732 -0.2006
vn 0.1567 0.9876 0.0010
vn -0.5712 -0.5050 -0.6470
vn -0.9326 -0.3522 -0.0786
vn 0.9774 -0.2048 -0.0530
vn 0.6375 -0.4030 -0.6566
vn 0.6227 -0.6892 -0.3705
vn 0.9782 0.1611 -0.1311
vn 0.6166 0.4082 -0.6733
vn 0.2973 -0.3191 -0.8999
vn -0.7748 -0.6267 -0.0833
vn -0.4476 -0.3640 -0.8168
vn -0.8060 0.4987 0.3188
vn -0.5528 0.4352 -0.7106
vn 0.5301 0.8288 0.1793
vn 0.7734 -0.6291 -0.0781
vn 0.8066 0.4944 0.3239
vn 0.5563 0.4337 -0.7088
vn 0.4483 -0.3661 -0.8154
vn -0.6219 -0.6878 -0.3745
vn -0.2955 -0.3188 -0.9006
vn -0.5516 0.8166 0.1699
vn -0.3572 0.4453 -0.8210
vn -0.0818 0.1649 -0.9829
vn 0.7395 0.6732 0.0013
vn 0.4798 -0.4261 -0.7670
vn 0.2930 -0.9325 -0.2114
vn 0.2891 -0.3099 0.9058
vn 0.3580 0.4454 0.8206
vn -0.3842 -0.8679 -0.3149
vn -0.4475 -0.3621 0.8177
vn -0.5408 -0.3636 -0.7585
vn -0.5683 0.4368 0.6973
vn -0.2931 -0.9318 -0.2141
vn -0.4778 -0.4245 -0.7691
vn -0.6186 0.7708 -0.1523
vn -0.6292 -0.6733 0.3882
vn 0.5438 -0.3643 -0.7560
vn 0.7431 0.5694 -0.3516
vn 0.3857 -0.8681 -0.3125
vn 0.7754 -0.6254 0.0878
vn -0.0000 -0.7071 -0.7071
vn -0.0000 -0.0000 -1.0000
vn -0.5774 -0.5774 -0.5773
vn -0.7071 -0.0000 -0.7071
vn -0.5550 0.0005 -0.8319
vn -0.0003 0.0002 -1.0000
vn -0.0000 0.7071 -0.7071
vn -0.5549 -0.0002 -0.8319
vn -0.5773 0.5773 -0.5774
vn -0.5550 0.8319 -0.0000
vn -0.7071 0.7071 -0.0000
vn -0.0000 0.7071 0.7071
vn -0.5774 0.5774 0.5773
vn -0.0000 -0.0000 1.0000
vn -0.5550 -0.0000 0.8318
vn -0.7071 -0.0000 0.7071
vn -0.0000 -0.7071 0.7071
vn -0.5773 -0.5773 0.5774
vn -0.1350 -0.9683 0.2101
vn -0.0000 -0.9513 0.3081
vn -0.7071 -0.7071 -0.0000
vn -0.2669 -0.9532 0.1421
vn -0.3018 -0.9533 -0.0049
vn -0.2742 -0.9519 -0.1369
vn -0.1287 -0.9722 -0.1958
vn -0.0000 -0.9567 -0.2911
vn -0.5550 0.8318 -0.0000
vn -0.7365 -0.6764 -0.0000
vn -0.4575 -0.0000 0.8892
vn -0.7598 -0.5037 0.4111
vn -0.7598 -0.5037 -0.4112
vn -0.4575 -0.0000 -0.8892
vn -0.7598 0.5037 0.4112
vn -0.7365 0.6764 -0.0000
vn -0.7598 0.5037 -0.4111
vn 0.7071 -0.0000 -0.7071
vn 0.5774 -0.5774 -0.5773
vn -0.0002 0.0003 -1.0000
vn 0.0002 -0.0000 -1.0000
vn 0.5550 0.0005 -0.8318
vn -0.3015 0.3015 -0.9045
vn -0.0000 0.0001 -1.0000
vn 0.5550 -0.0001 -0.8318
vn -0.5773 0.5774 -0.5773
vn 0.7071 0.7071 -0.0000
vn 0.5774 0.5773 -0.5773
vn -0.3015 0.9046 0.3013
vn 0.9046 0.3015 0.3012
vn 0.5774 0.5774 0.5773
vn 0.5550 -0.0000 0.8319
vn 0.7071 -0.0000 0.7071
vn 0.5773 -0.5773 0.5774
vn 0.1350 -0.9683 0.2101
vn 0.7071 -0.7071 -0.0000
vn 0.2669 -0.9532 0.1421
vn 0.3018 -0.9533 -0.0049
vn 0.2741 -0.9519 -0.1369
vn 0.1287 -0.9722 -0.1957
vn 0.9999 -0.0026 -0.0139
vn 0.6254 -0.4726 -0.6209
vn 0.7056 0.0876 -0.7031
vn 0.7058 0.0949 0.7020
vn 0.6301 -0.4630 0.6234
vn 0.9998 0.0141 -0.0167
vn 0.7365 -0.6764 -0.0000
vn 0.7598 -0.5037 0.4112
vn 0.4575 -0.0000 0.8892
vn 0.7598 -0.5037 -0.4111
vn 0.4575 -0.0000 -0.8892
vn 0.7598 0.5037 0.4111
vn 0.7365 0.6764 -0.0000
vn 0.9999 -0.0031 0.0164
vn 0.7598 0.5037 -0.4112
vn 0.9998 0.0142 0.0164
vn -0.5773 0.5773 0.5774
vn 0.5773 0.5773 0.5774
vn -1.0000 -0.0002 -0.0002
vn -0.4363 0.8592 -0.2673
vn 0.2576 0.9226 -0.2871
vn -0.4359 0.8585 0.2701
vn 0.2596 0.9212 0.2899
vn 0.4301 0.0967 -0.8976
vn 0.8233 -0.3560 -0.4420
vn 0.4306 0.1058 0.8963
vn 0.8268 -0.3486 0.4415
vn -0.6070 -0.5105 0.6090
vn -0.6046 -0.5133 -0.6091
vn 0.6073 -0.5063 0.6123
vn 0.6048 -0.5092 -0.6123
vn -0.2236 -0.7517 0.6205
vn 0.0014 -0.6402 0.7682
vn 0.0041 -0.3767 0.9263
vn -0.6244 -0.4362 0.6479
vn -0.0000 -0.6378 0.7702
vn -0.0013 -0.6378 0.7702
vn -0.0038 -0.3715 0.9284
vn 0.0001 -0.3713 0.9285
vn -0.3564 0.2107 0.9102
vn 0.0482 -0.2361 0.9705
vn 0.0453 0.0390 0.9982
vn -0.0664 -0.2933 0.9537
vn 0.3651 0.1292 0.9219
vn -0.0029 0.5547 0.8320
vn -0.0376 -0.2870 0.9572
vn 0.0556 -0.2217 -0.9735
vn 0.0995 -0.2370 -0.9664
vn -0.3204 0.1438 -0.9363
vn -0.0820 0.1646 -0.9829
vn -0.0878 -0.1137 -0.9896
vn -0.5716 -0.5051 -0.6466
vn 0.0012 -0.6406 -0.7678
vn -0.3583 -0.6688 -0.6515
vn 0.0001 -0.3681 -0.9298
vn -0.0039 -0.3650 -0.9310
vn -0.0011 -0.6356 -0.7720
vn 0.0001 -0.6365 -0.7713
vn -0.0000 -0.8429 -0.5381
vn -0.5561 -0.7280 -0.4009
vn -0.0000 -0.8429 0.5381
vn 0.6232 -0.6751 -0.3947
vn 0.4096 -0.6238 -0.6657
vn 0.6375 -0.4030 -0.6567
vn 0.9774 -0.2047 -0.0528
vn 0.6225 -0.6762 0.3941
vn 0.4539 -0.8559 0.2478
vn 0.9860 -0.1669 -0.0005
vn 0.7512 0.6554 -0.0787
vn 0.7395 0.6732 0.0012
vn 0.1565 0.9877 0.0008
vn 0.1118 0.9733 -0.2004
vn -0.4216 -0.8750 0.2380
vn -0.9581 -0.2866 -0.0000
vn -0.0000 -1.0000 -0.0000
vn -0.2385 -0.9339 0.2665
vn -0.3617 -0.4100 0.8373
vn 0.4158 -0.8613 0.2920
vn 0.5849 -0.4446 0.6784
vn 0.7851 -0.5224 0.3329
vn 0.2383 -0.9338 0.2668
vn 0.2276 -0.7477 0.6238
vn -0.5875 -0.4434 0.6769
vn 0.3626 -0.4109 0.8364
vn -0.4176 -0.8612 0.2898
vn -0.6224 -0.6873 -0.3745
vn -0.5514 0.8168 0.1700
vn 0.7736 -0.6289 -0.0779
vn 0.8063 0.4949 0.3240
vn 0.6233 -0.6887 -0.3704
vn -0.8057 0.4992 0.3190
vn 0.5298 0.8289 0.1794
vn -0.7750 -0.6265 -0.0831
vn -0.7742 0.6330 0.0007
vn 0.3216 0.1337 0.9374
vn -0.0455 0.8724 -0.4866
vn 0.3156 0.4467 -0.8372
vn 0.7471 0.6599 0.0795
vn -0.8032 0.5918 0.0680
vn 0.2236 -0.7516 -0.6205
vn 0.0001 -0.6381 -0.7699
vn 0.0370 -0.2855 -0.9577
vn 0.3957 0.0328 -0.9178
vn -0.2370 -0.7409 -0.6285
vn 0.1097 0.7464 -0.6564
vn -0.0492 0.5480 -0.8350
vn 0.0295 0.6024 0.7976
vn -0.0546 -0.2191 0.9742
vn 0.2901 0.1934 0.9373
vn -0.0934 0.7645 0.6378
vn -0.0001 -0.6368 0.7710
vn 0.4007 -0.6369 0.6586
vn -0.4303 -0.6037 0.6711
vn 0.4219 -0.8749 -0.2379
vn -0.4539 -0.8559 -0.2477
vn -0.7406 0.6719 -0.0016
vn 0.7755 0.6313 -0.0007
vn 0.2929 -0.9325 -0.2114
vn 0.4802 -0.4256 -0.7670
vn -0.5412 -0.3632 -0.7584
vn -0.4781 -0.4240 -0.7692
vn -0.2929 -0.9319 -0.2141
vn 0.5442 -0.3639 -0.7559
vn 0.3855 -0.8682 -0.3123
vn -0.2669 -0.9532 0.1422
vn -0.2741 -0.9519 -0.1369
vn -0.2150 -0.9203 -0.3269
vn -0.0787 -0.9537 -0.2902
vn -0.1045 -0.9461 0.3065
vn -0.2251 -0.9092 0.3503
vn 0.2669 -0.9532 0.1422
vn 0.0787 -0.9537 -0.2902
vn 0.2149 -0.9203 -0.3269
vn 0.1044 -0.9461 0.3065
vn 0.2251 -0.9092 0.3503
vn -0.7370 -0.6759 -0.0000
vn -0.0428 -0.9991 -0.0000
vn 0.7369 0.6759 -0.0000
vn 0.0429 0.9991 -0.0000
vn 0.0428 0.9991 -0.0000
vn -0.2675 -0.9530 0.1423
vn -0.3024 -0.9532 -0.0049
vn -0.3024 -0.9532 -0.0051
vn -0.2674 -0.9530 0.1424
vn -0.2746 -0.9517 -0.1372
vn -0.1290 -0.9720 -0.1963
vn -0.2153 -0.9201 -0.3273
vn -0.2746 -0.9517 -0.1371
vn -0.0002 -0.9565 -0.2916
vn -0.0788 -0.9536 -0.2907
vn -0.0002 -0.9512 0.3086
vn -0.1350 -0.9682 0.2105
vn -0.2253 -0.9090 0.3505
vn -0.1046 -0.9460 0.3070
vn 0.3024 -0.9532 -0.0049
vn 0.2674 -0.9530 0.1424
vn 0.2674 -0.9530 0.1425
vn 0.3024 -0.9532 -0.0048
vn 0.0001 -0.9565 -0.2916
vn 0.1290 -0.9720 -0.1962
vn 0.2153 -0.9201 -0.3273
vn 0.0788 -0.9536 -0.2907
vn 0.2746 -0.9517 -0.1372
vn 0.2747 -0.9517 -0.1371
vn 0.1353 -0.9682 0.2103
vn 0.2253 -0.9090 0.3505
vn 0.0002 -0.9512 0.3086
vn 0.1047 -0.9460 0.3069
vn -0.6019 0.5313 -0.5962
vn -0.6026 0.5274 0.5989
vn 0.6073 0.5204 0.6003
vn 0.6065 0.5243 -0.5977
vn 0.9756 -0.1994 -0.0923
vn -0.9756 -0.1994 -0.0923
vn -0.4467 0.2963 -0.8442
vn 0.4467 0.2963 -0.8442
vn 0.0985 -0.2458 0.9643
vn 0.0985 -0.2458 -0.9643
vn 0.8652 0.2294 -0.4460
vn 0.8652 0.2294 0.4459
vn -0.0000 0.2855 0.9584
vn -0.1043 -0.2610 -0.9597
vn -0.1044 -0.2610 0.9597
vn -0.8621 0.2397 0.4465
vn -0.8621 0.2397 -0.4465
vn 0.6047 -0.5094 -0.6122
vn -0.6045 -0.5135 -0.6090
vn -0.6070 -0.5107 0.6089
vn 0.6072 -0.5066 0.6122
vn 0.7096 -0.3415 -0.6163
vn 0.1327 -0.5040 0.8534
vn 0.7044 0.2563 0.6619
vn -0.7045 0.2563 0.6618
vn -0.6943 -0.5977 0.4008
vn 0.9491 -0.3149 -0.0000
vn -0.0000 0.7541 0.6568
s 1
g off
g polySurface5_lambert2
usemtl lambert2
f 2//1 1//2 4//3
f 2//1 4//3 5//4
f 4//3 1//2 3//5
f 4//3 3//5 6//6
f 5//7 6//6 3//5
f 4//3 6//6 7//8
f 4//3 7//8 8//9
s 2
f 13//10 9//11 10//12
f 13//10 10//12 11//13
f 11//13 12//14 13//10
s 3
f 18//15 14//16 15//17
f 18//15 15//17 16//18
f 16//18 17//19 18//15
f 19//20 20//21 14//16
f 19//20 14//16 18//15
f 22//22 19//20 18//15
f 22//22 18//15 21//23
s 2
f 12//14 23//24 24//25
f 24//25 25//26 26//27
f 24//25 26//27 12//14
f 28//28 23//24 12//14
f 28//28 12//14 27//29
f 11//13 29//30 27//29
f 11//13 27//29 12//14
s 4
f 33//31 16//32 30//33
f 33//31 30//33 31//33
f 31//33 32//34 33//31
s 5
f 38//35 34//36 35//36
f 38//35 35//36 36//37
f 36//37 37//38 38//35
s 6
f 39//39 40//40 41//41
f 39//39 41//41 42//42
s 2
f 26//27 25//26 43//43
f 26//27 43//43 44//44
f 45//45 46//46 44//44
f 45//45 44//44 43//43
f 47//47 48//48 46//46
f 47//47 46//46 45//45
s 7
f 49//49 50//50 51//51
f 49//49 51//51 52//52
f 53//53 49//49 52//52
f 53//53 52//52 54//54
f 55//55 56//56 57//57
f 55//55 57//57 58//58
f 56//56 59//59 60//60
f 56//56 60//60 57//57
f 61//61 62//62 63//63
f 61//61 63//63 64//64
f 65//24 66//65 67//66
f 65//24 67//66 68//67
f 69//29 70//68 65//24
f 69//29 65//24 68//67
f 71//13 72//69 69//29
f 71//13 69//29 68//67
f 73//70 74//71 71//13
f 73//70 71//13 68//67
f 75//72 76//73 77//74
f 75//72 77//74 64//64
f 78//75 79//76 75//72
f 78//75 75//72 64//64
f 63//63 80//77 78//75
f 63//63 78//75 64//64
f 58//58 67//66 81//78
f 58//58 81//78 61//61
f 61//61 51//51 58//58
f 61//61 64//64 52//52
f 61//61 52//52 51//51
f 68//67 67//66 58//58
f 68//67 58//58 57//57
f 54//54 77//74 82//79
f 54//54 82//79 73//70
f 73//70 60//60 54//54
f 73//70 68//67 57//57
f 73//70 57//57 60//60
f 64//64 77//74 54//54
f 64//64 54//54 52//52
s 0
f 83//80 84//81 85//81
f 83//82 85//81 86//81
f 87//83 83//83 86//81
f 87//84 86//81 88//81
f 84//81 89//81 90//81
f 84//81 90//81 85//81
f 84//81 83//83 91//83
f 84//81 91//83 92//83
f 83//83 87//83 93//83
f 83//83 93//83 91//83
f 89//81 84//81 92//83
f 89//81 92//83 94//83
s 20
f 95//85 96//86 97//87
f 95//85 97//87 98//88
s 21
f 99//83 100//89 101//81
f 99//83 101//81 102//89
s 22
g polySurface5_TDRSMainBodyGray
usemtl TDRSMainBodyGray
f 103//90 104//91 105//92
f 103//90 105//92 106//93
f 107//94 103//90 106//93
f 107//94 106//93 108//95
s 23
f 109//96 110//97 111//98
f 109//96 111//98 112//99
s 24
f 113//100 114//101 115//102
f 113//100 115//102 116//103
f 117//104 118//105 119//106
f 117//104 119//106 120//107
f 121//37 122//62 123//108
f 121//37 123//108 124//109
s 23
f 125//110 126//10 112//99
f 125//110 112//99 111//98
s 24
f 127//19 128//111 116//103
f 127//19 116//103 115//102
f 121//37 124//109 120//107
f 121//37 120//107 119//106
s 23
f 129//112 130//113 131//114
f 129//112 131//114 132//115
s 24
f 133//116 134//117 114//101
f 133//116 114//101 113//100
s 23
f 135//118 136//119 110//97
f 135//118 110//97 109//96
s 22
f 137//120 138//121 139//122
f 137//120 139//122 140//123
f 141//124 137//120 140//123
f 141//124 140//123 142//125
f 143//126 141//124 142//125
f 143//126 142//125 144//127
f 145//128 143//126 144//127
f 145//128 144//127 139//122
f 146//129 147//130 148//131
f 146//129 148//131 149//132
f 150//133 146//129 149//132
f 150//133 149//132 151//134
f 152//135 150//133 151//134
f 152//135 151//134 153//136
f 147//130 152//135 153//136
f 147//130 153//136 148//131
s 23
f 111//98 154//137 155//33
f 111//98 155//33 156//33
f 156//33 125//110 111//98
f 126//10 129//112 132//115
f 126//10 132//115 112//99
f 157//138 109//96 112//99
f 157//138 112//99 132//115
s 24
f 115//102 114//101 117//104
f 115//102 117//104 120//107
f 124//109 127//19 115//102
f 124//109 115//102 120//107
s 22
f 139//122 138//121 145//128
f 158//139 159//140 160//141
f 158//139 160//141 161//142
f 159//140 162//143 163//144
f 159//140 163//144 160//141
f 162//143 164//145 165//146
f 162//143 165//146 163//144
f 164//145 158//139 161//142
f 164//145 161//142 165//146
s 25
f 166//147 167//148 168//149
f 166//147 168//149 169//150
f 167//148 170//151 171//152
f 167//148 171//152 168//149
f 170//151 172//153 173//154
f 170//151 173//154 171//152
f 172//153 166//147 169//150
f 172//153 169//150 173//154
s 22
f 174//155 175//155 176//156
f 174//155 176//156 177//156
f 175//155 178//157 179//158
f 175//155 179//158 176//156
s 0
f 177//156 176//156 180//156
f 177//156 180//156 181//156
s 22
f 176//156 179//158 182//159
f 176//156 182//159 180//160
s 0
f 181//156 180//156 183//156
f 181//156 183//156 184//156
s 22
f 184//156 183//156 185//161
f 184//156 185//161 186//161
f 183//156 187//162 188//163
f 183//156 188//163 185//161
f 186//161 185//161 189//89
f 186//161 189//89 190//89
f 185//161 188//163 191//164
f 185//161 191//164 189//89
s 0
f 190//89 189//89 192//89
f 190//89 192//89 193//89
f 194//89 195//89 196//89
f 194//89 196//89 197//89
s 22
f 195//89 198//165 199//165
f 195//89 199//165 196//89
f 200//89 201//89 202//166
f 200//89 202//166 203//166
f 201//89 204//165 205//167
f 201//89 205//167 202//166
f 203//166 202//166 206//168
f 203//166 206//168 207//168
f 202//166 205//167 208//169
f 202//166 208//169 206//168
s 0
f 207//168 206//168 209//168
f 207//168 209//168 210//168
f 210//168 209//168 211//168
f 210//168 211//168 212//168
s 22
f 209//168 213//169 214//170
f 209//168 214//170 211//168
f 212//168 211//168 215//171
f 212//168 215//171 216//171
f 211//168 214//170 217//172
f 211//168 217//172 215//171
f 216//171 215//171 218//173
f 216//171 218//173 219//174
f 215//171 217//172 220//175
f 215//171 220//175 218//173
f 221//176 222//175 223//175
f 221//176 223//175 224//177
f 225//178 226//175 227//175
f 225//178 227//175 228//179
f 229//180 228//179 175//155
f 229//180 175//155 174//155
f 228//179 227//175 178//157
f 228//179 178//157 175//155
f 220//175 217//172 214//170
f 220//175 214//170 230//83
f 223//175 222//175 231//83
f 223//175 231//83 232//83
f 227//175 226//175 233//83
f 227//175 233//83 234//83
f 178//157 227//175 234//83
f 178//157 234//83 179//158
f 230//83 214//170 213//169
f 230//83 213//169 235//83
f 179//158 234//83 236//83
f 179//158 236//83 182//159
f 235//83 213//169 208//169
f 235//83 208//169 237//83
f 182//159 236//83 238//83
f 182//159 238//83 187//162
f 237//83 208//169 205//167
f 237//83 205//167 204//165
f 239//83 240//83 199//165
f 239//83 199//165 198//165
f 238//83 241//83 242//181
f 238//83 242//181 191//164
f 187//162 238//83 191//164
f 187//162 191//164 188//163
f 232//83 231//83 243//182
f 232//83 243//182 244//182
f 230//83 235//83 245//183
f 230//83 245//183 246//184
f 234//83 233//83 247//182
f 234//83 247//182 248//185
f 236//83 234//83 248//185
f 236//83 248//185 249//186
f 235//83 237//83 250//187
f 235//83 250//187 245//183
f 240//83 239//83 251//188
f 240//83 251//188 252//188
f 241//83 238//83 253//189
f 241//83 253//189 254//188
f 238//83 236//83 249//186
f 238//83 249//186 253//189
f 224//177 223//175 226//175
f 224//177 226//175 225//178
f 233//83 226//175 223//175
f 233//83 223//175 232//83
f 247//182 233//83 232//83
f 247//182 232//83 244//182
f 239//83 241//83 254//188
f 239//83 254//188 251//188
f 242//181 241//83 239//83
f 242//181 239//83 198//165
f 192//89 242//181 198//165
f 192//89 198//165 195//89
s 0
f 193//89 192//89 195//89
f 193//89 195//89 194//89
s 22
f 218//173 220//175 222//175
f 218//173 222//175 221//176
f 231//83 222//175 220//175
f 231//83 220//175 230//83
f 243//182 231//83 230//83
f 243//182 230//83 246//184
f 237//83 240//83 252//188
f 237//83 252//188 250//187
f 199//165 240//83 237//83
f 199//165 237//83 204//165
f 196//89 199//165 204//165
f 196//89 204//165 201//89
s 0
f 197//89 196//89 201//89
f 197//89 201//89 200//89
s 22
f 174//155 177//156 255//156
f 174//155 255//156 256//155
f 256//155 255//156 257//190
f 256//155 257//190 258//191
s 0
f 177//156 181//156 259//192
f 177//156 259//192 255//156
s 22
f 255//156 259//193 260//194
f 255//156 260//194 257//190
s 0
f 181//156 184//156 261//156
f 181//156 261//156 259//192
s 22
f 184//156 186//161 262//195
f 184//156 262//195 261//196
f 261//196 262//195 263//190
f 261//196 263//190 264//197
f 186//161 190//89 265//165
f 186//161 265//165 262//195
f 266//198 267//165 268//199
f 266//198 268//199 269//200
f 190//89 193//89 270//165
f 190//89 270//165 265//165
f 267//165 271//165 272//199
f 267//165 272//199 268//199
s 0
f 194//89 197//89 273//89
s 22
f 194//89 273//89 274//201
f 274//201 273//89 275//199
f 274//201 275//199 276//202
f 200//89 203//166 277//166
f 200//89 277//166 278//89
f 278//89 277//166 279//203
f 278//89 279//203 280//199
f 203//166 207//168 281//168
f 203//166 281//168 277//166
f 277//166 281//168 282//204
f 277//166 282//204 279//203
s 0
f 207//168 210//168 283//168
f 207//168 283//168 281//168
f 210//168 212//168 284//168
f 210//168 284//168 283//168
s 22
f 283//168 284//168 285//205
f 283//168 285//205 286//204
f 212//168 216//171 287//171
f 212//168 287//171 284//168
f 284//168 287//171 288//206
f 284//168 288//206 285//205
f 216//171 219//174 289//207
f 216//171 289//207 287//171
f 287//171 289//207 290//208
f 287//171 290//208 288//206
f 291//209 292//210 293//208
f 291//209 293//208 294//208
f 295//211 296//212 297//208
f 295//211 297//208 298//208
f 229//180 174//155 256//155
f 229//180 256//155 296//212
f 296//212 256//155 258//191
f 296//212 258//191 297//208
f 290//208 299//81 285//205
f 290//208 285//205 288//206
f 293//208 300//81 301//81
f 293//208 301//81 294//208
f 297//208 302//81 303//81
f 297//208 303//81 298//208
f 258//191 257//190 302//81
f 258//191 302//81 297//208
f 299//81 304//81 286//204
f 299//81 286//204 285//205
f 257//190 260//194 305//81
f 257//190 305//81 302//81
f 304//81 306//81 282//204
f 304//81 282//204 286//204
f 260//194 264//197 307//213
f 260//194 307//213 305//81
f 306//81 280//199 279//203
f 306//81 279//203 282//204
f 308//81 276//202 275//199
f 308//81 275//199 309//81
f 310//214 311//215 312//216
f 310//214 312//216 313//217
f 264//197 263//190 314//218
f 264//197 314//218 307//213
f 300//81 315//219 316//219
f 300//81 316//219 301//81
f 299//81 317//220 318//221
f 299//81 318//221 304//81
f 302//81 319//222 320//219
f 302//81 320//219 303//81
f 305//81 321//223 319//222
f 305//81 319//222 302//81
f 304//81 318//221 322//224
f 304//81 322//224 306//81
f 309//81 323//225 324//225
f 309//81 324//225 308//81
f 325//226 326//225 327//227
f 325//226 327//227 307//213
f 307//213 327//227 321//223
f 307//213 321//223 305//81
f 292//210 295//211 298//208
f 292//210 298//208 293//208
f 303//81 300//81 293//208
f 303//81 293//208 298//208
f 320//219 315//219 300//81
f 320//219 300//81 303//81
f 308//81 324//225 326//225
f 308//81 326//225 325//226
f 328//228 276//202 308//81
f 328//228 308//81 325//226
f 271//165 329//229 330//230
f 271//165 330//230 272//199
f 193//89 194//89 274//201
f 193//89 274//201 270//165
f 289//207 291//209 294//208
f 289//207 294//208 290//208
f 301//81 299//81 290//208
f 301//81 290//208 294//208
f 316//219 317//220 299//81
f 316//219 299//81 301//81
f 306//81 322//224 323//225
f 306//81 323//225 309//81
f 275//199 280//199 306//81
f 275//199 306//81 309//81
f 273//89 278//89 280//199
f 273//89 280//199 275//199
s 0
f 197//89 200//89 278//89
f 197//89 278//89 273//89
s 22
f 206//168 208//169 331//168
s 0
f 206//168 331//168 332//168
s 22
f 208//169 213//169 333//168
f 208//169 333//168 331//168
f 213//169 209//168 334//168
f 213//169 334//168 333//168
s 0
f 209//168 206//168 332//168
f 209//168 332//168 334//168
s 22
f 281//168 283//168 163//144
f 281//168 163//144 165//146
f 283//168 286//204 160//141
f 283//168 160//141 163//144
f 286//204 282//204 161//142
f 286//204 161//142 160//141
f 282//204 281//168 165//146
f 282//204 165//146 161//142
s 0
f 335//80 336//231 337//81
f 335//83 337//81 338//81
f 336//83 335//83 339//83
f 336//83 339//83 340//83
s 22
f 262//195 265//165 267//165
f 262//195 267//165 266//198
f 314//218 263//190 269//200
f 314//218 269//200 268//199
f 263//190 262//195 266//198
f 263//190 266//198 269//200
f 265//165 270//165 271//165
f 265//165 271//165 267//165
f 328//228 314//218 268//199
f 328//228 268//199 272//199
f 270//165 274//201 329//229
f 270//165 329//229 271//165
f 276//202 328//228 272//199
f 276//202 272//199 330//230
f 180//160 182//159 151//134
f 180//160 151//134 149//132
f 182//159 187//162 153//136
f 182//159 153//136 151//134
f 187//162 183//156 148//131
f 187//162 148//131 153//136
f 183//156 180//160 149//132
f 183//156 149//132 148//131
f 259//193 261//196 144//127
f 259//193 144//127 142//125
f 261//196 264//197 139//122
f 261//196 139//122 144//127
f 264//197 260//194 140//123
f 264//197 140//123 139//122
f 260//194 259//193 142//125
f 260//194 142//125 140//123
f 189//89 191//164 341//232
f 189//89 341//232 342//233
f 191//164 242//181 343//234
f 191//164 343//234 341//232
f 242//181 192//89 344//235
f 242//181 344//235 343//234
f 192//89 189//89 342//233
f 192//89 342//233 344//235
f 342//233 341//232 108//95
f 342//233 108//95 106//93
f 341//232 343//234 108//95
f 343//234 344//235 105//92
f 343//234 105//92 108//95
f 344//235 342//233 106//93
f 344//235 106//93 105//92
f 307//213 314//218 345//236
f 307//213 345//236 346//237
f 314//218 328//228 347//238
f 314//218 347//238 345//236
f 328//228 325//226 348//239
f 328//228 348//239 347//238
f 325//226 307//213 346//237
f 325//226 346//237 348//239
f 346//237 345//236 311//215
f 346//237 311//215 310//214
f 347//238 348//239 313//217
f 347//238 313//217 312//216
f 348//239 346//237 310//214
f 348//239 310//214 313//217
f 345//236 347//238 349//240
f 345//236 349//240 350//241
f 347//238 312//216 351//242
f 347//238 351//242 349//240
f 312//216 311//215 352//243
f 312//216 352//243 351//242
f 311//215 345//236 350//241
f 311//215 350//241 352//243
s 60
g polySurface5_UnderDish
usemtl UnderDish
f 353//244 354//245 355//246
f 353//244 355//246 356//247
f 357//248 358//249 359//250
f 357//248 359//250 360//251
f 361//252 362//253 363//254
f 361//252 363//254 364//106
f 366//255 367//256 368//257
f 366//255 368//257 365//258
f 369//103 370//259 371//260
f 369//103 371//260 372//261
f 373//262 374//263 370//259
f 373//262 370//259 369//103
f 375//264 376//41 377//265
f 375//264 377//265 378//266
f 379//267 380//268 381//269
f 379//267 381//269 382//270
f 378//266 377//265 383//271
f 378//266 383//271 384//272
f 382//270 381//269 385//271
f 382//270 385//271 386//271
s 0
f 387//273 388//273 389//273
f 387//273 389//273 390//273
f 391//273 392//273 393//273
f 391//273 393//273 394//273
s 60
f 395//274 396//275 397//276
f 395//274 397//276 398//277
f 399//278 400//279 401//280
f 399//278 401//280 402//48
f 403//281 404//282 405//283
f 403//281 405//283 406//284
f 378//266 384//272 407//117
f 378//266 407//117 375//264
f 408//285 353//244 356//247
f 408//285 356//247 409//286
f 408//285 410//287 388//273
f 408//285 388//273 387//273
f 354//245 353//244 390//273
f 354//245 390//273 389//273
f 411//287 412//287 392//273
f 411//287 392//273 391//273
f 358//249 357//248 394//273
f 358//249 394//273 393//273
f 353//244 408//285 413//288
f 353//244 413//288 414//289
f 408//285 387//273 415//290
f 408//285 415//290 413//288
f 387//273 390//273 416//291
f 387//273 416//291 415//290
f 390//273 353//244 414//289
f 390//273 414//289 416//291
f 400//279 399//278 417//292
f 400//279 417//292 418//293
f 419//294 420//273 421//295
f 419//294 421//295 422//296
f 420//273 423//273 424//297
f 420//273 424//297 421//295
f 423//273 400//279 418//293
f 423//273 418//293 424//297
f 414//289 413//288 425//298
f 414//289 425//298 426//299
f 413//288 415//290 427//300
f 413//288 427//300 425//298
f 415//290 416//291 428//301
f 415//290 428//301 427//300
f 416//291 414//289 426//299
f 416//291 426//299 428//301
f 418//293 417//292 429//121
f 418//293 429//121 430//302
f 422//296 421//295 431//303
f 422//296 431//303 432//304
f 421//295 424//297 433//305
f 421//295 433//305 431//303
f 424//297 418//293 430//302
f 424//297 430//302 433//305
f 370//259 374//263 380//268
f 370//259 380//268 379//267
f 402//48 401//280 404//282
f 402//48 404//282 403//281
f 360//251 359//250 366//255
f 360//251 366//255 365//258
f 356//247 355//246 362//253
f 356//247 362//253 361//252
f 409//286 356//247 361//252
f 409//286 361//252 434//306
f 371//260 370//259 379//267
f 371//260 379//267 376//41
f 377//265 376//41 379//267
f 377//265 379//267 382//270
f 383//271 377//265 382//270
f 383//271 382//270 386//271
f 388//273 410//287 411//287
f 388//273 411//287 391//273
s 0
f 389//273 388//273 391//273
f 389//273 391//273 394//273
s 60
f 357//248 354//245 389//273
f 357//248 389//273 394//273
f 355//246 354//245 357//248
f 355//246 357//248 360//251
f 362//253 355//246 360//251
f 362//253 360//251 365//258
f 363//254 362//253 365//258
f 363//254 365//258 368//257
f 368//257 435//307 436//78
f 368//257 436//78 437//78
f 437//78 363//254 368//257
f 374//263 373//262 438//308
f 374//263 438//308 439//309
f 380//268 374//263 439//309
f 380//268 439//309 397//276
f 381//269 380//268 397//276
f 381//269 397//276 396//275
f 385//271 381//269 396//275
f 385//271 396//275 395//274
f 392//273 412//287 400//279
f 392//273 400//279 423//273
s 0
f 393//273 392//273 423//273
f 393//273 423//273 420//273
s 60
f 419//294 358//249 393//273
f 419//294 393//273 420//273
f 359//250 358//249 419//294
f 359//250 419//294 440//47
f 366//255 359//250 440//47
f 366//255 440//47 367//256
f 401//280 398//277 441//310
f 401//280 441//310 404//282
f 400//279 395//274 398//277
f 400//279 398//277 401//280
f 412//287 385//271 395//274
f 412//287 395//274 400//279
f 386//271 385//271 412//287
f 386//271 412//287 411//287
f 410//287 383//271 386//271
f 410//287 386//271 411//287
f 384//272 383//271 410//287
f 384//272 410//287 408//285
f 407//117 384//272 408//285
f 407//117 408//285 409//286
f 442//311 407//117 409//286
f 442//311 409//286 434//306
f 419//294 399//278 402//48
f 419//294 402//48 440//47
f 417//292 399//278 419//294
f 417//292 419//294 422//296
f 429//121 417//292 422//296
f 429//121 422//296 432//304
s 69
f 443//312 444//313 445//314
f 443//312 445//314 446//315
f 444//313 447//316 448//53
f 444//313 448//53 445//314
f 450//317 446//315 445//314
f 450//317 445//314 449//318
f 445//314 448//53 449//318
f 451//319 452//320 453//321
f 454//322 455//50 452//320
f 454//322 452//320 451//319
f 453//321 452//320 456//323
f 453//321 456//323 457//324
f 452//320 455//50 458//325
f 452//320 458//325 456//323
f 457//324 456//323 459//287
f 457//324 459//287 460//326
f 456//323 458//325 461//327
f 456//323 461//327 459//287
s 0
f 462//271 463//271 464//271
f 462//271 464//271 465//271
f 463//271 466//271 467//271
f 463//271 467//271 464//271
s 69
f 461//327 458//325 455//50
f 461//327 455//50 468//328
f 447//316 461//327 468//328
f 447//316 468//328 448//53
f 457//324 460//326 469//329
f 457//324 469//329 453//321
f 460//326 443//312 446//315
f 460//326 446//315 469//329
f 460//326 459//287 463//271
f 460//326 463//271 462//271
f 444//313 443//312 465//271
f 444//313 465//271 464//271
f 459//287 461//327 466//271
f 459//287 466//271 463//271
f 447//316 444//313 464//271
f 447//316 464//271 467//271
f 443//312 460//326 470//330
f 443//312 470//330 471//331
f 460//326 462//271 472//143
f 460//326 472//143 470//330
f 462//271 465//271 473//332
f 462//271 473//332 472//143
f 465//271 443//312 471//331
f 465//271 471//331 473//332
f 461//327 447//316 474//333
f 461//327 474//333 475//334
f 447//316 467//271 476//335
f 447//316 476//335 474//333
f 467//271 466//271 477//336
f 467//271 477//336 476//335
f 466//271 461//327 475//334
f 466//271 475//334 477//336
s 74
g polySurface5_MainBodyBottomLight
usemtl MainBodyBottomLight
f 478//287 479//337 480//177
f 478//287 480//177 481//287
f 482//287 483//338 484//339
f 482//287 484//339 485//340
f 481//287 480//177 483//338
f 481//287 483//338 482//287
f 486//341 487//342 479//337
f 486//341 479//337 478//287
f 478//287 481//287 488//210
f 478//287 488//210 489//343
f 482//287 490//344 491//345
f 482//287 491//345 492//211
f 481//287 482//287 492//211
f 481//287 492//211 488//210
f 493//346 478//287 489//343
f 493//346 489//343 494//347
s 75
g polySurface5_Transparency
usemtl Transparency
f 495//348 496//348 497//349
f 495//348 497//349 498//349
f 499//349 500//348 495//348
f 499//349 495//348 498//349
s 76
f 501//350 502//351 503//352
f 501//350 503//352 504//350
f 504//350 503//352 505//352
f 504//350 505//352 506//350
s 77
g polySurface5_BottomBodyDark
usemtl BottomBodyDark
f 507//353 508//354 509//355
f 507//353 509//355 510//356
f 511//357 512//358 513//359
f 511//357 513//359 514//360
f 512//358 515//361 516//362
f 512//358 516//362 513//359
f 508//354 511//357 514//360
f 508//354 514//360 509//355
f 517//363 518//364 519//365
f 517//363 519//365 520//366
f 518//364 507//353 510//356
f 518//364 510//356 519//365
s 78
f 521//367 522//368 523//369
f 521//367 523//369 524//370
f 515//371 525//372 526//373
f 515//371 526//373 527//374
f 525//372 528//375 529//376
f 525//372 529//376 526//373
f 528//375 521//367 524//370
f 528//375 524//370 529//376
f 522//368 530//377 531//378
f 522//368 531//378 523//369
f 530//377 517//379 532//380
f 530//377 532//380 531//378
s 79
g polySurface5_AntennaGold
usemtl AntennaGold
f 533//381 534//382 535//383
f 533//381 535//383 536//384
f 537//385 538//386 539//387
f 537//385 539//387 540//388
f 541//389 542//390 543//391
f 541//389 543//391 544//392
s 0
f 545//393 546//393 547//393
f 545//393 547//393 548//393
s 79
f 549//394 550//395 551//396
f 549//394 551//396 552//397
f 553//398 554//399 538//386
f 553//398 538//386 537//385
f 554//399 533//381 539//387
f 554//399 539//387 538//386
f 533//381 536//384 540//388
f 533//381 540//388 539//387
f 536//384 553//398 537//385
f 536//384 537//385 540//388
f 554//399 555//400 550//395
f 554//399 550//395 549//394
f 555//400 534//382 551//396
f 555//400 551//396 550//395
f 534//382 533//381 552//397
f 534//382 552//397 551//396
f 533//381 554//399 549//394
f 533//381 549//394 552//397
f 556//401 553//398 542//390
f 556//401 542//390 541//389
f 553//398 536//384 543//391
f 553//398 543//391 542//390
f 536//384 535//383 544//392
f 536//384 544//392 543//391
f 535//383 556//401 541//389
f 535//383 541//389 544//392
f 555//400 556//401 557//402
f 555//400 557//402 558//403
f 556//401 535//383 559//404
f 556//401 559//404 557//402
f 535//383 534//382 560//405
f 535//383 560//405 559//404
f 534//382 555//400 558//403
f 534//382 558//403 560//405
f 557//402 559//404 547//406
f 557//402 547//406 546//89
f 559//404 560//405 548//407
f 559//404 548//407 547//406
f 560//405 558//403 545//408
f 560//405 545//408 548//407
