# Blender 5.2.2 LTS
# www.blender.org
mtllib tdrsPanelDer.mtl
g Ala2_polySurface5.002
v 0.443300 -0.001487 0.000000
v 0.443300 0.000000 0.000000
v 0.443300 0.000000 0.026755
v 0.443300 -0.001487 0.026755
v 0.443300 -0.001487 -0.042711
v 0.443300 0.000000 -0.042711
v 0.443300 0.000000 -0.026755
v 0.443300 -0.001487 -0.026755
v 0.443300 0.001487 -0.000000
v 0.443300 0.001487 0.026755
v 0.443300 0.001487 -0.042711
v 0.443300 0.001487 -0.026755
v 0.206768 0.001487 -0.026755
v 0.209951 0.001487 -0.026755
v 0.209951 0.001487 -0.042711
v 0.206768 0.001487 -0.042711
v 0.206768 0.001487 0.026755
v 0.209951 0.001487 0.026755
v 0.209951 0.001487 -0.000000
v 0.206768 0.001487 -0.000000
v 0.206768 0.000000 0.042711
v 0.209951 0.000000 0.042711
v 0.209951 0.001487 0.042711
v 0.206768 0.001487 0.042711
v 0.206768 -0.001487 0.042711
v 0.209951 -0.001487 0.042711
v 0.206768 -0.001487 0.000000
v 0.209951 -0.001487 0.000000
v 0.209951 -0.001487 0.026755
v 0.206768 -0.001487 0.026755
v 0.206768 -0.001487 -0.042711
v 0.209951 -0.001487 -0.042711
v 0.209951 -0.001487 -0.026755
v 0.206768 -0.001487 -0.026755
v 0.206768 0.000000 -0.042711
v 0.209951 0.000000 -0.042711
v 0.443300 0.000000 0.042711
v 0.443300 -0.001487 0.042711
v 0.443300 0.001487 0.042711
v 0.326108 0.001487 -0.026755
v 0.330112 0.001487 -0.026755
v 0.330112 0.001487 -0.042711
v 0.326108 0.001487 -0.042711
v 0.326108 0.001487 -0.000000
v 0.330112 0.001487 -0.000000
v 0.326108 0.001487 0.026755
v 0.330112 0.001487 0.026755
v 0.326108 0.001487 0.042711
v 0.330112 0.001487 0.042711
v 0.326108 0.000000 0.042711
v 0.330112 0.000000 0.042711
v 0.326108 -0.001487 0.042711
v 0.330112 -0.001487 0.042711
v 0.330112 -0.001487 0.026755
v 0.326108 -0.001487 0.026755
v 0.326108 -0.001487 0.000000
v 0.330112 -0.001487 0.000000
v 0.330112 -0.001487 -0.026755
v 0.326108 -0.001487 -0.026755
v 0.326108 -0.001487 -0.042711
v 0.330112 -0.001487 -0.042711
v 0.326108 0.000000 -0.042711
v 0.330112 0.000000 -0.042711
v 0.050000 -0.004914 0.000000
v 0.089898 -0.001487 0.000000
v 0.089898 -0.001487 0.026755
v 0.050000 -0.004914 0.008873
v 0.089898 -0.001487 -0.026755
v 0.050000 -0.004914 -0.008873
v 0.050000 -0.004914 0.014165
v 0.089898 -0.001487 0.042711
v 0.089898 0.000000 0.042711
v 0.050000 -0.000000 0.014165
v 0.050000 -0.004914 -0.014165
v 0.089898 -0.001487 -0.042711
v 0.089898 -0.001487 -0.026755
v 0.050000 -0.004914 -0.008873
v 0.050000 -0.000000 -0.014165
v 0.089898 0.000000 -0.042711
v 0.089898 0.001487 0.042711
v 0.050000 0.004914 0.014165
v 0.050000 0.004914 -0.008873
v 0.089898 0.001487 -0.026755
v 0.089898 0.001487 -0.042711
v 0.050000 0.004914 -0.014165
v 0.089898 -0.001487 0.026755
v 0.050000 -0.004914 0.008873
v 0.089898 0.001487 0.026755
v 0.050000 0.004914 0.008873
v 0.089898 -0.001487 0.000000
v 0.108010 -0.001487 0.000000
v 0.108010 -0.001487 0.026755
v 0.089898 -0.001487 0.026755
v 0.089898 -0.001487 0.042711
v 0.108010 -0.001487 0.042711
v 0.108010 0.000000 0.042711
v 0.089898 0.000000 0.042711
v 0.089898 -0.001487 -0.042711
v 0.108010 -0.001487 -0.042711
v 0.108010 -0.001487 -0.026755
v 0.089898 -0.001487 -0.026755
v 0.089898 0.000000 -0.042711
v 0.108010 0.000000 -0.042711
v 0.108010 0.001487 0.042711
v 0.089898 0.001487 0.042711
v 0.089898 0.001487 0.026755
v 0.108010 0.001487 0.026755
v 0.108010 0.001487 -0.000000
v 0.089898 0.001487 -0.000000
v 0.089898 0.001487 -0.026755
v 0.108010 0.001487 -0.026755
v 0.108010 0.001487 -0.042711
v 0.089898 0.001487 -0.042711
v 0.206768 0.001487 -0.026755
v 0.206768 0.001487 -0.042711
v 0.206768 0.001487 0.026755
v 0.206768 0.001487 -0.000000
v 0.206768 0.000000 0.042711
v 0.206768 0.001487 0.042711
v 0.206768 -0.001487 0.042711
v 0.206768 -0.001487 0.000000
v 0.206768 -0.001487 0.026755
v 0.206768 -0.001487 -0.042711
v 0.206768 -0.001487 -0.026755
v 0.206768 0.000000 -0.042711
vn 0.7071 -0.7071 -0.0000
vn 1.0000 -0.0000 -0.0000
vn 0.5774 -0.5773 -0.5774
vn 0.7071 -0.0000 -0.7071
vn 0.7071 0.7071 -0.0000
vn 0.5774 0.5773 -0.5773
vn -0.0000 1.0000 -0.0000
vn -0.0000 0.7071 -0.7071
vn -0.0000 -0.0000 1.0000
vn -0.0000 0.7071 0.7071
vn -0.0000 -0.7071 0.7071
vn -0.0000 -1.0000 -0.0000
vn -0.0000 -0.7071 -0.7071
vn -0.0000 -0.0000 -1.0000
vn 0.7071 -0.0000 0.7071
vn 0.5774 -0.5773 0.5774
vn 0.5773 0.5773 0.5774
vn 0.7369 -0.6761 -0.0000
vn 0.0428 -0.9991 -0.0000
vn 0.7599 -0.5036 0.4111
vn -0.1811 -0.7279 0.6613
vn -0.3057 -0.0000 0.9521
vn 0.4571 -0.0000 0.8894
vn 0.7598 -0.5036 -0.4111
vn -0.1811 -0.7279 -0.6613
vn 0.7369 -0.6761 -0.0001
vn 0.4571 -0.0000 -0.8894
vn -0.3057 -0.0000 -0.9521
vn -0.1811 0.7279 0.6613
vn 0.7598 0.5037 0.4110
vn 0.7369 0.6761 -0.0000
vn 0.0428 0.9991 -0.0000
vn -0.1811 0.7279 -0.6613
vn 0.7598 0.5036 -0.4111
vn 0.7369 0.6761 0.0001
vn -0.1808 -0.7280 0.6613
vn -0.3054 -0.0000 0.9522
vn -0.1808 -0.7280 -0.6613
vn -0.3054 -0.0000 -0.9522
vn -0.1808 0.7280 0.6613
vn -0.1808 0.7280 -0.6613
s 1
g off
g Ala2_WingBlue
usemtl WingBlue
f 1//1 2//2 3//2
f 1//1 3//2 4//1
f 5//3 6//4 7//2
f 5//3 7//2 8//1
f 2//2 9//5 10//5
f 2//2 10//5 3//2
f 6//4 11//6 12//5
f 6//4 12//5 7//2
f 13//7 14//7 15//8
f 13//7 15//8 16//8
s 0
f 17//7 18//7 19//7
f 17//7 19//7 20//7
s 1
f 21//9 22//9 23//10
f 21//9 23//10 24//10
f 25//11 26//11 22//9
f 25//11 22//9 21//9
s 0
f 27//12 28//12 29//12
f 27//12 29//12 30//12
s 1
f 31//13 32//13 33//12
f 31//13 33//12 34//12
f 35//14 36//14 32//13
f 35//14 32//13 31//13
f 16//8 15//8 36//14
f 16//8 36//14 35//14
s 0
f 33//12 28//12 27//12
f 33//12 27//12 34//12
s 1
f 7//2 2//2 1//1
f 7//2 1//1 8//1
f 12//5 9//5 2//2
f 12//5 2//2 7//2
s 0
f 20//7 19//7 14//7
f 20//7 14//7 13//7
s 1
f 29//12 26//11 25//11
f 29//12 25//11 30//12
f 3//2 37//15 38//16
f 3//2 38//16 4//1
f 10//5 39//17 37//15
f 10//5 37//15 3//2
f 24//10 23//10 18//7
f 24//10 18//7 17//7
f 40//7 41//7 42//8
f 40//7 42//8 43//8
s 0
f 44//7 45//7 41//7
f 44//7 41//7 40//7
f 46//7 47//7 45//7
f 46//7 45//7 44//7
s 1
f 48//10 49//10 47//7
f 48//10 47//7 46//7
f 50//9 51//9 49//10
f 50//9 49//10 48//10
f 52//11 53//11 51//9
f 52//11 51//9 50//9
f 54//12 53//11 52//11
f 54//12 52//11 55//12
s 0
f 56//12 57//12 54//12
f 56//12 54//12 55//12
f 58//12 57//12 56//12
f 58//12 56//12 59//12
s 1
f 60//13 61//13 58//12
f 60//13 58//12 59//12
f 62//14 63//14 61//13
f 62//14 61//13 60//13
f 43//8 42//8 63//14
f 43//8 63//14 62//14
f 41//7 12//5 11//6
f 41//7 11//6 42//8
f 45//7 9//5 12//5
f 45//7 12//5 41//7
f 47//7 10//5 9//5
f 47//7 9//5 45//7
f 49//10 39//17 10//5
f 49//10 10//5 47//7
f 51//9 37//15 39//17
f 51//9 39//17 49//10
f 53//11 38//16 37//15
f 53//11 37//15 51//9
f 4//1 38//16 53//11
f 4//1 53//11 54//12
f 57//12 1//1 4//1
f 57//12 4//1 54//12
f 8//1 1//1 57//12
f 8//1 57//12 58//12
f 61//13 5//3 8//1
f 61//13 8//1 58//12
f 63//14 6//4 5//3
f 63//14 5//3 61//13
f 42//8 11//6 6//4
f 42//8 6//4 63//14
f 14//7 40//7 43//8
f 14//7 43//8 15//8
s 0
f 19//7 44//7 40//7
f 19//7 40//7 14//7
f 18//7 46//7 44//7
f 18//7 44//7 19//7
s 1
f 23//10 48//10 46//7
f 23//10 46//7 18//7
f 22//9 50//9 48//10
f 22//9 48//10 23//10
f 26//11 52//11 50//9
f 26//11 50//9 22//9
f 55//12 52//11 26//11
f 55//12 26//11 29//12
s 0
f 28//12 56//12 55//12
f 28//12 55//12 29//12
f 59//12 56//12 28//12
f 59//12 28//12 33//12
s 1
f 32//13 60//13 59//12
f 32//13 59//12 33//12
f 36//14 62//14 60//13
f 36//14 60//13 32//13
f 15//8 43//8 62//14
f 15//8 62//14 36//14
s 26
g Ala2_Transparency
usemtl Transparency
f 64//18 65//19 66//19
f 64//18 66//19 67//18
f 68//19 65//19 64//18
f 68//19 64//18 69//18
s 27
g Ala2_WingStruts1
usemtl WingStruts1
f 70//20 71//21 72//22
f 70//20 72//22 73//23
s 28
f 74//24 75//25 76//19
f 74//24 76//19 77//26
f 78//27 79//28 75//25
f 78//27 75//25 74//24
s 27
f 73//23 72//22 80//29
f 73//23 80//29 81//30
s 28
f 82//31 83//32 84//33
f 82//31 84//33 85//34
f 85//34 84//33 79//28
f 85//34 79//28 78//27
s 27
f 86//19 71//21 70//20
f 86//19 70//20 87//18
f 81//30 80//29 88//32
f 81//30 88//32 89//35
s 29
g Ala2_InnerWingBlue
usemtl InnerWingBlue
f 90//19 91//12 92//12
f 90//19 92//12 93//19
f 94//36 95//11 96//9
f 94//36 96//9 97//37
f 98//38 99//13 100//12
f 98//38 100//12 101//19
f 102//39 103//14 99//13
f 102//39 99//13 98//38
f 97//37 96//9 104//10
f 97//37 104//10 105//40
f 106//32 107//7 108//7
f 106//32 108//7 109//32
f 110//32 111//7 112//8
f 110//32 112//8 113//41
f 113//41 112//8 103//14
f 113//41 103//14 102//39
f 111//7 114//7 115//8
f 111//7 115//8 112//8
s 0
f 107//7 116//7 117//7
f 107//7 117//7 108//7
s 29
f 96//9 118//9 119//10
f 96//9 119//10 104//10
f 95//11 120//11 118//9
f 95//11 118//9 96//9
s 0
f 91//12 121//12 122//12
f 91//12 122//12 92//12
s 29
f 99//13 123//13 124//12
f 99//13 124//12 100//12
f 103//14 125//14 123//13
f 103//14 123//13 99//13
f 112//8 115//8 125//14
f 112//8 125//14 103//14
f 100//12 91//12 90//19
f 100//12 90//19 101//19
s 0
f 124//12 121//12 91//12
f 124//12 91//12 100//12
f 108//7 117//7 114//7
f 108//7 114//7 111//7
s 29
f 109//32 108//7 111//7
f 109//32 111//7 110//32
f 92//12 95//11 94//36
f 92//12 94//36 93//19
f 122//12 120//11 95//11
f 122//12 95//11 92//12
f 104//10 119//10 116//7
f 104//10 116//7 107//7
f 105//40 104//10 107//7
f 105//40 107//7 106//32
