# Blender 5.2.2 LTS
# www.blender.org
mtllib tdrsEnlace.mtl
g tdrsEnlace_tdrsEnlace
v 0.008112 -0.001467 -0.008356
v 0.002091 -0.001467 -0.010312
v 0.002091 0.000623 -0.022630
v 0.015353 0.000623 -0.018321
v 0.002091 -0.001467 -0.010312
v -0.003930 -0.001467 -0.008356
v -0.011170 0.000623 -0.018321
v 0.002091 0.000623 -0.022630
v -0.003930 -0.001467 -0.008356
v -0.007651 -0.001467 -0.003233
v -0.019367 0.000623 -0.007040
v -0.011170 0.000623 -0.018321
v -0.007651 -0.001467 -0.003233
v -0.007651 -0.001467 0.003098
v -0.019367 0.000623 0.006905
v -0.019367 0.000623 -0.007040
v -0.007651 -0.001467 0.003098
v -0.003930 -0.001467 0.008219
v -0.011170 0.000623 0.018186
v -0.019367 0.000623 0.006905
v -0.003930 -0.001467 0.008219
v 0.002091 -0.001467 0.010176
v 0.002091 0.000623 0.022494
v -0.011170 0.000623 0.018186
v 0.002091 -0.001467 0.010176
v 0.008112 -0.001467 0.008219
v 0.015353 0.000623 0.018186
v 0.002091 0.000623 0.022494
v 0.008112 -0.001467 0.008219
v 0.011834 -0.001467 0.003098
v 0.023549 0.000623 0.006905
v 0.015353 0.000623 0.018186
v 0.011834 -0.001467 0.003098
v 0.011834 -0.001467 -0.003233
v 0.023549 0.000623 -0.007040
v 0.023549 0.000623 0.006905
v 0.011834 -0.001467 -0.003233
v 0.008112 -0.001467 -0.008356
v 0.015353 0.000623 -0.018321
v 0.023549 0.000623 -0.007040
v 0.021617 0.003808 -0.026942
v 0.002091 0.003808 -0.033287
v 0.002091 0.005352 -0.036658
v 0.023598 0.005352 -0.029670
v 0.002091 0.003808 -0.033287
v -0.017434 0.003808 -0.026942
v -0.019416 0.005352 -0.029670
v 0.002091 0.005352 -0.036658
v -0.017434 0.003808 -0.026942
v -0.029502 0.003808 -0.010332
v -0.032708 0.005352 -0.011374
v -0.019416 0.005352 -0.029670
v -0.029502 0.003808 -0.010332
v -0.029502 0.003808 0.010198
v -0.032708 0.005352 0.011239
v -0.032708 0.005352 -0.011374
v -0.029502 0.003808 0.010198
v -0.017434 0.003808 0.026806
v -0.019416 0.005352 0.029534
v -0.032708 0.005352 0.011239
v -0.017434 0.003808 0.026806
v 0.002091 0.003808 0.033151
v 0.002091 0.005352 0.036522
v -0.019416 0.005352 0.029534
v 0.002091 0.003808 0.033151
v 0.021617 0.003808 0.026806
v 0.023598 0.005352 0.029534
v 0.002091 0.005352 0.036522
v 0.021617 0.003808 0.026806
v 0.033684 0.003808 0.010198
v 0.036890 0.005352 0.011239
v 0.023598 0.005352 0.029534
v 0.033684 0.003808 0.010198
v 0.033684 0.003808 -0.010332
v 0.036890 0.005352 -0.011374
v 0.036890 0.005352 0.011239
v 0.033684 0.003808 -0.010332
v 0.021617 0.003808 -0.026942
v 0.023598 0.005352 -0.029670
v 0.036890 0.005352 -0.011374
v 0.002091 0.002371 -0.025959
v 0.017310 0.002371 -0.021016
v -0.013128 0.002371 -0.021016
v 0.002091 0.002371 -0.025959
v -0.022534 0.002371 -0.008069
v -0.013128 0.002371 -0.021016
v -0.022534 0.002371 0.007934
v -0.022534 0.002371 -0.008069
v -0.013128 0.002371 0.020879
v -0.022534 0.002371 0.007934
v 0.002091 0.002371 0.025824
v -0.013128 0.002371 0.020879
v 0.017310 0.002371 0.020879
v 0.002091 0.002371 0.025824
v 0.026716 0.002371 0.007934
v 0.017310 0.002371 0.020879
v 0.026716 0.002371 -0.008069
v 0.026716 0.002371 0.007934
v 0.017310 0.002371 -0.021016
v 0.026716 0.002371 -0.008069
v 0.002091 -0.001467 -0.010312
v 0.008112 -0.001467 -0.008356
v 0.002091 -0.003079 -0.000068
v -0.003930 -0.001467 -0.008356
v -0.007651 -0.001467 -0.003233
v -0.003930 -0.001467 0.008219
v -0.007651 -0.001467 0.003098
v 0.002091 -0.001467 0.010176
v 0.008112 -0.001467 0.008219
v 0.011834 -0.001467 0.003098
v 0.011834 -0.001467 -0.003233
v 0.006006 -0.000322 -0.005455
v 0.002091 -0.000322 -0.006727
v 0.002091 -0.001366 -0.000068
v -0.001823 -0.000322 -0.005455
v -0.004242 -0.000322 -0.002125
v -0.004242 -0.000322 0.001991
v -0.001823 -0.000322 0.005321
v 0.002091 -0.000322 0.006592
v 0.006006 -0.000322 0.005321
v 0.008425 -0.000322 0.001991
v 0.008425 -0.000322 -0.002125
v -0.019367 0.000623 -0.007040
v -0.019367 0.000623 0.006905
v 0.002091 -0.000322 0.006592
v -0.001823 -0.000322 0.005321
v -0.001823 -0.000322 0.005321
v -0.004242 -0.000322 0.001991
v -0.004242 -0.000322 0.001991
v -0.004242 -0.000322 -0.002125
v -0.004242 -0.000322 -0.002125
v -0.001823 -0.000322 -0.005455
v -0.001823 -0.000322 -0.005455
v 0.002091 -0.000322 -0.006727
v 0.002091 -0.000322 -0.006727
v 0.006006 -0.000322 -0.005455
v 0.006006 -0.000322 -0.005455
v 0.008425 -0.000322 -0.002125
v 0.008425 -0.000322 -0.002125
v 0.008425 -0.000322 0.001991
v 0.008425 -0.000322 0.001991
v 0.006006 -0.000322 0.005321
v 0.006006 -0.000322 0.005321
v 0.002091 -0.000322 0.006592
v -0.007651 -0.001467 -0.003233
v -0.007651 -0.001467 0.003098
v -0.007651 -0.001467 0.003098
v -0.007651 -0.001467 0.003098
v -0.019367 0.000623 0.006905
v -0.019367 0.000623 0.006905
v -0.007651 -0.001467 0.003098
v -0.019367 0.000623 0.006905
v -0.019367 0.000623 -0.007040
v -0.019367 0.000623 0.006905
v -0.019367 0.000623 -0.007040
v -0.007651 -0.001467 -0.003233
v -0.004650 -0.001964 -0.001949
v -0.004650 -0.001964 0.001813
v -0.002742 -0.002279 -0.000068
v -0.004650 -0.001964 0.001813
v -0.004650 -0.001964 -0.001949
v -0.004650 -0.001964 -0.001949
v -0.002742 -0.002279 -0.000068
v -0.002742 -0.002279 -0.000068
v -0.004650 -0.001964 0.001813
vn 0.0543 -0.9845 -0.1670
vn 0.0687 -0.9750 -0.2114
vn -0.0543 -0.9845 -0.1670
vn -0.0687 -0.9750 -0.2114
vn -0.0686 -0.9751 -0.2110
vn -0.1421 -0.9845 -0.1032
vn -0.1798 -0.9750 -0.1307
vn -0.1801 -0.9749 -0.1308
vn -0.1756 -0.9845 -0.0000
vn -0.1421 -0.9845 0.1032
vn -0.1797 -0.9750 0.1305
vn -0.1801 -0.9749 0.1308
vn -0.0543 -0.9845 0.1670
vn -0.0690 -0.9747 0.2124
vn -0.0687 -0.9750 0.2114
vn 0.0543 -0.9845 0.1670
vn 0.0686 -0.9750 0.2112
vn 0.0686 -0.9751 0.2110
vn 0.1421 -0.9845 0.1032
vn 0.1807 -0.9747 0.1313
vn 0.1797 -0.9750 0.1305
vn 0.1756 -0.9845 -0.0000
vn 0.2223 -0.9750 -0.0000
vn 0.2226 -0.9749 -0.0000
vn 0.1421 -0.9845 -0.1032
vn 0.1807 -0.9747 -0.1313
vn 0.1801 -0.9749 -0.1308
vn 0.1101 -0.9344 -0.3389
vn 0.1101 -0.9343 -0.3389
vn 0.0004 1.0000 -0.0015
vn 0.0005 1.0000 -0.0014
vn -0.1101 -0.9343 -0.3389
vn -0.0005 1.0000 -0.0014
vn -0.2869 -0.9350 -0.2085
vn -0.2883 -0.9343 -0.2095
vn -0.0012 1.0000 -0.0009
vn -0.3564 -0.9343 -0.0000
vn -0.0016 1.0000 -0.0000
vn -0.0016 1.0000 -0.0001
vn -0.2883 -0.9343 0.2095
vn -0.0012 1.0000 0.0009
vn -0.1101 -0.9343 0.3389
vn -0.0005 1.0000 0.0015
vn -0.0006 1.0000 0.0014
vn 0.1101 -0.9343 0.3389
vn 0.1101 -0.9344 0.3389
vn 0.0004 1.0000 0.0014
vn 0.0005 1.0000 0.0014
vn 0.2883 -0.9343 0.2095
vn 0.0013 1.0000 0.0009
vn 0.0012 1.0000 0.0009
vn 0.3564 -0.9343 -0.0000
vn 0.0016 1.0000 -0.0000
vn 0.0016 1.0000 0.0001
vn 0.2883 -0.9343 -0.2095
vn 0.0012 1.0000 -0.0009
vn -0.0596 0.9812 0.1835
vn -0.0595 0.9813 0.1833
vn 0.0596 0.9812 0.1833
vn 0.0595 0.9813 0.1833
vn 0.1558 0.9813 0.1132
vn 0.1559 0.9812 0.1133
vn 0.1927 0.9813 -0.0000
vn 0.1559 0.9813 -0.1133
vn 0.1559 0.9812 -0.1133
vn 0.0596 0.9812 -0.1833
vn -0.0596 0.9812 -0.1833
vn -0.0595 0.9813 -0.1833
vn -0.1559 0.9813 -0.1133
vn -0.1559 0.9812 -0.1133
vn -0.1929 0.9812 -0.0000
vn -0.1559 0.9813 0.1133
vn -0.1559 0.9812 0.1133
vn -0.0000 -0.9878 -0.1554
vn 0.0914 -0.9878 -0.1258
vn -0.0150 -0.9999 -0.0000
vn -0.0914 -0.9878 -0.1258
vn -0.1530 -0.9877 -0.0320
vn -0.0914 -0.9878 0.1258
vn -0.1530 -0.9877 0.0320
vn -0.0000 -0.9878 0.1555
vn 0.0914 -0.9878 0.1258
vn 0.1478 -0.9878 0.0480
vn 0.1478 -0.9878 -0.0480
vn -0.0910 0.9879 0.1253
vn -0.0000 0.9879 0.1549
vn -0.0000 1.0000 -0.0000
vn 0.0910 0.9879 0.1253
vn 0.1473 0.9879 0.0479
vn 0.1473 0.9879 -0.0479
vn 0.0910 0.9879 -0.1253
vn -0.0000 0.9879 -0.1549
vn -0.0910 0.9879 -0.1253
vn -0.1473 0.9879 -0.0479
vn -0.1473 0.9879 0.0479
vn -0.2998 -0.9540 -0.0000
vn 0.0450 0.9893 -0.1385
vn 0.1178 0.9893 -0.0856
vn 0.1457 0.9893 -0.0000
vn 0.1178 0.9893 0.0856
vn 0.0450 0.9893 0.1385
vn -0.0450 0.9893 0.1385
vn -0.1178 0.9893 0.0856
vn -0.1457 0.9893 -0.0000
vn -0.1178 0.9893 -0.0856
vn -0.1179 0.9893 -0.0856
vn -0.0450 0.9893 -0.1385
vn -0.0000 -0.0000 -0.0000
vn -0.9376 0.1673 0.3047
vn -0.0000 -0.0000 -1.0000
vn 0.9727 -0.1735 -0.1542
vn -0.9727 0.1735 0.1542
vn 0.9376 -0.1673 -0.3047
vn -0.1632 -0.9866 -0.0001
vn -0.1631 -0.9866 0.0007
vn -0.1633 -0.9866 -0.0000
s 1
g off
g tdrsEnlace_Default_Material
usemtl Default_Material
f 1//1 2//1 3//2
f 1//1 3//2 4//2
s 2
f 5//3 6//3 7//4
f 5//3 7//4 8//5
s 3
f 9//6 10//6 11//7
f 9//6 11//7 12//8
s 4
f 13//9 14//9 15//9
f 13//9 15//9 16//9
s 5
f 17//10 18//10 19//11
f 17//10 19//11 20//12
s 6
f 21//13 22//13 23//14
f 21//13 23//14 24//15
s 7
f 25//16 26//16 27//17
f 25//16 27//17 28//18
s 8
f 29//19 30//19 31//20
f 29//19 31//20 32//21
s 9
f 33//22 34//22 35//23
f 33//22 35//23 36//24
s 10
f 37//25 38//25 39//26
f 37//25 39//26 40//27
s 1
f 41//28 42//29 43//30
f 41//28 43//30 44//31
s 2
f 45//32 46//32 47//33
f 45//32 47//33 48//33
s 3
f 49//34 50//35 51//36
f 49//34 51//36 52//36
s 11
f 53//37 54//37 55//38
f 53//37 55//38 56//39
s 5
f 57//40 58//40 59//41
f 57//40 59//41 60//41
s 6
f 61//42 62//42 63//43
f 61//42 63//43 64//44
s 7
f 65//45 66//46 67//47
f 65//45 67//47 68//48
s 8
f 69//49 70//49 71//50
f 69//49 71//50 72//51
s 9
f 73//52 74//52 75//53
f 73//52 75//53 76//54
s 10
f 77//55 78//55 79//56
f 77//55 79//56 80//56
s 1
f 44//31 43//30 81//57
f 44//31 81//57 82//58
s 2
f 48//33 47//33 83//59
f 48//33 83//59 84//60
s 3
f 52//36 51//36 85//61
f 52//36 85//61 86//62
s 11
f 56//39 55//38 87//63
f 56//39 87//63 88//63
s 5
f 60//41 59//41 89//64
f 60//41 89//64 90//65
s 6
f 64//44 63//43 91//66
f 64//44 91//66 92//66
s 7
f 68//48 67//47 93//67
f 68//48 93//67 94//68
s 8
f 72//51 71//50 95//69
f 72//51 95//69 96//70
s 9
f 76//54 75//53 97//71
f 76//54 97//71 98//71
s 10
f 80//56 79//56 99//72
f 80//56 99//72 100//73
s 12
f 101//74 102//75 103//76
f 104//77 101//74 103//76
f 105//78 104//77 103//76
f 106//79 107//80 103//76
f 108//81 106//79 103//76
f 109//82 108//81 103//76
f 110//83 109//82 103//76
f 111//84 110//83 103//76
f 102//75 111//84 103//76
s 13
f 112//85 113//86 114//87
f 113//86 115//88 114//87
f 115//88 116//89 114//87
f 116//89 117//90 114//87
f 117//90 118//91 114//87
f 118//91 119//92 114//87
f 119//92 120//93 114//87
f 120//93 121//94 114//87
f 121//94 122//95 114//87
f 122//95 112//85 114//87
s 7
f 28//18 27//17 66//46
f 28//18 66//46 65//45
s 6
f 24//15 23//14 62//42
f 24//15 62//42 61//42
s 5
f 20//12 19//11 58//40
f 20//12 58//40 57//40
s 11
f 123//96 124//96 54//37
f 123//96 54//37 53//37
s 3
f 12//8 11//7 50//35
f 12//8 50//35 49//34
s 2
f 8//5 7//4 46//32
f 8//5 46//32 45//32
s 1
f 4//2 3//2 42//29
f 4//2 42//29 41//28
s 10
f 40//27 39//26 78//55
f 40//27 78//55 77//55
s 9
f 36//24 35//23 74//52
f 36//24 74//52 73//52
s 8
f 32//21 31//20 70//49
f 32//21 70//49 69//49
s 6
f 92//66 91//66 125//97
f 92//66 125//97 126//97
s 5
f 90//65 89//64 127//98
f 90//65 127//98 128//98
s 11
f 88//63 87//63 129//99
f 88//63 129//99 130//99
s 3
f 86//62 85//61 131//100
f 86//62 131//100 132//100
s 2
f 84//60 83//59 133//101
f 84//60 133//101 134//101
s 1
f 82//58 81//57 135//102
f 82//58 135//102 136//102
s 10
f 100//73 99//72 137//103
f 100//73 137//103 138//103
s 9
f 98//71 97//71 139//104
f 98//71 139//104 140//104
s 8
f 96//70 95//69 141//105
f 96//70 141//105 142//106
s 7
f 94//68 93//67 143//107
f 94//68 143//107 144//107
s 0
f 145//108 146//108 147//108
f 148//109 149//110 150//111
f 148//112 150//113 151//110
f 152//108 153//108 154//108
s 12
f 107//80 105//78 157//114
f 107//80 157//114 158//115
f 157//114 105//78 103//76
f 157//114 103//76 159//116
f 158//115 159//116 103//76
f 158//115 103//76 107//80
l 155 156
l 160 161
l 162 163
l 164 165
