# Blender 5.2.2 LTS
# www.blender.org
mtllib tdrsParabIzq.mtl
g P2_polySurface5.004
v -0.030280 -0.011203 0.021543
v -0.020249 -0.013613 0.014255
v -0.014343 -0.013613 0.018547
v -0.022284 -0.011203 0.029476
v -0.012268 -0.011203 0.034630
v -0.008437 -0.013613 0.022838
v -0.001136 -0.013613 0.022838
v -0.001136 -0.011203 0.036348
v 0.009996 -0.011203 0.034630
v 0.006164 -0.013613 0.022838
v 0.012070 -0.013613 0.018547
v 0.020011 -0.011203 0.029476
v 0.028008 -0.011203 0.021543
v 0.017977 -0.013613 0.014255
v 0.020233 -0.013613 0.007312
v 0.033081 -0.011203 0.011487
v 0.034887 -0.011203 0.000369
v 0.022489 -0.013613 0.000369
v 0.020233 -0.013613 -0.006574
v 0.033081 -0.011203 -0.010749
v 0.028008 -0.011203 -0.020805
v 0.017977 -0.013613 -0.013517
v 0.012070 -0.013613 -0.017808
v 0.020011 -0.011203 -0.028738
v 0.009996 -0.011203 -0.033892
v 0.006164 -0.013613 -0.022100
v -0.001136 -0.013613 -0.022100
v -0.001136 -0.011203 -0.035609
v -0.012268 -0.011203 -0.033891
v -0.008437 -0.013613 -0.022100
v -0.014343 -0.013613 -0.017808
v -0.022284 -0.011203 -0.028738
v -0.030280 -0.011203 -0.020805
v -0.020249 -0.013613 -0.013517
v -0.022505 -0.013613 -0.006574
v -0.035354 -0.011203 -0.010749
v -0.037160 -0.011203 0.000369
v -0.024761 -0.013613 0.000369
v -0.022505 -0.013613 0.007312
v -0.035354 -0.011203 0.011487
v -0.063152 0.000333 0.045426
v -0.058539 -0.001921 0.042075
v -0.042789 -0.001921 0.057700
v -0.046136 0.000333 0.062307
v -0.024824 0.000333 0.073273
v -0.023062 -0.001921 0.067850
v -0.001136 -0.001921 0.071234
v -0.001136 0.000333 0.076928
v 0.022552 0.000333 0.073273
v 0.020790 -0.001921 0.067850
v 0.040517 -0.001921 0.057700
v 0.043864 0.000333 0.062306
v 0.060879 0.000333 0.045426
v 0.056266 -0.001921 0.042075
v 0.066260 -0.001921 0.022267
v 0.071676 0.000333 0.024027
v 0.075519 0.000333 0.000369
v 0.069817 -0.001921 0.000369
v 0.066260 -0.001921 -0.021529
v 0.071676 0.000333 -0.023289
v 0.060879 0.000333 -0.044688
v 0.056266 -0.001921 -0.041336
v 0.040517 -0.001921 -0.056961
v 0.043864 0.000333 -0.061568
v 0.022552 0.000333 -0.072534
v 0.020790 -0.001921 -0.067112
v -0.001136 -0.001921 -0.070495
v -0.001136 0.000333 -0.076190
v -0.024824 0.000333 -0.072534
v -0.023062 -0.001921 -0.067112
v -0.042789 -0.001921 -0.056961
v -0.046136 0.000333 -0.061568
v -0.063152 0.000333 -0.044688
v -0.058539 -0.001921 -0.041336
v -0.068532 -0.001921 -0.021529
v -0.073948 0.000333 -0.023289
v -0.077792 0.000333 0.000369
v -0.072090 -0.001921 0.000369
v -0.068532 -0.001921 0.022267
v -0.073948 0.000333 0.024027
v 0.017792 -0.005120 -0.057885
v 0.014035 -0.008477 -0.046322
v -0.001136 -0.008477 -0.048663
v -0.001136 -0.005120 -0.060806
v 0.048418 -0.005120 -0.035634
v 0.038582 -0.008477 -0.028488
v 0.027684 -0.008477 -0.039299
v 0.034822 -0.005120 -0.049123
v 0.048418 -0.005120 0.036372
v 0.038582 -0.008477 0.029226
v 0.045496 -0.008477 0.015521
v 0.057045 -0.005120 0.019273
v 0.017792 -0.005120 0.058623
v 0.014035 -0.008477 0.047060
v 0.027684 -0.008477 0.040037
v 0.034822 -0.005120 0.049861
v -0.020064 -0.005120 0.058623
v -0.016307 -0.008477 0.047060
v -0.001136 -0.008477 0.049402
v -0.001136 -0.005120 0.061544
v -0.050690 -0.005120 0.036372
v -0.040854 -0.008477 0.029226
v -0.029957 -0.008477 0.040037
v -0.037094 -0.005120 0.049861
v -0.062388 -0.005120 0.000369
v -0.050230 -0.008477 0.000369
v -0.047769 -0.008477 0.015521
v -0.059317 -0.005120 0.019273
v -0.050690 -0.005120 -0.035634
v -0.040854 -0.008477 -0.028488
v -0.047769 -0.008477 -0.014783
v -0.059317 -0.005120 -0.018535
v -0.020064 -0.005120 -0.057885
v -0.016307 -0.008477 -0.046322
v -0.029957 -0.008477 -0.039299
v -0.037094 -0.005120 -0.049123
v -0.009370 -0.011464 0.006351
v -0.016341 -0.010319 0.011416
v -0.012169 -0.010319 0.015554
v -0.007111 -0.011464 0.008593
v -0.004281 -0.011464 0.010049
v -0.006944 -0.010319 0.018243
v -0.001136 -0.010319 0.019139
v -0.001136 -0.011464 0.010534
v 0.002009 -0.011464 0.010049
v 0.004671 -0.010319 0.018243
v 0.009896 -0.010319 0.015554
v 0.004838 -0.011464 0.008593
v 0.007098 -0.011464 0.006351
v 0.014068 -0.010319 0.011416
v 0.016715 -0.010319 0.006169
v 0.008531 -0.011464 0.003510
v 0.009041 -0.011464 0.000369
v 0.017657 -0.010319 0.000369
v 0.016715 -0.010319 -0.005431
v 0.008531 -0.011464 -0.002772
v 0.007098 -0.011464 -0.005613
v 0.014068 -0.010319 -0.010677
v 0.009896 -0.010319 -0.014816
v 0.004838 -0.011464 -0.007854
v 0.002009 -0.011464 -0.009310
v 0.004671 -0.010319 -0.017505
v -0.001136 -0.010319 -0.018401
v -0.001136 -0.011464 -0.009796
v -0.004281 -0.011464 -0.009310
v -0.006944 -0.010319 -0.017505
v -0.012169 -0.010319 -0.014816
v -0.007111 -0.011464 -0.007854
v -0.009370 -0.011464 -0.005613
v -0.016341 -0.010319 -0.010677
v -0.018987 -0.010319 -0.005431
v -0.010804 -0.011464 -0.002772
v -0.011314 -0.011464 0.000369
v -0.019930 -0.010319 0.000369
v -0.018987 -0.010319 0.006169
v -0.010804 -0.011464 0.003510
v 0.047958 -0.008477 0.000369
v 0.045496 -0.008477 -0.014783
v -0.024774 0.000810 0.073120
v -0.046042 0.000810 0.062177
v -0.063022 0.000810 0.045332
v 0.022502 0.000810 0.073120
v -0.001136 0.000810 0.076768
v 0.060749 0.000810 0.045332
v 0.043770 0.000810 0.062177
v 0.075359 0.000810 0.000369
v 0.071523 0.000810 0.023978
v 0.060749 0.000810 -0.044593
v 0.071523 0.000810 -0.023239
v 0.022502 0.000810 -0.072382
v 0.043770 0.000810 -0.061439
v -0.024774 0.000810 -0.072382
v -0.001136 0.000810 -0.076030
v -0.063022 0.000810 -0.044593
v -0.046042 0.000810 -0.061439
v -0.077631 0.000810 0.000369
v -0.073796 0.000810 -0.023239
v -0.073796 0.000810 0.023978
v 0.060116 -0.005120 0.000369
v -0.003575 -0.004925 0.007875
v -0.005769 -0.004925 0.006746
v -0.007521 -0.004925 0.005008
v 0.001303 -0.004925 0.007875
v -0.001136 -0.004925 0.008252
v 0.005249 -0.004925 0.005008
v 0.003497 -0.004925 0.006746
v 0.006756 -0.004925 0.000369
v 0.006360 -0.004925 0.002805
v 0.005249 -0.004925 -0.004270
v 0.006360 -0.004925 -0.002067
v 0.001303 -0.004925 -0.007137
v 0.003497 -0.004925 -0.006008
v -0.003575 -0.004925 -0.007137
v -0.001136 -0.004925 -0.007513
v -0.007521 -0.004925 -0.004270
v -0.005769 -0.004925 -0.006008
v -0.009029 -0.004925 0.000369
v -0.008633 -0.004925 -0.002067
v -0.008633 -0.004925 0.002805
v -0.056643 -0.001323 0.040697
v -0.063022 0.000810 0.045332
v -0.046042 0.000810 0.062177
v -0.041414 -0.001323 0.055806
v -0.022338 -0.001323 0.065621
v -0.024774 0.000810 0.073120
v -0.001136 0.000810 0.076768
v -0.001136 -0.001323 0.068893
v 0.020065 -0.001323 0.065621
v 0.022502 0.000810 0.073120
v 0.043770 0.000810 0.062177
v 0.039141 -0.001323 0.055806
v 0.054371 -0.001323 0.040697
v 0.060749 0.000810 0.045332
v 0.071523 0.000810 0.023978
v 0.064034 -0.001323 0.021544
v 0.067474 -0.001323 0.000369
v 0.075359 0.000810 0.000369
v 0.071523 0.000810 -0.023239
v 0.064034 -0.001323 -0.020806
v 0.054371 -0.001323 -0.039959
v 0.060749 0.000810 -0.044593
v 0.043770 0.000810 -0.061439
v 0.039141 -0.001323 -0.055068
v 0.020065 -0.001323 -0.064883
v 0.022502 0.000810 -0.072382
v -0.001136 0.000810 -0.076030
v -0.001136 -0.001323 -0.068155
v -0.022338 -0.001323 -0.064883
v -0.024774 0.000810 -0.072382
v -0.046042 0.000810 -0.061439
v -0.041414 -0.001323 -0.055068
v -0.056643 -0.001323 -0.039959
v -0.063022 0.000810 -0.044593
v -0.073796 0.000810 -0.023239
v -0.066306 -0.001323 -0.020806
v -0.069747 -0.001323 0.000369
v -0.077631 0.000810 0.000369
v -0.073796 0.000810 0.023978
v -0.066306 -0.001323 0.021544
v 0.060116 -0.005120 0.000369
v 0.047958 -0.008477 0.000369
v 0.045496 -0.008477 -0.014783
v 0.057045 -0.005120 -0.018535
v 0.027782 -0.007866 -0.020641
v 0.042972 -0.004677 -0.031677
v 0.030870 -0.004677 -0.043683
v 0.019848 -0.007866 -0.028513
v 0.034608 -0.007866 0.000369
v 0.053384 -0.004677 0.000369
v 0.050651 -0.004677 -0.016457
v 0.032816 -0.007866 -0.010663
v 0.027782 -0.007866 0.021379
v 0.042972 -0.004677 0.032415
v 0.050651 -0.004677 0.017196
v 0.032816 -0.007866 0.011401
v 0.009909 -0.007866 0.034364
v 0.015712 -0.004677 0.052221
v 0.030870 -0.004677 0.044422
v 0.019848 -0.007866 0.029251
v -0.012182 -0.007866 0.034364
v -0.017984 -0.004677 0.052221
v -0.001136 -0.004677 0.054821
v -0.001136 -0.007866 0.036069
v -0.030054 -0.007866 0.021379
v -0.045244 -0.004677 0.032415
v -0.033142 -0.004677 0.044422
v -0.022120 -0.007866 0.029251
v -0.036881 -0.007866 0.000369
v -0.055657 -0.004677 0.000369
v -0.052923 -0.004677 0.017196
v -0.035089 -0.007866 0.011401
v -0.030054 -0.007866 -0.020641
v -0.045244 -0.004677 -0.031677
v -0.052923 -0.004677 -0.016457
v -0.035089 -0.007866 -0.010663
v -0.012182 -0.007866 -0.033626
v -0.017984 -0.004677 -0.051483
v -0.033142 -0.004677 -0.043683
v -0.022120 -0.007866 -0.028513
v 0.009909 -0.007866 -0.033626
v 0.015712 -0.004677 -0.051483
v -0.001136 -0.004677 -0.054083
v -0.001136 -0.007866 -0.035331
v 0.038582 -0.008477 -0.028488
v 0.048418 -0.005120 -0.035634
v 0.056266 -0.001921 -0.041336
v 0.066260 -0.001921 -0.021529
v 0.069817 -0.001921 0.000369
v 0.004671 -0.010319 -0.017505
v 0.009896 -0.010319 -0.014816
v 0.014068 -0.010319 -0.010677
v 0.016715 -0.010319 -0.005431
v 0.017657 -0.010319 0.000369
v 0.016715 -0.010319 0.006169
v 0.014068 -0.010319 0.011416
v 0.009896 -0.010319 0.015554
v 0.004671 -0.010319 0.018243
v -0.001136 -0.010319 0.019139
v -0.006944 -0.010319 0.018243
v -0.012169 -0.010319 0.015554
v -0.016341 -0.010319 0.011416
v -0.018987 -0.010319 0.006169
v -0.019930 -0.010319 0.000369
v -0.018987 -0.010319 -0.005431
v -0.016341 -0.010319 -0.010677
v -0.012169 -0.010319 -0.014816
v -0.006944 -0.010319 -0.017505
v -0.001136 -0.010319 -0.018401
v -0.011784 0.042269 0.008105
v -0.010520 0.036092 0.007187
v -0.008127 0.036154 0.009991
v -0.008856 0.042614 0.010994
v -0.005203 0.042269 0.012886
v -0.004721 0.036092 0.011400
v -0.001136 0.036154 0.012262
v -0.001136 0.042614 0.013502
v 0.002931 0.042269 0.012886
v 0.002448 0.036092 0.011400
v 0.005854 0.036154 0.009991
v 0.006583 0.042614 0.010994
v 0.009511 0.042269 0.008105
v 0.008247 0.036092 0.007187
v 0.010175 0.036154 0.004044
v 0.011354 0.042614 0.004427
v 0.012025 0.042269 0.000369
v 0.010463 0.036092 0.000369
v 0.010175 0.036154 -0.003306
v 0.011354 0.042614 -0.003689
v 0.009511 0.042269 -0.007367
v 0.008247 0.036092 -0.006449
v 0.005854 0.036154 -0.009253
v 0.006583 0.042614 -0.010256
v 0.002931 0.042269 -0.012148
v 0.002448 0.036092 -0.010662
v -0.001136 0.036154 -0.011524
v -0.001136 0.042614 -0.012764
v -0.005203 0.042269 -0.012148
v -0.004721 0.036092 -0.010662
v -0.008127 0.036154 -0.009253
v -0.008856 0.042614 -0.010256
v -0.011784 0.042269 -0.007367
v -0.010520 0.036092 -0.006449
v -0.012447 0.036154 -0.003306
v -0.013626 0.042614 -0.003689
v -0.014297 0.042269 0.000369
v -0.012735 0.036092 0.000369
v -0.012447 0.036154 0.004044
v -0.013626 0.042614 0.004427
v -0.009173 0.015677 0.006208
v -0.007521 -0.004925 0.005008
v -0.005769 -0.004925 0.006746
v -0.006968 0.015677 0.008395
v -0.004206 0.015677 0.009816
v -0.003575 -0.004925 0.007875
v -0.001136 -0.004925 0.008252
v -0.001136 0.015677 0.010290
v 0.001933 0.015677 0.009816
v 0.001303 -0.004925 0.007875
v 0.003497 -0.004925 0.006746
v 0.004695 0.015677 0.008395
v 0.006900 0.015677 0.006208
v 0.005249 -0.004925 0.005008
v 0.006360 -0.004925 0.002805
v 0.008299 0.015677 0.003435
v 0.008797 0.015677 0.000369
v 0.006756 -0.004925 0.000369
v 0.006360 -0.004925 -0.002067
v 0.008299 0.015677 -0.002697
v 0.006900 0.015677 -0.005470
v 0.005249 -0.004925 -0.004270
v 0.003497 -0.004925 -0.006008
v 0.004695 0.015677 -0.007657
v 0.001933 0.015677 -0.009078
v 0.001303 -0.004925 -0.007137
v -0.001136 -0.004925 -0.007513
v -0.001136 0.015677 -0.009552
v -0.004206 0.015677 -0.009078
v -0.003575 -0.004925 -0.007137
v -0.005769 -0.004925 -0.006008
v -0.006968 0.015677 -0.007657
v -0.009173 0.015677 -0.005470
v -0.007521 -0.004925 -0.004270
v -0.008633 -0.004925 -0.002067
v -0.010572 0.015677 -0.002697
v -0.011070 0.015677 0.000369
v -0.009029 -0.004925 0.000369
v -0.008633 -0.004925 0.002805
v -0.010572 0.015677 0.003435
v -0.001136 0.040545 0.000369
vn -0.1557 -0.9813 0.1131
vn -0.1465 -0.9835 0.1064
vn -0.1085 -0.9828 0.1494
vn -0.1143 -0.9809 0.1574
vn -0.0597 -0.9812 0.1836
vn -0.0560 -0.9835 0.1722
vn -0.0000 -0.9828 0.1847
vn -0.0000 -0.9809 0.1945
vn 0.0598 -0.9811 0.1839
vn 0.0560 -0.9835 0.1722
vn 0.1085 -0.9828 0.1494
vn 0.1143 -0.9809 0.1573
vn 0.1557 -0.9813 0.1131
vn 0.1465 -0.9835 0.1064
vn 0.1756 -0.9828 0.0571
vn 0.1849 -0.9809 0.0601
vn 0.1929 -0.9812 -0.0000
vn 0.1811 -0.9835 -0.0000
vn 0.1756 -0.9828 -0.0571
vn 0.1849 -0.9809 -0.0601
vn 0.1558 -0.9813 -0.1132
vn 0.1465 -0.9835 -0.1064
vn 0.1086 -0.9828 -0.1494
vn 0.1143 -0.9809 -0.1573
vn 0.0595 -0.9813 -0.1832
vn 0.0560 -0.9835 -0.1722
vn -0.0000 -0.9828 -0.1847
vn -0.0000 -0.9809 -0.1945
vn -0.0595 -0.9813 -0.1831
vn -0.0559 -0.9835 -0.1722
vn -0.1085 -0.9828 -0.1494
vn -0.1142 -0.9809 -0.1572
vn -0.1558 -0.9813 -0.1132
vn -0.1465 -0.9835 -0.1064
vn -0.1756 -0.9828 -0.0571
vn -0.1849 -0.9809 -0.0601
vn -0.1926 -0.9813 -0.0000
vn -0.1810 -0.9835 -0.0000
vn -0.1756 -0.9828 0.0571
vn -0.1850 -0.9809 0.0601
vn -0.7321 -0.4255 0.5319
vn -0.2755 -0.9402 0.2002
vn -0.2004 -0.9401 0.2758
vn -0.5320 -0.4251 0.7323
vn -0.2797 -0.4255 0.8607
vn -0.1052 -0.9402 0.3239
vn -0.0000 -0.9401 0.3409
vn -0.0000 -0.4251 0.9052
vn 0.2796 -0.4255 0.8607
vn 0.1052 -0.9402 0.3239
vn 0.2004 -0.9401 0.2759
vn 0.5320 -0.4251 0.7323
vn 0.7321 -0.4255 0.5319
vn 0.2755 -0.9402 0.2002
vn 0.3243 -0.9401 0.1054
vn 0.8609 -0.4251 0.2797
vn 0.9049 -0.4255 -0.0000
vn 0.3406 -0.9402 -0.0000
vn 0.3242 -0.9401 -0.1053
vn 0.8609 -0.4251 -0.2797
vn 0.7321 -0.4255 -0.5319
vn 0.2755 -0.9402 -0.2002
vn 0.2005 -0.9400 -0.2760
vn 0.5320 -0.4251 -0.7323
vn 0.2796 -0.4255 -0.8607
vn 0.1052 -0.9402 -0.3239
vn -0.0000 -0.9401 -0.3409
vn -0.0000 -0.4250 -0.9052
vn -0.2796 -0.4255 -0.8607
vn -0.1052 -0.9402 -0.3239
vn -0.2004 -0.9401 -0.2758
vn -0.5320 -0.4251 -0.7323
vn -0.7321 -0.4255 -0.5319
vn -0.2755 -0.9402 -0.2002
vn -0.3242 -0.9401 -0.1053
vn -0.8609 -0.4251 -0.2797
vn -0.9049 -0.4255 -0.0000
vn -0.3406 -0.9402 -0.0000
vn -0.3242 -0.9401 0.1053
vn -0.8609 -0.4251 0.2797
vn 0.0896 -0.9571 -0.2756
vn 0.0727 -0.9719 -0.2237
vn -0.0000 -0.9719 -0.2356
vn -0.0000 -0.9570 -0.2901
vn 0.2344 -0.9571 -0.1703
vn 0.1903 -0.9719 -0.1383
vn 0.1384 -0.9719 -0.1905
vn 0.1705 -0.9570 -0.2347
vn 0.2344 -0.9571 0.1703
vn 0.1903 -0.9719 0.1383
vn 0.2240 -0.9719 0.0728
vn 0.2761 -0.9569 0.0897
vn 0.0896 -0.9570 0.2758
vn 0.0727 -0.9719 0.2237
vn 0.1385 -0.9719 0.1906
vn 0.1706 -0.9570 0.2348
vn -0.0896 -0.9571 0.2756
vn -0.0727 -0.9719 0.2237
vn -0.0000 -0.9719 0.2356
vn -0.0000 -0.9570 0.2901
vn -0.2344 -0.9571 0.1703
vn -0.1903 -0.9719 0.1383
vn -0.1385 -0.9719 0.1906
vn -0.1706 -0.9570 0.2348
vn -0.2898 -0.9571 -0.0000
vn -0.2353 -0.9719 -0.0000
vn -0.2240 -0.9719 0.0728
vn -0.2759 -0.9570 0.0896
vn -0.2344 -0.9571 -0.1703
vn -0.1903 -0.9719 -0.1383
vn -0.2240 -0.9719 -0.0728
vn -0.2759 -0.9570 -0.0896
vn -0.0896 -0.9571 -0.2756
vn -0.0727 -0.9719 -0.2237
vn -0.1385 -0.9719 -0.1906
vn -0.1705 -0.9570 -0.2347
vn -0.4205 0.8543 0.3055
vn 0.1112 0.9905 -0.0808
vn 0.0809 0.9905 -0.1114
vn -0.3058 0.8540 0.4209
vn -0.1606 0.8543 0.4943
vn 0.0425 0.9905 -0.1308
vn -0.0000 0.9905 -0.1377
vn -0.0000 0.8540 0.5202
vn 0.1606 0.8543 0.4943
vn -0.0425 0.9905 -0.1307
vn -0.0809 0.9905 -0.1114
vn 0.3058 0.8540 0.4209
vn 0.4205 0.8543 0.3055
vn -0.1112 0.9905 -0.0808
vn -0.1309 0.9905 -0.0425
vn 0.4948 0.8540 0.1608
vn 0.5198 0.8543 -0.0000
vn -0.1375 0.9905 -0.0000
vn -0.1309 0.9905 0.0425
vn 0.4948 0.8540 -0.1608
vn 0.4205 0.8543 -0.3055
vn -0.1112 0.9905 0.0808
vn -0.0809 0.9905 0.1114
vn 0.3058 0.8540 -0.4209
vn 0.1606 0.8543 -0.4943
vn -0.0425 0.9905 0.1308
vn -0.0000 0.9905 0.1377
vn -0.0000 0.8540 -0.5202
vn -0.1606 0.8543 -0.4943
vn 0.0425 0.9905 0.1308
vn 0.0809 0.9905 0.1114
vn -0.3058 0.8540 -0.4209
vn -0.4205 0.8543 -0.3055
vn 0.1112 0.9905 0.0808
vn 0.1309 0.9905 0.0425
vn -0.4948 0.8540 -0.1608
vn -0.5198 0.8543 -0.0000
vn 0.1375 0.9905 -0.0000
vn 0.1309 0.9905 -0.0425
vn -0.4948 0.8540 0.1608
vn 0.2353 -0.9719 -0.0000
vn 0.2240 -0.9719 -0.0728
vn -0.1442 0.8844 0.4439
vn -0.2746 0.8842 0.3780
vn -0.3776 0.8844 0.2744
vn 0.1443 0.8844 0.4439
vn -0.0000 0.8841 0.4672
vn 0.3776 0.8844 0.2743
vn 0.2747 0.8841 0.3780
vn 0.4668 0.8844 -0.0000
vn 0.4444 0.8841 0.1443
vn 0.3776 0.8844 -0.2744
vn 0.4443 0.8842 -0.1444
vn 0.1442 0.8844 -0.4439
vn 0.2746 0.8842 -0.3780
vn -0.1443 0.8844 -0.4439
vn -0.0000 0.8841 -0.4672
vn -0.3776 0.8844 -0.2743
vn -0.2747 0.8841 -0.3780
vn -0.4668 0.8844 -0.0000
vn -0.4443 0.8842 -0.1443
vn -0.4444 0.8841 0.1444
vn 0.2897 -0.9571 -0.0000
vn -0.3068 0.1188 0.9443
vn -0.5836 0.1187 0.8033
vn -0.8033 0.1188 0.5836
vn 0.3068 0.1188 0.9443
vn -0.0000 0.1187 0.9929
vn 0.8033 0.1188 0.5836
vn 0.5836 0.1187 0.8033
vn 0.9929 0.1188 -0.0000
vn 0.9443 0.1187 0.3068
vn 0.8033 0.1188 -0.5836
vn 0.9443 0.1187 -0.3068
vn 0.3068 0.1188 -0.9443
vn 0.5836 0.1187 -0.8033
vn -0.3068 0.1188 -0.9443
vn -0.0000 0.1187 -0.9929
vn -0.8033 0.1188 -0.5836
vn -0.5836 0.1187 -0.8033
vn -0.9929 0.1188 -0.0000
vn -0.9443 0.1187 -0.3068
vn -0.9443 0.1187 0.3068
vn 0.1995 0.9691 -0.1450
vn -0.3779 0.8842 0.2746
vn -0.2748 0.8839 0.3784
vn 0.1450 0.9691 -0.1996
vn 0.0762 0.9692 -0.2344
vn -0.1443 0.8842 0.4443
vn 0.0001 0.8839 0.4676
vn -0.0000 0.9690 -0.2469
vn -0.0761 0.9692 -0.2343
vn 0.1444 0.8842 0.4443
vn 0.2749 0.8839 0.3783
vn -0.1450 0.9691 -0.1996
vn -0.1995 0.9691 -0.1449
vn 0.3780 0.8842 0.2746
vn 0.4448 0.8839 0.1445
vn -0.2347 0.9691 -0.0763
vn -0.2464 0.9692 -0.0000
vn 0.4672 0.8842 -0.0001
vn 0.4447 0.8839 -0.1446
vn -0.2347 0.9691 0.0763
vn -0.1993 0.9692 0.1448
vn 0.3779 0.8842 -0.2746
vn 0.2748 0.8839 -0.3784
vn -0.1452 0.9690 0.1998
vn -0.0761 0.9692 0.2343
vn 0.1443 0.8842 -0.4443
vn -0.0001 0.8839 -0.4676
vn -0.0000 0.9691 0.2468
vn 0.0762 0.9692 0.2344
vn -0.1444 0.8842 -0.4443
vn -0.2749 0.8839 -0.3783
vn 0.1452 0.9690 0.1998
vn 0.1994 0.9692 0.1449
vn -0.3780 0.8842 -0.2746
vn -0.4448 0.8839 -0.1445
vn 0.2349 0.9690 0.0763
vn 0.2465 0.9691 -0.0000
vn -0.4672 0.8842 0.0001
vn -0.4447 0.8839 0.1446
vn 0.2348 0.9690 -0.0763
vn 0.2761 -0.9569 -0.0897
vn -0.1257 0.9879 0.0913
vn -0.1615 0.9799 0.1173
vn -0.1175 0.9798 0.1617
vn -0.0916 0.9878 0.1261
vn -0.1555 0.9878 -0.0000
vn -0.1997 0.9799 -0.0000
vn -0.1901 0.9798 0.0618
vn -0.1480 0.9878 0.0481
vn -0.1258 0.9878 -0.0914
vn -0.1615 0.9799 -0.1174
vn -0.1901 0.9798 -0.0618
vn -0.1480 0.9878 -0.0481
vn -0.0481 0.9878 -0.1480
vn -0.0617 0.9799 -0.1899
vn -0.1175 0.9798 -0.1617
vn -0.0915 0.9878 -0.1259
vn 0.0480 0.9879 -0.1478
vn 0.0617 0.9799 -0.1899
vn -0.0000 0.9798 -0.1999
vn -0.0000 0.9878 -0.1556
vn 0.1257 0.9879 -0.0913
vn 0.1615 0.9799 -0.1173
vn 0.1175 0.9798 -0.1617
vn 0.0915 0.9878 -0.1259
vn 0.1555 0.9878 -0.0000
vn 0.1997 0.9799 -0.0000
vn 0.1901 0.9798 -0.0618
vn 0.1480 0.9878 -0.0481
vn 0.1257 0.9879 0.0913
vn 0.1615 0.9799 0.1174
vn 0.1901 0.9798 0.0618
vn 0.1482 0.9878 0.0481
vn 0.0480 0.9879 0.1478
vn 0.0617 0.9799 0.1899
vn 0.1175 0.9798 0.1617
vn 0.0916 0.9878 0.1261
vn -0.0481 0.9878 0.1479
vn -0.0617 0.9799 0.1899
vn -0.0000 0.9798 0.1999
vn -0.0000 0.9878 0.1558
vn 0.3405 -0.9402 -0.0000
vn -0.1310 0.9905 0.0426
vn -0.0425 0.9905 -0.1308
vn -0.3816 0.8819 0.2768
vn -0.7966 0.1745 0.5788
vn -0.5780 0.1823 0.7954
vn -0.3732 0.7725 0.5137
vn -0.1457 0.8819 0.4483
vn -0.3043 0.1745 0.9365
vn -0.0000 0.1823 0.9832
vn -0.0000 0.7725 0.6350
vn 0.1456 0.8819 0.4483
vn 0.3043 0.1745 0.9365
vn 0.5779 0.1823 0.7955
vn 0.3732 0.7725 0.5137
vn 0.3813 0.8819 0.2772
vn 0.7966 0.1745 0.5788
vn 0.9351 0.1823 0.3038
vn 0.6039 0.7725 0.1962
vn 0.4714 0.8819 -0.0000
vn 0.9847 0.1745 -0.0000
vn 0.9351 0.1823 -0.3039
vn 0.6039 0.7725 -0.1962
vn 0.3816 0.8819 -0.2768
vn 0.7966 0.1745 -0.5788
vn 0.5780 0.1823 -0.7955
vn 0.3732 0.7725 -0.5137
vn 0.1457 0.8819 -0.4483
vn 0.3043 0.1745 -0.9365
vn -0.0000 0.1823 -0.9832
vn -0.0000 0.7725 -0.6350
vn -0.1455 0.8819 -0.4484
vn -0.3043 0.1745 -0.9365
vn -0.5780 0.1823 -0.7954
vn -0.3732 0.7725 -0.5137
vn -0.3814 0.8819 -0.2771
vn -0.7966 0.1745 -0.5788
vn -0.9351 0.1823 -0.3039
vn -0.6039 0.7725 -0.1962
vn -0.4714 0.8819 -0.0000
vn -0.9847 0.1745 -0.0000
vn -0.9351 0.1823 0.3039
vn -0.6039 0.7725 0.1962
vn -0.8055 -0.0934 0.5852
vn -0.8033 0.1183 0.5837
vn -0.5837 0.1182 0.8034
vn -0.5852 -0.0939 0.8054
vn -0.3077 -0.0933 0.9469
vn -0.3068 0.1183 0.9444
vn -0.0000 0.1182 0.9930
vn -0.0000 -0.0940 0.9956
vn 0.3077 -0.0933 0.9469
vn 0.3069 0.1183 0.9444
vn 0.5837 0.1182 0.8033
vn 0.5852 -0.0938 0.8055
vn 0.8055 -0.0934 0.5852
vn 0.8033 0.1183 0.5836
vn 0.9444 0.1182 0.3068
vn 0.9468 -0.0940 0.3076
vn 0.9956 -0.0933 -0.0000
vn 0.9930 0.1183 -0.0000
vn 0.9444 0.1182 -0.3069
vn 0.9469 -0.0940 -0.3076
vn 0.8055 -0.0934 -0.5852
vn 0.8033 0.1183 -0.5837
vn 0.5837 0.1182 -0.8034
vn 0.5852 -0.0938 -0.8055
vn 0.3077 -0.0933 -0.9469
vn 0.3068 0.1183 -0.9444
vn -0.0000 0.1182 -0.9930
vn -0.0000 -0.0939 -0.9956
vn -0.3077 -0.0933 -0.9469
vn -0.3069 0.1183 -0.9444
vn -0.5837 0.1182 -0.8033
vn -0.5852 -0.0941 -0.8054
vn -0.8055 -0.0933 -0.5852
vn -0.8033 0.1183 -0.5836
vn -0.9444 0.1182 -0.3068
vn -0.9469 -0.0938 -0.3077
vn -0.9956 -0.0933 -0.0000
vn -0.9930 0.1183 -0.0000
vn -0.9444 0.1182 0.3069
vn -0.9468 -0.0940 0.3076
vn -0.0000 1.0000 -0.0000
s 1
g off
g P2_lambert2
usemtl lambert2
f 1//1 2//2 3//3
f 1//1 3//3 4//4
f 5//5 6//6 7//7
f 5//5 7//7 8//8
f 9//9 10//10 11//11
f 9//9 11//11 12//12
f 13//13 14//14 15//15
f 13//13 15//15 16//16
f 17//17 18//18 19//19
f 17//17 19//19 20//20
f 21//21 22//22 23//23
f 21//21 23//23 24//24
f 25//25 26//26 27//27
f 25//25 27//27 28//28
f 29//29 30//30 31//31
f 29//29 31//31 32//32
f 33//33 34//34 35//35
f 33//33 35//35 36//36
f 37//37 38//38 39//39
f 37//37 39//39 40//40
f 41//41 42//42 43//43
f 41//41 43//43 44//44
f 45//45 46//46 47//47
f 45//45 47//47 48//48
f 49//49 50//50 51//51
f 49//49 51//51 52//52
f 53//53 54//54 55//55
f 53//53 55//55 56//56
f 57//57 58//58 59//59
f 57//57 59//59 60//60
f 61//61 62//62 63//63
f 61//61 63//63 64//64
f 65//65 66//66 67//67
f 65//65 67//67 68//68
f 69//69 70//70 71//71
f 69//69 71//71 72//72
f 73//73 74//74 75//75
f 73//73 75//75 76//76
f 77//77 78//78 79//79
f 77//77 79//79 80//80
f 81//81 82//82 83//83
f 81//81 83//83 84//84
f 85//85 86//86 87//87
f 85//85 87//87 88//88
f 89//89 90//90 91//91
f 89//89 91//91 92//92
f 93//93 94//94 95//95
f 93//93 95//95 96//96
f 97//97 98//98 99//99
f 97//97 99//99 100//100
f 101//101 102//102 103//103
f 101//101 103//103 104//104
f 105//105 106//106 107//107
f 105//105 107//107 108//108
f 109//109 110//110 111//111
f 109//109 111//111 112//112
f 113//113 114//114 115//115
f 113//113 115//115 116//116
s 2
f 117//117 118//118 119//119
f 117//117 119//119 120//120
f 121//121 122//122 123//123
f 121//121 123//123 124//124
f 125//125 126//126 127//127
f 125//125 127//127 128//128
f 129//129 130//130 131//131
f 129//129 131//131 132//132
f 133//133 134//134 135//135
f 133//133 135//135 136//136
f 137//137 138//138 139//139
f 137//137 139//139 140//140
f 141//141 142//142 143//143
f 141//141 143//143 144//144
f 145//145 146//146 147//147
f 145//145 147//147 148//148
f 149//149 150//150 151//151
f 149//149 151//151 152//152
f 153//153 154//154 155//155
f 153//153 155//155 156//156
s 1
f 3//3 6//6 5//5
f 3//3 5//5 4//4
f 5//5 98//98 103//103
f 5//5 103//103 4//4
f 103//103 102//102 1//1
f 103//103 1//1 4//4
f 7//7 10//10 9//9
f 7//7 9//9 8//8
f 9//9 94//94 99//99
f 9//9 99//99 8//8
f 99//99 98//98 5//5
f 99//99 5//5 8//8
f 11//11 14//14 13//13
f 11//11 13//13 12//12
f 13//13 90//90 95//95
f 13//13 95//95 12//12
f 95//95 94//94 9//9
f 95//95 9//9 12//12
f 15//15 18//18 17//17
f 15//15 17//17 16//16
f 17//17 157//157 91//91
f 17//17 91//91 16//16
f 91//91 90//90 13//13
f 91//91 13//13 16//16
f 19//19 22//22 21//21
f 19//19 21//21 20//20
f 21//21 86//86 158//158
f 21//21 158//158 20//20
f 158//158 157//157 17//17
f 158//158 17//17 20//20
f 23//23 26//26 25//25
f 23//23 25//25 24//24
f 25//25 82//82 87//87
f 25//25 87//87 24//24
f 87//87 86//86 21//21
f 87//87 21//21 24//24
f 27//27 30//30 29//29
f 27//27 29//29 28//28
f 29//29 114//114 83//83
f 29//29 83//83 28//28
f 83//83 82//82 25//25
f 83//83 25//25 28//28
f 31//31 34//34 33//33
f 31//31 33//33 32//32
f 33//33 110//110 115//115
f 33//33 115//115 32//32
f 115//115 114//114 29//29
f 115//115 29//29 32//32
f 35//35 38//38 37//37
f 35//35 37//37 36//36
f 37//37 106//106 111//111
f 37//37 111//111 36//36
f 111//111 110//110 33//33
f 111//111 33//33 36//36
f 39//39 2//2 1//1
f 39//39 1//1 40//40
f 1//1 102//102 107//107
f 1//1 107//107 40//40
f 107//107 106//106 37//37
f 107//107 37//37 40//40
f 43//43 46//46 45//45
f 43//43 45//45 44//44
f 45//45 159//159 160//160
f 45//45 160//160 44//44
f 160//160 161//161 41//41
f 160//160 41//41 44//44
f 47//47 50//50 49//49
f 47//47 49//49 48//48
f 49//49 162//162 163//163
f 49//49 163//163 48//48
f 163//163 159//159 45//45
f 163//163 45//45 48//48
f 51//51 54//54 53//53
f 51//51 53//53 52//52
f 53//53 164//164 165//165
f 53//53 165//165 52//52
f 165//165 162//162 49//49
f 165//165 49//49 52//52
f 55//55 58//58 57//57
f 55//55 57//57 56//56
f 57//57 166//166 167//167
f 57//57 167//167 56//56
f 167//167 164//164 53//53
f 167//167 53//53 56//56
f 59//59 62//62 61//61
f 59//59 61//61 60//60
f 61//61 168//168 169//169
f 61//61 169//169 60//60
f 169//169 166//166 57//57
f 169//169 57//57 60//60
f 63//63 66//66 65//65
f 63//63 65//65 64//64
f 65//65 170//170 171//171
f 65//65 171//171 64//64
f 171//171 168//168 61//61
f 171//171 61//61 64//64
f 67//67 70//70 69//69
f 67//67 69//69 68//68
f 69//69 172//172 173//173
f 69//69 173//173 68//68
f 173//173 170//170 65//65
f 173//173 65//65 68//68
f 71//71 74//74 73//73
f 71//71 73//73 72//72
f 73//73 174//174 175//175
f 73//73 175//175 72//72
f 175//175 172//172 69//69
f 175//175 69//69 72//72
f 75//75 78//78 77//77
f 75//75 77//77 76//76
f 77//77 176//176 177//177
f 77//77 177//177 76//76
f 177//177 174//174 73//73
f 177//177 73//73 76//76
f 79//79 42//42 41//41
f 79//79 41//41 80//80
f 41//41 161//161 178//178
f 41//41 178//178 80//80
f 178//178 176//176 77//77
f 178//178 77//77 80//80
f 83//83 114//114 113//113
f 83//83 113//113 84//84
f 113//113 70//70 67//67
f 113//113 67//67 84//84
f 67//67 66//66 81//81
f 67//67 81//81 84//84
f 87//87 82//82 81//81
f 87//87 81//81 88//88
f 81//81 66//66 63//63
f 81//81 63//63 88//88
f 63//63 62//62 85//85
f 63//63 85//85 88//88
f 91//91 157//157 179//179
f 91//91 179//179 92//92
f 179//179 58//58 55//55
f 179//179 55//55 92//92
f 55//55 54//54 89//89
f 55//55 89//89 92//92
f 95//95 90//90 89//89
f 95//95 89//89 96//96
f 89//89 54//54 51//51
f 89//89 51//51 96//96
f 51//51 50//50 93//93
f 51//51 93//93 96//96
f 99//99 94//94 93//93
f 99//99 93//93 100//100
f 93//93 50//50 47//47
f 93//93 47//47 100//100
f 47//47 46//46 97//97
f 47//47 97//97 100//100
f 103//103 98//98 97//97
f 103//103 97//97 104//104
f 97//97 46//46 43//43
f 97//97 43//43 104//104
f 43//43 42//42 101//101
f 43//43 101//101 104//104
f 107//107 102//102 101//101
f 107//107 101//101 108//108
f 101//101 42//42 79//79
f 101//101 79//79 108//108
f 79//79 78//78 105//105
f 79//79 105//105 108//108
f 111//111 106//106 105//105
f 111//111 105//105 112//112
f 105//105 78//78 75//75
f 105//105 75//75 112//112
f 75//75 74//74 109//109
f 75//75 109//109 112//112
f 115//115 110//110 109//109
f 115//115 109//109 116//116
f 109//109 74//74 71//71
f 109//109 71//71 116//116
f 71//71 70//70 113//113
f 71//71 113//113 116//116
s 2
f 119//119 122//122 121//121
f 119//119 121//121 120//120
f 121//121 180//180 181//181
f 121//121 181//181 120//120
f 181//181 182//182 117//117
f 181//181 117//117 120//120
f 123//123 126//126 125//125
f 123//123 125//125 124//124
f 125//125 183//183 184//184
f 125//125 184//184 124//124
f 184//184 180//180 121//121
f 184//184 121//121 124//124
f 127//127 130//130 129//129
f 127//127 129//129 128//128
f 129//129 185//185 186//186
f 129//129 186//186 128//128
f 186//186 183//183 125//125
f 186//186 125//125 128//128
f 131//131 134//134 133//133
f 131//131 133//133 132//132
f 133//133 187//187 188//188
f 133//133 188//188 132//132
f 188//188 185//185 129//129
f 188//188 129//129 132//132
f 135//135 138//138 137//137
f 135//135 137//137 136//136
f 137//137 189//189 190//190
f 137//137 190//190 136//136
f 190//190 187//187 133//133
f 190//190 133//133 136//136
f 139//139 142//142 141//141
f 139//139 141//141 140//140
f 141//141 191//191 192//192
f 141//141 192//192 140//140
f 192//192 189//189 137//137
f 192//192 137//137 140//140
f 143//143 146//146 145//145
f 143//143 145//145 144//144
f 145//145 193//193 194//194
f 145//145 194//194 144//144
f 194//194 191//191 141//141
f 194//194 141//141 144//144
f 147//147 150//150 149//149
f 147//147 149//149 148//148
f 149//149 195//195 196//196
f 149//149 196//196 148//148
f 196//196 193//193 145//145
f 196//196 145//145 148//148
f 151//151 154//154 153//153
f 151//151 153//153 152//152
f 153//153 197//197 198//198
f 153//153 198//198 152//152
f 198//198 195//195 149//149
f 198//198 149//149 152//152
f 155//155 118//118 117//117
f 155//155 117//117 156//156
f 117//117 182//182 199//199
f 117//117 199//199 156//156
f 199//199 197//197 153//153
f 199//199 153//153 156//156
s 3
g P2_InnerDish
usemtl InnerDish
f 200//200 201//201 202//202
f 200//200 202//202 203//203
f 204//204 205//205 206//206
f 204//204 206//206 207//207
f 208//208 209//209 210//210
f 208//208 210//210 211//211
f 212//212 213//213 214//214
f 212//212 214//214 215//215
f 216//216 217//217 218//218
f 216//216 218//218 219//219
f 220//220 221//221 222//222
f 220//220 222//222 223//223
f 224//224 225//225 226//226
f 224//224 226//226 227//227
f 228//228 229//229 230//230
f 228//228 230//230 231//231
f 232//232 233//233 234//234
f 232//232 234//234 235//235
f 236//236 237//237 238//238
f 236//236 238//238 239//239
s 4
f 240//179 241//157 242//158
f 240//179 242//158 243//240
s 3
f 244//241 245//242 246//243
f 244//241 246//243 247//244
f 248//245 249//246 250//247
f 248//245 250//247 251//248
f 252//249 253//250 254//251
f 252//249 254//251 255//252
f 256//253 257//254 258//255
f 256//253 258//255 259//256
f 260//257 261//258 262//259
f 260//257 262//259 263//260
f 264//261 265//262 266//263
f 264//261 266//263 267//264
f 268//265 269//266 270//267
f 268//265 270//267 271//268
f 272//269 273//270 274//271
f 272//269 274//271 275//272
f 276//273 277//274 278//275
f 276//273 278//275 279//276
f 280//277 281//278 282//279
f 280//277 282//279 283//280
f 202//202 205//205 204//204
f 202//202 204//204 203//203
f 204//204 261//258 266//263
f 204//204 266//263 203//203
f 266//263 265//262 200//200
f 266//263 200//200 203//203
f 206//206 209//209 208//208
f 206//206 208//208 207//207
f 208//208 257//254 262//259
f 208//208 262//259 207//207
f 262//259 261//258 204//204
f 262//259 204//204 207//207
f 210//210 213//213 212//212
f 210//210 212//212 211//211
f 212//212 253//250 258//255
f 212//212 258//255 211//211
f 258//255 257//254 208//208
f 258//255 208//208 211//211
f 214//214 217//217 216//216
f 214//214 216//216 215//215
f 216//216 249//246 254//251
f 216//216 254//251 215//215
f 254//251 253//250 212//212
f 254//251 212//212 215//215
f 218//218 221//221 220//220
f 218//218 220//220 219//219
f 220//220 245//242 250//247
f 220//220 250//247 219//219
f 250//247 249//246 216//216
f 250//247 216//216 219//219
f 222//222 225//225 224//224
f 222//222 224//224 223//223
f 224//224 281//278 246//243
f 224//224 246//243 223//223
f 246//243 245//242 220//220
f 246//243 220//220 223//223
f 226//226 229//229 228//228
f 226//226 228//228 227//227
f 228//228 277//274 282//279
f 228//228 282//279 227//227
f 282//279 281//278 224//224
f 282//279 224//224 227//227
f 230//230 233//233 232//232
f 230//230 232//232 231//231
f 232//232 273//270 278//275
f 232//232 278//275 231//231
f 278//275 277//274 228//228
f 278//275 228//228 231//231
f 234//234 237//237 236//236
f 234//234 236//236 235//235
f 236//236 269//266 274//271
f 236//236 274//271 235//235
f 274//271 273//270 232//232
f 274//271 232//232 235//235
f 238//238 201//201 200//200
f 238//238 200//200 239//239
f 200//200 265//262 270//267
f 200//200 270//267 239//239
f 270//267 269//266 236//236
f 270//267 236//236 239//239
s 4
f 242//158 284//86 285//85
f 242//158 285//85 243//240
f 285//85 286//62 287//59
f 285//85 287//59 243//240
f 287//59 288//281 240//179
f 287//59 240//179 243//240
s 3
f 246//243 281//278 280//277
f 246//243 280//277 247//244
f 280//277 289//142 290//139
f 280//277 290//139 247//244
f 290//139 291//138 244//241
f 290//139 244//241 247//244
f 250//247 245//242 244//241
f 250//247 244//241 251//248
f 244//241 291//138 292//282
f 244//241 292//282 251//248
f 292//282 293//134 248//245
f 292//282 248//245 251//248
f 254//251 249//246 248//245
f 254//251 248//245 255//252
f 248//245 293//134 294//131
f 248//245 294//131 255//252
f 294//131 295//130 252//249
f 294//131 252//249 255//252
f 258//255 253//250 252//249
f 258//255 252//249 259//256
f 252//249 295//130 296//127
f 252//249 296//127 259//256
f 296//127 297//283 256//253
f 296//127 256//253 259//256
f 262//259 257//254 256//253
f 262//259 256//253 263//260
f 256//253 297//283 298//123
f 256//253 298//123 263//260
f 298//123 299//122 260//257
f 298//123 260//257 263//260
f 266//263 261//258 260//257
f 266//263 260//257 267//264
f 260//257 299//122 300//119
f 260//257 300//119 267//264
f 300//119 301//118 264//261
f 300//119 264//261 267//264
f 270//267 265//262 264//261
f 270//267 264//261 271//268
f 264//261 301//118 302//155
f 264//261 302//155 271//268
f 302//155 303//154 268//265
f 302//155 268//265 271//268
f 274//271 269//266 268//265
f 274//271 268//265 275//272
f 268//265 303//154 304//151
f 268//265 304//151 275//272
f 304//151 305//150 272//269
f 304//151 272//269 275//272
f 278//275 273//270 272//269
f 278//275 272//269 279//276
f 272//269 305//150 306//147
f 272//269 306//147 279//276
f 306//147 307//146 276//273
f 306//147 276//273 279//276
f 282//279 277//274 276//273
f 282//279 276//273 283//280
f 276//273 307//146 308//143
f 276//273 308//143 283//280
f 308//143 289//142 280//277
f 308//143 280//277 283//280
s 5
g P2_DishMiddle
usemtl DishMiddle
f 309//284 310//285 311//286
f 309//284 311//286 312//287
f 313//288 314//289 315//290
f 313//288 315//290 316//291
f 317//292 318//293 319//294
f 317//292 319//294 320//295
f 321//296 322//297 323//298
f 321//296 323//298 324//299
f 325//300 326//301 327//302
f 325//300 327//302 328//303
f 329//304 330//305 331//306
f 329//304 331//306 332//307
f 333//308 334//309 335//310
f 333//308 335//310 336//311
f 337//312 338//313 339//314
f 337//312 339//314 340//315
f 341//316 342//317 343//318
f 341//316 343//318 344//319
f 345//320 346//321 347//322
f 345//320 347//322 348//323
f 349//324 350//325 351//326
f 349//324 351//326 352//327
f 353//328 354//329 355//330
f 353//328 355//330 356//331
f 357//332 358//333 359//334
f 357//332 359//334 360//335
f 361//336 362//337 363//338
f 361//336 363//338 364//339
f 365//340 366//341 367//342
f 365//340 367//342 368//343
f 369//344 370//345 371//346
f 369//344 371//346 372//347
f 373//348 374//349 375//350
f 373//348 375//350 376//351
f 377//352 378//353 379//354
f 377//352 379//354 380//355
f 381//356 382//357 383//358
f 381//356 383//358 384//359
f 385//360 386//361 387//362
f 385//360 387//362 388//363
f 311//286 314//289 313//288
f 311//286 313//288 312//287
f 313//288 389//364 309//284
f 313//288 309//284 312//287
f 315//290 318//293 317//292
f 315//290 317//292 316//291
f 317//292 389//364 313//288
f 317//292 313//288 316//291
f 319//294 322//297 321//296
f 319//294 321//296 320//295
f 321//296 389//364 317//292
f 321//296 317//292 320//295
f 323//298 326//301 325//300
f 323//298 325//300 324//299
f 325//300 389//364 321//296
f 325//300 321//296 324//299
f 327//302 330//305 329//304
f 327//302 329//304 328//303
f 329//304 389//364 325//300
f 329//304 325//300 328//303
f 331//306 334//309 333//308
f 331//306 333//308 332//307
f 333//308 389//364 329//304
f 333//308 329//304 332//307
f 335//310 338//313 337//312
f 335//310 337//312 336//311
f 337//312 389//364 333//308
f 337//312 333//308 336//311
f 339//314 342//317 341//316
f 339//314 341//316 340//315
f 341//316 389//364 337//312
f 341//316 337//312 340//315
f 343//318 346//321 345//320
f 343//318 345//320 344//319
f 345//320 389//364 341//316
f 345//320 341//316 344//319
f 347//322 310//285 309//284
f 347//322 309//284 348//323
f 309//284 389//364 345//320
f 309//284 345//320 348//323
f 351//326 354//329 353//328
f 351//326 353//328 352//327
f 353//328 314//289 311//286
f 353//328 311//286 352//327
f 311//286 310//285 349//324
f 311//286 349//324 352//327
f 355//330 358//333 357//332
f 355//330 357//332 356//331
f 357//332 318//293 315//290
f 357//332 315//290 356//331
f 315//290 314//289 353//328
f 315//290 353//328 356//331
f 359//334 362//337 361//336
f 359//334 361//336 360//335
f 361//336 322//297 319//294
f 361//336 319//294 360//335
f 319//294 318//293 357//332
f 319//294 357//332 360//335
f 363//338 366//341 365//340
f 363//338 365//340 364//339
f 365//340 326//301 323//298
f 365//340 323//298 364//339
f 323//298 322//297 361//336
f 323//298 361//336 364//339
f 367//342 370//345 369//344
f 367//342 369//344 368//343
f 369//344 330//305 327//302
f 369//344 327//302 368//343
f 327//302 326//301 365//340
f 327//302 365//340 368//343
f 371//346 374//349 373//348
f 371//346 373//348 372//347
f 373//348 334//309 331//306
f 373//348 331//306 372//347
f 331//306 330//305 369//344
f 331//306 369//344 372//347
f 375//350 378//353 377//352
f 375//350 377//352 376//351
f 377//352 338//313 335//310
f 377//352 335//310 376//351
f 335//310 334//309 373//348
f 335//310 373//348 376//351
f 379//354 382//357 381//356
f 379//354 381//356 380//355
f 381//356 342//317 339//314
f 381//356 339//314 380//355
f 339//314 338//313 377//352
f 339//314 377//352 380//355
f 383//358 386//361 385//360
f 383//358 385//360 384//359
f 385//360 346//321 343//318
f 385//360 343//318 384//359
f 343//318 342//317 381//356
f 343//318 381//356 384//359
f 387//362 350//325 349//324
f 387//362 349//324 388//363
f 349//324 310//285 347//322
f 349//324 347//322 388//363
f 347//322 346//321 385//360
f 347//322 385//360 388//363
