# Blender 5.2.2 LTS
# www.blender.org
mtllib tdrsPanelIzq.mtl
g Ala1_polySurface5.001
v -0.443300 -0.001487 0.000000
v -0.443300 -0.001487 0.026755
v -0.443300 0.000000 0.026755
v -0.443300 0.000000 0.000000
v -0.443300 -0.001487 -0.042711
v -0.443300 -0.001487 -0.026755
v -0.443300 0.000000 -0.026755
v -0.443300 0.000000 -0.042711
v -0.443300 0.001487 0.026755
v -0.443300 0.001487 -0.000000
v -0.443300 0.001487 -0.026755
v -0.443300 0.001487 -0.042711
v -0.206768 0.001487 -0.026755
v -0.206768 0.001487 -0.042711
v -0.209951 0.001487 -0.042711
v -0.209951 0.001487 -0.026755
v -0.206768 0.001487 0.026755
v -0.206768 0.001487 -0.000000
v -0.209951 0.001487 -0.000000
v -0.209951 0.001487 0.026755
v -0.206768 0.000000 0.042711
v -0.206768 0.001487 0.042711
v -0.209951 0.001487 0.042711
v -0.209951 0.000000 0.042711
v -0.206768 -0.001487 0.042711
v -0.209951 -0.001487 0.042711
v -0.206768 -0.001487 0.000000
v -0.206768 -0.001487 0.026755
v -0.209951 -0.001487 0.026755
v -0.209951 -0.001487 0.000000
v -0.206768 -0.001487 -0.042711
v -0.206768 -0.001487 -0.026755
v -0.209951 -0.001487 -0.026755
v -0.209951 -0.001487 -0.042711
v -0.206768 0.000000 -0.042711
v -0.209951 0.000000 -0.042711
v -0.443300 -0.001487 0.042711
v -0.443300 0.000000 0.042711
v -0.443300 0.001487 0.042711
v -0.326108 0.001487 -0.026755
v -0.326108 0.001487 -0.042711
v -0.330112 0.001487 -0.042711
v -0.330112 0.001487 -0.026755
v -0.326108 0.001487 -0.000000
v -0.330112 0.001487 -0.000000
v -0.326108 0.001487 0.026755
v -0.330112 0.001487 0.026755
v -0.326108 0.001487 0.042711
v -0.330112 0.001487 0.042711
v -0.326108 0.000000 0.042711
v -0.330112 0.000000 0.042711
v -0.326108 -0.001487 0.042711
v -0.330112 -0.001487 0.042711
v -0.330112 -0.001487 0.026755
v -0.326108 -0.001487 0.026755
v -0.326108 -0.001487 0.000000
v -0.330112 -0.001487 0.000000
v -0.330112 -0.001487 -0.026755
v -0.326108 -0.001487 -0.026755
v -0.326108 -0.001487 -0.042711
v -0.330112 -0.001487 -0.042711
v -0.326108 0.000000 -0.042711
v -0.330112 0.000000 -0.042711
v -0.050000 0.004914 0.008873
v -0.050000 0.004914 0.000000
v -0.089898 0.001487 -0.000000
v -0.089898 0.001487 0.026755
v -0.050000 0.004914 -0.008873
v -0.089898 0.001487 -0.026755
v -0.050000 -0.004914 0.014165
v -0.050000 -0.000000 0.014165
v -0.089898 0.000000 0.042711
v -0.089898 -0.001487 0.042711
v -0.050000 -0.004914 -0.014165
v -0.050000 -0.004914 -0.008873
v -0.089898 -0.001487 -0.026755
v -0.089898 -0.001487 -0.042711
v -0.050000 -0.000000 -0.014165
v -0.089898 0.000000 -0.042711
v -0.050000 0.004914 0.014165
v -0.089898 0.001487 0.042711
v -0.050000 0.004914 -0.008873
v -0.050000 0.004914 -0.014165
v -0.089898 0.001487 -0.042711
v -0.089898 0.001487 -0.026755
v -0.089898 -0.001487 0.026755
v -0.050000 -0.004914 0.008873
v -0.050000 0.004914 0.008873
v -0.089898 0.001487 0.026755
v -0.089898 -0.001487 0.000000
v -0.089898 -0.001487 0.026755
v -0.108010 -0.001487 0.026755
v -0.108010 -0.001487 0.000000
v -0.089898 -0.001487 0.042711
v -0.089898 0.000000 0.042711
v -0.108010 0.000000 0.042711
v -0.108010 -0.001487 0.042711
v -0.089898 -0.001487 -0.042711
v -0.089898 -0.001487 -0.026755
v -0.108010 -0.001487 -0.026755
v -0.108010 -0.001487 -0.042711
v -0.089898 0.000000 -0.042711
v -0.108010 0.000000 -0.042711
v -0.089898 0.001487 0.042711
v -0.108010 0.001487 0.042711
v -0.089898 0.001487 0.026755
v -0.089898 0.001487 -0.000000
v -0.108010 0.001487 -0.000000
v -0.108010 0.001487 0.026755
v -0.089898 0.001487 -0.026755
v -0.089898 0.001487 -0.042711
v -0.108010 0.001487 -0.042711
v -0.108010 0.001487 -0.026755
v -0.206768 0.001487 -0.042711
v -0.206768 0.001487 -0.026755
v -0.206768 0.001487 -0.000000
v -0.206768 0.001487 0.026755
v -0.206768 0.001487 0.042711
v -0.206768 0.000000 0.042711
v -0.206768 -0.001487 0.042711
v -0.206768 -0.001487 0.026755
v -0.206768 -0.001487 0.000000
v -0.206768 -0.001487 -0.026755
v -0.206768 -0.001487 -0.042711
v -0.206768 0.000000 -0.042711
vn -0.7071 -0.7071 -0.0000
vn -1.0000 -0.0000 -0.0000
vn -0.5774 -0.5773 -0.5774
vn -0.7071 -0.0000 -0.7071
vn -0.7071 0.7071 -0.0000
vn -0.5774 0.5773 -0.5773
vn -0.0000 1.0000 -0.0000
vn -0.0000 0.7071 -0.7071
vn -0.0000 -0.0000 1.0000
vn -0.0000 0.7071 0.7071
vn -0.0000 -0.7071 0.7071
vn -0.0000 -1.0000 -0.0000
vn -0.0000 -0.7071 -0.7071
vn -0.0000 -0.0000 -1.0000
vn -0.5774 -0.5773 0.5774
vn -0.7071 -0.0000 0.7071
vn -0.5773 0.5773 0.5774
vn -0.7368 0.6761 -0.0000
vn -0.0428 0.9991 -0.0000
vn -0.0429 0.9991 -0.0000
vn -0.7599 -0.5036 0.4111
vn -0.4572 -0.0000 0.8894
vn 0.3056 -0.0000 0.9522
vn 0.1811 -0.7279 0.6613
vn -0.7599 -0.5036 -0.4111
vn -0.7368 -0.6761 -0.0000
vn -0.0428 -0.9991 -0.0000
vn 0.1811 -0.7279 -0.6613
vn -0.4572 -0.0000 -0.8894
vn 0.3056 -0.0000 -0.9522
vn -0.7599 0.5036 0.4111
vn 0.1811 0.7279 0.6613
vn -0.7368 0.6761 -0.0001
vn -0.7599 0.5036 -0.4110
vn 0.1811 0.7279 -0.6613
vn -0.7368 -0.6761 0.0001
vn 0.1809 -0.7280 0.6613
vn 0.3055 -0.0000 0.9522
vn 0.1809 -0.7280 -0.6613
vn 0.3055 -0.0000 -0.9522
vn 0.1809 0.7280 0.6613
vn 0.1809 0.7280 -0.6613
s 1
g off
g Ala1_WingBlue
usemtl WingBlue
f 1//1 2//1 3//2
f 1//1 3//2 4//2
f 5//3 6//1 7//2
f 5//3 7//2 8//4
f 4//2 3//2 9//5
f 4//2 9//5 10//5
f 8//4 7//2 11//5
f 8//4 11//5 12//6
f 13//7 14//8 15//8
f 13//7 15//8 16//7
s 0
f 17//7 18//7 19//7
f 17//7 19//7 20//7
s 1
f 21//9 22//10 23//10
f 21//9 23//10 24//9
f 25//11 21//9 24//9
f 25//11 24//9 26//11
s 0
f 27//12 28//12 29//12
f 27//12 29//12 30//12
s 1
f 31//13 32//12 33//12
f 31//13 33//12 34//13
f 35//14 31//13 34//13
f 35//14 34//13 36//14
f 14//8 35//14 36//14
f 14//8 36//14 15//8
s 0
f 33//12 32//12 27//12
f 33//12 27//12 30//12
s 1
f 7//2 6//1 1//1
f 7//2 1//1 4//2
f 11//5 7//2 4//2
f 11//5 4//2 10//5
s 0
f 18//7 13//7 16//7
f 18//7 16//7 19//7
s 1
f 29//12 28//12 25//11
f 29//12 25//11 26//11
f 3//2 2//1 37//15
f 3//2 37//15 38//16
f 9//5 3//2 38//16
f 9//5 38//16 39//17
f 22//10 17//7 20//7
f 22//10 20//7 23//10
f 40//7 41//8 42//8
f 40//7 42//8 43//7
s 0
f 44//7 40//7 43//7
f 44//7 43//7 45//7
f 46//7 44//7 45//7
f 46//7 45//7 47//7
s 1
f 48//10 46//7 47//7
f 48//10 47//7 49//10
f 50//9 48//10 49//10
f 50//9 49//10 51//9
f 52//11 50//9 51//9
f 52//11 51//9 53//11
f 54//12 55//12 52//11
f 54//12 52//11 53//11
s 0
f 56//12 55//12 54//12
f 56//12 54//12 57//12
f 58//12 59//12 56//12
f 58//12 56//12 57//12
s 1
f 60//13 59//12 58//12
f 60//13 58//12 61//13
f 62//14 60//13 61//13
f 62//14 61//13 63//14
f 41//8 62//14 63//14
f 41//8 63//14 42//8
f 43//7 42//8 12//6
f 43//7 12//6 11//5
f 45//7 43//7 11//5
f 45//7 11//5 10//5
f 47//7 45//7 10//5
f 47//7 10//5 9//5
f 49//10 47//7 9//5
f 49//10 9//5 39//17
f 51//9 49//10 39//17
f 51//9 39//17 38//16
f 53//11 51//9 38//16
f 53//11 38//16 37//15
f 2//1 54//12 53//11
f 2//1 53//11 37//15
f 57//12 54//12 2//1
f 57//12 2//1 1//1
f 6//1 58//12 57//12
f 6//1 57//12 1//1
f 61//13 58//12 6//1
f 61//13 6//1 5//3
f 63//14 61//13 5//3
f 63//14 5//3 8//4
f 42//8 63//14 8//4
f 42//8 8//4 12//6
f 16//7 15//8 41//8
f 16//7 41//8 40//7
s 0
f 19//7 16//7 40//7
f 19//7 40//7 44//7
f 20//7 19//7 44//7
f 20//7 44//7 46//7
s 1
f 23//10 20//7 46//7
f 23//10 46//7 48//10
f 24//9 23//10 48//10
f 24//9 48//10 50//9
f 26//11 24//9 50//9
f 26//11 50//9 52//11
f 55//12 29//12 26//11
f 55//12 26//11 52//11
s 0
f 30//12 29//12 55//12
f 30//12 55//12 56//12
f 59//12 33//12 30//12
f 59//12 30//12 56//12
s 1
f 34//13 33//12 59//12
f 34//13 59//12 60//13
f 36//14 34//13 60//13
f 36//14 60//13 62//14
f 15//8 36//14 62//14
f 15//8 62//14 41//8
s 26
g Ala1_Transparency
usemtl Transparency
f 64//18 65//18 66//19
f 64//18 66//19 67//20
f 65//18 68//18 69//19
f 65//18 69//19 66//19
s 27
g Ala1_WingStruts1
usemtl WingStruts1
f 70//21 71//22 72//23
f 70//21 72//23 73//24
s 28
f 74//25 75//26 76//27
f 74//25 76//27 77//28
f 78//29 74//25 77//28
f 78//29 77//28 79//30
s 27
f 71//22 80//31 81//32
f 71//22 81//32 72//23
s 28
f 82//33 83//34 84//35
f 82//33 84//35 85//19
f 83//34 78//29 79//30
f 83//34 79//30 84//35
s 27
f 86//27 87//36 70//21
f 86//27 70//21 73//24
f 80//31 88//18 89//19
f 80//31 89//19 81//32
s 29
g Ala1_InnerWingBlue
usemtl InnerWingBlue
f 90//27 91//27 92//12
f 90//27 92//12 93//12
f 94//37 95//38 96//9
f 94//37 96//9 97//11
f 98//39 99//27 100//12
f 98//39 100//12 101//13
f 102//40 98//39 101//13
f 102//40 101//13 103//14
f 95//38 104//41 105//10
f 95//38 105//10 96//9
f 106//19 107//19 108//7
f 106//19 108//7 109//7
f 110//19 111//42 112//8
f 110//19 112//8 113//7
f 111//42 102//40 103//14
f 111//42 103//14 112//8
f 113//7 112//8 114//8
f 113//7 114//8 115//7
s 0
f 109//7 108//7 116//7
f 109//7 116//7 117//7
s 29
f 96//9 105//10 118//10
f 96//9 118//10 119//9
f 97//11 96//9 119//9
f 97//11 119//9 120//11
s 0
f 93//12 92//12 121//12
f 93//12 121//12 122//12
s 29
f 101//13 100//12 123//12
f 101//13 123//12 124//13
f 103//14 101//13 124//13
f 103//14 124//13 125//14
f 112//8 103//14 125//14
f 112//8 125//14 114//8
f 100//12 99//27 90//27
f 100//12 90//27 93//12
s 0
f 123//12 100//12 93//12
f 123//12 93//12 122//12
f 108//7 113//7 115//7
f 108//7 115//7 116//7
s 29
f 107//19 110//19 113//7
f 107//19 113//7 108//7
f 92//12 91//27 94//37
f 92//12 94//37 97//11
f 121//12 92//12 97//11
f 121//12 97//11 120//11
f 105//10 109//7 117//7
f 105//10 117//7 118//10
f 104//41 106//19 109//7
f 104//41 109//7 105//10
