# Blender 5.2.2 LTS
# www.blender.org
mtllib tdrsParabDer.mtl
g P1_polySurface5.003
v 0.028839 -0.013760 -0.020877
v 0.018808 -0.016170 -0.013589
v 0.012902 -0.016170 -0.017881
v 0.020843 -0.013760 -0.028810
v 0.006977 -0.013760 -0.035681
v 0.005759 -0.016170 -0.022172
v -0.000923 -0.016170 -0.022172
v -0.001295 -0.013760 -0.035681
v -0.011684 -0.013760 -0.033964
v -0.007605 -0.016170 -0.022172
v -0.013512 -0.016170 -0.017881
v -0.021452 -0.013760 -0.028810
v -0.029449 -0.013760 -0.020877
v -0.019418 -0.016170 -0.013589
v -0.021674 -0.016170 -0.006646
v -0.034522 -0.013760 -0.010821
v -0.036329 -0.013760 0.000297
v -0.023930 -0.016170 0.000297
v -0.021674 -0.016170 0.007240
v -0.034522 -0.013760 0.011415
v -0.029449 -0.013760 0.021471
v -0.019418 -0.016170 0.014183
v -0.013512 -0.016170 0.018474
v -0.021452 -0.013760 0.029404
v -0.014063 -0.013760 0.034558
v -0.007605 -0.016170 0.022766
v -0.006864 -0.016170 0.022766
v -0.010808 -0.013760 0.036275
v 0.011124 -0.013760 0.034558
v 0.006996 -0.016170 0.022766
v 0.012902 -0.016170 0.018474
v 0.020843 -0.013760 0.029404
v 0.028839 -0.013760 0.021471
v 0.018808 -0.016170 0.014183
v 0.021064 -0.016170 0.007240
v 0.033913 -0.013760 0.011415
v 0.035719 -0.013760 0.000297
v 0.023320 -0.016170 0.000297
v 0.021064 -0.016170 -0.006646
v 0.033913 -0.013760 -0.010821
v 0.061711 -0.002224 -0.044760
v 0.057098 -0.004478 -0.041409
v 0.041348 -0.004478 -0.057034
v 0.044695 -0.002224 -0.061640
v 0.014765 -0.002224 -0.076901
v 0.014038 -0.004478 -0.070567
v -0.002255 -0.004478 -0.070567
v -0.002412 -0.002224 -0.076262
v -0.024519 -0.002224 -0.072606
v -0.022718 -0.004478 -0.067184
v -0.041958 -0.004478 -0.057033
v -0.045305 -0.002224 -0.061640
v -0.062320 -0.002224 -0.044760
v -0.057708 -0.004478 -0.041408
v -0.067701 -0.004478 -0.021601
v -0.073117 -0.002224 -0.023361
v -0.076960 -0.002224 0.000297
v -0.071258 -0.004478 0.000297
v -0.067701 -0.004478 0.022195
v -0.073117 -0.002224 0.023955
v -0.062320 -0.002224 0.045354
v -0.057708 -0.004478 0.042002
v -0.041958 -0.004478 0.057627
v -0.045305 -0.002224 0.062234
v -0.029580 -0.002224 0.073200
v -0.027403 -0.004478 0.067778
v -0.020993 -0.004478 0.071161
v -0.022149 -0.002285 0.075395
v 0.024014 -0.002224 0.073200
v 0.022205 -0.004478 0.067778
v 0.041348 -0.004478 0.057627
v 0.044695 -0.002224 0.062234
v 0.061711 -0.002224 0.045354
v 0.057098 -0.004478 0.042002
v 0.067091 -0.004478 0.022195
v 0.072507 -0.002224 0.023955
v 0.076350 -0.002224 0.000297
v 0.070649 -0.004478 0.000297
v 0.067091 -0.004478 -0.021601
v 0.072507 -0.002224 -0.023361
v -0.023698 -0.007677 0.058551
v -0.019054 -0.011034 0.046988
v -0.014619 -0.011034 0.049329
v -0.018164 -0.007677 0.061472
v -0.049859 -0.007677 0.036300
v -0.040023 -0.011034 0.029154
v -0.029125 -0.011034 0.039965
v -0.036263 -0.007677 0.049789
v -0.061557 -0.007677 0.000297
v -0.049399 -0.011034 0.000297
v -0.046937 -0.011034 0.015449
v -0.058486 -0.007677 0.019201
v -0.049859 -0.007677 -0.035706
v -0.040023 -0.011034 -0.028560
v -0.046937 -0.011034 -0.014855
v -0.058486 -0.007677 -0.018607
v -0.019654 -0.007677 -0.057957
v -0.015813 -0.011034 -0.046394
v -0.029125 -0.011034 -0.039371
v -0.036263 -0.007677 -0.049195
v 0.012077 -0.007677 -0.060878
v 0.009619 -0.011034 -0.048736
v -0.001655 -0.011034 -0.048735
v -0.001989 -0.007677 -0.060878
v 0.049249 -0.007677 -0.035706
v 0.039413 -0.011034 -0.028560
v 0.028516 -0.011034 -0.039371
v 0.035653 -0.007677 -0.049195
v 0.060947 -0.007677 0.000297
v 0.048789 -0.011034 0.000297
v 0.046328 -0.011034 -0.014855
v 0.057876 -0.007677 -0.018607
v 0.049249 -0.007677 0.036300
v 0.039413 -0.011034 0.029154
v 0.046328 -0.011034 0.015449
v 0.057876 -0.007677 0.019201
v 0.019127 -0.007677 0.058551
v 0.015270 -0.011034 0.046988
v 0.028516 -0.011034 0.039965
v 0.035653 -0.007677 0.049789
v 0.007929 -0.014021 -0.005685
v 0.014899 -0.012876 -0.010750
v 0.010728 -0.012876 -0.014888
v 0.005670 -0.014021 -0.007927
v 0.001753 -0.014021 -0.009868
v 0.003494 -0.012876 -0.018473
v -0.000821 -0.012876 -0.018473
v -0.000585 -0.014021 -0.009868
v -0.003520 -0.014021 -0.009383
v -0.006242 -0.012876 -0.017577
v -0.011337 -0.012876 -0.014888
v -0.006280 -0.014021 -0.007927
v -0.008539 -0.014021 -0.005685
v -0.015509 -0.012876 -0.010750
v -0.018156 -0.012876 -0.005503
v -0.009972 -0.014021 -0.002844
v -0.010482 -0.014021 0.000297
v -0.019098 -0.012876 0.000297
v -0.018156 -0.012876 0.006097
v -0.009972 -0.014021 0.003438
v -0.008539 -0.014021 0.006279
v -0.015509 -0.012876 0.011344
v -0.011337 -0.012876 0.015482
v -0.006280 -0.014021 0.008521
v -0.004192 -0.014021 0.009976
v -0.007482 -0.012876 0.018171
v -0.005785 -0.012876 0.019067
v -0.003272 -0.014021 0.010462
v 0.002924 -0.014021 0.009976
v 0.005657 -0.012876 0.018171
v 0.010728 -0.012876 0.015482
v 0.005670 -0.014021 0.008520
v 0.007929 -0.014021 0.006279
v 0.014899 -0.012876 0.011344
v 0.017546 -0.012876 0.006097
v 0.009362 -0.014021 0.003438
v 0.009873 -0.014021 0.000297
v 0.018489 -0.012876 0.000297
v 0.017546 -0.012876 -0.005503
v 0.009362 -0.014021 -0.002844
v 0.004453 -0.013516 -0.003160
v 0.005261 -0.014141 -0.003747
v 0.003734 -0.014141 -0.005262
v 0.003148 -0.013516 -0.004455
v 0.000884 -0.013516 -0.005577
v 0.001086 -0.014141 -0.006574
v -0.000494 -0.014141 -0.006574
v -0.000467 -0.013516 -0.005577
v -0.002163 -0.013516 -0.005296
v -0.002478 -0.014141 -0.006246
v -0.004343 -0.014141 -0.005262
v -0.003757 -0.013516 -0.004455
v -0.005063 -0.013516 -0.003160
v -0.005870 -0.014141 -0.003747
v -0.006839 -0.014141 -0.001826
v -0.005891 -0.013516 -0.001518
v -0.006186 -0.013516 0.000297
v -0.007184 -0.014141 0.000297
v -0.006839 -0.014141 0.002420
v -0.005891 -0.013516 0.002112
v -0.005063 -0.013516 0.003754
v -0.005870 -0.014141 0.004341
v -0.004343 -0.014141 0.005856
v -0.003757 -0.013516 0.005049
v -0.002551 -0.013516 0.005890
v -0.002932 -0.014141 0.006840
v -0.002311 -0.014141 0.007168
v -0.002020 -0.013516 0.006171
v 0.001561 -0.013516 0.005890
v 0.001878 -0.014141 0.006840
v 0.003734 -0.014141 0.005855
v 0.003148 -0.013516 0.005049
v 0.004453 -0.013516 0.003754
v 0.005261 -0.014141 0.004341
v 0.006230 -0.014141 0.002420
v 0.005281 -0.013516 0.002112
v 0.005576 -0.013516 0.000297
v 0.006575 -0.014141 0.000297
v 0.006230 -0.014141 -0.001826
v 0.005281 -0.013516 -0.001518
v 0.001312 -0.011034 0.049329
v -0.009828 -0.011034 0.049329
v -0.007293 -0.013760 0.036275
v 0.000882 -0.013760 0.036275
v 0.002032 -0.004478 0.071161
v -0.014068 -0.004478 0.071161
v -0.012186 -0.007677 0.061472
v 0.001713 -0.007677 0.061472
v 0.002215 -0.001747 0.076696
v -0.015143 -0.001747 0.076696
v -0.015174 -0.002224 0.076856
v 0.002220 -0.002224 0.076856
v -0.000078 -0.014141 0.007168
v -0.001639 -0.014141 0.007168
v -0.002279 -0.014021 0.010462
v 0.000030 -0.014021 0.010462
v -0.000075 -0.006297 0.007268
v -0.001659 -0.006297 0.007268
v -0.001446 -0.013516 0.006171
v -0.000111 -0.013516 0.006171
v 0.001949 -0.013516 -0.005296
v 0.002332 -0.014141 -0.006246
v 0.001738 -0.014141 -0.006574
v 0.001442 -0.013516 -0.005577
v 0.003596 -0.014021 -0.009383
v 0.006898 -0.012876 -0.017577
v 0.005277 -0.012876 -0.018473
v 0.002718 -0.014021 -0.009868
v 0.029075 -0.002224 -0.072607
v 0.026890 -0.004478 -0.067184
v 0.020770 -0.004478 -0.070567
v 0.021866 -0.002152 -0.074866
v 0.013502 -0.013760 -0.033964
v 0.006996 -0.016170 -0.022172
v 0.006377 -0.016170 -0.022172
v 0.010395 -0.013760 -0.035681
v 0.018512 -0.011034 -0.046394
v -0.006123 -0.016170 0.022766
v 0.029013 -0.001747 -0.072454
v 0.044601 -0.001747 -0.061511
v 0.061581 -0.001747 -0.044666
v -0.024469 -0.001747 -0.072454
v -0.002408 -0.001747 -0.076102
v 0.014732 -0.001747 -0.076741
v -0.062190 -0.001747 -0.044666
v -0.045211 -0.001747 -0.061511
v -0.076800 -0.001747 0.000297
v -0.072964 -0.001747 -0.023311
v -0.062190 -0.001747 0.045260
v -0.072964 -0.001747 0.023905
v -0.029519 -0.001747 0.073048
v -0.045211 -0.001747 0.062105
v -0.022102 -0.001809 0.075234
v 0.061581 -0.001747 0.045260
v 0.044601 -0.001747 0.062105
v 0.023963 -0.001747 0.073048
v 0.076190 -0.001747 0.000297
v 0.072355 -0.001747 0.023905
v 0.072355 -0.001747 -0.023311
v 0.023171 -0.007677 -0.057957
v -0.003950 -0.012876 0.019067
v 0.002370 -0.006297 -0.006341
v 0.003792 -0.006297 -0.005342
v 0.005342 -0.006297 -0.003805
v -0.002510 -0.006297 -0.006341
v -0.000497 -0.006297 -0.006674
v 0.001106 -0.006297 -0.006674
v -0.005951 -0.006297 -0.003805
v -0.004402 -0.006297 -0.005342
v -0.007284 -0.006297 0.000297
v -0.006934 -0.006297 -0.001857
v -0.005951 -0.006297 0.004399
v -0.006934 -0.006297 0.002451
v -0.002970 -0.006297 0.006935
v -0.004402 -0.006297 0.005936
v -0.002340 -0.006297 0.007268
v 0.005342 -0.006297 0.004399
v 0.003792 -0.006297 0.005936
v 0.001909 -0.006297 0.006935
v 0.006675 -0.006297 0.000297
v 0.006325 -0.006297 0.002451
v 0.006325 -0.006297 -0.001857
v 0.000436 -0.016170 0.022766
v 0.000314 -0.012876 0.019067
v 0.001768 -0.006297 -0.006674
v 0.021818 -0.001675 -0.074706
v 0.014277 -0.011034 -0.048735
v 0.055202 -0.003880 -0.040031
v 0.061581 -0.001747 -0.044666
v 0.044601 -0.001747 -0.061511
v 0.039973 -0.003880 -0.055140
v 0.013564 -0.003880 -0.068227
v 0.014732 -0.001747 -0.076741
v -0.002408 -0.001747 -0.076102
v -0.002191 -0.003880 -0.068227
v -0.021978 -0.003880 -0.064955
v -0.024469 -0.001747 -0.072454
v -0.045211 -0.001747 -0.061511
v -0.040582 -0.003880 -0.055140
v -0.055812 -0.003880 -0.040031
v -0.062190 -0.001747 -0.044666
v -0.072964 -0.001747 -0.023311
v -0.065475 -0.003880 -0.020878
v -0.068915 -0.003880 0.000297
v -0.076800 -0.001747 0.000297
v -0.072964 -0.001747 0.023905
v -0.065475 -0.003880 0.021472
v -0.055812 -0.003880 0.040625
v -0.062190 -0.001747 0.045260
v -0.045211 -0.001747 0.062105
v -0.040582 -0.003880 0.055734
v -0.026508 -0.003880 0.065549
v -0.029519 -0.001747 0.073048
v -0.022102 -0.001809 0.075234
v -0.020310 -0.003880 0.068821
v 0.021462 -0.003880 0.065549
v 0.023963 -0.001747 0.073048
v 0.044601 -0.001747 0.062105
v 0.039973 -0.003880 0.055734
v 0.055202 -0.003880 0.040625
v 0.061581 -0.001747 0.045260
v 0.072355 -0.001747 0.023905
v 0.064865 -0.003880 0.021472
v 0.068305 -0.003880 0.000297
v 0.076190 -0.001747 0.000297
v 0.072355 -0.001747 -0.023311
v 0.064865 -0.003880 -0.020878
v -0.029223 -0.010423 0.021307
v -0.044413 -0.007235 0.032343
v -0.032311 -0.007235 0.044350
v -0.021289 -0.010423 0.029179
v -0.036050 -0.010423 0.000297
v -0.054825 -0.007235 0.000297
v -0.052092 -0.007235 0.017124
v -0.034257 -0.010423 0.011329
v -0.029223 -0.010423 -0.020713
v -0.044413 -0.007235 -0.031749
v -0.052092 -0.007235 -0.016530
v -0.034257 -0.010423 -0.010735
v -0.011596 -0.010423 -0.033698
v -0.017527 -0.007235 -0.051555
v -0.032311 -0.007235 -0.043756
v -0.021289 -0.010423 -0.028585
v 0.006921 -0.010423 -0.035403
v 0.010716 -0.007235 -0.054155
v -0.001804 -0.007235 -0.054155
v -0.001288 -0.010423 -0.035403
v 0.028613 -0.010423 -0.020713
v 0.043803 -0.007235 -0.031749
v 0.031701 -0.007235 -0.043756
v 0.020679 -0.010423 -0.028585
v 0.035440 -0.010423 0.000297
v 0.054216 -0.007235 0.000297
v 0.051482 -0.007235 -0.016530
v 0.033648 -0.010423 -0.010735
v 0.028613 -0.010423 0.021307
v 0.043803 -0.007235 0.032343
v 0.051482 -0.007235 0.017124
v 0.033648 -0.010423 0.011329
v 0.011035 -0.010423 0.034292
v 0.016992 -0.007235 0.052149
v 0.031701 -0.007235 0.044350
v 0.020679 -0.010423 0.029179
v -0.013956 -0.010423 0.034292
v -0.021127 -0.007235 0.052149
v -0.016202 -0.007235 0.054749
v -0.010727 -0.010423 0.035997
v 0.001491 -0.007235 0.054749
v -0.010881 -0.007235 0.054749
v -0.013614 -0.003880 0.068821
v 0.001955 -0.003880 0.068821
v 0.000314 -0.012876 0.019067
v -0.003950 -0.012876 0.019067
v -0.007239 -0.010423 0.035997
v 0.000872 -0.010423 0.035997
v 0.013395 -0.010423 -0.033698
v 0.020591 -0.007235 -0.051555
v 0.015889 -0.007235 -0.054155
v 0.010312 -0.010423 -0.035403
v 0.025992 -0.003880 -0.064955
v 0.029013 -0.001747 -0.072454
v 0.021818 -0.001675 -0.074706
v 0.020074 -0.003880 -0.068227
v -0.015143 -0.001747 0.076696
v -0.007482 -0.012876 0.018171
v -0.011337 -0.012876 0.015482
v -0.015509 -0.012876 0.011344
v -0.018156 -0.012876 0.006097
v -0.019098 -0.012876 0.000297
v -0.018156 -0.012876 -0.005503
v -0.015509 -0.012876 -0.010750
v -0.011337 -0.012876 -0.014888
v -0.006242 -0.012876 -0.017577
v -0.000821 -0.012876 -0.018473
v 0.003494 -0.012876 -0.018473
v 0.006898 -0.012876 -0.017577
v 0.010728 -0.012876 -0.014888
v 0.014899 -0.012876 -0.010750
v 0.017546 -0.012876 -0.005503
v 0.018489 -0.012876 0.000297
v 0.017546 -0.012876 0.006097
v 0.014899 -0.012876 0.011344
v 0.010728 -0.012876 0.015482
v 0.005657 -0.012876 0.018171
v -0.005785 -0.012876 0.019067
v 0.002215 -0.001747 0.076696
v 0.005277 -0.012876 -0.018473
v 0.023171 -0.007677 -0.057957
v 0.018512 -0.011034 -0.046394
v 0.014277 -0.011034 -0.048735
v 0.017888 -0.007677 -0.060878
v 0.009619 -0.011034 -0.048736
v 0.012077 -0.007677 -0.060878
v 0.014038 -0.004478 -0.070567
v 0.020770 -0.004478 -0.070567
v 0.026890 -0.004478 -0.067184
v 0.006319 0.039517 -0.004516
v 0.009906 0.040256 -0.007122
v 0.007286 0.040318 -0.010151
v 0.005228 0.039764 -0.007318
v 0.002463 0.039578 -0.007784
v 0.004440 0.040272 -0.011780
v 0.003074 0.040380 -0.012912
v 0.000648 0.040011 -0.010293
v -0.002597 0.039578 -0.007784
v -0.004218 0.040272 -0.011780
v -0.007896 0.040318 -0.010151
v -0.005838 0.039764 -0.007318
v -0.006929 0.039517 -0.004516
v -0.010516 0.040256 -0.007122
v -0.012587 0.040318 -0.003694
v -0.009257 0.039764 -0.002612
v -0.008493 0.039517 0.000297
v -0.012926 0.040256 0.000297
v -0.012587 0.040318 0.004288
v -0.009257 0.039764 0.003206
v -0.006929 0.039517 0.005110
v -0.010516 0.040256 0.007716
v -0.007896 0.040318 0.010745
v -0.005838 0.039764 0.007912
v -0.003064 0.039578 0.008378
v -0.005033 0.040272 0.012374
v -0.003617 0.040380 0.013506
v -0.001219 0.040011 0.010887
v 0.001997 0.039578 0.008378
v 0.003625 0.040272 0.012374
v 0.007286 0.040318 0.010745
v 0.005228 0.039764 0.007912
v 0.006319 0.039517 0.005110
v 0.009906 0.040256 0.007716
v 0.011978 0.040318 0.004288
v 0.008648 0.039764 0.003206
v 0.007883 0.039517 0.000297
v 0.012317 0.040256 0.000297
v 0.011978 0.040318 -0.003694
v 0.008647 0.039764 -0.002612
v -0.011650 0.040003 -0.007946
v -0.010784 0.032970 -0.007317
v -0.012609 0.032970 -0.003701
v -0.013625 0.040003 -0.004031
v -0.004735 0.040003 -0.013040
v -0.004397 0.032970 -0.012022
v -0.007909 0.032970 -0.010169
v -0.008537 0.040003 -0.011034
v 0.002530 0.040003 -0.013709
v 0.002314 0.032970 -0.012640
v -0.000661 0.032970 -0.012640
v -0.000690 0.040003 -0.013709
v 0.011040 0.040003 -0.007946
v 0.010175 0.032970 -0.007317
v 0.007299 0.032970 -0.010169
v 0.007928 0.040003 -0.011034
v 0.013719 0.040003 0.000297
v 0.012648 0.032970 0.000297
v 0.011999 0.032970 -0.003701
v 0.013015 0.040003 -0.004031
v 0.011040 0.040003 0.008540
v 0.010175 0.032970 0.007911
v 0.011999 0.032970 0.004295
v 0.013015 0.040003 0.004625
v 0.004144 0.040003 0.013634
v 0.003805 0.032970 0.012616
v 0.007299 0.032970 0.010763
v 0.007928 0.040003 0.011628
v -0.005661 0.040003 0.013634
v -0.005252 0.032970 0.012616
v -0.004082 0.032970 0.013234
v -0.004394 0.040003 0.014303
v -0.011650 0.040003 0.008540
v -0.010784 0.032970 0.007911
v -0.007909 0.032970 0.010763
v -0.008537 0.040003 0.011628
v -0.014328 0.040003 0.000297
v -0.013258 0.032970 0.000297
v -0.012609 0.032970 0.004295
v -0.013625 0.040003 0.004625
v -0.008372 0.013367 -0.005564
v -0.005951 -0.006297 -0.003805
v -0.006934 -0.006297 -0.001857
v -0.009776 0.013367 -0.002780
v -0.003455 0.013367 -0.009186
v -0.002510 -0.006297 -0.006341
v -0.004402 -0.006297 -0.005342
v -0.006158 0.013367 -0.007760
v 0.001711 0.013367 -0.009662
v 0.001106 -0.006297 -0.006674
v -0.000497 -0.006297 -0.006674
v -0.000579 0.013367 -0.009662
v 0.007762 0.013367 -0.005564
v 0.005342 -0.006297 -0.003805
v 0.003792 -0.006297 -0.005342
v 0.005549 0.013367 -0.007760
v 0.009666 0.013367 0.000297
v 0.006675 -0.006297 0.000297
v 0.006325 -0.006297 -0.001857
v 0.009166 0.013367 -0.002780
v 0.007762 0.013367 0.006158
v 0.005342 -0.006297 0.004399
v 0.006325 -0.006297 0.002451
v 0.009166 0.013367 0.003374
v 0.002858 0.013367 0.009780
v 0.001909 -0.006297 0.006935
v 0.003792 -0.006297 0.005936
v 0.005549 0.013367 0.008354
v -0.004113 0.013367 0.009780
v -0.002970 -0.006297 0.006935
v -0.002340 -0.006297 0.007268
v -0.003212 0.013367 0.010256
v -0.008372 0.013367 0.006158
v -0.005951 -0.006297 0.004399
v -0.004402 -0.006297 0.005936
v -0.006158 0.013367 0.008354
v -0.010276 0.013367 0.000297
v -0.007284 -0.006297 0.000297
v -0.006934 -0.006297 0.002451
v -0.009776 0.013367 0.003374
v 0.000122 0.032970 0.013234
v -0.002818 0.032970 0.013234
v -0.002239 0.013367 0.010256
v 0.000024 0.013367 0.010256
v -0.000185 0.040380 0.013506
v -0.002428 0.040337 0.013974
v -0.003025 0.040003 0.014303
v 0.000157 0.040003 0.014303
v 0.005070 0.040003 -0.013040
v 0.004660 0.032970 -0.012022
v 0.003543 0.032970 -0.012640
v 0.003860 0.040003 -0.013709
v 0.003517 0.013367 -0.009186
v 0.002370 -0.006297 -0.006341
v 0.001768 -0.006297 -0.006674
v 0.002657 0.013367 -0.009662
v 0.013121 0.040057 0.310096
v -0.000304 0.038286 0.000297
v 0.001908 0.040337 -0.013380
v -0.000357 0.040380 -0.012912
v -0.001659 -0.006297 0.007268
v -0.000075 -0.006297 0.007268
vn 0.1558 -0.9813 -0.1132
vn 0.1465 -0.9835 -0.1064
vn 0.1124 -0.9835 -0.1416
vn 0.1220 -0.9812 -0.1492
vn -0.0000 -0.9818 -0.1900
vn -0.0000 -0.9845 -0.1756
vn -0.0092 -0.9836 -0.1799
vn -0.0130 -0.9813 -0.1919
vn -0.0610 -0.9814 -0.1821
vn -0.0569 -0.9836 -0.1712
vn -0.1089 -0.9829 -0.1487
vn -0.1149 -0.9809 -0.1567
vn -0.1557 -0.9813 -0.1131
vn -0.1465 -0.9835 -0.1064
vn -0.1756 -0.9828 -0.0571
vn -0.1850 -0.9809 -0.0601
vn -0.1926 -0.9813 -0.0000
vn -0.1811 -0.9835 -0.0000
vn -0.1756 -0.9828 0.0571
vn -0.1849 -0.9809 0.0601
vn -0.1558 -0.9813 0.1132
vn -0.1465 -0.9835 0.1064
vn -0.1124 -0.9835 0.1416
vn -0.1218 -0.9812 0.1495
vn -0.0953 -0.9821 0.1622
vn -0.0854 -0.9847 0.1518
vn -0.0343 -0.9852 0.1677
vn -0.0406 -0.9829 0.1794
vn 0.0612 -0.9814 0.1819
vn 0.0571 -0.9836 0.1710
vn 0.1090 -0.9829 0.1486
vn 0.1151 -0.9809 0.1566
vn 0.1558 -0.9813 0.1132
vn 0.1465 -0.9835 0.1064
vn 0.1756 -0.9828 0.0571
vn 0.1849 -0.9809 0.0601
vn 0.1926 -0.9813 -0.0000
vn 0.1811 -0.9835 -0.0000
vn 0.1756 -0.9828 -0.0571
vn 0.1850 -0.9809 -0.0601
vn 0.7321 -0.4255 -0.5319
vn 0.2755 -0.9402 -0.2002
vn 0.2194 -0.9398 -0.2620
vn 0.5818 -0.4223 -0.6951
vn 0.0963 -0.4213 -0.9018
vn 0.0137 -0.9398 -0.3414
vn -0.0297 -0.9414 -0.3359
vn -0.0891 -0.4262 -0.9002
vn -0.2887 -0.4255 -0.8577
vn -0.1085 -0.9405 -0.3221
vn -0.2019 -0.9401 -0.2748
vn -0.5359 -0.4249 -0.7296
vn -0.7321 -0.4255 -0.5319
vn -0.2755 -0.9402 -0.2002
vn -0.3243 -0.9401 -0.1054
vn -0.8609 -0.4251 -0.2797
vn -0.9049 -0.4255 -0.0000
vn -0.3406 -0.9402 -0.0000
vn -0.3243 -0.9401 0.1054
vn -0.8609 -0.4251 0.2797
vn -0.7321 -0.4255 0.5319
vn -0.2755 -0.9402 0.2001
vn -0.2190 -0.9398 0.2623
vn -0.5807 -0.4224 0.6960
vn -0.4048 -0.4151 0.8147
vn -0.1719 -0.9381 0.3006
vn -0.0840 -0.9366 0.3403
vn -0.2228 -0.4019 0.8882
vn 0.2905 -0.4255 0.8570
vn 0.1091 -0.9405 0.3218
vn 0.2022 -0.9400 0.2747
vn 0.5367 -0.4248 0.7291
vn 0.7321 -0.4255 0.5319
vn 0.2756 -0.9402 0.2002
vn 0.3242 -0.9401 0.1053
vn 0.8609 -0.4251 0.2797
vn 0.9050 -0.4255 -0.0000
vn 0.3406 -0.9402 -0.0000
vn 0.3243 -0.9401 -0.1054
vn 0.8609 -0.4251 -0.2797
vn -0.1495 -0.9579 0.2450
vn -0.1213 -0.9725 0.1988
vn -0.0540 -0.9739 0.2202
vn -0.0666 -0.9601 0.2716
vn -0.2344 -0.9571 0.1703
vn -0.1903 -0.9719 0.1383
vn -0.1513 -0.9717 0.1812
vn -0.1864 -0.9568 0.2232
vn -0.2897 -0.9571 -0.0000
vn -0.2353 -0.9719 -0.0000
vn -0.2241 -0.9718 0.0728
vn -0.2760 -0.9570 0.0897
vn -0.2344 -0.9571 -0.1703
vn -0.1903 -0.9719 -0.1383
vn -0.2240 -0.9719 -0.0728
vn -0.2760 -0.9570 -0.0897
vn -0.0923 -0.9572 -0.2742
vn -0.0749 -0.9720 -0.2225
vn -0.1395 -0.9718 -0.1900
vn -0.1717 -0.9570 -0.2338
vn -0.0000 -0.9570 -0.2901
vn -0.0000 -0.9719 -0.2355
vn -0.0194 -0.9717 -0.2352
vn -0.0239 -0.9569 -0.2894
vn 0.2344 -0.9571 -0.1703
vn 0.1903 -0.9719 -0.1383
vn 0.1517 -0.9717 -0.1811
vn 0.1868 -0.9567 -0.2230
vn 0.2897 -0.9571 -0.0000
vn 0.2353 -0.9719 -0.0000
vn 0.2240 -0.9719 -0.0728
vn 0.2759 -0.9570 -0.0896
vn 0.2344 -0.9571 0.1703
vn 0.1903 -0.9719 0.1383
vn 0.2240 -0.9719 0.0728
vn 0.2759 -0.9570 0.0897
vn 0.0929 -0.9573 0.2738
vn 0.0754 -0.9721 0.2222
vn 0.1396 -0.9719 0.1897
vn 0.1720 -0.9570 0.2336
vn -0.0681 0.9964 0.0495
vn -0.1112 0.9905 0.0808
vn -0.0886 0.9904 0.1058
vn -0.0543 0.9964 0.0648
vn -0.0000 0.9964 0.0842
vn -0.0000 0.9905 0.1377
vn 0.0113 0.9905 0.1373
vn 0.0069 0.9964 0.0841
vn 0.0268 0.9965 0.0796
vn 0.0438 0.9905 0.1300
vn 0.0815 0.9905 0.1109
vn 0.0499 0.9964 0.0679
vn 0.0681 0.9965 0.0495
vn 0.1112 0.9905 0.0808
vn 0.1309 0.9905 0.0425
vn 0.0801 0.9964 0.0260
vn 0.0841 0.9965 -0.0000
vn 0.1375 0.9905 -0.0000
vn 0.1309 0.9905 -0.0425
vn 0.0801 0.9964 -0.0260
vn 0.0681 0.9965 -0.0494
vn 0.1112 0.9905 -0.0808
vn 0.0884 0.9904 -0.1059
vn 0.0542 0.9964 -0.0649
vn 0.0433 0.9965 -0.0710
vn 0.0709 0.9907 -0.1162
vn 0.0315 0.9912 -0.1286
vn 0.0193 0.9967 -0.0786
vn -0.0270 0.9965 -0.0795
vn -0.0441 0.9905 -0.1299
vn -0.0816 0.9905 -0.1109
vn -0.0499 0.9964 -0.0678
vn -0.0681 0.9965 -0.0494
vn -0.1112 0.9905 -0.0808
vn -0.1309 0.9905 -0.0425
vn -0.0802 0.9964 -0.0261
vn -0.0841 0.9965 -0.0000
vn -0.1375 0.9905 -0.0000
vn -0.1309 0.9905 0.0425
vn -0.0802 0.9964 0.0261
vn 0.7343 0.4198 -0.5335
vn 0.2087 0.9662 -0.1516
vn 0.1663 0.9659 -0.1986
vn 0.5832 0.4174 -0.6968
vn -0.0000 0.4170 -0.9089
vn -0.0000 0.9659 -0.2587
vn -0.0213 0.9659 -0.2580
vn -0.0745 0.4175 -0.9056
vn -0.2895 0.4201 -0.8600
vn -0.0822 0.9663 -0.2441
vn -0.1529 0.9661 -0.2082
vn -0.5374 0.4193 -0.7317
vn -0.7343 0.4198 -0.5335
vn -0.2087 0.9662 -0.1516
vn -0.2456 0.9661 -0.0798
vn -0.8634 0.4194 -0.2805
vn -0.9076 0.4199 -0.0000
vn -0.2579 0.9662 -0.0000
vn -0.2456 0.9661 0.0798
vn -0.8634 0.4194 0.2805
vn -0.7343 0.4199 0.5335
vn -0.2087 0.9662 0.1516
vn -0.1660 0.9659 0.1989
vn -0.5822 0.4175 0.6977
vn -0.4727 0.4190 0.7753
vn -0.1334 0.9666 0.2187
vn -0.0596 0.9683 0.2424
vn -0.2167 0.4287 0.8771
vn 0.2914 0.4202 0.8594
vn 0.0827 0.9663 0.2438
vn 0.1531 0.9661 0.2080
vn 0.5382 0.4192 0.7312
vn 0.7343 0.4199 0.5335
vn 0.2087 0.9662 0.1516
vn 0.2456 0.9661 0.0798
vn 0.8634 0.4194 0.2805
vn 0.9076 0.4199 -0.0000
vn 0.2579 0.9662 -0.0000
vn 0.2456 0.9661 -0.0798
vn 0.8634 0.4194 -0.2805
vn 0.0196 -0.9718 0.2350
vn -0.0000 -0.9719 0.2355
vn -0.0000 -0.9818 0.1900
vn 0.0132 -0.9813 0.1918
vn 0.0284 -0.9400 0.3399
vn -0.0095 -0.9369 0.3494
vn -0.0000 -0.9570 0.2901
vn 0.0242 -0.9569 0.2893
vn 0.0390 0.8826 0.4685
vn -0.0591 0.8862 0.4596
vn -0.0807 -0.4121 0.9076
vn 0.0753 -0.4224 0.9033
vn 0.0215 0.9660 0.2578
vn -0.0000 0.9659 0.2587
vn -0.0000 0.9964 -0.0842
vn -0.0070 0.9964 -0.0842
vn 0.0817 -0.1501 0.9853
vn -0.0000 -0.1502 0.9887
vn -0.0000 0.4170 0.9089
vn 0.0755 0.4176 0.9055
vn 0.4814 0.4188 -0.7700
vn 0.1360 0.9665 -0.2175
vn 0.0619 0.9684 -0.2414
vn 0.2251 0.4295 -0.8746
vn -0.0444 0.9965 0.0708
vn -0.0723 0.9907 0.1155
vn -0.0327 0.9912 0.1281
vn -0.0200 0.9967 0.0783
vn 0.4126 -0.4124 -0.8122
vn 0.1742 -0.9373 -0.3018
vn 0.0917 -0.9367 -0.3379
vn 0.2592 -0.4020 -0.8782
vn 0.0974 -0.9821 -0.1611
vn 0.0875 -0.9847 -0.1506
vn 0.0363 -0.9853 -0.1667
vn 0.0425 -0.9830 -0.1785
vn 0.1237 -0.9724 -0.1976
vn -0.0000 -0.9845 0.1756
vn 0.1984 0.8882 -0.4145
vn 0.3017 0.8826 -0.3606
vn 0.3776 0.8844 -0.2744
vn -0.1489 0.8844 -0.4424
vn -0.0488 0.8810 -0.4706
vn 0.0625 0.8861 -0.4593
vn -0.3777 0.8844 -0.2743
vn -0.2768 0.8840 -0.3768
vn -0.4668 0.8844 -0.0000
vn -0.4444 0.8841 -0.1444
vn -0.3776 0.8844 0.2744
vn -0.4444 0.8841 0.1444
vn -0.1901 0.8877 0.4194
vn -0.3011 0.8826 0.3610
vn -0.1136 0.8870 0.4476
vn 0.3777 0.8844 0.2743
vn 0.2772 0.8840 0.3765
vn 0.1499 0.8844 0.4420
vn 0.4668 0.8844 -0.0000
vn 0.4444 0.8841 0.1443
vn 0.4444 0.8841 -0.1444
vn 0.1523 -0.9579 -0.2435
vn -0.0000 0.9905 -0.1377
vn 0.5234 -0.1518 -0.8385
vn 0.6345 -0.1499 -0.7582
vn 0.7998 -0.1504 -0.5811
vn -0.3153 -0.1507 -0.9369
vn -0.0805 -0.1501 -0.9854
vn -0.0000 -0.1502 -0.9887
vn -0.7998 -0.1504 -0.5811
vn -0.5852 -0.1502 -0.7969
vn -0.9886 -0.1504 -0.0000
vn -0.9403 -0.1502 -0.3055
vn -0.7998 -0.1504 0.5811
vn -0.9403 -0.1502 0.3055
vn -0.5144 -0.1520 0.8440
vn -0.6334 -0.1499 0.7592
vn -0.2375 -0.1562 0.9587
vn 0.7998 -0.1504 0.5811
vn 0.5860 -0.1502 0.7963
vn 0.3173 -0.1508 0.9362
vn 0.9886 -0.1504 -0.0000
vn 0.9403 -0.1502 0.3055
vn 0.9403 -0.1502 -0.3055
vn 0.0094 -0.9837 0.1798
vn -0.0115 0.9905 -0.1373
vn 0.2467 -0.1565 -0.9564
vn 0.1351 0.8877 -0.4402
vn 0.0561 -0.9740 -0.2194
vn -0.1995 0.9691 0.1449
vn 0.3779 0.8842 -0.2746
vn 0.3019 0.8824 -0.3609
vn -0.1588 0.9689 0.1896
vn -0.0101 0.9691 0.2464
vn 0.0626 0.8859 -0.4596
vn -0.0488 0.8808 -0.4710
vn 0.0215 0.9696 0.2438
vn 0.0785 0.9693 0.2332
vn -0.1490 0.8842 -0.4427
vn -0.2770 0.8838 -0.3771
vn 0.1462 0.9690 0.1991
vn 0.1993 0.9692 0.1448
vn -0.3780 0.8842 -0.2745
vn -0.4447 0.8839 -0.1444
vn 0.2348 0.9691 0.0763
vn 0.2466 0.9691 -0.0000
vn -0.4671 0.8842 0.0001
vn -0.4447 0.8839 0.1445
vn 0.2348 0.9690 -0.0763
vn 0.1994 0.9692 -0.1449
vn -0.3779 0.8842 0.2746
vn -0.3012 0.8824 0.3613
vn 0.1585 0.9689 -0.1898
vn 0.1240 0.9687 -0.2151
vn -0.1903 0.8875 0.4197
vn -0.1137 0.8868 0.4479
vn 0.0595 0.9686 -0.2413
vn -0.0790 0.9693 -0.2329
vn 0.1500 0.8842 0.4424
vn 0.2774 0.8838 0.3769
vn -0.1463 0.9691 -0.1987
vn -0.1995 0.9691 -0.1449
vn 0.3780 0.8842 0.2745
vn 0.4447 0.8839 0.1444
vn -0.2349 0.9690 -0.0763
vn -0.2463 0.9692 -0.0000
vn 0.4671 0.8842 -0.0001
vn 0.4447 0.8839 -0.1445
vn -0.2349 0.9690 0.0763
vn 0.1257 0.9878 -0.0914
vn 0.1615 0.9799 -0.1174
vn 0.1284 0.9797 -0.1538
vn 0.1003 0.9877 -0.1201
vn 0.1554 0.9879 -0.0000
vn 0.1997 0.9799 -0.0000
vn 0.1901 0.9798 -0.0618
vn 0.1482 0.9878 -0.0481
vn 0.1257 0.9879 0.0913
vn 0.1615 0.9799 0.1174
vn 0.1901 0.9798 0.0618
vn 0.1480 0.9878 0.0481
vn 0.0495 0.9879 0.1471
vn 0.0636 0.9799 0.1888
vn 0.1183 0.9798 0.1611
vn 0.0921 0.9878 0.1254
vn -0.0000 0.9878 0.1555
vn -0.0000 0.9798 0.1999
vn 0.0165 0.9798 0.1994
vn 0.0129 0.9877 0.1558
vn -0.1257 0.9879 0.0913
vn -0.1615 0.9799 0.1173
vn -0.1288 0.9797 0.1537
vn -0.1005 0.9877 0.1200
vn -0.1554 0.9879 -0.0000
vn -0.1996 0.9799 -0.0000
vn -0.1901 0.9798 0.0618
vn -0.1481 0.9878 0.0481
vn -0.1257 0.9879 -0.0913
vn -0.1615 0.9799 -0.1173
vn -0.1901 0.9798 -0.0618
vn -0.1480 0.9878 -0.0481
vn -0.0498 0.9879 -0.1468
vn -0.0640 0.9800 -0.1886
vn -0.1185 0.9798 -0.1610
vn -0.0922 0.9878 -0.1253
vn 0.0804 0.9880 -0.1316
vn 0.1029 0.9803 -0.1687
vn 0.0458 0.9813 -0.1868
vn 0.0356 0.9887 -0.1454
vn -0.0167 0.9798 -0.1995
vn -0.0000 0.9798 -0.1999
vn 0.0059 0.9681 -0.2506
vn -0.0206 0.9689 -0.2464
vn -0.0000 0.9878 -0.1555
vn -0.0131 0.9877 -0.1557
vn -0.0819 0.9880 0.1308
vn -0.1050 0.9802 0.1678
vn -0.0475 0.9814 0.1861
vn -0.0370 0.9888 0.1447
vn -0.1248 0.9683 0.2164
vn 0.1985 0.8880 -0.4148
vn 0.1352 0.8875 -0.4405
vn -0.0653 0.9683 0.2410
vn -0.0591 0.8860 0.4599
vn 0.0709 0.9907 -0.1161
vn 0.1310 0.9905 0.0426
vn 0.0815 0.9905 0.1110
vn 0.0113 0.9905 0.1374
vn -0.0817 0.9905 -0.1109
vn -0.0440 0.9906 -0.1299
vn 0.0391 0.8824 0.4689
vn -0.0327 0.9912 0.1280
vn 0.1237 -0.9724 -0.1977
vn 0.0692 -0.9602 -0.2706
vn -0.0000 -0.9570 -0.2900
vn -0.1242 0.9881 0.0904
vn 0.0265 0.9995 -0.0193
vn 0.0225 0.9995 -0.0241
vn -0.0961 0.9875 0.1251
vn -0.0468 0.9887 0.1422
vn 0.0487 0.9985 -0.0255
vn 0.0609 0.9929 -0.1020
vn -0.0007 0.9896 0.1440
vn 0.0412 0.9883 0.1470
vn -0.0233 0.9986 -0.0476
vn -0.0208 0.9995 -0.0253
vn 0.0895 0.9874 0.1306
vn 0.1226 0.9882 0.0916
vn -0.0265 0.9995 -0.0193
vn -0.0277 0.9996 -0.0090
vn 0.1521 0.9871 0.0494
vn 0.1536 0.9881 -0.0000
vn -0.0328 0.9995 -0.0000
vn -0.0276 0.9996 0.0090
vn 0.1521 0.9871 -0.0494
vn 0.1242 0.9881 -0.0904
vn -0.0265 0.9995 0.0193
vn -0.0225 0.9995 0.0241
vn 0.0958 0.9875 -0.1253
vn 0.0467 0.9887 -0.1423
vn -0.0476 0.9985 0.0265
vn -0.0596 0.9928 0.1037
vn 0.0006 0.9896 -0.1440
vn -0.0410 0.9883 -0.1469
vn 0.0236 0.9986 0.0474
vn 0.0209 0.9995 0.0253
vn -0.0897 0.9874 -0.1305
vn -0.1226 0.9882 -0.0915
vn 0.0265 0.9995 0.0193
vn 0.0277 0.9996 0.0090
vn -0.1521 0.9871 -0.0494
vn -0.1537 0.9881 -0.0000
vn 0.0328 0.9995 -0.0000
vn 0.0276 0.9996 -0.0090
vn -0.1521 0.9871 0.0494
vn -0.6664 0.5669 -0.4842
vn -0.7828 0.5680 -0.2543
vn -0.2687 0.5528 -0.7888
vn -0.5852 -0.1502 -0.7968
vn -0.4884 0.5657 -0.6644
vn 0.0099 0.4302 -0.9027
vn -0.0809 -0.1501 -0.9854
vn -0.0870 0.4740 -0.8762
vn 0.6664 0.5669 -0.4842
vn 0.6345 -0.1499 -0.7583
vn 0.5297 0.5635 -0.6339
vn 0.8238 0.5669 -0.0000
vn 0.7828 0.5680 -0.2543
vn 0.6664 0.5669 0.4842
vn 0.7828 0.5680 0.2543
vn 0.2705 0.5529 0.7881
vn 0.3174 -0.1508 0.9362
vn 0.5860 -0.1502 0.7962
vn 0.4891 0.5657 0.6640
vn -0.4443 0.5557 0.7027
vn -0.2375 -0.1562 0.9588
vn -0.2300 0.5084 0.8298
vn -0.6664 0.5669 0.4842
vn -0.6333 -0.1499 0.7592
vn -0.5287 0.5636 0.6347
vn -0.8238 0.5669 -0.0000
vn -0.7828 0.5680 0.2543
vn -0.3154 -0.1507 -0.9369
vn -0.5853 -0.1502 -0.7968
vn -0.0813 -0.1501 -0.9853
vn 0.6349 -0.1499 -0.7579
vn 0.3175 -0.1508 0.9362
vn 0.5861 -0.1502 0.7962
vn -0.6337 -0.1499 0.7589
vn 0.0821 -0.1501 0.9853
vn 0.0289 0.9893 0.1432
vn -0.0108 0.9488 0.3158
vn -0.0094 0.4297 0.9029
vn 0.0881 0.4744 0.8759
vn 0.4525 0.5557 -0.6975
vn 0.5238 -0.1518 -0.8382
vn 0.2379 0.5101 -0.8266
vn 0.5239 -0.1518 -0.8381
vn -0.0000 1.0000 -0.0000
vn 0.0114 0.9490 -0.3151
vn -0.0285 0.9892 -0.1436
vn 0.0824 -0.1501 0.9852
s 1
g off
g P1_lambert2
usemtl lambert2
f 1//1 2//2 3//3
f 1//1 3//3 4//4
f 5//5 6//6 7//7
f 5//5 7//7 8//8
f 9//9 10//10 11//11
f 9//9 11//11 12//12
f 13//13 14//14 15//15
f 13//13 15//15 16//16
f 17//17 18//18 19//19
f 17//17 19//19 20//20
f 21//21 22//22 23//23
f 21//21 23//23 24//24
f 25//25 26//26 27//27
f 25//25 27//27 28//28
f 29//29 30//30 31//31
f 29//29 31//31 32//32
f 33//33 34//34 35//35
f 33//33 35//35 36//36
f 37//37 38//38 39//39
f 37//37 39//39 40//40
f 41//41 42//42 43//43
f 41//41 43//43 44//44
f 45//45 46//46 47//47
f 45//45 47//47 48//48
f 49//49 50//50 51//51
f 49//49 51//51 52//52
f 53//53 54//54 55//55
f 53//53 55//55 56//56
f 57//57 58//58 59//59
f 57//57 59//59 60//60
f 61//61 62//62 63//63
f 61//61 63//63 64//64
f 65//65 66//66 67//67
f 65//65 67//67 68//68
f 69//69 70//70 71//71
f 69//69 71//71 72//72
f 73//73 74//74 75//75
f 73//73 75//75 76//76
f 77//77 78//78 79//79
f 77//77 79//79 80//80
f 81//81 82//82 83//83
f 81//81 83//83 84//84
f 85//85 86//86 87//87
f 85//85 87//87 88//88
f 89//89 90//90 91//91
f 89//89 91//91 92//92
f 93//93 94//94 95//95
f 93//93 95//95 96//96
f 97//97 98//98 99//99
f 97//97 99//99 100//100
f 101//101 102//102 103//103
f 101//101 103//103 104//104
f 105//105 106//106 107//107
f 105//105 107//107 108//108
f 109//109 110//110 111//111
f 109//109 111//111 112//112
f 113//113 114//114 115//115
f 113//113 115//115 116//116
f 117//117 118//118 119//119
f 117//117 119//119 120//120
s 2
f 121//121 122//122 123//123
f 121//121 123//123 124//124
f 125//125 126//126 127//127
f 125//125 127//127 128//128
f 129//129 130//130 131//131
f 129//129 131//131 132//132
f 133//133 134//134 135//135
f 133//133 135//135 136//136
f 137//137 138//138 139//139
f 137//137 139//139 140//140
f 141//141 142//142 143//143
f 141//141 143//143 144//144
f 145//145 146//146 147//147
f 145//145 147//147 148//148
f 149//149 150//150 151//151
f 149//149 151//151 152//152
f 153//153 154//154 155//155
f 153//153 155//155 156//156
f 157//157 158//158 159//159
f 157//157 159//159 160//160
f 161//161 162//162 163//163
f 161//161 163//163 164//164
f 165//165 166//166 167//167
f 165//165 167//167 168//168
f 169//169 170//170 171//171
f 169//169 171//171 172//172
f 173//173 174//174 175//175
f 173//173 175//175 176//176
f 177//177 178//178 179//179
f 177//177 179//179 180//180
f 181//181 182//182 183//183
f 181//181 183//183 184//184
f 185//185 186//186 187//187
f 185//185 187//187 188//188
f 189//189 190//190 191//191
f 189//189 191//191 192//192
f 193//193 194//194 195//195
f 193//193 195//195 196//196
f 197//197 198//198 199//199
f 197//197 199//199 200//200
s 1
f 201//201 202//202 203//203
f 201//201 203//203 204//204
f 205//205 206//206 207//207
f 205//205 207//207 208//208
f 209//209 210//210 211//211
f 209//209 211//211 212//212
s 2
f 213//213 214//214 215//215
f 213//213 215//215 216//216
f 217//217 218//218 219//219
f 217//217 219//219 220//220
f 221//221 222//222 223//223
f 221//221 223//223 224//224
f 225//225 226//226 227//227
f 225//225 227//227 228//228
s 1
f 229//229 230//230 231//231
f 229//229 231//231 232//232
f 233//233 234//234 235//235
f 233//233 235//235 236//236
f 3//3 234//234 233//233
f 3//3 233//233 4//4
f 233//233 237//237 107//107
f 233//233 107//107 4//4
f 107//107 106//106 1//1
f 107//107 1//1 4//4
f 7//7 10//10 9//9
f 7//7 9//9 8//8
f 9//9 98//98 103//103
f 9//9 103//103 8//8
f 103//103 102//102 5//5
f 103//103 5//5 8//8
f 11//11 14//14 13//13
f 11//11 13//13 12//12
f 13//13 94//94 99//99
f 13//13 99//99 12//12
f 99//99 98//98 9//9
f 99//99 9//9 12//12
f 15//15 18//18 17//17
f 15//15 17//17 16//16
f 17//17 90//90 95//95
f 17//17 95//95 16//16
f 95//95 94//94 13//13
f 95//95 13//13 16//16
f 19//19 22//22 21//21
f 19//19 21//21 20//20
f 21//21 86//86 91//91
f 21//21 91//91 20//20
f 91//91 90//90 17//17
f 91//91 17//17 20//20
f 23//23 26//26 25//25
f 23//23 25//25 24//24
f 25//25 82//82 87//87
f 25//25 87//87 24//24
f 87//87 86//86 21//21
f 87//87 21//21 24//24
f 27//27 238//238 203//203
f 27//27 203//203 28//28
f 203//203 202//202 83//83
f 203//203 83//83 28//28
f 83//83 82//82 25//25
f 83//83 25//25 28//28
f 31//31 34//34 33//33
f 31//31 33//33 32//32
f 33//33 114//114 119//119
f 33//33 119//119 32//32
f 119//119 118//118 29//29
f 119//119 29//29 32//32
f 35//35 38//38 37//37
f 35//35 37//37 36//36
f 37//37 110//110 115//115
f 37//37 115//115 36//36
f 115//115 114//114 33//33
f 115//115 33//33 36//36
f 39//39 2//2 1//1
f 39//39 1//1 40//40
f 1//1 106//106 111//111
f 1//1 111//111 40//40
f 111//111 110//110 37//37
f 111//111 37//37 40//40
f 43//43 230//230 229//229
f 43//43 229//229 44//44
f 229//229 239//239 240//240
f 229//229 240//240 44//44
f 240//240 241//241 41//41
f 240//240 41//41 44//44
f 47//47 50//50 49//49
f 47//47 49//49 48//48
f 49//49 242//242 243//243
f 49//49 243//243 48//48
f 243//243 244//244 45//45
f 243//243 45//45 48//48
f 51//51 54//54 53//53
f 51//51 53//53 52//52
f 53//53 245//245 246//246
f 53//53 246//246 52//52
f 246//246 242//242 49//49
f 246//246 49//49 52//52
f 55//55 58//58 57//57
f 55//55 57//57 56//56
f 57//57 247//247 248//248
f 57//57 248//248 56//56
f 248//248 245//245 53//53
f 248//248 53//53 56//56
f 59//59 62//62 61//61
f 59//59 61//61 60//60
f 61//61 249//249 250//250
f 61//61 250//250 60//60
f 250//250 247//247 57//57
f 250//250 57//57 60//60
f 63//63 66//66 65//65
f 63//63 65//65 64//64
f 65//65 251//251 252//252
f 65//65 252//252 64//64
f 252//252 249//249 61//61
f 252//252 61//61 64//64
f 67//67 206//206 211//211
f 67//67 211//211 68//68
f 211//211 210//210 253//253
f 211//211 253//253 68//68
f 253//253 251//251 65//65
f 253//253 65//65 68//68
f 71//71 74//74 73//73
f 71//71 73//73 72//72
f 73//73 254//254 255//255
f 73//73 255//255 72//72
f 255//255 256//256 69//69
f 255//255 69//69 72//72
f 75//75 78//78 77//77
f 75//75 77//77 76//76
f 77//77 257//257 258//258
f 77//77 258//258 76//76
f 258//258 254//254 73//73
f 258//258 73//73 76//76
f 79//79 42//42 41//41
f 79//79 41//41 80//80
f 41//41 241//241 259//259
f 41//41 259//259 80//80
f 259//259 257//257 77//77
f 259//259 77//77 80//80
f 83//83 202//202 207//207
f 83//83 207//207 84//84
f 207//207 206//206 67//67
f 207//207 67//67 84//84
f 67//67 66//66 81//81
f 67//67 81//81 84//84
f 87//87 82//82 81//81
f 87//87 81//81 88//88
f 81//81 66//66 63//63
f 81//81 63//63 88//88
f 63//63 62//62 85//85
f 63//63 85//85 88//88
f 91//91 86//86 85//85
f 91//91 85//85 92//92
f 85//85 62//62 59//59
f 85//85 59//59 92//92
f 59//59 58//58 89//89
f 59//59 89//89 92//92
f 95//95 90//90 89//89
f 95//95 89//89 96//96
f 89//89 58//58 55//55
f 89//89 55//55 96//96
f 55//55 54//54 93//93
f 55//55 93//93 96//96
f 99//99 94//94 93//93
f 99//99 93//93 100//100
f 93//93 54//54 51//51
f 93//93 51//51 100//100
f 51//51 50//50 97//97
f 51//51 97//97 100//100
f 103//103 98//98 97//97
f 103//103 97//97 104//104
f 97//97 50//50 47//47
f 97//97 47//47 104//104
f 47//47 46//46 101//101
f 47//47 101//101 104//104
f 107//107 237//237 260//260
f 107//107 260//260 108//108
f 260//260 230//230 43//43
f 260//260 43//43 108//108
f 43//43 42//42 105//105
f 43//43 105//105 108//108
f 111//111 106//106 105//105
f 111//111 105//105 112//112
f 105//105 42//42 79//79
f 105//105 79//79 112//112
f 79//79 78//78 109//109
f 79//79 109//109 112//112
f 115//115 110//110 109//109
f 115//115 109//109 116//116
f 109//109 78//78 75//75
f 109//109 75//75 116//116
f 75//75 74//74 113//113
f 75//75 113//113 116//116
f 119//119 114//114 113//113
f 119//119 113//113 120//120
f 113//113 74//74 71//71
f 113//113 71//71 120//120
f 71//71 70//70 117//117
f 71//71 117//117 120//120
s 2
f 123//123 226//226 225//225
f 123//123 225//225 124//124
f 225//225 222//222 163//163
f 225//225 163//163 124//124
f 163//163 162//162 121//121
f 163//163 121//121 124//124
f 127//127 130//130 129//129
f 127//127 129//129 128//128
f 129//129 170//170 167//167
f 129//129 167//167 128//128
f 167//167 166//166 125//125
f 167//167 125//125 128//128
f 131//131 134//134 133//133
f 131//131 133//133 132//132
f 133//133 174//174 171//171
f 133//133 171//171 132//132
f 171//171 170//170 129//129
f 171//171 129//129 132//132
f 135//135 138//138 137//137
f 135//135 137//137 136//136
f 137//137 178//178 175//175
f 137//137 175//175 136//136
f 175//175 174//174 133//133
f 175//175 133//133 136//136
f 139//139 142//142 141//141
f 139//139 141//141 140//140
f 141//141 182//182 179//179
f 141//141 179//179 140//140
f 179//179 178//178 137//137
f 179//179 137//137 140//140
f 143//143 146//146 145//145
f 143//143 145//145 144//144
f 145//145 186//186 183//183
f 145//145 183//183 144//144
f 183//183 182//182 141//141
f 183//183 141//141 144//144
f 147//147 261//261 215//215
f 147//147 215//215 148//148
f 215//215 214//214 187//187
f 215//215 187//187 148//148
f 187//187 186//186 145//145
f 187//187 145//145 148//148
f 151//151 154//154 153//153
f 151//151 153//153 152//152
f 153//153 194//194 191//191
f 153//153 191//191 152//152
f 191//191 190//190 149//149
f 191//191 149//149 152//152
f 155//155 158//158 157//157
f 155//155 157//157 156//156
f 157//157 198//198 195//195
f 157//157 195//195 156//156
f 195//195 194//194 153//153
f 195//195 153//153 156//156
f 159//159 122//122 121//121
f 159//159 121//121 160//160
f 121//121 162//162 199//199
f 121//121 199//199 160//160
f 199//199 198//198 157//157
f 199//199 157//157 160//160
f 163//163 222//222 221//221
f 163//163 221//221 164//164
f 221//221 262//262 263//263
f 221//221 263//263 164//164
f 263//263 264//264 161//161
f 263//263 161//161 164//164
f 167//167 170//170 169//169
f 167//167 169//169 168//168
f 169//169 265//265 266//266
f 169//169 266//266 168//168
f 266//266 267//267 165//165
f 266//266 165//165 168//168
f 171//171 174//174 173//173
f 171//171 173//173 172//172
f 173//173 268//268 269//269
f 173//173 269//269 172//172
f 269//269 265//265 169//169
f 269//269 169//169 172//172
f 175//175 178//178 177//177
f 175//175 177//177 176//176
f 177//177 270//270 271//271
f 177//177 271//271 176//176
f 271//271 268//268 173//173
f 271//271 173//173 176//176
f 179//179 182//182 181//181
f 179//179 181//181 180//180
f 181//181 272//272 273//273
f 181//181 273//273 180//180
f 273//273 270//270 177//177
f 273//273 177//177 180//180
f 183//183 186//186 185//185
f 183//183 185//185 184//184
f 185//185 274//274 275//275
f 185//185 275//275 184//184
f 275//275 272//272 181//181
f 275//275 181//181 184//184
f 187//187 214//214 219//219
f 187//187 219//219 188//188
f 219//219 218//218 276//276
f 219//219 276//276 188//188
f 276//276 274//274 185//185
f 276//276 185//185 188//188
f 191//191 194//194 193//193
f 191//191 193//193 192//192
f 193//193 277//277 278//278
f 193//193 278//278 192//192
f 278//278 279//279 189//189
f 278//278 189//189 192//192
f 195//195 198//198 197//197
f 195//195 197//197 196//196
f 197//197 280//280 281//281
f 197//197 281//281 196//196
f 281//281 277//277 193//193
f 281//281 193//193 196//196
f 199//199 162//162 161//161
f 199//199 161//161 200//200
f 161//161 264//264 282//282
f 161//161 282//282 200//200
f 282//282 280//280 197//197
f 282//282 197//197 200//200
s 1
f 203//203 238//238 283//283
f 203//203 283//283 204//204
f 283//283 30//30 29//29
f 283//283 29//29 204//204
f 29//29 118//118 201//201
f 29//29 201//201 204//204
f 207//207 202//202 201//201
f 207//207 201//201 208//208
f 201//201 118//118 117//117
f 201//201 117//117 208//208
f 117//117 70//70 205//205
f 117//117 205//205 208//208
f 211//211 206//206 205//205
f 211//211 205//205 212//212
f 205//205 70//70 69//69
f 205//205 69//69 212//212
f 69//69 256//256 209//209
f 69//69 209//209 212//212
s 2
f 215//215 261//261 284//284
f 215//215 284//284 216//216
f 284//284 150//150 149//149
f 284//284 149//149 216//216
f 149//149 190//190 213//213
f 149//149 213//213 216//216
f 219//219 214//214 213//213
f 219//219 213//213 220//220
f 213//213 190//190 189//189
f 213//213 189//189 220//220
f 189//189 279//279 217//217
f 189//189 217//217 220//220
f 223//223 166//166 165//165
f 223//223 165//165 224//224
f 165//165 267//267 285//285
f 165//165 285//285 224//224
f 285//285 262//262 221//221
f 285//285 221//221 224//224
f 227//227 126//126 125//125
f 227//227 125//125 228//228
f 125//125 166//166 223//223
f 125//125 223//223 228//228
f 223//223 222//222 225//225
f 223//223 225//225 228//228
s 1
f 231//231 46//46 45//45
f 231//231 45//45 232//232
f 45//45 244//244 286//286
f 45//45 286//286 232//232
f 286//286 239//239 229//229
f 286//286 229//229 232//232
f 235//235 6//6 5//5
f 235//235 5//5 236//236
f 5//5 102//102 287//287
f 5//5 287//287 236//236
f 287//287 237//237 233//233
f 287//287 233//233 236//236
s 3
g P1_InnerDish
usemtl InnerDish
f 288//288 289//289 290//290
f 288//288 290//290 291//291
f 292//292 293//293 294//294
f 292//292 294//294 295//295
f 296//296 297//297 298//298
f 296//296 298//298 299//299
f 300//300 301//301 302//302
f 300//300 302//302 303//303
f 304//304 305//305 306//306
f 304//304 306//306 307//307
f 308//308 309//309 310//310
f 308//308 310//310 311//311
f 312//312 313//313 314//314
f 312//312 314//314 315//315
f 316//316 317//317 318//318
f 316//316 318//318 319//319
f 320//320 321//321 322//322
f 320//320 322//322 323//323
f 324//324 325//325 326//326
f 324//324 326//326 327//327
f 328//328 329//329 330//330
f 328//328 330//330 331//331
f 332//332 333//333 334//334
f 332//332 334//334 335//335
f 336//336 337//337 338//338
f 336//336 338//338 339//339
f 340//340 341//341 342//342
f 340//340 342//342 343//343
f 344//344 345//345 346//346
f 344//344 346//346 347//347
f 348//348 349//349 350//350
f 348//348 350//350 351//351
f 352//352 353//353 354//354
f 352//352 354//354 355//355
f 356//356 357//357 358//358
f 356//356 358//358 359//359
f 360//360 361//361 362//362
f 360//360 362//362 363//363
f 364//364 365//365 366//366
f 364//364 366//366 367//367
f 368//368 369//369 370//370
f 368//368 370//370 371//371
f 372//284 373//261 374//372
f 372//284 374//372 375//373
f 376//374 377//375 378//376
f 376//374 378//376 379//377
f 380//378 381//379 382//380
f 380//378 382//380 383//381
f 290//290 381//379 380//378
f 290//290 380//378 291//291
f 380//378 377//375 350//350
f 380//378 350//350 291//291
f 350//350 349//349 288//288
f 350//350 288//288 291//291
f 294//294 297//297 296//296
f 294//294 296//296 295//295
f 296//296 341//341 346//346
f 296//296 346//346 295//295
f 346//346 345//345 292//292
f 346//346 292//292 295//295
f 298//298 301//301 300//300
f 298//298 300//300 299//299
f 300//300 337//337 342//342
f 300//300 342//342 299//299
f 342//342 341//341 296//296
f 342//342 296//296 299//299
f 302//302 305//305 304//304
f 302//302 304//304 303//303
f 304//304 333//333 338//338
f 304//304 338//338 303//303
f 338//338 337//337 300//300
f 338//338 300//300 303//303
f 306//306 309//309 308//308
f 306//306 308//308 307//307
f 308//308 329//329 334//334
f 308//308 334//334 307//307
f 334//334 333//333 304//304
f 334//334 304//304 307//307
f 310//310 313//313 312//312
f 310//310 312//312 311//311
f 312//312 365//365 330//330
f 312//312 330//330 311//311
f 330//330 329//329 308//308
f 330//330 308//308 311//311
f 314//314 384//382 370//370
f 314//314 370//370 315//315
f 370//370 369//369 366//366
f 370//370 366//366 315//315
f 366//366 365//365 312//312
f 366//366 312//312 315//315
f 318//318 321//321 320//320
f 318//318 320//320 319//319
f 320//320 357//357 362//362
f 320//320 362//362 319//319
f 362//362 361//361 316//316
f 362//362 316//316 319//319
f 322//322 325//325 324//324
f 322//322 324//324 323//323
f 324//324 353//353 358//358
f 324//324 358//358 323//323
f 358//358 357//357 320//320
f 358//358 320//320 323//323
f 326//326 289//289 288//288
f 326//326 288//288 327//327
f 288//288 349//349 354//354
f 288//288 354//354 327//327
f 354//354 353//353 324//324
f 354//354 324//324 327//327
f 330//330 365//365 364//364
f 330//330 364//364 331//331
f 364//364 385//383 386//143
f 364//364 386//143 331//331
f 386//143 387//142 328//328
f 386//143 328//328 331//331
f 334//334 329//329 328//328
f 334//334 328//328 335//335
f 328//328 387//142 388//139
f 328//328 388//139 335//335
f 388//139 389//138 332//332
f 388//139 332//332 335//335
f 338//338 333//333 332//332
f 338//338 332//332 339//339
f 332//332 389//138 390//384
f 332//332 390//384 339//339
f 390//384 391//134 336//336
f 390//384 336//336 339//339
f 342//342 337//337 336//336
f 342//342 336//336 343//343
f 336//336 391//134 392//385
f 336//336 392//385 343//343
f 392//385 393//130 340//340
f 392//385 340//340 343//343
f 346//346 341//341 340//340
f 346//346 340//340 347//347
f 340//340 393//130 394//386
f 340//340 394//386 347//347
f 394//386 395//126 344//344
f 394//386 344//344 347//347
f 350//350 377//375 376//374
f 350//350 376//374 351//351
f 376//374 396//226 397//123
f 376//374 397//123 351//351
f 397//123 398//122 348//348
f 397//123 348//348 351//351
f 354//354 349//349 348//348
f 354//354 348//348 355//355
f 348//348 398//122 399//159
f 348//348 399//159 355//355
f 399//159 400//158 352//352
f 399//159 352//352 355//355
f 358//358 353//353 352//352
f 358//358 352//352 359//359
f 352//352 400//158 401//155
f 352//352 401//155 359//359
f 401//155 402//154 356//356
f 401//155 356//356 359//359
f 362//362 357//357 356//356
f 362//362 356//356 363//363
f 356//356 402//154 403//387
f 356//356 403//387 363//363
f 403//387 404//388 360//360
f 403//387 360//360 363//363
f 366//366 369//369 374//372
f 366//366 374//372 367//367
f 374//372 373//261 405//147
f 374//372 405//147 367//367
f 405//147 385//383 364//364
f 405//147 364//364 367//367
f 370//370 384//382 406//389
f 370//370 406//389 371//371
f 406//389 317//317 316//316
f 406//389 316//316 371//371
f 316//316 361//361 368//368
f 316//316 368//368 371//371
f 374//372 369//369 368//368
f 374//372 368//368 375//373
f 368//368 361//361 360//360
f 368//368 360//360 375//373
f 360//360 404//388 372//284
f 360//360 372//284 375//373
f 378//376 345//345 344//344
f 378//376 344//344 379//377
f 344//344 395//126 407//390
f 344//344 407//390 379//377
f 407//390 396//226 376//374
f 407//390 376//374 379//377
f 382//380 293//293 292//292
f 382//380 292//292 383//381
f 292//292 345//345 378//376
f 292//292 378//376 383//381
f 378//376 377//375 380//378
f 378//376 380//378 383//381
s 4
g P1_TDRSMainBodyGray
usemtl TDRSMainBodyGray
f 408//260 409//391 410//287
f 408//260 410//287 411//392
f 410//287 412//102 413//393
f 410//287 413//393 411//392
f 413//393 414//46 415//231
f 413//393 415//231 411//392
f 415//231 416//230 408//260
f 415//231 408//260 411//392
s 5
g P1_DishMiddle
usemtl DishMiddle
f 417//394 418//395 419//396
f 417//394 419//396 420//397
f 421//398 422//399 423//400
f 421//398 423//400 424//401
f 425//402 426//403 427//404
f 425//402 427//404 428//405
f 429//406 430//407 431//408
f 429//406 431//408 432//409
f 433//410 434//411 435//412
f 433//410 435//412 436//413
f 437//414 438//415 439//416
f 437//414 439//416 440//417
f 441//418 442//419 443//420
f 441//418 443//420 444//421
f 445//422 446//423 447//424
f 445//422 447//424 448//425
f 449//426 450//427 451//428
f 449//426 451//428 452//429
f 453//430 454//431 455//432
f 453//430 455//432 456//433
f 457//434 458//268 459//271
f 457//434 459//271 460//435
f 461//436 462//265 463//437
f 461//436 463//437 464//438
f 465//439 466//267 467//440
f 465//439 467//440 468//441
f 469//442 470//264 471//443
f 469//442 471//443 472//444
f 473//445 474//280 475//282
f 473//445 475//282 476//446
f 477//447 478//277 479//281
f 477//447 479//281 480//448
f 481//449 482//450 483//451
f 481//449 483//451 484//452
f 485//453 486//274 487//454
f 485//453 487//454 488//455
f 489//456 490//272 491//457
f 489//456 491//457 492//458
f 493//459 494//270 495//273
f 493//459 495//273 496//460
f 497//268 498//268 499//271
f 497//268 499//271 500//271
f 501//265 502//461 503//462
f 501//265 503//462 504//437
f 505//267 506//267 507//463
f 505//267 507//463 508//440
f 509//264 510//264 511//464
f 509//264 511//464 512//443
f 513//280 514//280 515//282
f 513//280 515//282 516//282
f 517//277 518//277 519//281
f 517//277 519//281 520//281
f 521//450 522//465 523//466
f 521//450 523//466 524//451
f 525//274 526//274 527//454
f 525//274 527//454 528//454
f 529//272 530//272 531//467
f 529//272 531//467 532//457
f 533//270 534//270 535//273
f 533//270 535//273 536//273
f 537//468 538//218 539//218
f 537//468 539//218 540//468
f 541//469 542//470 543//471
f 541//469 543//471 544//472
f 545//473 546//474 547//285
f 545//473 547//285 548//475
f 549//474 550//476 551//285
f 549//474 551//285 552//285
f 419//396 422//399 421//398
f 419//396 421//398 420//397
f 421//398 554//477 417//394
f 421//398 417//394 420//397
f 423//400 555//478 556//479
f 423//400 556//479 424//401
f 556//479 426//403 425//402
f 556//479 425//402 424//401
f 425//402 554//477 421//398
f 425//402 421//398 424//401
f 427//404 430//407 429//406
f 427//404 429//406 428//405
f 429//406 554//477 425//402
f 429//406 425//402 428//405
f 431//408 434//411 433//410
f 431//408 433//410 432//409
f 433//410 554//477 429//406
f 433//410 429//406 432//409
f 435//412 438//415 437//414
f 435//412 437//414 436//413
f 437//414 554//477 433//410
f 437//414 433//410 436//413
f 439//416 442//419 441//418
f 439//416 441//418 440//417
f 441//418 554//477 437//414
f 441//418 437//414 440//417
f 443//420 542//470 541//469
f 443//420 541//469 444//421
f 541//469 446//423 445//422
f 541//469 445//422 444//421
f 445//422 554//477 441//418
f 445//422 441//418 444//421
f 447//424 450//427 449//426
f 447//424 449//426 448//425
f 449//426 554//477 445//422
f 449//426 445//422 448//425
f 451//428 454//431 453//430
f 451//428 453//430 452//429
f 453//430 554//477 449//426
f 453//430 449//426 452//429
f 455//432 418//395 417//394
f 455//432 417//394 456//433
f 417//394 554//477 453//430
f 417//394 453//430 456//433
f 459//271 494//270 493//459
f 459//271 493//459 460//435
f 493//459 434//411 431//408
f 493//459 431//408 460//435
f 431//408 430//407 457//434
f 431//408 457//434 460//435
f 463//437 458//268 457//434
f 463//437 457//434 464//438
f 457//434 430//407 427//404
f 457//434 427//404 464//438
f 427//404 426//403 461//436
f 427//404 461//436 464//438
f 467//440 462//265 461//436
f 467//440 461//436 468//441
f 461//436 426//403 556//479
f 461//436 556//479 468//441
f 556//479 555//478 465//439
f 556//479 465//439 468//441
f 471//443 546//474 545//473
f 471//443 545//473 472//444
f 545//473 422//399 419//396
f 545//473 419//396 472//444
f 419//396 418//395 469//442
f 419//396 469//442 472//444
f 475//282 470//264 469//442
f 475//282 469//442 476//446
f 469//442 418//395 455//432
f 469//442 455//432 476//446
f 455//432 454//431 473//445
f 455//432 473//445 476//446
f 479//281 474//280 473//445
f 479//281 473//445 480//448
f 473//445 454//431 451//428
f 473//445 451//428 480//448
f 451//428 450//427 477//447
f 451//428 477//447 480//448
f 483//451 478//277 477//447
f 483//451 477//447 484//452
f 477//447 450//427 447//424
f 477//447 447//424 484//452
f 447//424 446//423 481//449
f 447//424 481//449 484//452
f 487//454 538//218 543//471
f 487//454 543//471 488//455
f 543//471 542//470 443//420
f 543//471 443//420 488//455
f 443//420 442//419 485//453
f 443//420 485//453 488//455
f 491//457 486//274 485//453
f 491//457 485//453 492//458
f 485//453 442//419 439//416
f 485//453 439//416 492//458
f 439//416 438//415 489//456
f 439//416 489//456 492//458
f 495//273 490//272 489//456
f 495//273 489//456 496//460
f 489//456 438//415 435//412
f 489//456 435//412 496//460
f 435//412 434//411 493//459
f 435//412 493//459 496//460
f 499//271 534//270 533//270
f 499//271 533//270 500//271
f 533//270 494//270 459//271
f 533//270 459//271 500//271
f 459//271 458//268 497//268
f 459//271 497//268 500//271
f 503//462 498//268 497//268
f 503//462 497//268 504//437
f 497//268 458//268 463//437
f 497//268 463//437 504//437
f 463//437 462//265 501//265
f 463//437 501//265 504//437
f 507//463 502//461 501//265
f 507//463 501//265 508//440
f 501//265 462//265 467//440
f 501//265 467//440 508//440
f 467//440 466//267 505//267
f 467//440 505//267 508//440
f 511//464 550//476 549//474
f 511//464 549//474 512//443
f 549//474 546//474 471//443
f 549//474 471//443 512//443
f 471//443 470//264 509//264
f 471//443 509//264 512//443
f 515//282 510//264 509//264
f 515//282 509//264 516//282
f 509//264 470//264 475//282
f 509//264 475//282 516//282
f 475//282 474//280 513//280
f 475//282 513//280 516//282
f 519//281 514//280 513//280
f 519//281 513//280 520//281
f 513//280 474//280 479//281
f 513//280 479//281 520//281
f 479//281 478//277 517//277
f 479//281 517//277 520//281
f 523//466 518//277 517//277
f 523//466 517//277 524//451
f 517//277 478//277 483//451
f 517//277 483//451 524//451
f 483//451 482//450 521//450
f 483//451 521//450 524//451
f 527//454 557//218 539//218
f 527//454 539//218 528//454
f 539//218 538//218 487//454
f 539//218 487//454 528//454
f 487//454 486//274 525//274
f 487//454 525//274 528//454
f 531//467 526//274 525//274
f 531//467 525//274 532//457
f 525//274 486//274 491//457
f 525//274 491//457 532//457
f 491//457 490//272 529//272
f 491//457 529//272 532//457
f 535//273 530//272 529//272
f 535//273 529//272 536//273
f 529//272 490//272 495//273
f 529//272 495//273 536//273
f 495//273 494//270 533//270
f 495//273 533//270 536//273
f 539//218 557//218 558//480
f 539//218 558//480 540//468
f 558//480 522//465 521//450
f 558//480 521//450 540//468
f 521//450 482//450 537//468
f 521//450 537//468 540//468
f 543//471 538//218 537//468
f 543//471 537//468 544//472
f 537//468 482//450 481//449
f 537//468 481//449 544//472
f 481//449 446//423 541//469
f 481//449 541//469 544//472
f 547//285 466//267 465//439
f 547//285 465//439 548//475
f 465//439 555//478 423//400
f 465//439 423//400 548//475
f 423//400 422//399 545//473
f 423//400 545//473 548//475
f 551//285 506//267 505//267
f 551//285 505//267 552//285
f 505//267 466//267 547//285
f 505//267 547//285 552//285
f 547//285 546//474 549//474
f 547//285 549//474 552//285
